<?xml version="1.0" encoding="UTF-8"?>
<svg id="_Слой_2" data-name="Слой 2" xmlns="http://www.w3.org/2000/svg" viewBox="0 0 208.01 229.61">
  <defs>
    <style>
      .cls-1, .cls-2 {
        stroke-width: 0px;
      }

      .cls-2 {
        fill: #84ba33;
      }
    </style>
  </defs>
  <g id="_Абдулино" data-name="Абдулино">
    <g>
      <path class="cls-2" d="M33.48,27.32c-1.51.83-3.84,2.11-4.5,4.5-.68,2.45,1.1,3.5,1.5,6.5.42,3.2-1.71,6.51-6,13-3.06,4.63-4.59,6.95-6,8-2.91,2.18-6.69,3.46-11.5,6.5-.48.3-1.93,1.24-3,3-.4.66-1.01,1.69-1,3,.02,1.65,1.02,2.09,1.5,3.5,1.16,3.42-3.15,5.83-2,9,.78,2.16,3.05,2.33,3,4-.06,1.76-2.6,1.97-3,4-.35,1.75,1.32,2.68,3,6,1.85,3.64.8,4.39,2,6,3.54,4.75,14.4.55,16,4,.78,1.67-1.62,2.97-1,6,.66,3.21,3.71,3.51,4,6,.41,3.62-5.68,5.91-5,8,.56,1.72,4.83.63,11,3,2.92,1.12,6.61,2.54,7,5,.59,3.7-6.82,6.42-6,10,.55,2.4,4.35,3.29,4,5-.23,1.1-1.9,1.1-2,2-.19,1.67,5.58,1.95,8,6,1.67,2.8.39,5.11,2,6,1.76.97,5.29-.7,6-3,.55-1.79-1.02-2.62-1-5,.04-3.93,4.36-7.66,6-7,1.09.44.22,2.49,2,5,1.36,1.92,3.27,2.71,4,3,.61.24,4.29,1.71,7,0,1.76-1.11,1.47-2.53,3-3,1.87-.57,2.9,1.35,5,1,2.4-.4,3.15-3.27,4-3,1.42.45-1.61,8.05,2,12,.24.26,1.79,1.91,4,2,4.82.19,6.62-7.34,10-7,3.5.35,6.13,8.87,7,13,.93,4.41.68,7.8,3,9,1.24.64,2.86.48,4,0,2.68-1.12,2.88-4.07,4-4,1.34.08,3.31,4.43,2,8-1.03,2.81-3.28,2.92-9,7-6.42,4.58-5.67,5.92-9,7-5.72,1.85-9.95-1.45-12,1-1.13,1.35-.97,3.71,0,5,1.86,2.49,7.39,1.97,11,0,2.68-1.46,3.87-3.49,5-3,1.31.57.2,3.49,2,5,1.51,1.27,4.27.85,6,0,2.38-1.17,2.6-3.03,4-3,1.78.04,1.79,3.1,4,4,2.6,1.06,4.69-2.33,11-4,2.44-.65,5.52-1.46,7,0,1.57,1.55-.22,4.11,0,8,.37,6.6,6.32,13.52,12,14,2.72.23,3.15-1.21,9-3,2.08-.64,6.73-2.06,12-2,7.35.09,10.92,3,18,2,1.23-.17,3.52-.6,4-2,.54-1.57-1.54-3.33-1-4,.52-.65,2.51.91,5,1,3.09.11,6.48-2.04,8-5,2.45-4.78-.13-11.33-3-12-1.7-.4-2.6,1.49-4,1-2.59-.91-.46-7.75-4-13-1.89-2.8-4.04-3.13-7-5-7.38-4.65-5.61-9.91-14-23-7.15-11.17-11.41-11.97-12-19-.25-2.96.21-6.28-2-8-2.37-1.85-4.83.48-9-1-3.44-1.22-3.17-3.3-8-7-3.27-2.51-3.54-1.66-9-5-5.16-3.15-5.01-3.97-10-7-6.54-3.98-7.13-2.79-9-5-2.86-3.38-1.24-5.89-4-15-1.13-3.73-1.28-2.91-3-8-1.28-3.79-1.73-5.82-4-15-2.28-9.22-1.85-7.25-3-12-3.49-14.4-2.99-14-4-16-3.79-7.5-8.05-7.65-9-14-.48-3.2.37-4.74-1-8-1.43-3.42-3.17-3.64-4-7-.72-2.89-.2-5.83,0-7,.58-3.34,1.59-4.27,1-5-1.11-1.37-5.73.67-11,3-5.23,2.31-6.51,3.52-7,4-.85.85-3.24,3.27-4,7-.77,3.79,1.02,4.55,0,8-.76,2.55-2.37,4.27-4,6-1.87,1.99-2.87,2.93-4,3-3.47.2-4.06-6.61-9.5-8.5-4.16-1.45-8.45.92-9.5,1.5Z"/>
      <path class="cls-1" d="M34.73,29.59c-2.13,1.19-3.37,2.02-3.32,3.51.46,1.44,1.4,3.02,1.58,4.9.19,1.57-.07,3.15-.52,4.41-1.25,3.43-3.36,6.33-5.25,9.25-2.43,3.33-4.26,7.29-7.69,9.88-3.38,2.32-7.05,3.65-10.38,5.72-1.78.97-2.8,1.93-3.62,3.61-.27.59-.25,1.14-.14,1.31,1.96,2.63,2.08,5.44.42,8.27-.67,1.38-1.34,2.02-1.21,3.01.28.95,1.37,1.3,2.12,2.22,1.34,1.32,1.28,3.92-.02,5.24-.9.93-1.54,1.21-2.01,1.79-.02.01-.02.06-.03.07,0,.01-.01-.03,0,.01-.05.15,1.25,1.94,1.43,2.22.67,1.02,1.28,2.09,1.78,3.25.5,1.1.93,2.62,1.04,3.79.08.57.1.63.19.8.58.89,1.45,1.25,2.68,1.53,1.8.37,3.95.3,6.22.29,2.83-.12,7.67.33,7.71,4.37-.02,1.39-.83,2.51-1.18,3.64-.29,1.73.33,2.41,1.84,3.74,2.91,2.33,2.69,6.1.19,8.64-1.09,1.22-2.38,2.13-3.15,3.15,0,0-.01.01-.02.01.06-.1.04-.24.04-.36-.06-.22-.18-.51-.35-.59-.22-.11.22.1.68.15,4.81.5,18.86,3.24,17.56,10.18-.43,2.35-2.57,4.09-4.08,5.56-.91.94-1.85,1.66-1.94,2.66.2,1.01,1.29,1.41,2.46,2.46.75.64,1.4,1.34,1.56,2.57.05.75-.18,1.51-.62,2.06-.6.72-1.22.98-1.74,1.28-.03.01.07-.04.15-.18.12-.16.18-.39.18-.62,0-.23-.1-.48-.17-.57-.07-.11-.1-.11-.08-.1.03.03.2.14.38.24,5.57,2.4,8.62,4.54,8.95,10.9-.02-.01-.06-.08-.06-.06.04.03.28.1.61.06,1.01,0,3.05-1.35,2.98-2.34.08-.24-.74-1.51-1-3.01-.46-2.87.87-5.47,2.7-7.46,2.02-2.36,6.53-4.11,7.16.31.18,2.07,1.24,3.86,3.13,4.92,2.22,1.2,5.48,2.09,7.34.23.43-.49,1.01-1.77,1.87-2.24,1.11-.76,2.8-.7,3.82-.19.63.27,1.09.54,1.43.65,2.3.83,2.8-2.83,4.92-2.91,2.54.05,2.13,3.05,1.97,4.68-.2,2.18-.31,4.28.27,6.03.71,2.38,3.54,4.29,5.83,2.87,2.3-1.42,3.44-4.35,5.87-5.87,1.24-.95,3.57-.64,4.64.42,0,0,.41.35.41.35l.34.37c2.63,2.93,3.16,6.96,4.14,10.56.31,1.1.5,2.23.97,3.28.5,1.98.46,4.4,1.37,6.1.82,1.51,3.29,1.39,4.55.49,1.01-.62,1.54-1.95,2.28-3.07.82-1.21,2.31-.97,3.12-.18,2.72,2.69,3.45,7.15,1.44,10.48-1.05,1.71-3.04,2.7-4.52,3.62-2.76,1.66-5.48,3.51-7.86,5.61-1.73,1.53-3.4,3.8-5.8,4.48-3.28,1.34-7.28.56-10.5.28-1.3-.07-1.32,1.28-1.05,2.31,1.12,2.7,7.11,1,9-.2,1.85-.91,3.38-3.53,5.88-3.14,1.14.1,2.25,1.49,2.38,2.3.35,1.32.17,2.02.55,2.92.24.43.54.46,1.09.55,1.45.09,3.26-.43,4.27-1.66.33-.33.57-.79,1.48-1.5,1.01-.83,2.8-.86,3.89-.1,1.28.83,1.7,2.16,2.45,3.16.34.39.45.48.89.44.43-.06,1.41-.61,2.36-1.15.97-.56,2.03-1.14,3.14-1.63,3.86-1.47,11.06-4.46,13.71.37,1.02,2.23.04,4.3-.1,6.15-.4,2.89.46,5.58,1.99,8.09,1.92,2.94,4.92,5.86,8.56,5.84.73-.15,1.58-.55,2.38-.96,5.37-2.44,11.15-3.97,17.08-4.12,6.61-.36,12.86,3.25,19.3,1.78.42-.1.8-.22,1.03-.34.26-.11.23-.22.09.04-.05.12-.09.28-.08.35,0,.06,0,.02-.03-.08-.19-.47-.9-1.58-1.06-2.34-.47-1.5.67-3.47,2.42-3.64.76-.12,1.75.17,2.15.32,0,0,.82.29.82.29.96.34,1.71.53,2.38.5,3-.12,6.13-3.07,6.13-6.3.08-2.02-.48-4.49-2-5.71-.03-.03-.02.01-.02,0,0,0,0-.02.04,0,.14.03.34-.09,0,.09-2.6,1.82-5.6,1.25-6.86-1.71-.64-1.58-.68-3.61-.86-5.03-.79-9.68-5.46-7.66-11.17-12.97-3.56-3.3-4.95-8.31-6.92-12.45-1.77-3.91-3.95-7.61-6.39-11.16-1.22-1.77-2.52-3.46-3.9-5.12-2.11-2.6-5.03-5.43-6.26-8.93-.86-2.32-.92-5.08-1.01-7.34-.11-1.31-.17-2.4-1.05-2.8-.19-.08-1.12,0-2.39.16-2.74.34-6.03-.27-8.34-2.06-1.83-1.48-3-3.44-4.77-4.89-2.27-2.23-5.33-3.15-8.11-4.71-5.07-2.65-8.9-6.62-13.86-9.21-1.32-.76-2.84-1.4-4.23-1.95-3.49-1.08-5.95-5.46-6.2-8.85-.44-3.45-.91-6.23-1.88-9.4-.95-3.22-2.52-6.08-3.45-9.32-3.57-12.59-7.04-26.4-9.82-39.1-.32-1.93-1.24-3.39-2.27-4.96-1.08-1.64-2.41-2.94-4.09-4.78-1.79-1.84-3.28-4.87-3.59-7.47-.42-2.2.05-4.42-.42-6.32-.54-2.61-2.91-4.17-3.95-6.87-1.76-4.37-.82-10.44.62-13.9-.1.9.8,2,1.49,2.01-.19,0-.57.06-1.03.18-4.19,1.32-9.08,3.45-12.84,5.66-2.67,1.95-4.72,5.33-4.21,8.68,1.84,6.24-2.9,11.54-7.23,15.33-2.45,2.19-6.05,1.69-8.06-.98-1.54-1.93-2.22-3.59-3.78-5.08-2.6-2.5-6.32-1.65-9.36.03h0ZM32.23,25.06c4.45-2.74,11.4-3.49,15.46.63,1.99,1.69,3.11,4.33,4.71,5.95.02,0,.03,0,.04.02.02.03,0,0-.01-.01-.01-.02-.04.02-.05,0-.03-.04-.05,0-.13,0-.15.04.02,0,.31-.24.28-.23.63-.57.99-.93,2.48-2.64,5.43-5.18,4.18-9.2-.93-4.76,1.44-9.7,4.79-12.96,2.36-2.21,5.4-3.45,8.06-4.7,2.04-.91,4.09-1.84,6.36-2.67,2.68-.96,6.51-1.99,8.27,1.31.64,1.3.27,2.69-.13,3.78-.65,1.83-.97,3.82-1.03,5.68-.11,3.86,1.11,4.49,3.14,7.43,1.44,2.2,2.28,5.46,2.13,7.94-.04,2.89.28,5.04,2.33,7.19,3.1,3.15,7.03,7.68,7.86,12.42,2.93,12.3,6.1,26.54,9.46,38.64.91,3.17,2.56,6.29,3.44,9.47,1,3.22,1.64,7.04,2.01,10.22.25,1.71.49,2.54,1.51,3.66.4.36.35.35,1.08.65,3.87,1.52,7.42,3.6,10.79,6.09,3.51,2.82,6.73,5.08,10.66,6.88,3.28,1.32,6.58,3.96,8.9,6.69,0,0,1.06,1.25,1.06,1.25,1.72,2.15,4.31,1.87,6.88,1.57,2.62-.43,5.86,1.32,6.82,3.75,1.66,3.56.45,6.79,1.61,10.13,1.08,2.81,3.27,4.74,5.28,7.3,4.38,5.33,8.11,11.23,10.95,17.54,2.01,4.15,3.06,9.01,6.74,11.76,1.07.82,2.56,1.66,3.91,2.34,5.04,2.16,7.46,7.95,7.71,13.01.19,1.36.19,2.76.46,3.58-.21-.31-.69-.44-1.05-.37-.3.1.08-.05.74-.45,6.05-3.23,10.03,5.51,9.46,10.42-.36,7.74-8.74,13.39-15.97,9.89-.2-.08-.43-.12-.22-.09,0,0,.22.02.34-.01.15-.02.53-.11.78-.29.33-.2.58-.49.75-.81.17-.37.22-.6.22-.87,0-.25,0-.28-.04-.43-.01-.06-.01-.07-.03-.1l.07.14c2.4,3.75.95,7.33-3.7,8.23-6.94,1.73-13.56-1.89-20.31-1.81-4.14.02-8.38,1.03-12.29,2.38-2.35.69-4.19,2.19-6.73,2.52-3.18.2-5.65-1.02-7.77-2.49-4.1-3.08-6.97-7.51-7.66-12.66-.38-2.21.24-5.13.55-7.09.04-.39-.01-.58,0-.5-1.13-.47-3.69.2-5.19.63-3.45.73-5.87,3.14-9.32,4.06-2.68.58-5.01-1.48-6-3.66-.23-.45-.51-.74-.34-.58.09.05.27.12.39.1.11,0,.37-.1.37-.12-.9,1.08-2.74,2.85-4.4,3.28-2.05.7-4.52.98-6.6-.22-.8-.45-1.52-1.25-1.91-2.07-.59-1.09-.62-2.71-.78-3.59-.02-.06,0,.13.3.36.22.22.67.25.9.2-.74.54-2.25,1.93-3.55,2.62-2.27,1.28-4.69,1.96-7.28,2.09-2.79.25-6.64-1.02-7.45-4.15-.74-2.29-.23-5.43,2.18-6.75,2-1.08,4.31-.42,6.1-.22,1.99.29,3.87.25,5.73-.38,1.92-.6,2.96-2.45,4.57-3.71,2.65-2.3,5.48-4.2,8.46-5.96,1.3-.82,2.56-1.34,3.34-2.43,1.06-1.92,1-4.84-.11-6.75-.07-.13-.16-.12.05-.12.05,0,.13,0,.19-.04.05,0,.12-.04.12-.09-.9,1.09-1.5,2.55-2.97,3.41-2.26,1.43-5.87,1.4-7.38-1.1-1.8-3.25-1.17-6.7-2.08-10.07-.62-2.09-1.43-4.16-2.57-5.97-.78-1.32-1.96-3.63-3.36-3.92-.21.03-.4,0-.71.22-1.21.8-2,2.14-3.06,3.34-1.55,1.97-4.16,3.94-6.95,3.39-2.79-.49-5.02-2.61-5.87-5.19-1.12-3.29-.36-6.24-.4-9.3,0-.05-.02.01.09.17.17.39,1.07.66,1.47.3,0,.01-.01.02-.03.03l-.08.1c-2.14,3.07-4.69,4.03-8.07,2.14-.55-.2-.86-.23-1.15.16-3.77,7.16-15.88,2.84-16.9-4.3,0,0-.15-.86-.15-.86-.04-.26-.1-.45-.09-.42.07.18.4.43.58.41-2.14.76-4.26,3.97-3.82,6.06.22,1.05.99,2.11,1.07,3.31.08,3.35-2.93,5.59-6,6.04-1.24.2-3.17-.3-3.89-1.66-.63-.99-.56-2.25-.69-3.13-.3-3.74-3.88-4.93-6.94-6.36-2.67-1.22-2.84-4.17-.04-5.42.17-.1.21-.16.12-.06-.08.11-.18.31-.14.5-.01.2.12.29.03.21-1.31-1.19-4.07-2.74-4.12-5.27-.23-3.55,3.4-5.63,5.23-7.88.42-.56.79-.99.76-1.58-.01-.29-.35-.81-1.09-1.32-1.42-1-3.59-1.79-5.55-2.49-1.96-.67-3.96-1.03-6.13-1.28-1.88-.21-4.49-.44-5.22-2.59-1.15-3.74,4.29-5.43,4.85-8.26-.02-.61-.27-.71-.83-1.26-1.28-.93-3.24-3.33-3.28-5.42-.3-1.7.63-3.74,1.19-5.01,0,.18.08.28.08.27-3.17-.93-6.94.15-10.69-.69-2.44-.39-5.44-2.14-6.13-4.86-.32-1.4-.32-2.46-.95-3.7-.61-1.34-1.5-2.72-2.39-3.93-.33-.51-.78-1.08-1.09-2.11-.68-1.83.54-4.32,1.95-5.23.54-.43.93-.72.99-.81.01-.03-.02.03-.07.15-.03.11-.03.16,0,.32.14.37.19.26-.24-.06-1.01-.71-2.53-2.25-2.8-3.75-.75-2.14.73-4.93,1.55-6.33.47-.88.66-1.52.59-1.88-.13-.89-.55-.96-1.15-2.2-1.04-2.3-.48-4.36.51-6.15,2.82-5.06,9.25-6.79,13.78-9.65.6-.38,1.18-.73,1.71-1.17,2.28-2.35,3.96-5.53,5.88-8.29,1.2-1.85,2.42-3.7,3.41-5.51.79-1.55,1.68-3.17,1.47-4.77-.13-1.43-1.23-2.82-1.57-4.56-.88-4.07,2.66-7.54,5.83-9.04h0Z"/>
    </g>
  </g>
</svg>