<?xml version="1.0" encoding="UTF-8"?>
<svg id="_Слой_2" data-name="Слой 2" xmlns="http://www.w3.org/2000/svg" viewBox="0 0 428.82 290.34">
  <defs>
    <style>
      .cls-1 {
        fill: #008f46;
      }

      .cls-1, .cls-2 {
        stroke-width: 0px;
      }

      .cls-2 {
        fill: #080000;
      }
    </style>
  </defs>
  <g id="_Адамовский" data-name="Адамовский">
    <g>
      <path class="cls-1" d="M222.91,32.98h0s.99.99,1,1c1.65,1.65,12.01,9.28,16,16,3.38,5.69,2.83,11.81,2.5,15.5-.35,3.93-1.02,11.7-7,17-5.92,5.25-13.25,5.11-19,5-8.26-.16-14.27-2.87-19-5-8.11-3.65-13.45-8.16-18-12-12.71-10.71-14.08-16.62-21.5-17.5-3.22-.38-3.35.68-13.5,3.5-10.95,3.04-17.33,4.81-24.5,4.5-9.12-.39-15.68-3.99-23-8-4.85-2.66-10.07-7.27-20.5-16.5-5.4-4.77-7.87-7.29-8-11-.13-3.73,2.14-7.84,5.5-9.5,4.56-2.25,9.78.64,10,0,.25-.74-7.49-2.05-15-8-2.87-2.28-4.6-4.36-7-4-2.74.41-4.3,3.68-5,5-2.02,3.84-8.68,8.89-22,19-12.03,9.13-14.59,9.08-21,16-2.87,3.1-6.11,7.16-8,13-.97,3-2.26,7.15-1,12,1.43,5.51,6.03,11.48,10,11,2.68-.32,2.08-3.21,7-7,5.93-4.56,12.74-4.95,14-5,.95-.04,1.68-.01,2,0,8.89.4,14.79,5.86,16.5,7.5,2.9,2.77,1.85,2.95,4.5,5.5,6.47,6.24,11.63,4.09,15.5,8.5,2.96,3.38,2.64,8.25,2,18-.37,5.57-.73,11.08-3.5,17.5-1.55,3.59-5.2,8.22-12.5,17.5-5.08,6.45-7.62,9.68-8.5,10.5-2.66,2.48-4.41,3.53-5,6-.83,3.46,1.87,4.58,2,9,.16,5.72-4.24,7.41-3,11,1.01,2.93,4.16,2.41,7,7,.38.61,1.45,2.44,2,5,.92,4.27-.64,5.7,0,9,.59,3,2.74,6.21,5.5,7.5,3.97,1.85,7-1.35,14-3,2.61-.61,13.01-3.06,22,2,1.19.67,9.56,5.54,11,14,1.2,7.07-3.3,11.57-1,14,2.76,2.92,9.59-3.21,16,0,5.5,2.75,6.75,10.45,7,12,.28,1.75.47,4.41-2.5,15.5-3.07,11.46-4.84,14.46-3,17,2.2,3.05,8.12,3.43,9.5,1.5,1.82-2.55-5.08-8.09-3-12,1.6-3.01,7.21-3,9-3,5.11,0,7.56,1.96,11,3,10.46,3.16,14.24-6.87,33-9,5.28-.6,8.84-.24,13-3,1.3-.86,2.96-2.23,8-9,5.57-7.49,5.33-8.23,7-10,6.45-6.86,14.29-.35,33-4,11.77-2.29,18.34-6.76,27-3,2.68,1.16,2.11,1.62,5,3,6.8,3.26,13.86,2.6,30-1,13.6-3.03,21.38-5.41,22-4,.66,1.5-8.27,3.92-10,11-1.14,4.64,1.94,6.69,4,18,1.11,6.11,1.64,9.2,0,11-3.34,3.67-10.59-1.83-16,2-4.18,2.96-5.69,10.38-3,14,1.77,2.38,4.54,2.03,16,2,18.21-.04,22.37.81,27-3,1.26-1.04,3.98-3.28,5-7,1.7-6.22-3.16-9.92-5-21-.91-5.49-1.36-8.24,0-11,4.36-8.83,24.17-11.45,31-4,4.68,5.11.94,12.43,8,21,1.79,2.17,3.3,4.01,6,5,5.47,2.01,8.83-2,20-4,7.69-1.38,9.44-.08,11-2,2.97-3.66-2.47-9.51-6-24-.6-2.46-.09-.83-3-21-1.75-12.1-2.62-18.15-3-20-2.64-12.9-4.43-14.08-3-18,1.75-4.78,6.66-9.2,12-14,3.32-2.99,5.16-4.16,5-6-.29-3.27-6.37-2.8-11-8-3.68-4.13-1.63-6.43-6-15-3.46-6.77-5.27-6.38-6-10-1.85-9.14,8.92-15.67,7-19-2.24-3.89-17.22,4.52-42,7-17.15,1.71-16.58-1.66-30,1-8.84,1.75-16.63,4.7-25,1-4.42-1.96-3.77-3.46-8-5-10.41-3.8-17.77,4.04-23,0-3.36-2.59-4.14-8.76-2-12,2.43-3.67,7.01-1.1,12-5,4.37-3.41,2.26-6.47,8-14,2.66-3.49,3.47-3.3,7-8,4.68-6.23,4.96-8.84,5-10,.02-.58.21-5.82-3-8-3.48-2.37-6.96,1.57-16,2-5.42.26-9.77-.89-14-2-4.5-1.18-7.74-2.59-11-4-4.6-1.99-4.94-2.53-12-6-10.52-5.17-9.54-3.61-13-6-3.67-2.53-9.07-7.21-12.5-8.5-.29-.11-1.08-.39-2-1-1.65-1.1-1.98-2.11-3-3-1.89-1.64-5.22-2.04-6-1-.83,1.1,1.05,3.99,3,7,.51.79,2,3,2,3Z"/>
      <path class="cls-2" d="M225.98,29.44s1.31,1.35,1.31,1.35c.09.14.88.79,1.06.97,11.76,10.36,20.37,17.63,17.86,34.65-1.09,14.6-9.97,24.47-25.12,24.59-7.21.31-14.76-.87-21.29-3.77-8.73-3.38-16.78-8.97-23.64-15.13-3.51-2.99-6.85-6.34-9.97-9.69-3.13-3.25-6.23-7.17-10.95-5.8-7.63,2.66-15.18,4.73-23.15,6.58-9.25,2.3-20.02,1.36-28.62-2.88-4.35-2.09-8.49-4.12-12.44-6.88-3.91-2.81-7.34-5.81-10.79-8.79l-5.12-4.48c-3.68-3.42-8.29-6.59-9.94-11.79-1.62-6.45,1.46-12.76,7.22-15.82,3.7-1.82,7.85-1.29,11.56-.27.05.01.16.03-.01,0,.22.68-1.16-1.97-3.81,3.22.81,4.55,1.66,2.85,1.6,3.44.07.04.03.02-.02,0l-.61-.24-1.58-.59c-5.59-2-11.15-5.22-15.59-9.19-.77-.65-1.49-1.07-1.56-1.06-.04,0,.1.02.12.01-1.17.84-1.91,2.91-2.9,4.34-3.74,5.04-8.66,8.43-13.37,12.27-5.43,4.18-10.79,8.47-16.46,12.38,0,0-5.6,3.8-5.6,3.8-5.05,3.49-9.34,8.04-12.3,13.34-2.39,4.78-4.33,10.99-2.01,15.78.87,2.13,2.47,4.49,4.29,5.59.4.24.52.06.07.17-.22.04-.64.25-.84.44.26-.54,2.07-3.18,3.06-4.14,5.74-5.93,13.96-8.78,22.06-8.44,9.22.59,17.97,5.67,22.91,13.37,2.5,2.89,5.69,4.11,9.45,5.15,2.84.8,6.15,2.82,7.95,5.44,4.09,6.01,2.61,13.23,2.42,19.67-.31,5.95-.95,12.33-3.18,18.03-2.16,5.92-6.31,10.56-9.93,15.4-2.03,2.6-9.66,12.28-11.78,14.77-1.06,1.29-2.95,2.79-3.99,3.79-.3.29-.5.51-.59.65-.1.14-.12.18-.16.28-.03.09-.08.29-.07.28,0,.32.63,1.3,1.22,2.9,1.19,3.15,1.23,6.67.13,9.86-.7,2.06-1.7,3.44-2.44,4.88-.05.14-.02.1,0-.12.01-.08-.01-.2-.02-.25,0-.05-.04-.08-.04-.12-.01-.06-.19-.27-.17-.24.01.07,1.13.73,2.36,1.6,4.94,3.68,7.62,9.94,7.3,16.05-.15,2.62-.78,2.99-.23,4.93.44,1.57,1.75,3.3,3.07,3.76.17.05.58.06,1.39-.17,1.97-.6,4.21-1.61,6.37-2.22,9.67-2.77,20.95-2.57,29.33,3.57,6.2,4.45,11.26,11.85,10.18,19.81-.31,3.1-1.65,5.58-2.15,8.11-.04.4-.02.34.02.52.23.31.55.27,1.11.27,2.05-.2,4.32-.97,6.52-1.25,4.9-.94,10.78,1.65,13.44,6.09,2.74,4.34,3.62,9.58,2.59,14.56-1.23,6.73-3.21,13.46-5.08,19.95-.37,1.47-.8,2.71-.74,4.07.01.28.08.37.18.56.7.97,2.42,1.73,3.79,1.73.49,0,1.45-.01,1.76-.24-.01,0,.02,0-.02.02-.05.03-.07.07-.1.12-.1.13-.16.31-.16.41-.01.15,0-.1-.16-.45-.29-.72-.85-1.67-1.42-2.67-5.81-9.26,1.08-13.77,9.91-13.46,2.52-.03,5.26.54,7.57,1.48,2.04.84,3.79,1.63,5.83,1.96,4.03.59,7.44-1.66,11.12-3.52,2.05-1.05,4.18-2.09,6.42-2.96,4.46-1.77,9.22-2.75,13.91-3.25,2.34-.24,4.56-.33,6.4-.73,4.1-.81,6.36-3.61,8.92-6.91,1.35-1.74,2.68-3.54,3.97-5.34,2.83-3.65,4.55-8.33,8.85-10.69,4.84-2.64,10.66-1.48,15.79-1.33,8.88.53,17.16-1.09,25.72-3.75,5.25-1.59,11.3-2.86,16.83-.95,1.5.51,3.44,1.3,4.74,2.34,5.1,3.84,11.47,3.45,17.91,2.48,7.66-1.17,18.58-3.98,26.26-5.76,2.48-.56,4.78-1.16,7.43-1.26.46.01.93-.02,1.89.26.44.14,1.22.44,1.96,1.32.79.89,1.06,2.5.69,3.53-.29.88-.68,1.33-.92,1.62-1.25,1.4-3.11,2.25-4.4,3.25-2.74,2.05-5.2,4.33-4.61,7.76.32,1.5,1.3,3.81,2.01,6.05,1.11,3.37,1.87,6.9,2.48,10.36.52,3.47,1.55,7.07-.18,10.65-2.25,4.27-7.37,4.36-11.43,3.55-2.37-.28-4.78-.83-6.59.85-1.93,1.92-2.97,5.65-1.85,8.13.12.18.23.38.26.38.03.02-.04,0,.15.06.3.13,1.28.26,2.26.3,7.61.16,15.85-.13,23.54,0,3.85-.16,7.71.35,10.92-1.73,5.24-3.97,5.54-7.11,2.7-13.2-1.82-4.19-3.25-9.39-3.85-13.89-.42-2.69-.82-5.12-.33-8.08,1.85-8.81,11.65-12.64,19.58-13.5,8.05-.9,18.48,1.29,21.62,9.89,1.72,4.94,1.1,8.7,3.06,12.87,0,0,.62,1.2.62,1.2,0,0,.73,1.16.73,1.16.54.74,1.08,1.47,1.81,2.33,1.99,2.6,4.45,3.92,7.64,2.67,6.86-2.61,14.81-4.82,22.33-4.92.44-.02.75-.11.51-.04-.78.41-.55.41-.65.52.1-.69-.87-3.31-1.25-4.26-2.37-5.95-4.84-12.25-5.99-18.63-1.64-12.77-3.68-25.66-5.59-38.34-.87-5.23-2.65-10.04-3.59-15.16-1.1-9.64,9.96-17.67,16.2-23.51.4-.36.76-.69,1.03-.96.27-.26.41-.49.32-.34-.1.13-.28.82-.19,1.22.06.25.13.5.27.72.1.11.09.17.16.24.07.07.13.12.12.12-2.69-1.37-5.93-2.44-8.73-4.98-1.11-.96-2.09-2-3.01-3.32-1.64-2.22-2.35-5.41-2.88-7.79-.72-2.9-1.96-5.59-3.45-8.21-1.35-2.21-1.98-2.89-3.79-5.27-3.99-6.73-1.29-13.42,1.4-17.65,1.31-2.06,3.02-4.16,4.04-6.03-.01.05-.06.18-.06.54,0,.36.13.89.33,1.24.33.61.91,1.16,1.58,1.34-1.57.04-4.19.72-6.1,1.22-13.3,3.7-27.02,7.09-41.01,7.31-6.66.16-13.09-1.77-19.75-.62-9.35,1.38-19.36,5.36-28.75,1.36-2.21-.72-4.77-2.54-6.53-4.05-2.92-1.66-6.46-1.84-9.85-1.05-4.45,1.07-10.94,3.88-15.69.67-6.48-4.04-8.34-14.33-3.32-20.32.97-1.1,2.28-2,3.62-2.55,1.62-.71,4.33-1.02,5.52-1.24,1.9-.43,3.49-1.04,4.5-2.65.77-1.57,1.86-4.56,2.99-6.31,1.35-2.29,2.9-4.24,4.69-6.17,2.5-2.5,4.82-4.33,6.82-7.16,2.15-3.02,4.43-5.92,3.48-9.6-.21-1.18-.69-2.12-1.44-2.52-1.06-.13-3.08.67-4.52,1.07-4.66,1.46-9.9,2.03-14.81,1.48-11.79-1.33-22.52-6.5-32.9-11.88-2.99-1.43-5.89-2.79-8.97-3.88-2.41-.67-4.94-2.4-6.87-3.82-2.42-1.74-5.57-4.21-8-5.59-.72-.43-1.34-.7-2.07-.96-1.78-.68-3.45-1.74-4.75-3.16-1.2-1.36-1.22-1.68-2.64-1.81.44-.02,1.38-.53,1.83-1.23.55-.82.71-1.57.62-2.29.95,2,2.78,4.15,3.86,6.18h0ZM219.84,36.51c-1.26-1.71-2.49-3.5-3.57-5.33-1.11-1.89-2.23-3.6-2.82-5.99-.34-1.53-.2-3.27.84-4.75.81-1.13,1.87-1.74,2.97-2.1,2.79-.78,5.63-.07,8.01,1.31.79.47,1.68,1.19,2.29,1.9,1.1,1.35,1.25,1.77,2.59,2.41,5.41,2.25,9.55,6.64,14.24,9.75.85.54,1.32.71,2.34,1.1,5.44,2.14,10.6,4.84,15.73,7.58,9.16,4.81,19.83,9.14,30.24,8.42,2-.19,3.92-.62,5.96-1.23,2.55-.77,5.83-2.02,8.67-1.05,5.96,2.08,7.47,9.18,6.26,14.57-1.89,5.62-5.42,10-9.09,14.38-2.76,2.95-4.73,6.23-5.8,10.06-.99,4.62-3.61,8.66-8.11,10.83-2.39,1.34-5.9,1.65-8.08,2.09-.03-.01.07-.01.08-.06.04-.01.08-.06.09-.09.05-.09-.13.23-.26.69-.48,1.33.15,4.17,1.02,4.71.04.01.04.11.09.09.04,0,.07.03.1.07.6.08,1,.17,2.13-.04,4.27-.85,10-2.41,14.86-1.39,1.38.17,2.76.7,4.04,1.1,2.43.75,4.76,2.65,6.53,4.31,8.22,5.42,17.6,1.08,26.7-.56,4.59-1.01,9.74-1.18,14.47-.86,4.33.16,8.48-.05,12.8-.47,10.86-.91,21.85-3.61,32.46-6.53,4.07-.89,8.66-2.71,12.76-.27,2.38,1.47,3.35,4.87,2.45,7.35-1.53,4.73-6.3,8.06-7.05,12.76-.13,1.12-.18,2.37.39,3.32,2.86,3.42,5.73,8.19,7.28,12.59.88,2.05,1.34,4.93,1.88,6.86,1.15,3.6,4.33,4.97,7.85,6.54,2.18.94,4.38,2.44,5.22,4.81,1.85,5.36-2.85,8.51-6.24,11.51-3.09,2.83-6.51,5.73-8.91,8.97-.92,1.04-1.78,2.91-2,3.99-.16.5.49,2.89,1.08,5.05.89,3.33,1.73,6.77,2.36,10.17,1.8,12.34,3.77,24.94,5.3,37.24.81,6.46,3.31,12.35,5.64,18.44,1.24,3.32,2.64,6.6,1.1,10.52-1.8,3.9-4.9,4.58-8.68,4.6-4.18.19-8.29.98-12.28,2.21-3.39.94-6.82,2.8-10.79,2.99-4.69.33-9.23-2.56-11.91-6.07-1.57-1.81-3.28-4.3-4.32-6.58-1.99-4.02-2.17-9.73-3.23-13.43-2.99-7.95-23.84-5.56-25.95,2.28-.4,2.85.83,8.52,1.58,11.61,1.09,4.55,3.75,8.57,4.37,13.44.88,7.55-4.96,14.57-11.84,16.95-3.72,1.17-7.64,1-11.26,1.06-7.91-.13-16.02,0-23.94-.18-10.2.14-12.2-10.42-8.19-18,3.07-6.11,9.21-7.6,15.42-6.32,1.5.19,2.55.46,3.77.31.05-.04.13-.03.17-.05,0-.04.03-.02.05-.02,0-.03.01-.03.04-.03.41-1.58-.25-4.14-.5-6.03-.54-3.22-1.19-6.35-2.17-9.44-.74-2.39-1.58-4.19-2.16-6.84-1.41-5.87,2.95-11.86,7.49-14.74,1.18-.85,2.32-1.48,3.26-2.19-.11.11-.29.29-.53.96-.31.77-.06,2.07.54,2.74.55.67,1.08.82,1.25.89.41.11.32.05.21.07-3.79.29-15.19,3.25-19.15,4.07-11.48,2.22-24.93,6.51-35.6-.71,0,0-.72-.55-.72-.55-.49-.36-.89-.59-1.53-.87-4.64-2.16-9.59-.96-14.44.41-5.37,1.56-11.31,3.09-17.1,3.6-3.51.33-7.12.38-10.61.17-3.92-.03-8.68-1.15-12.08.25,0,0-.53.23-.53.23,0,0-.48.33-.48.33-.16.12-.33.19-.49.33-.88.74-1.4,1.32-2.1,2.48-1.21,1.93-2.56,3.92-3.91,5.76-4.4,5.76-8.72,13.03-16.46,14.41-6.89,1.03-13.15.95-19.51,3.59-5.45,1.93-10.23,5.78-16.2,6.7-2.65.34-5.5-.15-7.95-1.07-3.01-1.2-5.63-2.54-8.83-2.46-2.29.1-5.33-.09-6.76,1.62-.05.11-.08.21-.08.45,0,.23.07.56.2.94.99,2.88,3.56,5.22,3.44,8.81-1.19,6.62-12.13,4.78-14.74,0-1.6-2.6-.63-5.93.1-8.54,2.09-7.31,4.72-15.06,5.5-22.5.06-1.01-.01-1.68-.22-2.81-.87-3.78-1.81-8-5.17-10.29-2.69-1.55-5.97-.37-8.8.44-1.79.51-3.89,1.37-6.04.77-1.9-.42-3.4-2.72-3.23-4.53-.01-1.94.75-3.76,1.05-5.46.65-2.86.53-5.79-.67-8.44-5.72-11.44-19.36-13.47-30.92-9.26-4.51,1.64-9.37,4.72-14.51,2.35-4.61-2.11-7.59-6.62-8.41-11.51-.47-1.68.22-4.98.26-6.05.12-2.14-.77-4.61-2.05-6.32-.69-1.01-1.52-1.45-2.61-2.18-1.36-.85-3.53-2.6-4.14-4.47-1.4-2.88-.53-6.67,1.1-9.04,1.28-2.03,1.76-3.49,1.04-5.63-.35-1.04-1.02-2-1.42-3.42-.93-2.97-.23-6.56,1.63-9.01,1.36-1.89,3.23-3.21,4.65-4.61,0,0,.41-.46.41-.46,0,0,1-1.2,1-1.2,0,0,2.08-2.6,2.08-2.6,4.58-6.14,12.01-14.61,15.79-21,2.85-5.53,3.35-11.54,3.73-17.75.15-2.25.3-4.47.36-6.58-.1-3.29.45-6.19-2.12-7.98-1.31-.83-3.52-1.26-5.33-1.94-4.59-1.59-9.13-4.79-11.76-9.03-.32-.53-.39-.63-.6-.9-.84-1.11-2.79-2.72-4.06-3.63-6.16-4.52-14.2-4.94-20.89-1.43-2.44,1.39-4.38,2.76-5.83,5.15-.31.46-.62,1.01-1.35,1.88-.93,1.09-2.36,2.01-3.73,2.3-2.68.58-4.88-.17-6.45-1.02-2.91-1.65-4.65-3.79-6.32-6.37C1.35,73.29,0,69.21,0,64.92c.23-8,3.61-15.25,8.51-21.29,3.09-3.76,6.83-7.27,10.85-9.94,3.44-2.23,7.86-5.21,11.09-7.57,6.91-5.28,14.48-10.45,20.8-16.4,1.11-1.19,1.7-1.7,2.39-3.08,1.4-2.88,3.96-5.98,7.64-6.56,4.38-.67,7.44,2.72,10.16,4.92,3.26,2.6,6.88,4.46,10.81,5.98,1.21.51,2.14.75,3.29,1.38.16.74,1.32-.81,2.15,4.03-2.73,5.5-4.52,2.78-4.54,3.44-.45-.05-.62-.1-.85-.15l-.93-.24c-.53-.14-.99-.25-1.44-.35-1.79-.37-3.25-.3-4.3.2-2.2.9-4.13,4.77-3.39,7.03,1.01,3,5.13,5.96,7.68,8.41,4.85,4.27,10.2,9.23,15.23,12.91,6.94,4.51,14.83,8.87,23.1,9.74,8.54.91,17.01-2.05,25.36-4.23,3.08-.9,6.55-1.93,9.59-3.02,4.18-1.5,9.24-.13,12.63,2.55,2.14,1.69,3.7,3.45,5.27,5.09,3.06,3.3,6.11,6.37,9.45,9.24,6.67,5.94,13.51,10.68,21.84,13.92,5.01,2.1,9.93,3.11,15.25,3.06,4.9.07,10.11-.27,14.08-3.23,4.86-3.42,6.46-9.3,6.8-15.08.62-6.02.15-11.59-4.07-16.13-3.41-3.97-7.81-7.49-11.98-10.76-.85-.67-1.81-1.49-2.61-2.28h0Z"/>
    </g>
  </g>
</svg>