<?xml version="1.0" encoding="UTF-8"?>
<svg id="_Слой_2" data-name="Слой 2" xmlns="http://www.w3.org/2000/svg" viewBox="0 0 318.79 324.87">
  <defs>
    <style>
      .cls-1, .cls-2 {
        stroke-width: 0px;
      }

      .cls-2 {
        fill: #93c240;
      }
    </style>
  </defs>
  <g id="_Акбулакский" data-name="Акбулакский">
    <g>
      <path class="cls-2" d="M96.7,4.85c1.79.19,6.77.99,11,5,2.06,1.96,4.64,4.4,4.5,7.5-.18,3.95-4.71,4.54-5,8-.42,4.98,7.09,5.88,12,14,4.89,8.09,1.54,14,7,18,3.91,2.86,8.65,2.06,9,2,3.57-.65,6.78-3.15,14-15,8.16-13.39,8.26-17.08,12-18,5.95-1.46,14.92,5.6,16,13,1.01,6.92-5.27,11.36-3,15,2.27,3.65,9.05-.05,14,4,5.98,4.9.84,14.23,6,18,5.28,3.86,18.57-.14,25-8,2.3-2.81,3.21-5.48,6-6,4-.74,5.65,4.11,11,6,8.58,3.03,13.39-6.26,22-4,6.47,1.69,5.29,7.34,16,13,3.83,2.02,7.66,3.98,12,3,4.39-1,4.95-4.03,10-6,3.32-1.3,9.11-2.35,13,0,7.66,4.63,8.04,22.59,0,31-5.97,6.25-12.55,3.02-16,9-2.55,4.41-1.03,11.27,2,25,1.67,7.57,2.9,10.7,1,13-3.12,3.77-9.81-.53-14,3-5.76,4.86,2.52,16.67-3,23-5.02,5.75-18.99,4.21-28,0-6.82-3.18-9.49-7.28-13-6-2.52.92-3.42,3.87-6,14-3.26,12.82-4.89,19.23-5,21-.85,13.9,4.92,15.49,3,25-.84,4.15-5.56,9.76-15,21-10.12,12.04-15.18,18.07-20,20-4.36,1.75-9.32,2.46-12,7-2.12,3.6-.76,6.11-3,8-3.57,3-8.49-2.13-15,0-4.37,1.43-3.25,4.12-11,11-6.62,5.88-9.62,5.86-11,10-1.57,4.71,1.2,8.08-1,10-1.96,1.71-6.33.95-9-1-2.73-2-2.77-4.57-5-5-2.16-.41-2.98,1.84-5,2-5.24.42-6.68-14.22-15-17-6.3-2.1-10.74,4.54-15,2-5.37-3.2.58-14.41-6-21-4.49-4.5-12.66-4.7-18-3-4,1.27-4.2,2.9-7,4-9.15,3.58-17.53-9.35-43-27-8.45-5.86-14.97-9.59-14.5-14.5.4-4.23,5.58-5,9-13,1.55-3.62,1.94-6.85,2.5-11.5,1.05-8.71-.57-9.02.5-12.5,2.37-7.74,10.39-6.31,20.5-17.5,6.28-6.95,7.26-12.01,7.5-13.5.83-5.14-.5-9.44-1-11-1.6-5-4.38-8.32-6-10-1.3-.86-3.09-2.16-5-4-1.99-1.92-2.99-2.9-3-4-.03-2.55,3.82-4.75,6-6,1.09-.62,1.63-.93,2-1,4.42-.81,6.54,8.73,13.5,11.5,6.07,2.41,14.75-.76,18-6,2.79-4.5-.29-7.52,2.5-11.5,3.92-5.6,11.64-1.93,16.5-7.5,4.39-5.03,2.61-13.21,2-16-.64-2.91-1.76-8.09-6-11-3.64-2.5-6.05-.91-8.5-3.5-2.76-2.92-2.93-8.36-1-12,1.57-2.98,3.38-2.55,6-6,.89-1.18,4.69-6.18,3.5-10.5-1.58-5.71-10.27-4.43-13.5-11.5-1.34-2.92.39-2.61-1-9-1.21-5.56-3.3-9.38-2-14,.32-1.14.65-1.64,1-2,2.14-2.21,5.41.35,9-1,3.77-1.42,5.4-6.24,7-11,.59-1.76,1.05-3.12,1-5-.03-1.21-.25-1.45,0-2,.74-1.64,3.77-1.81,7-2,1.57-.09,2.6-.15,4,0Z"/>
      <path class="cls-1" d="M97.21.09c11.4.76,27.9,15.23,15.22,25.43-.42.37-.58.58-.6.6,0,.04.08-.22.1-.34,0-.06.03-.06,0-.09.02-.05-.02-.13-.04-.16,2.35,2.36,6.18,4.72,8.72,7.95,1.99,2.38,3.55,5.11,4.6,8.07,1.52,3.88,1.26,7.69,2.38,10.89,1.01,2.03,3.3,2.8,5.76,2.88,3.87.15,6.22-3.98,8.59-6.98,4.2-5.9,8.26-13.09,11.75-19.54,3.82-7.9,11.51-7.67,18.22-3.12,5.11,3.63,9.32,9.47,9.1,16.03-.12,3.5-1.58,6.54-2.53,8.75-.33.82-.61,1.38-.69,2.13.02,0,.04-.03.02-.04.01-.04.02-.09,0-.13-.06-.08,0-.18-.08-.23-.01-.09-.07-.14-.13-.21-.05-.09-.16-.12-.15-.15-.1-.03.18.01.51.05.73.03,1.72.03,2.45.01,4.84-.27,10.14,1.37,12.92,5.74,2,2.95,2.33,6.54,2.37,9.69.11,1.79-.12,4.14.57,5.41.65,1.04,2.25,1.15,3.49,1.23,4.72.06,9.91-2.12,13.7-5.05.42-.37.96-.59,1.15-1.18.1-.29.18-.59.36-.78,1.58-1.63,2.27-2.9,3.87-5,1.91-2.69,5.93-4.5,9.28-3.44,2.59.6,4.68,2.84,6.23,4.09,3.15,2.73,5.99,3.01,10.05.97,3.18-1.56,6.82-3.41,10.64-3.49,2.7.03,5.28.52,7.7,2.02,2.83,1.71,4.25,4.26,6.12,6.38,1.46,1.69,3.09,3.07,5.02,4.3,4,2.24,9.42,6.04,13.66,2.95,1.67-1.44,4.77-3.96,7.22-4.76,5.86-2.22,13.5-2.85,18.51,1.98,7.28,7.63,6.64,21.01,2.17,29.86-2.87,5.85-8.25,9.55-14.31,10.74-4.48.85-5.7,3.04-5.46,7.35.53,7.28,2.68,14.84,4.25,22.05.65,3.19,1.8,6.61.35,9.99-1.84,4.27-6.62,5.25-10.44,4.84-1.81-.05-3.8-.4-5.01.43-1.04.82-.88,2-.86,3.56.72,6.75,3.33,15.46-3.42,20.68-4.08,3.16-9.85,3.81-14.67,3.55-5.73-.34-11.17-1.65-16.41-4.03-2.61-1.21-5.1-2.8-7.19-4.23-1.12-.75-2.21-1.45-2.74-1.56.1-.03.01.02.09-.02-.6,1.02-1.25,2.87-1.67,4.44-1.85,6.94-3.9,15.15-5.62,22.29-.36,1.62-.77,3.17-.97,4.73-.17,2.88-.02,5.95.61,8.67.54,2.48,1.5,4.62,2.18,7.3,1.27,4.55.75,10.4-1.62,14.36-3.44,5.91-8.06,10.96-12.16,16.04-5.09,6-9.87,12.18-15.51,17.84-2.13,2.14-5.06,4.63-8.58,5.94-3.19,1.31-7.93,2.07-9.4,5.3-.7,1.24-.52,3.26-1.25,5.15-1.06,3.18-4.42,5.58-7.75,5.62-2.09.13-4.64-.61-6.05-.97-2.66-.62-4.08-.73-5.87.12-.92.8-1.41,1.77-2.56,3.24-3.96,5.43-9.76,9.57-15.02,13.32-.52.5-.57.59-.83,1.25-.85,2.59.6,5.2-.09,8.11-.98,5.09-7.04,6.71-11.05,5.66-2.73-.56-5.39-1.85-7.41-3.88-.7-.7-1.29-1.48-1.73-2.14-.43-.65-.77-1.17-.83-1.23-.04-.05.05.06.22.18.18.13.46.24.62.28.22.05.44.05.68.02.29-.05.49-.12.56-.17-2.56,2.12-6.44,3.31-9.86.76-3.71-2.76-5.15-7.83-7.28-11.17-2-3.19-3.79-5.77-7.43-4.66-1.39.43-3.71,1.6-5.39,2.11-2.8.93-6.17.55-8.47-1.45-7.43-6.5,1.63-17.47-5.64-23.59-4.51-3.58-13.2-2.94-17.55.64-7.1,7.08-15.94,2.04-22.59-2.75-3.19-2.13-6.36-4.67-9.48-6.85-2.95-2.38-5.99-4.78-9.03-7.04-4.07-3.05-8.16-5.93-12.44-8.77-3.36-2.33-7.06-4.56-10.03-7.78-4.83-5.24-4.37-11.67,1.16-16.47,5.38-4.66,6.39-11.26,6.95-17.97.52-3.46-.2-6.08,0-9.65.37-4.59,3.72-9.11,7.56-11.32,3.28-2.02,6.64-3.61,9.48-5.87,4.85-3.9,10.12-9.38,11.55-15.49,1.14-6.14-1.21-12.86-5.44-17.44,0,0,.73.61.73.61-2.35-1.58-4.62-3.61-6.53-5.61-.85-.97-2.03-2.02-2.66-3.55-2.4-6.16,4.18-10.12,8.61-12.38,2.46-1.54,5.64-1.13,7.73.54,4.32,3.36,5.91,9.78,11.29,11.06,4.61,1.08,10.89-1.27,13.17-5.41.68-1.25.56-2.77.53-4.34-.04-1.6.18-3.61.99-5.13,1.75-3.94,6.28-5.91,10.17-6.26,2.28-.37,4.48-.55,6.27-1.76,5.81-3.95,3.27-16.25.25-21.44-1.11-1.74-2.73-3.04-4.46-3.52-1.25-.33-2.56-.38-4.03-.94-5.08-1.94-6.75-8.44-5.88-13.14.4-2.43,1.45-5.04,3.36-6.83.68-.64,1.33-1.09,1.8-1.45,1.78-1.33,2.96-3.09,3.98-4.97,1.05-1.92,1.5-3.97,1.12-5.08-.6-1.49-2.11-1.91-3.81-2.72-4.38-1.65-9.06-4.78-10.51-9.7-.55-1.81-.19-3.33-.27-4.77-.38-5.2-3.3-9.92-3.32-15.38-.11-4.83,2.23-10.05,7.84-10.13,5.01.06,5.57,1.72,7.93-4.1.55-1.59,1.24-3.47,1.75-5.16.26-.94.41-1.42.38-2.3,0-.2-.02-.3-.05-.55-.01-.14-.06-.34-.08-.91-.15-4.02,3.77-6.67,7.31-7.03,3.31-.45,5.81-.63,9.01-.42h0ZM96.2,9.62c-2.13-.24-5.68.14-7.19.35.76-.37,1.36-1.76,1.28-2.66-.01-.25-.01-.12.01.06.42,2.91-.43,6.01-1.43,8.67-1.59,4.45-3.48,9.64-7.96,12.22-3.06,1.9-6.74,1.5-9.77,1.02-.18,0,.17-.03.46-.25.14-.09.17-.16.27-.29.1-.14.11-.21.07-.14-.09.13-.22.63-.31.99-.52,2.39.24,4.48,1.02,7.67.94,3.53,1.84,7.86,1.27,11.57.14.6.65,1.45,1.06,2,2.43,3.08,8.69,3.96,11.18,7.96,4.25,6.6-1.27,15.49-6.74,19.42-1.22.82-1.52,1.06-1.98,1.77-1.65,2.79-1.83,7.88,1.18,9.63,8.79,1.23,12.47,6.81,14.1,14.8,2.32,8.7,1.33,20.09-9.13,22.74-3.92,1.15-6.92.51-9.23,3.03-1.4,1.56-.91,3.46-.89,5.48.05,1.54-.26,3.48-1.01,5.07-3.63,7.2-12.37,10.82-20.14,9.51-4.67-.67-8.87-4.79-11.27-8.09-1.12-1.34-1.93-2.69-3.08-3.54-.19-.11-.12-.01.15.03.06.02.13,0,.17.01.1,0,.4-.08.45-.1.23-.08-.06.05-.27.18-1.5.95-3.86,2.16-4.78,3.5-.09.15.05.06.09-.35,0-.04,0-.33-.04-.49-.04-.19-.08-.32-.12-.42-.08-.18-.07-.14.02-.05,2.01,2.07,4.29,4.03,6.75,5.5,0,0,.4.4.4.4,6.45,6.49,9.9,15.94,8.46,25.11-2.4,11.44-12.1,20.8-21.87,26.19-2.88,1.72-6.49,3.07-6.1,6.86.51,4.12-.03,8.55-.58,12.6-.53,4.34-1.64,8.88-3.88,12.76-1.46,2.75-3.79,5.29-5.72,7.07-.93.87-1.65,1.63-1.68,1.77-.07.08-.02.04-.06.09,0,.02.02.06-.01.09.02.03.02.06,0,.11.36,1.09,1.94,2.56,3.13,3.52,5.96,4.57,12.69,8.84,18.65,13.59,4.01,3.2,8.31,6.41,12.02,9.98,3.62,3.31,7.36,6.96,11.32,9.62,1.91,1.24,3.72,2.01,5.38,1.9,2.52-.13,3.46-1.69,6.02-2.93,5.91-2.48,12.92-2.3,18.77.26,8.96,3.48,8.98,12.14,9.95,19.85.18.99.55,1.53.64,1.51.02,0,.04,0,.04-.01.03-.01.05,0,.06-.03,0,0,0,0,0,0,0,0,0-.03-.02-.04-.04.01-.01-.02,0-.03.09.02.94-.22,2.01-.72,2.7-1.33,6.1-2.65,9.54-2.28,9.35.9,12.46,10.54,16.55,17,.23.32.43.47.4.44,0-.03-.47-.27-.91-.24-.42,0-.81.23-.59.11,3.33-2.94,8.08-3.01,11,.54,1.31,1.67,1.45,2.43,2.77,3.35.86.62,2.43.98,3.39.84-.03.02-.33.11-.67.6-.09.12-.14.28-.2.38-.06.11-.08.27-.1.31-.03.17-.02.16-.02.08-1.28-7.82.46-12.89,7.27-17.01,5.37-3.6,9.07-7.43,12.86-12.72,2.46-3.01,6.89-4.23,10.64-4.06,2.81.1,6.02,1.23,8.17,1.48,0,.03-.11,0-.13.07-.05-.02-.05.03-.07.04-.02,0-.2.27-.17.25,0-.01.01,0,.02-.08.01-.05.03-.1.05-.21l.06-.33c.77-7.77,6.27-12.22,13.26-14.27.58-.19,2.04-.7,2.59-.91,3.98-1.58,7.52-5.95,10.62-9.31,3.34-3.79,6.66-7.75,9.99-11.67,3.3-3.92,6.68-7.85,9.51-11.74,2.94-3.89,3.73-6.72,2.75-10.96-.48-1.98-1.57-4.66-2.18-7.53-.64-2.88-.86-5.82-.83-8.65.06-.6.04-2.24.13-2.78.46-3.62,2.24-9.7,3.08-13.31,1.31-5.02,2.49-9.93,3.97-15.1,1.02-3.25,1.97-6.96,5.24-9.06,6.52-4.02,12.09,3.17,17.54,5.45,6.35,2.83,15.62,5,22.09,2.06,0,0,.23-.16.23-.16.15-.11.31-.21.47-.3l.36-.34c.28-.2.42-.46.59-.71.74-1.43.77-3.32.56-5.15-.21-2.29-.77-4.81-.97-7.83-.72-9.14,5.69-13.25,14.05-12.11,1.21.08,2.22.06,2.64-.06.15,0,.13-.07.21-.06.03-.03.04-.04.07-.04,0-.05.05-.04.07-.07.03-.03.02-.04.03-.04.33-.97-.5-3.73-.76-5.19-1.17-5.09-2.28-10.11-3.28-15.27-1.52-7.38-2.62-17.51,5.64-21.55,3.53-1.73,7.55-1.72,10.21-3.82,5.05-3.92,6.72-11.28,6.23-17.59-.95-9.12-5.15-11.72-13.86-8.65-3.58,1.4-6.08,5.42-10.34,6.14-4.72,1.21-9.62-.56-13.65-2.7-3.79-1.87-7.55-4.42-10.4-7.68-2.24-2.42-3.5-5.34-6.9-5.59-3.07-.2-5.51,1.48-8.35,2.82-6.46,3.42-13.07,2.83-18.63-1.92-1.36-1.08-2.22-2.06-3.19-2.49-.01-.03.02.03-.07,0-.1.03-.06.01-.16.07-1.52,1.6-3.11,4.54-4.99,6.26-1.72.8-3.03,2.18-4.56,3.2-4.96,3.36-10.33,5.57-16.5,5.81-6.43.24-11.44-3.51-12.1-9.88-.41-2.99-.1-7.58-1.48-9.34-1.28-1.81-3.78-1.82-5.88-1.96-2.36-.15-4.2-.06-6.54-1.21-3.77-1.86-4.99-6.36-3.36-10.12,1.1-2.78,2.94-5.11,3.2-7.92.39-3.66-2.69-7.58-5.75-9.64-2.08-1.28-4.03-2.17-5.88-1.69-.63.24-1.11,1.25-1.82,2.45-3.54,6.9-7.4,13.97-11.7,20.44-2.64,3.78-5.18,7.55-9.64,9.69-6.68,2.79-15.66.44-19.03-6.33-1.94-4.04-1.48-7.79-2.99-11.6-1.6-4.18-4.42-6.88-8.24-9.61-1.05-.81-2.25-1.62-3.64-3.16-2.67-2.65-3.29-7.98-.9-11.07,1.03-1.62,2.24-2.35,3.21-3.39.23-.24.26-.35.25-.32,0,.04-.06.1-.03.07-.21-1.3-2.34-3.15-3.4-4.14-2.15-1.9-4.97-3.06-7.82-3.38h0Z"/>
    </g>
  </g>
</svg>