<?xml version="1.0" encoding="UTF-8"?>
<svg id="_Слой_2" data-name="Слой 2" xmlns="http://www.w3.org/2000/svg" viewBox="0 0 249.58 268.68">
  <defs>
    <style>
      .cls-1, .cls-2 {
        stroke-width: 0px;
      }

      .cls-2 {
        fill: #6a954c;
      }
    </style>
  </defs>
  <g id="_Александровский" data-name="Александровский">
    <g>
      <path class="cls-2" d="M85.47,8.59c-3.66-2.15-3.47-1.3-11-5-3.59-1.76-4.59-2.43-6-2-2.67.81-2.44,4.18-6,6-1.23.63-1.25.22-5,1-5.74,1.2-5.86,2.19-8,2-4.37-.39-5.7-4.72-8-4-1.95.61-.95,3.7-4,7-.87.94-2.58,1.96-6,4-3.96,2.36-4.06,2.09-5,3-2.88,2.8-1.87,5.31-4,7-2.75,2.18-5.65-1.04-10,0-1.07.73-2.18,1.61-3.29,2.65-4.47,4.2-6.63,9.05-7.71,12.35-1.02,3.05-.61,4.37,0,5,1.29,1.34,3.81-.1,7.44,1.44,1.2.51,2.01,1.08,2.56,1.56,4.2,3.71,2.46,6.92,6,9,3.89,2.29,6.64-1.23,13,0,5.56,1.07,11.58,5.33,12,10,.37,4.12-3.88,5.74-3,9,1.07,3.99,7.74,2.83,11,8,1.14,1.8,1.09,4.87,1,11-.1,6.56-.22,11-3,15-.91,1.31-1.46,1.64-2,3-1.05,2.64-.57,5.36,1,10,2.2,6.54,2.9,6.06,4,10,1.71,6.09.1,7.39,2,12,.5,1.22,2.14,5.17,6,8,4.85,3.55,8.29,1.71,14,6,1.79,1.34,3.01,2.26,4,4,2.65,4.65-.5,7.89,1,15,.38,1.81,1.17,5.54,4,9,2.61,3.19,5.02,3.78,6,7,.84,2.75-.63,3.25,0,6,1.2,5.26,7.21,6.27,7,10-.11,2.02-1.9,2.06-2,4-.13,2.53,2.83,4.2,11,10,6.36,4.51,5.51,4.17,7,5,4.33,2.41,4.57,1.44,14,5,2.88,1.09,3.98,1.6,5,1,2.01-1.19.55-4.85,3-9,.64-1.07,1.85-3.14,4-4,2.56-1.03,4.57.4,15,6,6.63,3.56,7.83,4.05,9,6,2.01,3.34.68,5.47,3,8,2.47,2.7,4.94,1.33,8,4,2.36,2.06,1.8,3.68,4,8,2.18,4.28,6.86,10.81,10,10,2.03-.52,3.45-4.11,3-7-.6-3.86-4.26-4.64-4-7,.29-2.63,4.89-2.31,11-7,3.88-2.97,6.1-6.22,8-9,1.95-2.85,2.92-4.31,3-6,.22-4.92-5.4-6.64-5-10,.58-4.97,13.33-5.27,14-10,.55-3.89-7.8-5.6-8-10-.39-8.48,29.98-15.48,29-22-.38-2.5-5.07-3.08-5-6,.07-3.01,5.08-3.62,6-8,.56-2.69-1.04-3.77,0-6,.97-2.07,2.7-1.86,5-4,3.03-2.81,3.73-6.58,4-8,.66-3.54.42-9.04-2-10-1.35-.53-2.03.87-4,1-5,.34-6.88-8.23-12-9-4.94-.74-7.05,6.67-11,6-5.1-.87-7.05-14.14-15-30-.94-1.87-2.87-5.6-6-6-3.02-.39-4.51,2.65-7,2-3.09-.81-2-5.78-6-9-3.82-3.07-7.74-.9-10-4-1.69-2.32.06-4.14-1-7-2.64-7.09-19.04-10.9-26-5-2.42,2.05-2.39,4.17-5,5-3.72,1.19-9.55-1.28-11-6-.89-2.91-.21-6.96,2-8,2.87-1.34,6.19,3.37,9,2,1.98-.97,3.25-4.74,2-7-2.63-4.77-14.19,1.22-20-5-2.31-2.47-1.86-4.89-6-9-1.79-1.78-2.67-2.12-4-4-.83-1.17-2.02-3.21-3-8-1.26-6.17-.05-6.48-1-9-1.82-4.82-6.41-4.06-16-11-4.94-3.57-4.65-4.45-9-7Z"/>
      <path class="cls-1" d="M84.96,9.46c-3.23-1.83-6.9-2.72-10.22-4.37,0,0-2.57-1.15-2.57-1.15-.83-.37-1.71-.77-2.37-.94-1.44-.27-1.78.79-2.58,2.08-.47.83-1.06,1.8-1.9,2.63-1.13,1.24-3.08,2.18-4.73,2.27-2.16.34-4.35.89-6.43,1.56-.86.26-1.51.62-2.83.97-1.34.31-2.57.13-3.83-.24-2.23-.62-4.05-2.59-5.58-3.75.12.02.16.01.28-.08.13-.12.02-.07-.09.25-.12.3-.25.74-.4,1.22-.59,2.03-1.87,4.19-3.54,5.58-3.18,2.26-6.55,4.02-9.97,5.75-1.16.7-2.14,2.09-2.59,3.55-.3.81-.59,1.93-1.4,2.95-.82.97-1.97,1.69-3.24,1.84-3.02.19-5.49-1.63-8.23-.95,0,0,.36-.16.36-.16-3.43,2.4-6.27,5.6-8.33,9.26-1.28,2.26-2.23,4.73-2.99,7.2-.37,1.3-.05,2.44,1.57,2.37,6.82-.55,11.06,2.99,12.99,9.29,1.34,2.91,4.35,2.79,7.06,1.97,2.15-.55,4.66-.81,7-.4,4.71.86,9.07,3.11,12.01,7.04,1.54,2.11,2.25,5.19,1.14,7.7-.71,1.71-1.79,2.75-2.36,4.17-.57,2.1,1.84,2.67,3.56,3.36,5.36,1.82,8.79,4.95,8.68,11.05.09,2.28.05,4.45.05,6.63-.07,4.58.07,9.37-2.11,13.72-.68,1.47-1.9,2.85-2.71,4.1-.97,1.95-.59,3.94.08,6.4,1.15,4.55,3.26,7.92,4.73,12.13,1.12,3.08,1.03,6.8,1.36,9.93.99,4.48,4.08,8.98,8.37,10.75,1.65.71,3.79.96,6.15,1.75,4.52,1.75,9.37,4.87,10.98,9.71,1.31,4.45-.86,8.87.25,13.22.71,4.05,2.38,7.55,5.31,10.15.74.68,1.61,1.35,2.53,2.31,1.96,1.95,3.04,5.31,2.21,7.97-.22.93-.17,1.28.07,2.14.86,3.51,6.27,5.04,6.89,9.19.31,1.59-.48,3.6-1.71,4.66-.27.32-.2.25-.23.34,0,.07,0,.14,0,.21.08.35.22.51.58.92,1.28,1.3,3.18,2.62,4.77,3.75,3.72,2.58,7.49,5.32,11.15,8,3.37,2.08,7.39,2.57,11.09,4,2.01.66,4.38,1.76,6.3,2.22.04,0-.06,0-.1.03-.05-.02-.11.13-.03-.04.18-.34.36-2.18.44-2.69.62-4.93,4.39-11.6,10.25-10.74,2.67.58,4.38,1.68,6.62,2.81,0,0,5.76,3.11,5.76,3.11l5.78,3.11c2.14,1.07,4.65,2.84,5.59,5.27,1.41,2.59.48,6.06,3.28,7.45.59.33,1.52.5,2.74.84,2.58.7,5.13,2.62,6.23,5.14,1.71,5.05,3.91,9.58,7.71,13.27.77.66,1.48,1.24,2.13,1.31.02-.03.04.02.06,0,.05-.01.24-.14.43-.38,1.27-1.81,1.62-4.67,0-6.45-.79-.99-1.56-1.43-2.35-2.71-1-1.49-.77-3.85.6-5.13,2-1.72,4.5-2.22,6.69-3.45,4.58-2.32,8.23-6.09,11.07-10.4,1.31-2.21,3.79-4.38,2.85-7.05-.72-1.89-2.25-2.9-3.58-4.75-2.3-2.93-1.02-6.55,1.98-8.26,3.15-1.9,6.11-2.48,9.08-4.03.99-.61,1.76-.99,1.8-1.79-.25-.93-1.18-1.5-2.19-2.31-2.42-1.75-5.96-4.01-5.78-7.65.37-8.24,19.79-13.93,26.03-18.41,1.13-.74,2.09-1.42,2.82-2.4.03-.06.06-.12.09-.18.15-.25.09-.32.12-.38-.76-1.29-3.09-1.9-4.32-3.88-1.03-1.5-.8-3.84.33-5.14,2.36-2.64,6.01-3.84,4.94-7.75-.76-2.08,0-4.88,1.81-6.26,1.86-1.29,3.54-1.86,4.87-3.66,2.33-2.97,3.04-7.37,2.64-11.07-.13-1.11-.4-2.31-1.06-2.84-5.85,3.38-9.02-1.62-12.41-5.77-3.09-3.6-5.25-2.35-8.35,1.06-1.18,1.27-3.38,3.08-5.52,2.77-3.64-.4-5.24-4.09-6.58-6.85-1.82-4.13-3.19-8.23-4.79-12.26-1.56-4.03-3.27-7.99-5.2-11.83-.92-1.86-2-3.61-3.33-4.54-2.21-1.61-3.81.58-6.1,1.32-1.61.57-3.66-.01-4.75-1.35-1.74-2.28-1.74-5.2-3.65-7.17-2.21-2.54-5.17-1.95-8.3-2.94-1.4-.52-2.63-1.62-3.29-2.99-1.19-2.03.05-4.62-.71-6.56-2.53-5.05-9.93-6.72-15.29-6.72-3.91.1-7.77,1.2-9.83,4.73-.66,1.07-1.78,2.33-3.06,2.84-3.82,1.5-8.01.14-10.96-2.42-3.02-2.6-4.05-6.99-2.91-10.77.91-3.33,4.03-5.22,7.32-3.58,1.59.67,2.63,1.56,4.03,1.87.28.04.41-.01.58-.06.35-.15.89-.83,1.17-1.57,1.69-4.76-2.76-4.21-6.13-4.14-4.51.23-10.23.18-13.58-3.6-1.67-1.75-2.27-4.03-3.46-5.89-1.57-2.78-4.58-4.47-6.54-7.1-3.21-4.74-4.1-11-4.03-16.48-.6-4.09-5.3-4.91-8.52-6.85-3.93-2.16-7.85-4.47-10.91-7.82-1.47-1.66-2.84-3.04-4.77-4.11h0ZM85.99,7.71c5.61,3.29,10.41,7.76,16.22,10.7,3.11,1.78,7.49,2.92,9.38,6.54.44.94.82,1.84.93,2.92.08,2.27-.05,4.18.43,6.39.6,3,1.24,6,3,8.45,2.04,2.51,4.97,4.28,6.68,7.29,1.18,1.77,1.72,3.92,3.08,5.38,3.63,3.76,9.52,2.19,14.36,2.47,1.83.03,4.56.64,5.71,2.57,1.94,3.22.72,7.85-2.52,9.71-2.61,1.34-5.42-.76-7.51-1.73-.63-.26-1.1-.44-1.6-.2-1.07.7-1.4,2.85-1.29,4.22.1,3.67,3.6,6.39,7.05,6.69,1.78.17,3.08-.35,3.95-1.91,1.17-1.97,3.37-3.97,5.6-4.83,7.72-3.3,21.87-.74,25.58,7.53.74,1.65.43,3.75.37,5.39.19,2.35,2.41,2.44,4.49,2.72,2.4.26,5.12,1.4,6.76,3.32,1.83,1.93,2.52,4.55,3.2,6.3.37.84.74,1.57,1.71,1.28,1.5-.57,2.65-1.8,4.78-2.01,4.29-.48,7.2,3.89,8.64,6.95,1.98,3.95,3.71,8.02,5.32,12.11,1.62,4.07,3.05,8.23,4.76,12.08.79,1.59,1.68,3.65,3.05,4.58.53.33.97.36,1.49.12,2.69-1.6,4.56-5.33,8.21-5.85,7.29-1.28,9.63,10.02,14.15,8.81.32-.1.64-.3,1.31-.62.67-.43,2.3-.53,3.04-.05,4.08,2.19,3.44,9,2.75,12.71-.7,3.52-2.64,7.15-5.73,9.26-1.03.73-2.22,1.25-2.67,1.64-.8.77-.87,1.5-.54,2.64,1.03,3.25-.76,7.12-3.43,8.94-1.08.94-2.11,1.41-2.37,2.37,0,.16,0,.26.1.43.23.38,1.01.95,1.95,1.56,1.15.76,2.63,1.98,2.89,3.55.23,1.16-.12,2.37-.73,3.31-2.45,3.29-6.37,4.93-9.78,6.78-3.93,1.98-7.89,3.78-11.56,5.88-2.43,1.51-5.27,3-6.56,5.43-.64,1.51.26,2.27,1.48,3.36,1.76,1.48,3.78,2.42,5.37,4.52,1.08,1.43,1.27,3.62.33,5.14-2.8,4.16-8.37,4.37-12.03,6.77-.89.57-1.31,1.02-1.34,1.59.02.41.13.59.46,1.06,1.29,1.61,4.56,4.58,4.54,7.86.25,3.32-2.1,6.02-3.73,8.51-3.14,4.8-7.29,9.08-12.49,11.73-1.6,1.05-4.52,1.78-5.7,2.76.23.55,1.11,1.17,2.03,2.28.87.99,1.62,2.38,1.89,3.8.94,4.23-1.59,10.91-6.86,9.62-5.16-1.85-9.23-9.04-11.22-13.86-.63-1.55-.77-2.76-1.64-3.88-.8-.97-1.79-1.55-3.03-1.92-.87-.27-2.12-.44-3.48-1.13-1.96-.99-3.51-2.87-4.09-4.97-.42-1.51-.44-3.18-1.08-4.42-.73-1.75-2.15-2.41-3.83-3.37,0,0-5.74-3.08-5.74-3.08l-5.75-3.09c-1.62-.78-3.71-2.08-5.34-2.37-1.8-.54-4.01,2.68-4.7,4.49-1.25,2.84-.07,7.06-3.56,8.71-.95.46-2.09.36-2.97.14-2.42-.69-4.09-1.54-6.34-2.26-4.22-1.56-8.96-2.19-12.72-4.92-3.49-2.65-7-5.07-10.59-7.6-3.6-2.5-10.07-6.68-5.82-11.61,0,0,.49-.53.49-.53.08-.1.1-.15.12-.18.03-.04.03-.24.03-.42-.06-.16-.07-.33-.28-.58-1.06-1.48-3.28-2.68-4.56-4.41-1.76-2.04-2.82-5.26-2.09-7.92.22-1.01.27-1.22.01-2.12-.56-1.84-1.97-2.61-3.45-4.01-1.78-1.59-3.35-3.6-4.45-5.76-2.79-5.3-2.99-11.36-2.13-17.06.45-3.88-2.94-6.35-5.88-8.15-2.76-1.69-5.93-1.76-8.98-3.01-5.82-2.46-9.72-8.01-11.05-14.03-.48-3.37-.13-6.27-1.24-9.45-.57-2.05-1.68-3.78-2.46-5.81-.86-2.15-1.55-4.2-2.19-6.43-.65-2.39-1.15-5-.45-7.57.25-1.24,1.15-2.78,1.92-3.65,3.37-3.9,3.26-9.24,3.43-14.24,0-3.11.34-6.36-.18-9.33-.2-.88-.51-1.39-1.07-2.03-2.34-3.02-7.99-2.84-10.02-6.64-.61-1.26-.74-2.88-.2-4.14.56-1.62,1.99-2.98,2.54-4.29,1.48-3.42-2.14-6.86-5.01-8.56-3.51-2.11-7.5-2.97-11.56-1.95-1.05.21-2.18.5-3.48.52-2.65.07-5.34-1.63-6.31-4.07-.87-2.15-1.16-3.87-2.72-5.47-2.08-2.38-5.08-3.01-8.19-2.97-6.11-.44-2.06-9.36-.42-12.45,2.16-4.06,5.36-7.6,9.21-10.12,2.03-.57,4.32-.24,6.26.25,2.77.78,3.96-.12,4.56-2.88.46-1.73,1.49-3.63,2.93-4.86,1.03-.81,2.21-1.35,3.21-1.99,2.16-1.42,4.76-2.81,6.73-4.43.14-.12.24-.23.34-.33l.36-.44c1.77-1.99,1.13-4.71,3.31-6.63,4.51-3.09,6.59,3.9,10.67,3.25,2.92-.96,6.5-2.07,9.7-2.3,1.05-.08,1.09-.01,1.92-.45,2.18-1.11,2.38-3.43,4.59-4.98,2.26-1.59,4.75-.41,6.72.76,0,0,2.45,1.33,2.45,1.33,3.28,1.87,6.94,2.91,10.17,4.85h0Z"/>
    </g>
  </g>
</svg>