<?xml version="1.0" encoding="UTF-8"?>
<svg id="_Слой_2" data-name="Слой 2" xmlns="http://www.w3.org/2000/svg" viewBox="0 0 178.27 243.5">
  <defs>
    <style>
      .cls-1, .cls-2 {
        stroke-width: 0px;
      }

      .cls-2 {
        fill: #90982b;
      }
    </style>
  </defs>
  <g id="_Асекеевский" data-name="Асекеевский">
    <g>
      <path class="cls-2" d="M14.79,200.05c-3.12,1.08-7.79-1.55-8-4-.14-1.67,1.87-2.26,2-5,.07-1.54-.52-2.22,0-3,.7-1.06,2.27-.54,4-1,3.18-.85,5.5-4.63,6-8,.07-.45.62-4.57-2-8-2.83-3.71-7.83-4.61-10-5-2.67-.48-4.9-.35-5-1-.13-.82,3.01-1.1,5-4,1.03-1.51,1.27-3.02,2-3,.24,0,.35.18,2,2,.58.64.74.82,1.07.94.82.31,1.32-.21,1.93.06.64.29.63,1.1,1,2,.36.87.78,1.14,3,3,3.3,2.77,3.49,3.13,4,3,1.1-.27.85-2.04,3-4,.39-.35.66-.53,1-1,.81-1.1.94-2.29,1-3,.15-1.77.12-3.34,0-6-.14-3.03-.25-4.25,0-5,.04-.13.25-.68.16-1.37,0-.05-.04-.32-.16-.63-1.17-3.14-3-5-3-5-2.92-2.97-4.91-1.99-6-4-.25-.46-.67-1.48,1-7,1.72-5.68,2.82-6.68,3-10,.12-2.18.23-4.2-1-6-1.29-1.89-2.77-1.64-7-4-3.65-2.03-5.58-3.1-6-5-.33-1.47.58-2.01,3-7,1.72-3.54,1.38-3.9,3-7,1.07-2.05.85-1.25,3-5,1.67-2.91,2.04-3.8,3-4,1.31-.27,1.77,1.15,4,2,2.48.95,5.67.62,8-1,.34-.24,2.18-1.56,3-4,.28-.83.96-2.87,0-4-.82-.96-1.97-.25-4-1-1.53-.57-3.67-2.01-4-4-.31-1.85,1.04-3.69,2-5,1.09-1.49,1.87-1.84,2-3,.04-.35,0-.51-1-3-1.13-2.84-1.36-3.37-2-4-.6-.58-1.06-.78-1-1,.17-.57,3.45-.08,4,0,4.17.62,4.72,1.54,8,2,.72.1,2.48.07,6,0,4.42-.08,5.33-.26,6-1,.81-.89.89-2.15,1-4,.15-2.45-.47-2.84,0-4,.49-1.23,1.67-1.83,4-3,1.23-.62,2.35-1.07,5-2,3-1.05,3.27-1.06,6-2,4.67-1.61,4.57-1.81,6-2,2.37-.32,2.39.27,6,0,2.4-.18,3-.49,4,0,1.6.78,1.38,2.21,3,3,1.09.53,2.12.34,4,0,1.1-.2,3.1-.56,5-2,1.29-.98,1.11-1.37,3-3,1.46-1.26,2.19-1.88,3-2,1.88-.27,2.43,1.54,5,2,2.41.43,4.48-.71,5-1,2.09-1.16,1.71-2.19,4-4,1.37-1.08,2.91-1.72,6-3,2.89-1.2,3.48-1.18,4-2,1.06-1.69.23-4.4-1-6-.94-1.22-1.71-.98-4-3-.49-.43-1.2-1.06-2-2-1.45-1.7-2.15-3.19-3-5-.96-2.04-1-2.66-1-3,0-1.22.5-2.12,1-3,.8-1.4,1.98-3.46,4-4,1.74-.47,2.07.74,5,1,3.33.3,4.99-1.06,6,0,.48.51.14.85,1,3,.38.95.57,1.43,1,2,.75,1,1.24,1,2,2,.47.61.95,1.25,1,2,.09,1.42-1.48,2.01-3,4-.84,1.1-2.26,2.97-2,5,.34,2.65,3.44,4.62,6,5,.43.06.18-.02,2,0,2.61.02,5.22.21,8,1,1.76.5,1.96.78,2,1,.15.86-2.15,1.39-4,4-.67.94-.89,1.6-1,2-.19.7-.21,1.35,0,3,.18,1.42.38,2.84,1,5,.48,1.64.56,1.49,1,3,.39,1.33.91,3.13,1,5,.14,2.97-1.03,3.01-1,6,.03,2.92.98,2.81,1,6,0,1.82-.3,2.77,0,5,.22,1.64.34,2.47,1,3,1,.81,2.13.05,5,0,2.31-.04,4.12-.07,5,1,.87,1.06-.14,2.01,0,6,.09,2.41.49,2.91,0,4-.7,1.58-1.87,1.29-3,3-1.28,1.93-1.07,4.24-1,5,.15,1.7.66,1.77,1,4,.25,1.67.42,2.79,0,4-.2.57-.54,1.2-4,4-2.18,1.76-3.26,2.64-4,3-2.42,1.18-3.42.66-5,2-1.35,1.14-1.85,2.57-2,3-.5,1.46-.33,2.64,0,5,.22,1.52.37,2.63,1,4,.56,1.23,1.2,2.02,2,3,.63.78,1.55,1.9,3,3,1.57,1.2,1.93.97,3,2,.35.34,1.44,1.41,2,3,.59,1.69.06,2.49,0,5-.06,2.57-.1,4.51,1,6,.33.45.82.93,6,3,3.14,1.25,3.98,1.48,4,2,.05,1.13-3.85,2.34-6,3-2.93.9-4.02.84-5,2-1.32,1.56-1.05,3.69-1,4,.43,2.96,3.28,4.59,4,5,3.09,1.76,5.73.97,6,2,.17.66-.83,1.25-4,4-2.43,2.12-3.66,3.19-4,4-1.1,2.61.95,3.79,0,7-.06.2-1.04,1.8-3,5-1.25,2.05-1.71,2.78-2,4-.29,1.21-.69,2.88,0,4,1.27,2.07,4.96.21,13,1,5.02.5,5.82,1.44,9,1,.37-.05,2.4-.35,5,0,1.67.22,2.67.36,3,1,.48.91-.51,2.62-5,7-5.98,5.83-7.15,5.63-10,9-4.39,5.19-2.89,7.18-6,9-3.56,2.09-5.35-.62-15,0-4.78.31-5.3,1.04-10,1-2.78-.02-4.5-.29-8,0-2.87.24-4.31.36-6,1-2.9,1.1-3.26,2.33-7,4-2.3,1.03-3.94,1.73-5,1-.95-.65-.98-2.13-1-5-.03-4.22.73-5.21,0-6-1.25-1.35-3.79,1.21-9,1-3.65-.15-3.57-1.45-9-2-1.68-.17-2.79-.16-4-1-.83-.58-1.16-1.18-3-4-1.27-1.94-1.9-2.91-2-3-2.01-1.79-4.06-.27-9-1-3.93-.58-4.97-1.89-7-1-1.9.83-2.91,2.81-3,3-.86,1.75-.21,2.54-1,4-1.07,1.96-3.02,1.25-4,3-.63,1.12-.02,1.64,0,5,.02,3.54-.65,4.2,0,5,1.4,1.71,4.95-.88,7,1,1.49,1.36,1.26,3.96,1,7-.2,2.35-.72,2.82-1,3-.92.6-1.79-.24-4,0-.87.09-2.02.22-3,1-1.06.85-1.43,2.08-2,4-.6,2.01-.4,2.51-1,3-.63.51-1.36.38-4,0-4.31-.61-4.59-.57-5-1-1.42-1.48-.47-4.49,0-6,1.05-3.34,2.37-3.52,4-7,1.08-2.32,1.39-4.21,2-8,.68-4.25,1.01-6.41,0-8-1.38-2.19-4.12-2.8-5-3-4.17-.94-6.54,1.37-8,0-1.01-.95-.01-2.17-1-6-.5-1.93-.85-3.29-2-4-1.3-.8-2.12.13-5,0-3.4-.16-3.99-1.55-6-1-2.14.58-1.98,2.3-4,3Z"/>
      <path class="cls-1" d="M15.32,201.57c-3.09,1.11-6.32-.13-8.46-2.48-.84-.86-1.84-2.35-1.48-3.76.16-1.14,1.25-2.09,1.74-2.79.99-1.34.34-2.52.39-4.12.1-1.11,1.22-1.99,2.17-2.11.92-.15,1.95-.11,2.74-.32,1.94-.5,3.51-2.4,4.4-4.44,1.95-4.48.56-8.8-3.46-11.44-2.82-1.84-6.52-2.4-9.98-2.7-.76-.11-1.63-.12-2.39-.63-.19-.13-.59-.43-.8-.93-.25-.52-.21-1.12-.05-1.58.31-.75.77-1.07,1.3-1.39,1.26-.67,2.58-1.3,3.38-2.29,1.38-1.36,1.42-4.4,4.1-4.39,1.05.09,1.41.62,1.98,1.18.31.37,1.5,1.65,1.79,1.95.05.03-.08-.06-.14-.08-.02-.01-.05-.02-.09-.02,1.82-.53,3.42.58,3.83,2.3.12.49.22.77.4,1.06,1.1,1.09,3.6,3.01,4.73,4.05,0,0,.66.55.66.55.08.07.2.15.17.13-.02,0-.05-.04-.22-.09-.15-.05-.43-.07-.57-.04-.36.02-.64.37-.57.3.62-1.4,1.76-3.22,3.02-4.17.35-.29.46-.5.66-.86.97-3.3.25-6.75.24-10.31-.08-.67-.03-1.83.28-2.83.1-.44-.04-.58-.23-1.1-.93-2.14-2.28-4.3-4.43-5.35-1.26-.61-2.92-.9-3.93-2.39-1.5-2.06-.48-4.94-.02-7.03.79-3.56,2.66-7.04,3.4-10.5.17-2.18.68-5.37-1.46-6.67-3.41-1.57-7.06-3.15-10.07-5.54-1.31-1.09-2.5-2.77-2.19-4.78.58-2.33,1.83-3.48,2.68-5.51,1.23-2.24,1.89-4.54,2.9-6.86,1.06-2.38,2.58-4.33,3.83-6.61,1-1.51,1.68-3.84,3.73-4.44,1.5-.46,2.79.51,3.81,1.34,2.43,1.77,6.3,1.35,8.44-.63,1.29-1.23,2.4-3.32,2.14-5.05-.03-.08-.07-.13-.06-.13.02.03.1.04-.07,0-2.77.06-6.04-1.41-7.55-3.89-1.89-2.9.13-6.36,1.95-8.52.54-.68,1.09-1.12,1.31-1.67.01-.01.03-.22.02-.04.01.13,0,.04-.03-.07-.16-.47-.41-1.09-.63-1.66-.71-1.5-.97-3.25-2.15-4.32,0,0-.34-.28-.34-.28-.07-.06-.16-.12-.3-.27-.09-.15-.5-.35-.55-1.32.04-.88.73-1.37.91-1.44.5-.28.92-.29,1.36-.33,4.04-.16,7.53,1.47,11.29,2.26.75.08,2.63.09,3.5.06,0,0,3.73-.07,3.73-.07,1.01-.09,2.44-.02,3.31-.3.34-.03.69-.59.8-1.74.1-1.08.2-2.28.03-3.38-.13-.64-.2-1.96.17-2.62.94-2.27,3.41-3.07,5.22-4.06,2.45-1.14,4.79-1.89,7.21-2.73,2.39-.77,4.7-1.57,7.01-2.46,1.15-.48,2.83-.97,4.21-.92,2.72.24,4.74.12,7.45-.2.9-.03,2.06.27,2.81.88.83.6,1.32,1.48,1.58,1.88.49.73.81.8,1.66.79,2.01-.21,4.49-.67,6.14-1.94.44-.33.65-.53,1.04-1.01.82-1.03,1.92-1.99,2.93-2.83.61-.56,1.71-1.37,2.84-1.56.78-.15,1.69,0,2.37.31.91.43,1.37.86,1.81,1.1,1.7,1.16,4.71.62,6.28-1.05.26-.3.64-.91,1.13-1.5,1.78-2.2,4.55-3.38,7.01-4.4,1.31-.6,2.87-1.11,4.13-1.69.09-.07-.04.05.03-.03.1-.18.19-.46.2-.84.01-.77-.31-1.77-.79-2.58-.22-.33-.4-.65-.71-.85-1.57-.75-3.42-2.32-4.72-3.6-2.54-2.68-4.36-6.02-5.29-9.58-.28-2.29.99-4.23,2.12-6.04,1.13-1.94,4.05-4.26,6.71-3.39.96.31,1.32.53,1.79.66,1.85.66,3.82.07,5.8-.16.45-.03,1.12-.05,1.89.3.79.36,1.34.98,1.65,1.79.27,1.04.34,1.62.77,2.61.53,1.28.62,1.53,1.53,2.24,1.38,1.23,2.7,2.79,2.59,4.83-.07,1.16-.82,2.16-1.51,2.83-1.26,1.14-2.35,2.39-3.1,3.85-.86,1.77-.15,2.8,1.35,3.88,1.15.69,2.07,1.09,3.24.99,4,.03,8.51.11,12.1,2.1,1.51,1.14,1.16,3.24-.04,4.17-1.9,1.53-4.44,2.99-4.03,5.75.2,5.91,4.45,11.35,2.62,17.33-1.03,2.3-.6,3.89.08,6.26.26,1.43.29,2.91.05,4.26-.26,1.48-.62,3.54-.09,4.94.14.24.21.26.37.27.74.12,2.58-.5,3.53-.53,0,0,1.96-.2,1.96-.2,2.18-.35,5.38.71,5.53,3.38.07,1.19-.32,2.05-.37,3.09-.1,1.13-.09,2.3.02,3.45.16.75.28,2.71-.34,3.63-.45,1.06-1.63,1.78-2.46,2.36-1.41,1.25-1.58,3.55-1.21,5.37.39,1.12.86,2.62.96,3.79.21,1.49.39,3.13-.34,4.62-.53.97-1.04,1.38-1.53,1.87-2.49,2.1-4.95,4.66-7.95,6.01-1.01.46-2.46.59-3.3,1.07-2.33,1.59-2.35,3.99-1.83,6.68.29,4.03,2.93,7.22,6.09,9.42,1.21.6,2.6,1.54,3.41,2.64,1,1.27,1.76,2.67,1.91,4.39.12,2.8-.88,6.05.25,8.5.04.08.09.15.14.22.07.1.07.09.05.07,0,0,.19.13.4.24,2.75,1.47,5.9,2.24,8.75,3.62.22.15.62.33,1.08,1.07.48.85.31,1.78.08,2.29-.6,1.37-2.25,2.11-3.41,2.63-2.32,1.02-4.88,1.66-7.17,2.42-.55.24-.67.61-.82,1.18-.49,1.97,1.15,3.55,2.86,4.42.98.51,1.95.74,3.1.87,1.02.1,2.35.27,3.21,1.06,1.24.96,1.47,3.17.51,4.38-.85,1.25-1.64,1.62-2.53,2.51-1.34,1.27-3.91,3.26-5.01,4.61-.01.02-.02.04.03-.05.03-.07,0,.01,0,.03-.13.52-.1.45.09,1.29.48,1.64.71,4.07-.11,5.86-.22.5-.7,1.18-.98,1.66-1.64,2.87-4.83,5.14-5.13,8.56-.04.37.03.55.02.6-.06.02.13.2.62.27,4.33.34,8.86-.38,13.22.3,1.86.23,3.53.72,5.28.6,3.15-.49,6.87-.94,9.91.15,3.15,1.56,1.94,5.12.17,7.28-2.43,3.23-5.04,5.94-8.01,8.69-2.63,2.26-5.2,4.32-6.85,7.32-1.05,1.56-1.38,3.84-2.99,5.54-1.58,1.62-3.11,2.34-5.27,2.77-3.62.39-6.53-1.06-9.94-1.14-3.74-.38-7.15.23-10.95.48-3.83.15-7.53-.52-11.24-.08-2.31.2-4.29.38-6.16,1.61-1.22.87-3.29,2.5-4.95,3.23,0,0-1.79.86-1.79.86-2.58,1.38-6.24,1.6-7.7-1.62-.59-1.27-.67-2.66-.75-3.84-.13-1.96-.16-4.1.01-6.04.03-.3.02-.76.01-.48.07.89.81,1.7,1.71,1.82.13,0,.14.02.18.02.03,0,.1,0,.1,0-.04.02,0,0-.1.04-3.32,1.1-6.98,2.65-10.77,1.69-1.49-.33-2.5-.91-3.73-1.27-1.67-.57-3.23-.51-5.19-.87-1.5-.28-3.28-1.04-4.46-2.31-.93-.93-1.45-1.96-2.07-2.9-.71-1.16-1.54-2.43-2.13-3.62-.01,0-.02-.02-.03-.03,0,0,.18.03-.07-.02-.5-.08-2.03.06-3.43.04-2.8.01-5.64-.63-8.27-1.55-.22-.07-.4-.11-.45-.12-.07,0-.04-.02-.02-.02.06-.04-.19.03-.39.16-.43.25-1.09,1.02-1.26,1.44-.1.26-.13.23-.19.88-.05,1.5-.78,3.41-1.99,4.49-.77.93-2.65,1.48-3.08,1.68-.02.01.04-.06.08-.1.04-.06,0,0,.06-.17.06-.19.02-.35.03-.15.28,2.5.28,5.79-.17,7.91,0-.1-.08-.38-.18-.57-.26-.6-.98-.63-.74-.59.18.02.73-.03,1.37-.12,8.54-1.37,8.56,6.85,7.08,12.85-.16.45-.32.97-.87,1.65-.65.77-1.46,1.15-2.33,1.28-.83.09-1.33-.04-1.66-.09-.85-.15-1.24-.24-2.14-.15-2.36.24-2.08,1.09-2.91,3.31-.17.54-.29,1.02-.43,1.65-.09.3-.11.81-.64,1.65-.78,1.24-2.42,1.63-3.58,1.49-1.09-.05-1.96-.3-2.96-.41-1.8-.43-3.72-.21-5.48-1.24-2.62-2.1-1.66-5.96-.82-8.44.66-2.54,2.8-4.53,3.91-6.72,1.11-2.09,1.52-4.28,1.88-6.65.28-2.11.77-4.95.46-6.91-.15-1.15-1.68-2.1-3.62-2.56-2.58-.77-4.24.27-7.06.06-1.35-.17-2.76-1.27-3.06-2.66-.19-1.02-.09-1.54-.03-2.39.06-1.12-.06-2.17-.35-3.32-.21-.89-.85-1.99-1.51-2.29.01,0,.13,0,.04-.01-.17-.04-.96.1-1.67.13-2.14.16-4.43-.43-6.29-1.37-.56-.27-.82-.39-1.18-.42-.07-.03-.13.03-.23-.06l-.21.14c-.4.29-.54.53-.84,1-.21.31-.5.82-1.02,1.28-.54.46-1.26.73-1.87.94h0ZM14.26,198.52c.28-.1.4-.3.55-.49.17-.18.45-.43.85-.84.72-.77,1.95-1.43,3.08-1.4.85-.49,2.26-.15,2.95.03,1.61.49,3.17.4,4.76.08,3.05-1.03,6.02.1,6.56,3.46.23,2.19.98,3.92,1.09,6.13.05.65.12,1.45.18,1.35,0-.02-.02-.12-.04-.18-.03-.07-.04-.09-.06-.13-.04-.05-.18-.16-.18-.16.03-.04.55-.16,1.13-.35,4.39-1.48,10.11-.36,12.64,3.9,1.27,2.19.75,4.93.35,6.98-.55,2.59-.86,4.96-1.45,7.57-.59,2.61-2,5.32-3.6,7.34-1.26,1.66-1.93,4.02-2.05,5.89.02.46.04.82.2.96,0,0,.08.08-.09-.07-.41-.23-.17-.09.08-.07,1.1.16,2.42.31,3.65.47.62.06,2.51.34,2.86.3-.07.01-.19.07-.24.11-.04.03-.1.07-.2.21-.18.31-.08.19-.04-.12.25-1.35.59-2.56,1.04-3.93,1.23-4.44,6.11-5.37,9.64-4.64-.25.04-.46.12-.72.4-.15.2-.08.12-.05-.02.29-1.42.33-3.47.3-4.79-.06-.54-.1-1.29-.41-1.5-1.33-.07-3.12.66-4.82.29-2.09-.37-3.75-2.43-3.45-4.57,0,0,.1-1.04.1-1.04.16-1.66.12-3.32-.11-4.95-.12-.99-.32-1.79.04-3.06.41-1.34,1.32-2.45,2.46-3.12,1.16-.67,1.92-.79,1.87-.93.06-.21.03.02.07-.59.15-3.83,3-7.61,6.98-8.41,1.71-.29,3.46.29,5.03.74,2.12.54,4.16.61,6.35.4,2.13-.28,5.37.02,6.91,2.1,1.41,1.82,2.86,4.04,4.18,5.89.13.17.23.28.24.27,0-.02,0-.02.08.03.11.04.11.04.43.1.32.05.91.08,1.59.13,2.42.07,5.46.97,7.75,1.71.64.1,1.65.22,2.58.32,1.74.2,3.16-.33,5.08-.76,2.66-.71,5.66,1,5.88,3.87.09,1.35-.25,2.41-.35,3.59-.14,1.51-.24,3.5-.17,4.96.01.17.04.27,0,.22-.02-.04-.19-.27-.39-.38-.18-.12-.44-.17-.49-.15.77.02,2.24-.65,3.14-1.01,1.8-.72,2.72-1.46,4.64-2.64,4.83-2.71,10.69-2.3,15.98-2.33,2.51.02,4.47-.19,6.98-.8,5.05-1.09,10.68-1.09,15.7-.36.99.02,1.06-.02,1.65-.34.28-.17.52-.36.56-.44.06-.09.16-.21.36-.68,1.3-3.8,4.26-7.74,7.5-10.25,2.8-2.15,5.94-4.43,8.55-6.87,1.23-1.09,2.51-2.28,3.43-3.48.09-.12.14-.24.12-.07-.04.13.07.77.42,1.08.15.15.27.21.32.22.03,0,.02-.02-.05-.04-.12-.06-.36-.13-.62-.19-2.33-.64-4.7-.57-7.08-.45-2.01,0-3.99-.84-5.83-1.09-2.37-.32-4.78-.78-7.21-.67-2.57-.02-5.35,1.05-7.87-.08-2.87-1.75-2.1-5.35-1.42-7.94,1.15-2.93,2.48-5.72,4-8.31-.19.49-.11.3-.11.27.23-.94.14-1.15-.12-2.26-.33-.98-.48-3.09.03-4.33,0,0,.13-.36.13-.36.05-.13.07-.2.17-.41.94-1.79,2.33-2.72,3.64-3.93,1.38-1.16,2.86-2.45,4.28-3.58.17-.14.35-.35.23-.18-.01.03-.11.17-.16.34-.08.2-.14.48-.13.82.02.84.56,1.64,1.3,1.88-.27-.09-.56-.1-.96-.17-6.75-.72-13.3-7.75-8.52-14.29.99-1.39,3.09-2,4.56-2.29,2.15-.56,4.54-1.15,6.42-2.14.12-.07.14-.11.07-.02-.24.39-.43.9-.04,1.64.3.47.44.45.39.45-.03-.03-.31-.17-.56-.28l-.82-.35c-1.77-.72-3.51-1.47-5.26-2.26-1.09-.52-1.96-.86-2.98-1.75-1.54-1.52-1.8-4.1-1.79-5.76.01-1.35.02-2.68.19-3.98.19-1.41.21-1.75-.2-2.69-.33-.8-1.09-1.7-1.74-2.22-4.7-2.54-8.75-7.43-9.09-12.86-.81-3.62-.02-7.89,3.52-10.02,1.33-.8,2.57-.78,3.81-1.28,1.59-.62,2.77-1.86,4.19-2.92,1.24-1.02,2.8-2.17,3.67-3.31.03-.03.12-.32.15-.49.04-.2.06-.41.07-.64,0-.9-.21-2.35-.45-3.29-.26-.91-.75-1.96-.79-2.97-.29-2.58.27-5.56,2.41-7.39.89-.76,1.35-.76,1.65-1.38.08-.16.12-.29.13-.37-.29-2.18-.37-5.24,0-7.51.03-.28.03-.53.01-.56-.03-.03.03.15,0,.1-.05-.03-.22-.14-.64-.22-1.7-.2-3.38-.5-5.08-.34-.62,0-1.19.2-2.2.14-1.06-.06-2.11-.94-2.46-1.89-.6-2.05-1.09-4.08-1.15-6.2-.05-1.14.05-2.18-.21-3.21-.72-1.79-1.17-4.26-.79-6.29.21-1.41.78-2.13.8-3.35-.02-4.17-2.46-8.24-2.86-12.38-.19-1.52-.47-2.72-.19-4.44.52-2.42,2.17-4.31,3.98-5.74,0,0,.82-.6.82-.6.25-.18.5-.36.57-.43.05-.03-.01-.02-.14.21-.17.33-.33.87.05,1.58.39.56.45.46.44.48-3.2-1.23-6.85-1.41-10.28-1.33-5.14-.25-10.45-5.53-7.56-10.75,1-2.11,2.73-3.75,4.26-5.31.05-.08,0,0,0,.08,0,.12.03-.04-.26-.43-.12-.17-.35-.48-.45-.6-.13-.15-.22-.24-.42-.4-2.08-1.45-2.92-4.13-3.46-6.43-.03-.16-.06-.27-.03-.18.02.09.16.3.19.32.04.05.11.1.2.14.19.08.21.04.05.05-.15,0-.43.05-.72.1-2.5.57-5.91.39-8.21-.8-.13-.03-.13-.03-.21-.03-.07,0-.25.05-.4.1-1.09.42-2.09,1.99-2.75,3.22-.4.73-.6,1.09-.64,1.77,0,.2,0,.17.05.37.11.4.33.95.56,1.47,1.33,3.2,3.25,6.02,6.14,7.95.66.41,2.07,1.16,2.68,2,2.37,2.78,3.26,8.69-1.2,10.02-3.13,1.35-6.79,2.19-9.12,4.72-1.92,3.2-6.04,5.08-9.79,4.18-1.24-.2-2.77-1.35-3.6-1.84-.12-.05-.16-.07-.24-.06-.03,0-.11,0-.14,0-.01,0-.04,0-.08.02-.18.06-.65.4-1.09.76-1.6,1.14-2.58,2.75-4.15,3.94-1.73,1.29-3.88,1.97-5.93,2.28-1.47.27-3.18.57-4.73-.2-.79-.37-1.63-1.15-2.04-1.86-.56-.86-.54-.95-1.11-1.22-.08-.03-.14-.04-.34-.04-1.78.19-3.92.4-5.79.27-1.29-.17-2.12-.19-3.27.02-5.05,1.88-10.67,3.38-15.58,5.47-1.06.52-2.28,1.09-3.04,1.63-.49.34-.7.63-.75,1.07.27,2.45.38,4.8-.6,7.2-.7,1.74-2.9,2.27-4.46,2.3-2.2.1-5.41.18-7.62.19-4.4.13-8.57-2.65-13-2.31.06-.02-.04.02.2-.08.04-.01.62-.37.63-1.1-.05-.82-.35-.88-.33-.92-.03-.03,0,0,.05.04,1.97,1.32,2.58,3.88,3.42,5.84.34.94.72,1.57.87,2.7.12,1.52-1.21,2.86-2,3.77-1.43,1.91-3.27,4.17-.79,6,.77.62,1.75,1.11,2.64,1.26.91.18,2.5-.05,3.48.89,1.19.98,1.35,2.87,1.1,4.07-1.25,7.96-10.91,10.97-16.7,5.83,0,0,.11.02.08.01.01,0,.09-.06-.02.04-.19.21-.53.76-.82,1.27-1.39,2.7-3.31,5.26-4.62,8-.99,2.26-1.81,4.77-3,6.93-.71,1.4-1.83,3.23-2.3,4.57.15,1.11,1.26,1.68,2.52,2.47,2.09,1.19,4.17,2.39,6.43,3.3,5.25,1.69,5.82,6.5,5.18,11.24-1.01,4.9-3.63,9.32-4.08,14.23-.02.23,0,.43.01.49,0,.02,0,0-.01-.03,0,.01.07.09.09.14.13.16.18.23.69.44,2.68.82,5.19,2.8,6.64,5.26.95,1.68,2.11,3.43,1.98,5.48-.04.41-.13.81-.26,1.2-.05.13-.06.78-.04,1.35,0,3.82.92,8.23-.54,12.04-.49,1.31-1.83,2.2-2.63,3.18-.53.7-.77,1.44-1.31,2.35-.53.93-1.96,1.68-3.09,1.29-.92-.27-1.37-.85-2.02-1.35,0,0-1.42-1.22-1.42-1.22-.63-.57-3.24-2.64-3.76-3.34-.6-.67-.87-1.65-1.08-2.36-.06-.26-.16-.3.07-.03.12.12.27.2.42.24.16.05.31.03.28.03-.04-.01-.65.17-1.36.1-.71-.03-1.47-.43-1.92-.85-.84-.79-1.52-1.71-2.28-2.47-.03-.03-.05-.05.01,0,0,.02.47.29.8.28.47.04.89-.23.97-.33.11-.12.07-.08.04-.03-.18.3-.47,1-.82,1.62-1.12,2.3-3.59,3.9-5.73,4.87.34-.27.6-1.08.31-1.64-.38-.71-.7-.66-.65-.68,6.67.69,15.75,2.58,16.91,10.68,1.62,5.93-2.04,14.01-8.84,14-.61.02-1.1.13-1.12.21-.04.04-.08.1-.07.12.29,1.51.38,3.54-.39,5.03-.33.7-.75,1.3-.94,1.69-.18.41-.08.36-.04.63.48,1.83,4.39,2.78,5.95,2.45h0Z"/>
    </g>
  </g>
</svg>