<?xml version="1.0" encoding="UTF-8"?>
<svg id="_Слой_2" data-name="Слой 2" xmlns="http://www.w3.org/2000/svg" viewBox="0 0 314.6 238.23">
  <defs>
    <style>
      .cls-1 {
        fill: #0a0000;
      }

      .cls-1, .cls-2 {
        stroke-width: 0px;
      }

      .cls-2 {
        fill: #6e7429;
      }
    </style>
  </defs>
  <g id="_Беляевский" data-name="Беляевский">
    <g>
      <path class="cls-2" d="M39.94,2.39c-.66-.07-7.85-.71-11.5,4.5-.21.29-3.27,4.8-1.5,8.5,1.44,3.01,4.98,3.2,12.5,5.5,8.45,2.58,12.67,3.87,15.5,6.5,5.3,4.92,6.96,13.75,5,21-2.3,8.48-9.03,12.58-13,15-2.55,1.55-13.21,8.04-21,4-4.76-2.47-5.85-7.53-8-7-2.99.74-.64,10.51-6,14-3.36,2.19-7.33.34-9,3-1.23,1.97-.13,4.68,0,5,2.33,5.56,10.06,3.09,16,9,3.95,3.93,5.64,10.1,5,15-.52,3.99-2.2,4.05-2,7,.38,5.67,6.6,6.24,10,14,1.36,3.12,1.62,5.18,3,9,.58,1.61.88,2.36,1.5,2.5,1.68.38,3.93-4.18,7-10,5.27-9.98,7.9-14.97,10-17,.98-.95,8.27-7.81,17.5-6.5,8.9,1.27,16.19,9.66,17.5,17.5.98,5.87-1.74,9.34,1,13,2.62,3.5,6.08,1.64,10,5,6.22,5.32,3.43,15.05,7,16,1.97.53,3.29-2.32,10-8,6.08-5.15,9.13-7.73,12.5-7.5,2.87.2,5.96,2.02,11,5,2.09,1.23,1.84,1.25,2.5,1.5,5.17,1.97,8.7-3.37,15-4,6.23-.63,11.76,3.69,16,7,6.48,5.06,7.37,9.27,11,9,2.86-.21,3.76-2.94,10-5,1.53-.51,2.68-.74,4-1,5.46-1.08,10.84-2.15,15.5-.5,5.66,2.01,8.39,7.37,10.5,11.5,1.36,2.66,5.19,10.47,3,20-1.88,8.18-7.21,13.39-9,15-5.06,4.55-8.31,4.13-9,7-1.34,5.62,9.8,12.82,15.5,16.5,6.41,4.14,11.57,6.05,17,8,9.52,3.42,14.68,5.27,17,3,.77-.76,2.13-2.85-2-15-5.63-16.58-11.44-22.34-9-26,2.82-4.23,12.14,1.17,17-4,5.14-5.47-.24-16.86,4-19,2.62-1.32,5.54,2.6,9,1,2.88-1.33,2.01-4.57,5-8,4.37-5.01,10.27-2.71,12-6,2.72-5.2-10.33-14.06-8-19,2.57-5.44,20.53.73,24-6,1.12-2.18.69-5.63-1-7-2.11-1.71-5.22.59-7-1-1.84-1.65.64-4.91,0-9-1.17-7.45-11.18-7.87-12-14-.82-6.1,8.53-9.89,7-15-1.15-3.83-6.83-3.13-8-7-1.31-4.33,5.29-6.9,7-15,1.1-5.22.08-12.28-4-15-4.01-2.67-7.23,1.71-15,1-11.02-1-15.28-10.66-20.5-8.5-3.99,1.65-1.77,7.4-7,12-5.18,4.56-14.02,4.78-20,2-4.46-2.07-3.48-4.02-9-7-4.58-2.47-5.66-1.35-14.5-4.5-7.05-2.51-9.2-4.24-10.5-5.5-2.31-2.24-3.48-4.52-4.5-6.5-1.3-2.53-2.24-4.36-1.5-5.5,1.16-1.79,5.02.26,6.5-1.5,1.7-2.02-1.42-7.1-3.5-10.5-2.01-3.28-3.8-6.12-6-6-1.4.08-1.39,1.27-4,3-.76.5-5.15,3.41-9,2-1.24-.46-1.13-.89-2-1-2.62-.34-3.85,3.59-8,7-3.94,3.24-5.25,1.69-9,5-3.03,2.67-4.69,5.89-5.5,7.5-2.39,4.74-2.47,8.23-5,9-1.49.46-2.76-.36-3.5.5-.75.87.15,2.14,0,4-.19,2.35-1.92,3.98-3,5-3.13,2.96-8.88,4.71-12.5,2.5-3.53-2.15-2.5-6.5-5.5-7.5-2.91-.97-4.52,2.92-9,3-5.03.09-10.71-4.65-11-9-.14-2.14,1.03-4.14,0-5-.59-.49-1.27-.09-3,0-2.11.11-3.66-.33-6-1-.67-.19-3.07-.88-5-2-3.37-1.96-3.45-4.18-7-9-3.75-5.08-7.67-8.04-9-9-2.73-1.97-5.08-3.09-7-4-2.94-1.4-5.63-2.27-11-4-.82-.26-4.1-1.32-8.5-2.5-2.36-.63-3.54-.95-4-1Z"/>
      <path class="cls-1" d="M39.7,4.69c-2.79-.22-6.12.38-8.25,2.29-2.01,1.83-3.9,6.05-1.84,8.18.6.57,1.98,1.07,3.41,1.49,2.91.83,6.17,1.7,9.16,2.65,4.66,1.55,9.84,2.68,13.9,5.99,6.74,6.04,8.38,16.08,5.88,24.47-1.9,6.73-7.48,11.96-13.25,15.3-4.18,2.61-8.95,4.97-13.99,5.74-3.57.6-7.64.14-10.8-1.85-2.65-1.58-4.24-4.11-6.07-6.27-.1-.1-.17-.08.23.04.34.07.68-.1.84-.24-.49,1.53-.69,4.56-1.24,6.79-1.07,5.35-4.88,8.68-10.41,8.78-.78.06-1.45.15-1.82.27-.39.14-.37.16-.51.36-.12.2-.21.55-.2,1.03.02.48.13,1.06.32,1.59.66,1.64,1.83,2.14,3.85,2.79,3.11.88,6.66,1.75,9.48,3.77,6.67,4.76,9.75,14.16,7.15,21.93-.55,1.6-1.34,2.05-1.21,3.45.18,1.92,1.15,2.81,2.8,4.34,2.49,2.11,5.14,4.87,6.58,7.97,1.52,2.99,2.17,6.24,3.22,9.27.29.78.55,1.65.86,2.24,0,.02-.06-.12-.35-.31-.41-.23-.84-.31-1.24-.16-.1.06-.07.01-.1.04.75-.73,1.43-1.86,2.02-2.88,3.05-5.45,5.89-11.24,9-16.75,1.28-2.19,2.48-4.43,4.25-6.4,5.55-5.59,13.87-9.16,21.79-7.21,8.63,2.27,15.46,9.6,17.46,18.22.83,3.16.22,7.09-.03,10.04-.03,1.29.19,2.04.85,2.9,1.01,1.44,3.33,1.51,5.18,2.12,2.78.83,5.29,2.81,6.85,5.21,2,3.01,2.62,6.65,3.11,9.98.16,1.14.44,2.28.66,2.81-.1-.07-.17-.11-.35-.11-.1.02-.15,0-.19.04.02-.03,0,0,.1-.06,2.78-2.35,5.57-5.48,8.5-7.8,3.3-2.66,6.32-5.77,10.48-7.29,2.75-1.07,6.33-.01,8.63,1.17,3.09,1.55,5.6,3.09,8.54,4.95,0,0,.21.14.21.14.04.03.03.02.02.02.81.29,1.67.45,2.59.23,2.28-.47,5.09-2.61,8.58-3.64,1.75-.53,3.67-.75,5.51-.58,7.04.75,12.5,5.5,17.54,9.89,1.99,1.72,4.2,5.1,6.13,6.21.92.28,1.69,0,2.66-.69,1.2-.85,2.71-1.91,4.26-2.65,2.99-1.52,6.41-2.22,9.61-2.76,6.54-1.29,14.41-2.27,19.98,2.7,2.68,2.28,4.63,5.26,6.2,8.27,4.21,7.41,5.89,16.66,3.23,24.93-2.52,8.21-8.68,15.35-16.37,19.06-.62.34-.91.62-.92.66-.37.95.32,2.12,1.25,3.39,2.74,3.41,6.52,6,10.24,8.52,5.11,3.5,10.43,6.35,16.3,8.44,2.92,1.07,5.96,2.16,8.89,3.15,2.36.84,5.67,1.87,7.78,1.66.14-.04.24-.07.27-.1.03,0,.11-.1.01.02-.08.12-.05.09-.02-.03.03-.15.05-.39.06-.65-.6-7.3-3.84-14.64-6.65-21.44-1.25-2.86-2.64-5.62-4.01-8.62-.67-1.63-1.8-3.9-1.8-6.28.05-5.64,5.34-7.11,9.87-6.65,9.75,1.03,10.46-2.23,9.94-11.11-.38-4.13.08-10.3,5.81-10.47,2.16-.06,4.03,1.24,5.68,1.6.41.07.58.04.81-.03.22-.09.33-.13.47-.32.33-.34.81-2.18,1.65-3.92,1.63-3.57,5.37-6.48,9.11-7.3,1.94-.55,3.63-.61,4.5-1.19.01-.05.05-.1,0-.45-.6-2.19-2.69-4.75-4.25-6.82-2.26-3.18-5.59-6.94-3.91-11.41,3-6.65,14.64-3.62,20.51-4.74,1.71-.33,2.97-.51,3.64-1.66.28-.63.35-1.81.09-2.52-.11-.39-.31-.68-.34-.67,0,0,.04.04.05.03-.01.01-.06-.02-.25-.02-.35-.02-1.06.11-2.02.21-.64.05-1.13.1-1.81.02-2.75-.14-5.03-2.81-4.82-5.51.37-4.39,2.22-7.37-1.93-10.44-4.72-3.32-11.04-6.41-9.24-13.73,1.17-4.07,4.06-6.34,6.18-9.26,0,0,.21-.35.21-.35.18-.25.22-.43.32-.62.07-.1.05-.16.07-.23.01-.06.05-.14.06-.19-.05-.08.05-.17-.02-.23-.01-.04-.01-.07,0-.11-.02-.03-.04-.06-.05-.1-.04-.06-.04-.11-.13-.18-1.76-1.34-4.01-1.74-5.87-3.55-4.13-4.27-1.87-8.88,1.34-12.62,2.69-3.26,4.21-6.9,4.02-11.1-.07-2.65-.71-5.67-2.59-7.45-.91-.79-1.47-.73-2.75-.43-2.37.64-4.8,1.47-7.45,1.64-7.31.76-14-3.01-19.36-7.29-1.18-.87-2.37-1.52-2.86-1.55-.23-.04-.35-.02-.56.09-.22.09-.2.1-.38.37-.36.53-.71,2.15-1.23,3.85-.51,1.71-1.36,3.63-2.64,5.21-6.2,7.49-17.39,8.12-25.72,4.15-2.39-.99-4.21-3.42-5.94-5.05-2.85-2.36-5.82-3.22-9.57-3.95-5.78-1.53-11.35-3.29-16.43-6.49-3.04-2.04-5.31-5.16-6.91-8.37-.74-1.48-1.66-3.13-2.19-4.88-.94-2.76.65-5.93,3.78-6.28,1.28-.26,2.93.12,3.79-.03-.17.05-.47.32-.51.5-.3-2.15-2.56-5.87-4.03-8.23-.95-1.54-1.93-3.19-3.07-3.94.04,0,0,.03.24-.03.12-.03.29-.13.32-.15-1.1,1.27-2.86,2.64-4.42,3.49-3.38,1.95-8.46,3.11-11.94.48-.21-.16-.01,0,.18.07.2.06.19.04.21.06.04-.02.14,0,.12-.04-.08.02-.53.39-.97.91-2.05,2.49-4.42,5.35-7.49,7.1-1.4.84-3.25,1.28-4.56,1.87-1.02.48-2.08,1.35-3.06,2.34-3.18,3.28-4.74,7.27-6.3,11.6-1,3-3.55,5.22-6.94,4.73-.38-.05-.59.03-.16-.08.5-.17.83-.58.91-1,.06-.34,0-.17.08.17,1.96,8.18-8.16,14.62-15.53,13.63-2.02-.25-4.26-1.28-5.7-3.11-1.42-1.79-1.86-3.79-2.35-4.76-.18-.35-.23-.48-.44-.62-.07-.02-.15-.06-.2-.06-.04-.01-.07,0-.21.03-.99.47-2.59,1.61-3.9,2.2-6.54,2.85-14.4-1.76-16.92-8.03-.84-1.98-.45-4.59-.09-6.45,0,.07.03.2.16.44.14.21.28.37.56.51.31.15.58.15.57.15-3.11.65-6.54-.06-9.52-1.04-3.4-.98-7.25-2.85-9.09-6.11-5.25-9.71-13.14-16.54-23.67-19.94-5.74-1.95-11.85-3.83-17.73-5.31h0ZM40.19.09c.87.12,1.84.39,2.67.61,5.34,1.48,10.89,3.07,16.12,4.87,9.57,3.08,18.15,9.21,23.66,17.69.93,1.38,1.76,2.89,2.52,4.07,1.46,2.43,3.83,3.23,6.45,4.08,2.24.64,3.95,1.23,6.08,1.02.69,0,1.13-.22,1.95-.22,1.77-.15,3.56,1.48,3.66,3.25.09,1.46-.34,2.8-.4,3.9.21,3.52,4.08,6.29,7.31,6.94,3.81.9,5.82-3.38,9.75-3.04,2.07.1,3.96,1.65,4.74,3.47.93,1.85,1.01,3.69,2.8,4.62,3.66,1.78,10.51-1.53,11.42-5.63.13-1.08-.56-2.19-.21-3.88.41-2.06,2.63-3.24,4.62-2.89.57.01.83.12,1.1-.18,1.05-1.52,1.55-3.93,2.5-5.86,2.46-5.54,6.46-11.4,12.58-13.14,1.98-.68,3.32-1.76,4.82-3.32,1.89-1.77,2.9-4.21,5.62-5.71,1.41-.81,3.83-.64,5.01.42.14.11.13.09.18.12.24.14.57.19.86.25,2.95.33,6.16-1.64,8.13-3.83,2.25-2.56,6.13-1.57,8.04.62,3.04,3.51,4.82,6.85,6.89,10.85,1.95,3.79,1.93,9.09-3.35,9.78-1.57.16-2.42-.06-3.47.02-.07.02.11.02.42-.25.31-.23.42-.66.44-.81.01-.16,0-.05.06.14,1.25,3.01,3.03,6.46,5.41,8.75,1.7,1.66,4.47,2.89,7.28,4,4.58,1.91,8.67,2.65,13.54,3.92,3.47,1.17,6.82,3.21,9.21,5.96,2.61,3.12,6.65,3.9,10.63,3.98,5.16-.05,10.53-2.18,11.91-7.49.51-1.7.76-3.32,1.79-5.16,1.32-2.42,4.36-3.9,7.11-3.45,3.87.61,6.41,3.46,9.41,5.33,4.77,3.32,10.06,4.35,15.49,2.55,9.88-4,15.37,4.03,15.63,13.13.33,5.45-1.87,11.1-5.29,15.21-.97,1.26-1.95,2.53-2.14,3.14-.1.32-.12.33-.06.49.22.61.61.71,1.43,1.16,2.85,1.14,6.54,3.34,6.79,7.02.7,4.14-3.04,7.73-5.33,10.45-2.78,3.24-2.38,4.98,1.14,7.25,6.32,3.82,10.64,8.31,8.56,16.53-.17.78-.32,1.52-.31,1.78-.02.17.03.06-.07-.11-.08-.24-.25-.37-.38-.46-.37-.2-.32-.03.35-.11,1.03-.16,3.37-.44,4.81.13,2.05.61,3.68,2.86,4.12,4.62,1.86,6.52-2.36,11.29-8.64,11.89-4.48.7-9.82-.06-14.18.58-.61.1-1.15.26-1.45.4-.32.17-.24.19-.22.13.03-.06-.04.02.06.41.09.38.33.92.65,1.48,2.46,4.46,6.61,7.51,7.82,13.04.58,2.67-1.04,6.08-3.83,7.05-1.83.79-3.39.82-5.03,1.29-2.46.62-4.21,1.94-5.3,4.16-.85,1.55-.87,3-2.17,4.78-1.51,2.23-4.68,3.28-7.18,2.7-1.62-.31-3.24-1.19-4.42-1.49-.07-.02-.1-.01-.1-.01-.03-.02.03.01.04-.01.06,0,.11-.05.16-.08-.6,2.21.11,6.46-.08,9.4-.06,3.85-1.47,8.5-5.22,10.67-4.19,2.55-8.75,1.41-13.05,1.51-.72.06-1.41.09-1.64.5-.05.03-.03.1-.06.15-.01.04.01.13,0,.19.08,1.1.61,2.37,1.29,3.9,4.13,8.68,8.18,17.68,10.38,27.18.76,3.39,1.66,8.71-2.23,10.82-4.15,2.14-8.71.03-12.7-1.14-3.08-1.06-6.02-2.12-9.05-3.25-6.11-2.2-12.04-5.38-17.4-9.09-5.66-3.79-19.74-13.51-11.49-21.02,1.66-1.22,3.78-2.02,5.23-3.1,4.62-3.23,8.35-8.26,10.05-13.67,2.86-8.48-.32-17.54-4.9-24.9-5.15-9.21-14.78-6.9-23.25-4.83-3.01.82-5.3,2.09-7.86,4.02-.69.48-1.62,1.07-2.76,1.35-5.12,1.3-7.78-4.4-11.01-7.11-5.21-4.33-11.86-10.26-18.99-8.06-4.68,1.59-9.57,6.15-14.94,3.05-1.3-.86-2.79-1.69-4.25-2.54-2.38-1.28-5.14-3.08-7.68-3.24-3.04-.15-7.52,4.39-10.34,6.61-2.45,2.04-4.57,4.1-6.86,6.37-1.03,1.01-2.72,2.62-4.54,2.59-5.64-.24-4.8-7.42-5.98-11.18-.69-2.73-2.06-4.95-4.17-6.2-1.02-.62-2.14-.9-3.83-1.28-1.81-.36-4.21-1.52-5.34-3.17-3.68-4.32-.48-10.14-1.74-14.9-1.54-6.78-7.3-12.9-13.92-14.58-6.22-1.51-12.7,1.46-17.14,5.81-3.28,4.12-5.5,9.18-8.09,13.82-2.19,3.89-3.95,8.2-6.8,11.81-.58.71-1.81,1.69-2.97,1.79-1.23.23-2.78-.7-3.26-1.63-2.07-3.83-2.43-8.22-4.35-11.98-1.89-4.55-6.91-6.53-9.08-11-.92-2.04-1.11-4.45-.25-6.53.47-1.05.8-1.55,1-2.1,1.48-4.44.1-9.81-2.58-13.51-1.62-2.21-3.81-3.66-6.52-4.58-4.14-1.31-9.78-2.12-11.39-7.04-1.02-2.67-.91-6.23,1.62-8.2,4.54-2.99,9.22.8,10.86-6.54.86-2.89.26-6.69,2.69-9.21,1.25-1.21,3.56-1.26,4.91-.06,1.17.94,2.01,2.32,2.87,3.36,2.48,3.43,6.42,4.62,10.47,3.89,4.42-.69,8.37-2.7,12.24-5.09,2.65-1.6,5.04-3.32,7.01-5.42,5.95-6.17,6.71-16.55,2.38-23.72-3.09-5.28-9.32-6.31-14.83-8.18-3.05-.98-5.94-1.74-9.13-2.65-4.2-1.01-7.86-3.69-7.6-8.59C24.66,4.03,32.17-.74,40.19.09h0Z"/>
    </g>
  </g>
</svg>