<?xml version="1.0" encoding="UTF-8"?>
<svg id="_Слой_2" data-name="Слой 2" xmlns="http://www.w3.org/2000/svg" viewBox="0 0 244.36 296.72">
  <defs>
    <style>
      .cls-1, .cls-2 {
        stroke-width: 0px;
      }

      .cls-2 {
        fill: #307a25;
      }
    </style>
  </defs>
  <g id="_Бузулукский" data-name="Бузулукский">
    <g>
      <path class="cls-2" d="M101.81,4.24c.56-1.13,2.84-1.06,5-1,2.78.08,4.17.13,5,1,.67.7.49,1.26,1,5,.37,2.73.56,4.12,1,5,.84,1.71,2.31,3.27,3,4,0,0,.51.54,1,1,3.73,3.49,11,5,11,5,5.17,1.07,9.63,2,11,0,1.27-1.85-1.35-4.39,0-7,1.04-2.01,3.65-2.53,6-3,6.69-1.33,8.22,1.95,17,2,1.25,0,2.8-.05,4,1,1.78,1.57.57,3.67,2,6,1.62,2.64,5.26,3.31,9,4,3.14.58,3.93.12,7,1,2.88.83,2.57,1.34,5,2,1.53.41,5.77,1.57,10,0,1.54-.57,2.49-1.28,4-1,1.85.35,2.93,1.9,3,2,1.16,1.72.18,2.87,1,5,.7,1.83,2.32,3.32,4,4,2.62,1.05,5.77.29,7,0,.71-.17,1.52-.42,2,0,.63.55.29,1.9,0,3-1.1,4.13-1.65,6.2-2,7-2.69,6.08-3.29,5.35-4,8-.34,1.26-1.63,6.04,1,10,1.81,2.73,4.7,3.89,5,4,2.05.79,2.73.25,4,1,1.38.82,2.41,2.55,3,8,.52,4.78.27,8.68,0,12-.59,7.31-.88,10.96-3,13-2.59,2.49-6.49,2.8-9,3-5.32.42-7.49-1.4-9,0-1.62,1.5.14,4.31,1,11,.94,7.28-.75,6.98,0,16,.52,6.28,1.49,8.15,0,11-.51.97-2.01,2.65-5,6-3.33,3.73-3.77,3.94-4,5-.47,2.12.86,3.12,4,9,3.04,5.68,3.01,7,5,8,2.08,1.05,4.88,1,7,0,2.46-1.16,2.46-2.89,4-3,2.62-.19,6.13,4.55,6,9-.08,2.63-1.36,2.99-1,5,.57,3.2,3.96,3.2,6,7,1.65,3.07,1.22,6.36,1,8-.69,5.22-3.75,8.33-3,9,.95.85,5.75-4.34,8-3,1.31.78.28,2.91,2,5,1.87,2.26,4.6,1.59,5,3,.55,1.97-4.76,3.55-5,7-.21,2.94,3.51,3.71,4,7,.67,4.53-5.47,9.1-9,11-5.8,3.11-14.05,4.09-16,1-1.37-2.16,1.46-4.58,0-7-2.12-3.5-11.03-3.33-13,0-.77,1.3-.17,2.54-1,3-1.51.83-3.86-3.02-8-3-.7,0-2.46.01-3,1-.87,1.59,2.55,3.65,4,8,.28.83,2.09,6.28-1,10-2.57,3.09-7.59,3.88-11,2-2.77-1.53-3.81-4.46-4-5-1.38-3.92.34-7.28-1-8-1.09-.58-2.44,1.52-4,1-1.82-.6-1.13-3.83-3-6-2.29-2.65-7.85-3.09-11-1-3.52,2.34-2.55,6.9-4,17-.35,2.42-1.83,12.09-6,22-3.16,7.51-6.28,14.63-13,17-3,1.06-6.29,1.03-9,1-5.49-.05-8.79-.08-10-2-2.3-3.65,6.24-9.05,5-18-.47-3.37-1.86-3.92-2-8-.07-2.22.29-3.64,2-10,2.43-9,2.77-10.1,2-11-1.64-1.89-4.89,1.04-12,0-4.26-.63-6.89-2.23-8-1-1.07,1.18.88,3.2,0,5-1.8,3.7-14.03,3.44-16-1-1.26-2.85,2.49-5.62,1-8-1.49-2.39-5.61-.14-12-3-2.87-1.28-3.61-2.44-5-2-.75.24-1.68.93-4,9-1.18,4.11-1.77,6.16-2,8-.53,4.2.15,5.32-1,7-1.54,2.25-4.68,3.07-7,3-3.52-.1-3.92-2.2-9-4-5.12-1.81-8.99-1.19-10-1-.85.16-5.82,1.09-6,3-.25,2.65,9.01,4.25,9,8,0,1.37-1.24,2.38-2,3-2.65,2.16-6.07,1.77-12,1-6.53-.85-9.77-2.38-11-3-2.76-1.4-4.39-2.24-5-4-1.24-3.61,3.3-6.92,2-9-1.22-1.96-5.52.57-9-2-2.18-1.61-3.19-4.6-3-7,.28-3.41,2.85-4.08,5-8,2.02-3.68,1.11-5.56,2-13,.25-2.11,1.17-6.08,3-14,2.85-12.35,3.99-15.49,2-18-1.95-2.46-4.32-1.06-7-4-1.61-1.77-2.07-4.85-3-11-.55-3.63-.15-2.37-1-11-.46-4.63-.61-5.31,0-6,1.79-2.03,7.01-.47,15,2,6.36,1.97,8.05,3.06,10,2,.85-.46,1.65-1.28,4-9,2.11-6.93,1.78-7.32,3-10,1.77-3.91,2.68-3.54,6-9,4.08-6.7,3.44-8.43,6-10,1.89-1.16,3.58-1.04,12,0,12.67,1.56,13.51,1.88,15,1,5.33-3.13,6.66-14.16,3-20-.8-1.27-1.32-1.48-2-3-1.68-3.73-.16-6.13,0-12,.16-6.1-1.37-7.38,0-9,.55-.65,1.85-1.69,11-1,7.97.6,10.37,1.64,12,0,.85-.86.9-3.24,1-8,.12-5.79-.46-6.61-1-7-1.23-.88-2.79.07-6,1-2.54.73-11.08,3.21-14,0-1.33-1.46-1.16-3.75-1-6,.12-1.65.29-4.03,2-6,2.32-2.68,6.03-2.93,7-3,3.29-.22,5.12,1.05,6,0,.54-.64-.09-1.19,0-4,.07-2.28.51-2.91,0-4-.53-1.13-1.27-1.04-2-2-1.08-1.43-.51-3.04,0-7,.71-5.51.07-6.12,1-7,2.11-2,5.6.92,8-1,2.14-1.7,1.58-5.77,1-10-.34-2.52-.62-4.33-2-6-1.11-1.34-1.97-1.44-3-3-1.1-1.68-1.86-4.25-1-5,1.23-1.07,5.17,1.98,6,1,.38-.46-.39-1.2,0-2Z"/>
      <path class="cls-1" d="M98.89,2.8c1.43-2.87,5.06-2.95,7.63-2.73,2.44.24,5.34.1,7.29,2.1,1.59,1.57,1.34,4,1.55,5.84.22,1.8.33,3.57.78,5.03,2.19,4.27,6.44,6.88,11.01,8.14,2.79.77,5.55,1.4,8.92,1.69.65.03,1.28-.01,1.57-.11.31-.12.04-.04-.02.2,0,.23,0-.29-.24-1.05-2.68-8.05,5.34-10.55,11.95-10.54,3.61.11,6.44,1.63,9.74,2.04,1.06.08,2.22.3,3.3.26,1.55.08,2.81-.1,4.57.67,1.3.58,2.43,1.64,2.98,2.99.84,2.01.28,3.08.97,4.46,1.13,2.01,4.33,2.27,6.67,2.83,2.3.49,4.94.39,7.36,1.03,1.55.32,3.31,1.2,4.73,1.89,3.14,1.08,6.84,1.44,9.93.02,4.02-2.32,9.35-.07,10.33,4.55.23,1.17-.01,2.31.32,3.15,1.13,2.89,4.33,3.16,7.13,2.46,0,0,1.09-.27,1.09-.27.22-.06.49-.12.84-.18.35-.05.79-.11,1.43-.02.62.07,1.51.42,2.11,1.05.62.62.91,1.37,1.03,1.91.34,1.97-.25,3.37-.58,4.9,0,0-.58,2.37-.58,2.37-.72,3.42-2.16,6.71-4.01,9.76-.44.7-.65,1.13-.81,1.88-1.15,4.09,0,8.21,4.09,9.86.38.16.69.23,1.12.28,0,0,.57.06.57.06.28.03.62.07,1.03.17,2.23.44,4.29,2.54,4.89,4.33.41,1.12.44,2.14.46,3.08.38,5.17.91,10.21.33,15.3-.31,3.26-.48,6.42-1.13,9.91-.42,1.96-1.01,3.98-2.52,5.57-4.18,4.09-10.48,4.29-15.83,3.75-.94-.14-2.04-.36-2.67-.36.02-.01.09-.02.13-.06.04,0,.05-.04.08-.06.06-.04.09-.23.08-.12-.03.18,0,.39.02.61.74,3.96,1.85,8.02,1.91,12.17.07,3.45-.66,6.32-.45,9.65.08,3.27.59,6.16.92,9.54.21,1.94-.18,4.42-1.37,6.13-.96,1.38-2.24,2.79-3.31,4-1.23,1.44-4.05,4.43-5.02,5.78.03-.09-.04.26-.01.29.28,1.03,1.07,1.97,1.65,3,2.11,3.15,3.91,7.07,5.84,10.22.11.12.14.13.22.17.07.04.28.13.48.2,1.69.55,4.24.21,5.1-1.39.19-.32.52-.77,1.45-1.42,6.7-3.92,12.21,6.84,11.28,12.39-.16,1.32-.77,2.51-1.09,3.33-.01.07-.02.27.03.44.21,1.05,1.26,1.49,2.23,2.34,6.4,4.71,5.41,14.19,1.88,20.34,0,0-.54,1.03-.54,1.03-.06.13-.16.32-.18.38-.02.04-.04.11-.02.04.1-.82-.66-1.68-1.52-1.62,1.93-1.03,6.85-5.28,9.54-1.89,1.17,1.69.32,3.11,1.43,4.54.99,1.48,2.83,1.23,4.36,2.38.33.25.62.73.76,1.17.31.93.01,1.88-.33,2.43-.99,1.85-5.06,3.88-3.77,5.91,10.43,7.9-.14,17.79-8.74,21.2-5.06,1.9-14.25,4.05-17.46-2.1-.36-.83-.51-1.81-.46-2.54-.07-1.19.77-3.02.78-3.68,0-.12,0-.11,0-.07.02.04.02.05-.03,0,.02-.04-.14-.11-.21-.2-1.84-1.05-5.01-1.09-6.99-.01-.19.09-.23.18-.32.23,0,.05-.04.03,0,0,.01-.03,0-.02-.03.28-.02.17-.02.35-.08.76-.24,2.27-2.58,4.24-5.14,3.56-2.42-.61-3.46-2.27-5.5-2.81-.52-.13-1.43-.2-1.92-.06-.09,0,.06.05.46-.32.18-.19.41-.48.51-.86.12-.35.09-.8.06-.95-.09-.37-.11-.25.05-.03.27.42.8,1.1,1.31,1.82,4.28,5.6,5.55,15.18-.8,19.89-5.37,4.16-14.16,2.91-17.54-3.09-1.94-2.96-2.28-6.69-1.94-10.07.02-.26-.04-.53.04-.18.27,1.13,1.74,1.97,2.84,1.67.11-.02.21-.06.21-.06.07-.03-.03.02-.15.08-3.26,2.28-7.48,1.26-8.61-2.89-.63-1.84-.33-3.01-1.98-3.76-1.47-.74-4.57-.72-5.8.33-.26.21-.41.34-.57.69-.73,1.68-.74,3.79-.98,5.89-.73,9.91-2.77,19.93-6.44,29.23-5.43,13.59-10.21,22.84-26.89,21.67-2.73-.13-5.48.11-8.36-.92-3.26-1.07-5.14-4.78-3.95-8.02,2.01-5.37,6.95-9.97,4.57-15.9-.63-1.46-1.44-3.87-1.48-5.62-.3-2.69.49-5.92,1.13-8.26.62-2.58,2.83-10.05,3.18-12.42.01-.07,0-.08,0-.1,0-.03,0-.05,0,0l.02.17c.02.07.05.22.11.37.33.68.43.67.82.93.11.04.17.07.23.09.05.02.16.03.18.04-1.79.27-4.98.98-7.3.88-3.26.12-6.82-1.01-9.81-1.67-.1-.02.1.08.72-.22.55-.26,1.05-1.01,1.1-1.57.04-.5-.03-.38.06-.11,3.42,10.69-12.35,11.69-18.75,7.95-2.43-1.22-4.58-4.41-3.91-7.39.25-1.72,1.24-3.37,1.51-4.38.02-.02-.02.09.01.14,0,.18.1.37.2.52.07.08.14.15.22.22.12.06.13.11.21.12.03.01,0,.01-.02,0l-.26-.04-.42-.04-2.38-.13c-3.9-.13-8.1-1.69-11.38-3.76-.06-.03,0,0,.11.03.14.04.36.04.52.03.2-.04.19-.02.48-.15.28-.13.5-.34.54-.38-1.79,3.75-3.08,9.03-4.18,13.25-.55,2.44-.31,4.33-.66,7.15-1.05,5.06-6.74,7.47-11.28,7.21-2.88.03-5.62-2.08-7.87-3.36-4.25-2.09-9.67-2.67-13.94-.5.56-.46.72-1.84.23-2.52-.17-.24-.11-.12.05-.02.33.25.97.61,1.62.96,1.7.95,4.4,2.11,6.04,4.03,2.75,2.94,1.65,7.23-1.4,9.45-4.17,3.63-10.11,2.58-14.87,1.95-3.39-.48-6.79-1.18-10.21-2.57-7.87-3.29-11.47-7.37-6.48-15.58.07-.14.13-.26.16-.34.11-.22.04-.22.07-.02-.03.32.15.76.47,1.11.31.36.77.41.65.39-.21-.14-3.83.15-4.73-.15-1.1-.17-2.28-.54-3.35-1.15-4.02-2.41-5.87-7.36-4.81-11.83.57-2.76,3.45-4.95,4.61-6.76,1.77-2.41,1.65-4.69,1.81-7.79.13-3.3.64-6.92,1.36-10.05.91-4.69,2.44-9.56,2.84-14.31.15-1.62.26-3.25.44-4.79.14-1.78.68-3.55.46-4.87.03,0-.13-.18-.11-.18-.01,0,.03-.02-.07-.06-1.03-.43-2.26-.61-3.71-1.46-4.2-2.18-5.47-7.21-5.91-11.22-.31-3.33-1.36-6.61-1.3-9.95-.13-3.32-1.45-6.3-1.49-9.7-.1-1.03.14-3.46,1.21-4.63,2.81-3.76,8.45-2.82,12.02-1.77,4.76,1.32,9.44,3.12,13.91,4.72.61.21,1.16.3,1.03.3-.03.01-.17.08-.13.07.05,0-.05.04-.17.15-.12.11-.16.17-.16.18,1.42-2.14,2.18-5.29,3.1-7.79,1.37-4.11,2.1-8.37,4.34-12.18.8-1.48,1.71-3.04,2.48-4.45.2-.54.74-.82.99-1.31,1.09-1.3,2.17-2.65,2.92-4.18,1.09-1.92,1.66-3.86,2.98-5.81,2.5-3.61,7.01-3.95,10.85-3.42,4.76.47,9.81,1.17,14.52,1.77,1.22.12,2.98.42,4.15.38.19-.02-.02.02-.03.03,3.63-2.63,3.98-8.47,3.14-12.58-.3-1.25-.81-2.37-1.4-3.25l-.72-.93c-.34-.45-.69-1.01-.94-1.51-2.37-4.18-.72-9.15-.52-13.51.11-2.25-.1-4.56-.46-6.75-.61-5.18,3.62-6.99,8.13-6.94,5.43-.26,11.15.95,16.42,1.13.08-.03.03,0-.04.04-.01.02-.02.01-.02.01-.02.02.05-.04-.06.07-.11.11-.16.23-.2.29.31-.99.27-2.51.34-3.68.03-2.57.28-5.18-.13-7.62-.02-.08-.04-.11-.01-.06.02.05.14.27.34.44.19.16.21.15.35.23.3.15.59,0,.05.13-3.93,1.25-8.04,2.53-12.28,2.81-1.85.07-3.85.08-6.15-.9-1.14-.55-2.36-1.5-3.07-2.77-1.2-2.19-1.06-4.25-.95-6.36.14-2.92.66-6.1,2.94-8.5,3.52-3.82,9.09-4.29,13.74-3.35.24.06.26-.08-.37.17-.61.2-.99,1.08-.98,1.63-.26-1.7-.29-3.55-.08-5.23.05-.43.11-.87.11-1.01,0-.18.02.1.03.05-.05-.08.07.1.1.1.03,0-.55-.33-1.12-.87-1.08-.97-1.82-2.67-1.83-4.04.06-3.65.97-6.41,1.01-9.89,0,0,.07-1.3.07-1.3.03-.28.04-.58.16-1.05.41-1.75,2.15-3.17,3.9-3.48,1.31-.25,3.08.01,3.97.19.93.11,1.34.27,1.69-.09.91-2.16.12-5.16-.11-7.62-.34-2.29-.43-3.61-1.83-4.92-1.5-1.01-3.07-2.96-3.7-4.65-.52-1.25-1.03-2.96-.67-4.57.14-.52.33-1.13.94-1.77.49-.54,1.31-.93,1.98-1.03,2.17-.26,3.91.86,5.55,1.37.04.01.02,0-.08,0-.03,0-.15,0-.45.06-.16.05-.6.2-.91.52-.29.28-.58.8-.64,1.19-.07.42-.05.57-.08.66-.03.06-.07.05-.15-.05-.14-.16-.38-.54-.51-1.16-.14-.62-.04-1.53.32-2.23h0ZM104.73,5.68c.18-.33.2-.83.1-1.05-.1-.22-.23-.2-.26.02-.05.64.11.9-.05,1.8-.22,1.6-2.03,2.78-3.42,2.6-1.1-.12-2-.42-2.9-.81-.72-.3-1.48-.57-1.66-.58-.04-.01-.03,0,.02,0,.05,0,.02-.01.19-.02.15-.02.18-.06.41-.14.2-.08.35-.24.51-.37.31-.36.37-.56.4-.71.02-.04.02-.12.02-.06.02.67.71,2.24,1.22,2.78,1.22,1.15,2.82,2.29,3.6,3.92.99,1.76,1.27,3.74,1.53,5.57.34,2.55.81,5.22.49,7.95-.13,2.48-2.08,5.44-4.83,5.9-2.16.41-3.83-.25-5.44-.24,0,.03-.03,0,0,0,.02,0,.02-.03.04-.02.01-.02-.02,0,.09-.12.09-.11.21-.39.21-.43-.07,1.12-.09,2.59-.22,3.81-.16,2.16-.72,4.83-.8,6.82,0,.19.03.2.03.2,0-.02.04.07.06.08,0,.03.15.09.81.59,1.33,1.02,2.08,2.89,1.96,4.43-.16,1.61-.34,2.87-.16,4.4,0,0,.07.53.07.53.02.2.07.42.09.89.2,2.4-2.19,4.28-4.41,4.02-4.08-.76-9.97-.82-10.61,4.43-.14,1.44-.52,3.98.03,5.28.12.19.28.24.49.39.69.3,2.01.44,3.37.35,2.87-.2,5.92-1.03,8.7-1.94,1.75-.58,4.06-1.57,6.14-.67,2.07.75,2.95,3.06,3.08,4.98.3,3.53.15,6.77-.01,10.25-.11,3.14-1.42,5.82-4.75,6.47-1.4.24-2.35.14-3.25.08-3.36-.33-6.3-.7-9.58-.87-2.39-.09-4.89-.29-7.11.26-.03.02-.03.02.03-.02.06-.03.21-.17.22-.19,0,.03.14-.2.17-.37.43,2.11.72,5.5.6,7.97-.06,1.75-.27,3.53-.49,5.12-.25,1.89-.49,3.53.41,5.19,4.28,5.1,5.16,12.05,3.49,18.31-1.05,4.03-4.09,9.14-8.77,9.55-1.02.07-2.03,0-3.01-.09-1.81-.18-5.53-.63-7.32-.85-3.93-.46-7.85-1.09-11.69-1.28-1.13,0-1.59-.03-2.29.53-.29.24-.33.41-.56.84-1.24,2.99-2.98,6.1-4.35,9.08,0,0-.31.58-.31.58-.12.18-.27.35-.34.56-.14.44-.41.79-.72,1.12-.99,1.21-2.4,2.23-3.33,3.3-2.13,3.07-2.31,7.14-3.47,10.65-.68,2.43-1.35,4.85-2.23,7.27-.44,1.1-1.16,2.99-2.5,4.06-3.63,3.09-8.54.68-12.17-.28-3-.84-6.21-1.72-9.09-2.38-1.42-.33-2.88-.53-3.7-.51-.38,0-.4.19.24-.21.23-.13.26-.23.45-.44.23-.27.49-.85.53-1.11.1-.56.04-.25.07,0,.45,3.08-.08,6.47.26,9.6.36,1.58.15,3.02.24,4.6.2,1.53.5,3.17.77,4.68.54,2.16.59,4.52,2.43,5.42.26.12.61.2,1.47.42,4.3.82,7.35,5.05,6.93,9.4-.26,3.94-1.35,6.71-2.72,10.1-1.8,4.4-2.49,9.44-3.68,14.01-1.31,5-1.05,9.13-1.66,14.32-.45,3.5-3.39,7.24-5.44,9.46-.71.93-.65,1.34-.62,2.44,1.23,7.27,7.11,1.63,11.07,5.48,1.52,1.44,1.59,4.06.85,5.62-.57,1.54-1.75,3.09-1.89,4.48.13.4-.13.32.98,1.06,3.77,2.28,7.86,3.36,12.39,3.89,2.54.31,6.02.9,8.25.37.76-.2,1.56-.82,2.03-1.39.03-.05-.02.02-.06.2-.04.17-.02.42.04.56.15.29,0-.02-.4-.31-2.13-1.82-5.98-2.5-7.87-5.37-.79-1.19-1.03-2.84-.48-4.21,1.64-4.01,8.32-5.05,12.07-5.11,3.82.03,7.42.93,10.86,2.6,3.06,1.44,3.86,3.21,6.74,2.52,1.32-.32,2.27-.71,2.71-1.59.09-2.11.14-4.99.69-7.3,1.02-4.21,2.11-8.01,3.53-12.08,1.09-3.22,3.05-6.71,7.18-5.87.97.25,1.98.75,2.62,1.17,2.42,1.47,4.8,2.25,7.66,2.42,1.19.05,3.04.13,4.17.39,2.81.53,4.95,3.42,4.55,6.27-.28,2.28-1.21,3.31-1.56,4.77,0,.2-.03-.09-.04-.04,2.15,1.89,7.47,1.99,9.9.75.07-.06.1-.09.03,0-.08.09-.18.34-.19.48,0,.15,0,.1-.04-.09-.22-1.19-.66-1.69-.48-3.53.2-2.07,2.16-3.89,4.21-4.03,1.5-.18,3.21.34,4.24.61,2.1.6,4.17,1.01,6.28,1.02,2.79.14,5.23-1.08,8.31-.8,2.06.28,3.98,1.98,4.3,4.07.31,2.05-.39,4-.82,5.9,0,0-2.5,9.37-2.5,9.37-.73,2.84-1.37,5.05-.64,7.73,1.44,3.27,2.36,7.37,1.46,11.05-.91,4.71-3.64,7.81-5.11,11.26-.06.17-.04.23-.05.19,0-.04-.02-.25-.09-.35-.06-.1-.12-.19-.17-.21-.06-.03.03.01.15.07.29.12.89.23,1.54.31,2.74.22,6.36.25,9.12.15,5.82-.04,9.54-3.63,12.11-8.83,4.23-8.29,7.21-17.28,8.72-26.48.88-4.87.9-9.5,1.74-14.55,1.24-10.36,18.06-11.36,21.13-1.78.35,1.04.52,1.94.67,2.42.06.21.14.29-.02.06-.25-.34-.7-.61-1.1-.66-.46-.08-.78.07-.71.04.33-.09,1.05-.67,1.67-.87,1.17-.64,3.51-.44,4.62.7,2.27,1.97,1.22,5.17,1.41,7.56.32,4.74,4.92,7.1,8.92,4.39,3.21-2.61,1.57-7.85-.58-10.79-.9-1.36-1.95-2.25-2.45-4.35-.73-4.04,3.2-5.93,6.43-5.69,2.78-.05,5.66,1.59,7.7,3.07.23.17.46.22.12.12-.08-.01-.16-.02-.4-.04-.74-.02-1.5.44-1.91,1.06-.3.49-.29.73-.3.71.04-3.73,3.19-6.28,6.63-6.98,5.27-1.36,14.06.58,13.54,7.53-.19,1.68-.64,2.42-.8,3.39-.01.07,0-.1-.06-.18-.05-.21-.18-.11.17.02,5.72,1.44,12.41-1.77,16.72-5.51,2.05-1.85,4.36-4.37,1.9-6.75-.84-.93-2.26-2.59-2.36-4.22-.49-3.78,3.21-5.78,5.48-7.7.1-.13.02-.02.08.13.02.03.01.08.02.13.03.04.03.07.03.08.01.03-.06,0-.17-.05-3.7-.81-6.05-2.89-6.4-6.82-.05-.34-.15-.5-.09-.4.07.12.17.14.14.14-.69.1-1.48.54-2.23,1.03,0,0-1.99,1.33-1.99,1.33-.84.46-1.3.95-2.5,1.08-.33.01-.85.01-1.42-.37-.51-.27-.97-1.16-.95-1.49-.09-.99.15-1.53.49-2.27,2.64-4.89,4.59-12.41-.71-16.17-1.55-1.05-3.56-2.54-4.06-4.73-.37-1.08-.28-2.9.2-3.88.37-.92.44-1.15.48-1.69.07-1.05-.19-2.3-.7-3.43-.43-1.01-1.28-2.15-2.22-2.62-.39-.23-.78-.16-.42-.01.07.02.2.03.41,0,.2-.03.45-.14.57-.21.27-.19.1.02-.24.3-3.07,3.39-8.27,4.54-12.59,2.64-2.22-.78-3.82-3.18-4.54-5.09-1.3-2.97-2.63-5.68-4.2-8.49-.93-1.74-2.21-3.6-2.13-5.79,0-1.23.75-3,1.55-3.7,1.73-1.86,3.29-3.51,4.95-5.4.64-.79,2.37-2.63,2.87-3.46,1.36-2.39.17-5.15.05-7.9-.35-3.34-.57-6.78-.21-10.16.18-1.7.34-3.09.3-4.54-.11-3.03-.67-6.08-1.37-9.11-.28-1.3-.71-2.94-.52-4.42.08-1.58,1.58-3.37,3.22-3.71,1.73-.42,3.11.11,4.53.25,2.78.38,5.99.13,8.58-.59,2.66-.86,3.89-1.98,4.36-4.96.49-2.87.65-6.18.88-9.35.21-3.15.23-6.22-.07-9.27-.19-1.51-.22-3.11-.95-4.37-.39-.77-1.03-1.52-1.33-1.96-.06-.03,0,0,.06,0-1.41-.12-2.86-.42-4.16-1.04-7.4-3.37-9.6-11.19-7.04-18.47.86-2.46,2.62-4.3,3.65-6.73,0,0,.49-1.01.49-1.01.7-1.73,1.1-3.6,1.67-5.37.21-.76.49-1.63.58-2.09.06-.22.02-.41.07-.12.03.15.15.51.49.84.33.34.82.52,1.04.53.46.02.2-.02-.12.07l-1.27.28c-6.52,1.66-13.8-2.05-13.69-9.36,0-.86-.02-.77-.13-1.02,0-.05-.16-.23-.32-.38-.16-.15-.33-.28-.49-.38-.98-.49-.91-.24-2.28.26-5.08,2.19-11.27,1.49-16.04-1.09-2.04-.83-4.04-1.07-6.34-1.18-3.6-.6-7.25-.93-10.46-3.15-1.81-1.21-3.19-3.78-3.29-5.86-.09-.94-.16-1.58-.23-1.67-.06-.14-.21-.25-.38-.33-.23-.11-.69-.19-1.37-.2-.63.02-1.89-.05-2.52-.06-3.98-.01-8.09-1.9-11.81-2.24-1.3-.06-2.58.18-4.14.52-1.43.29-2.57.81-2.83,1.21-.16.23-.24.37-.24.68-.03.84.52,2,.66,3.14.33,1.41-.25,3.54-1.52,4.5-1.49,1.27-3.64,1.47-5.23,1.38-2.6-.15-5.12-.71-7.58-1.21-2.76-.58-7.02-2-10.01-3.91-1.57-.95-2.97-2.34-4.21-3.72-1.3-1.49-2.68-3.24-3.17-5.23-.6-2.7-.81-5-1.25-7.61-.05-.34-.18-.64-.08-.31.13.26.15.31.29.44.15.09-.47-.04-1.17-.02-.71,0-1.55.02-2.35.03-.94-.05-1.86.06-2.5.18.03,0,.1-.03.29-.16.15-.11.46-.38.6-.73h0Z"/>
    </g>
  </g>
</svg>