<?xml version="1.0" encoding="UTF-8"?>
<svg id="_Слой_2" data-name="Слой 2" xmlns="http://www.w3.org/2000/svg" viewBox="0 0 227.81 280.19">
  <defs>
    <style>
      .cls-1, .cls-2 {
        stroke-width: 0px;
      }

      .cls-2 {
        fill: #66a06d;
      }
    </style>
  </defs>
  <g id="_Бугурусланский" data-name="Бугурусланский">
    <g>
      <path class="cls-2" d="M69.11,38.89c1-.38,2.06,3.2,5,4,2.29.63,3.74-.99,5,0,.86.67.4,1.59,1,4,.24.98,1.29,5.23,4,6,.98.28,1.9.03,2,0,1.68-.48,1.88-1.93,3-2,1.16-.08,1.3,1.46,3,2,1.84.59,3.04-.77,4,0,.73.59.16,1.49,1,3,.17.31.82,1.41,2,2,1.32.66,2.33.19,5,0,2.69-.19,2.52.22,4,0,2.81-.41,6.52-2.37,7.5-5.5.71-2.26-.37-3.96.5-4.5.9-.56,1.96,1.3,5,2,.38.09,4.63,1,7.5-1.5.11-.1.19-.17.29-.27,2.01-1.95,2.78-4.36,3.21-6.23,1.19-5.19-.02-7.49,1-8,1.5-.75,3.82,4.32,10,7,1.46.63,6.75,2.93,9.5.5,1.69-1.5,2.03-4.45,1.5-6.5-.39-1.5-.99-1.53-2-4-.83-2.03-1.43-3.52-1-5,.52-1.76,2.02-1.42,3.5-3.5,1.79-2.51,1.58-5.67,1.5-6.5-.28-2.81-1.58-3.51-1-5,.6-1.55,2.17-1.23,4-3,2.58-2.5,2.45-6.08,3-6,.51.08.13,2.54,1,6,.48,1.9,1.1,3.18,2,5,2.2,4.45,3.29,6.67,5.5,8.5,4.36,3.62,9.6,3.53,10.5,3.5.49-.02,2.53-.11,5-1,1.97-.71,3.74-1.35,5-3,1.48-1.93.82-3.37,2-4,1.33-.71,2.66.83,6,2,4.53,1.59,5.61,0,7.5,1.5,2.56,2.03.54,4.93,3.5,9.5,1.94,3,4.83,4.89,5,5,2.83,1.82,4.81,1.81,5,3,.26,1.67-3.56,2.29-4.5,5.5-.62,2.13,1.07,2.45,1,6-.08,4.14-1.84,5.58-1,9,.38,1.53.8,1.52,1,3,.4,2.94-1.18,3.55-1,6,.21,2.75,2.69,2.78,4,7,.53,1.71.53,2.94.5,3.5-.05,1.15-.15,3.17-1.5,4.5-1.4,1.38-2.82.63-4,2-.25.28-.85,1.07-1,4-.11,2.11-.25,4.79,1,8,1.13,2.91,2.8,4.73,4,6,3.59,3.83,7.31,5.22,7,6-.33.83-4.45-1.11-7,1-.25.21-.84,1.14-2,3-2.12,3.4-2.38,3.91-3,4-1.22.18-1.56-1.59-4-3-.43-.25-3.38-1.96-6-1-.74.27-1.12.63-4,4-2.97,3.48-3.26,3.9-4,4-2.2.29-2.73-3.07-6-4-2.4-.69-2.96.89-9,2-3.7.68-3.92.17-7,1-3.09.83-3.12,1.41-6,2-2.78.57-3.5.19-6,1-1.31.43-2.64.87-4,2-.9.75-1.6,1.83-3,4-1.75,2.71-1.93,3.57-2,4-.28,1.78.43,2.27,0,3-.62,1.07-2.72,1.06-10,0-3.09-.45-5.5-.85-9-1-4.48-.19-5.53.26-6,1-.98,1.55.62,4.33,1,5,1.39,2.42,2.73,2.39,3,4,.17,1-.55,2.35-2,5-1.57,2.87-1.98,3.04-2,4-.01.47.06,1.56,3,5,2.78,3.24,4.31,4.12,4,5-.34.98-2.64,1.12-4,1-3.06-.27-3.71-2.05-6-2-2.44.05-4.24,2.13-5,3-1.74,2-1.21,3.01-3,7-.46,1.02-.29.51-4,7-1.54,2.7-2.27,4.02-3,6-.86,2.35-1.29,3.56-1,5,.09.46.36,1.47,4,5,2.77,2.69,4.15,4.03,6,5,2.55,1.34,3.41.95,4,2,.9,1.6-.74,3.13-2,8-.57,2.22-.18,1.69-1,6-1.08,5.67-1.78,6.67-1,8,.69,1.18,1.4.65,5,3,3.26,2.13,3.8,3.29,4,4,.29,1.01-.1,1.09,0,3,.13,2.45.8,2.73,1,5,.14,1.62.32,3.68-1,5-.64.64-1.93,1.4-3,1-1.75-.65-.93-3.66-3-5-1.56-1.01-2.93.13-4-1-.82-.86-.21-1.72-1-4-.45-1.29-.9-2.6-2-3-1.37-.5-3.31.56-4,2-.69,1.42.38,2.08,0,4-.5,2.52-2.91,4.22-4,5-1.32.94-1.86.92-3,2-.99.94-2.03,1.94-2,3,.07,2.31,5.16,4.29,9,5,4.18.78,5.34-.24,7,1,2.84,2.12,3.47,8.08,1,11-2.36,2.79-6.11,1.14-8,4-1.65,2.5.55,4.78-1,7-2.27,3.24-10.27,3.07-12,0-1.48-2.63,2.45-5.93,1-8-1.46-2.08-5.81.73-14,0-.25-.02-.04,0-11-2-4.46-.81-6.74-1.19-9,0-1.64.87-2.65,2.2-4,4-2.77,3.68-2.35,5.28-4,6-2.14.94-4.84-.88-8-3-3.31-2.23-5.31-3.57-6-6-1.12-3.94,2.43-6.36,1-9-1.16-2.13-4.56-2.56-8-3-4.67-.59-6.49.47-8-1-1.59-1.55-1.22-4.34-1-6,.23-1.74.78-3.24,4-9,2.73-4.88,3.54-5.96,3-7-.62-1.21-2.24-.79-7-2-3.7-.94-5.58-1.44-7-3-1.45-1.59-2.2-3.9-2-6,.19-2.04,1.13-2.22,2-5,.7-2.23,1.37-6.18,0-7-1.32-.79-3.02,2.24-6,2-2.83-.23-5.24-3.27-6-6-1.14-4.07,1.25-7.91,2-9,1.58-2.28,3.32-3.03,3-4-.3-.91-2-.76-6-2-2.55-.79-3.83-1.2-4-2-.3-1.39,2.82-1.97,4-5,.54-1.4-.04-1.49,0-6,.03-3.36.36-5.26,1-7,.39-1.08,1.1-3.01,2-3,1.12.01,1.02,3.03,3,4,1.77.86,2.92-1.02,6-1,3.75.02,5.2,2.82,7,2,1.24-.56,1.25-2.2,2-6,0,0,1.09-5.51,3-11,1.96-5.63,3.18-6.09,3-9-.17-2.87-1.42-3.55-1-6,.45-2.64,2.35-4.44,4-6,3.2-3.04,4.86-2.63,6-5,.83-1.71,1.04-4.17,0-6-1.07-1.89-2.67-1.67-3-3-.51-2.06,3.2-3.06,5-7,1.56-3.41-.32-4.62,1-10,.62-2.53,1.52-4.22,3-7,.46-.86,2.5-4.63,6-9,2.21-2.76,3.35-3.69,4-6,.37-1.32.31-2.14,1-4,.76-2.04,1.31-2.36,2-4,.85-2.02.91-3.72,1-6,.16-4.17-.78-4.75,0-7,.72-2.08,1.7-2.12,2-4,.29-1.86-.57-2.45-1-5-.25-1.51-.72-4.8,1-7,1.11-1.42,2.52-.91,3.5-2.5.91-1.47.39-2.77,1-3Z"/>
      <path class="cls-1" d="M68.25,36.61c1.26-.48,2.69.11,3.39.98,1.19,1.3,1.42,3.65,3.4,3.79.7.12,1.49-.27,2.32-.38.99-.2,2.51.06,3.22,1.02.94,1.08.73,2.45.97,3.49.45,1.9,1.24,5.23,3.34,5.63.89-.05.91-.07,1.62-.85.64-.79,2.23-1.8,3.64-1.23,1.24.44,1.51,1.1,2.12,1.64.57.38.72.37,1.57.16.55-.16,1.56-.39,2.38-.16,1.22.24,2.22,1.5,2.33,2.66.09.7.06,1.21.47,1.82.44.7,1.04,1.12,1.47,1.13.9.1,2.38-.29,3.42-.28,1.13-.15,2.53.01,3.66.04,2.61-.36,5.93-2.06,6.37-4.85.18-1.11-.35-2.37.13-3.66.35-1.03,1.6-1.81,2.69-1.64.89.1,1.49.56,2.05.89,2.03,1.42,4.83,1.86,7.14,1,3.88-1.67,4.76-6.86,4.88-10.83.02-1.5-.39-3.78,1.41-4.73,2.31-1.08,4.02,1.2,5.45,2.55,2.04,2.04,4.32,3.71,7,4.73,2.03.7,5.03,1.87,6.78.38,1.07-.97,1.29-3.62.74-4.93-.52-.96-1.35-2.18-1.73-3.22-.99-2.22-2.33-5.78-.22-8.07,1.13-1.16,2.42-1.42,3.11-2.8,1.18-2.14,1.26-5.03.21-7.29-.69-1.27-.62-3.3.44-4.48.74-1,2.09-1.37,2.85-1.85,1.92-1.11,2.59-3.25,3.11-5.44.03-.1.06-.21.12-.36.06-.14.13-.35.39-.7.04-.49,2.04-1.19,2.71-.45.7.48.81.97.88,1.13.16.48.16.65.2.87.22,2.99.54,5.67,1.92,8.36,1.5,2.83,3.09,6.87,5.28,8.83,4.02,3.69,10.3,4.25,15.2,1.97,1.5-.62,2.46-1.17,3.13-2.41.49-1.02.51-2.72,1.71-3.62,1.2-1.09,3.14-1.01,4.4-.36,2.33,1.06,3.97,2.07,6.31,2.34,1.43.24,2.3-.2,4.08.32,2,.64,3.34,2.39,3.8,4.21.37,1.64.36,2.71.62,3.7,1.08,4.1,4.56,7.17,8.5,8.71.9.49,1.59.5,2.5,1.59,1.05,1.26.93,3.25-.17,4.43-1.04,1.18-2.18,1.65-3.04,2.6-.32.39-.65.87-.66,1.33,1.16,2.35,1.44,5.49.82,8.12-.47,2.39-1.34,3.82-.56,5.91.71,1.37,1.08,2.99.94,4.59.03,1.27-.85,2.77-1.03,3.73-.05.27-.02.67.03.84.05.19.11.32.41.68,3.03,2.83,4.77,7.81,3.76,12.1-.42,2.6-2.55,5.07-5.37,5.43-.47.13-.34.1-.45.18-.04.03,0,0,0,0,0,0-.02.04-.05.1-2.24,9.83,2.85,14.92,10.36,20.08,1.72,1.38,1.49,4.07-.82,4.65-1.97.41-4.14-.83-5.85.34,0,0,.19-.18.13-.13-.93,1.39-2.15,3.3-3.08,4.81-.74,1.01-1.14,2.08-2.54,2.63-1.22.44-2.58.03-3.42-.81-1.27-1.42-2.07-2.23-3.72-2.89-1.19-.42-2.23-.67-3.21-.21-2.19,2.09-3.84,4.47-6.03,6.73-.29.26-.58.62-1.37.99-1.17.52-2.76.24-3.72-.48-1.71-1.25-2.47-3.16-4.28-3.44-.3-.04-.45-.04-.91.09-1.06.34-2.36.89-3.52,1.2-3.01.97-6.22,1.07-9.25,1.49-3.01.63-5.9,2.38-9.04,2.54-1.07.11-2.36.16-3.35.47-2.03.59-3.85,1.28-5.04,3.17-1.09,1.77-2.63,3.59-3.19,5.6-.08.5-.02.66.08,1.22.42,1.4-.43,3.12-1.76,3.62-1.86.69-2.95.42-4.6.36-6.59-.47-12.81-2.43-19.05-1.45,0,.02.13-.13.13-.12,0-.04,0,.02-.02.1.14,1.81,1.25,3.63,2.6,4.92.59.52,1.37,1.63,1.44,2.5.2,1.01-.09,1.95-.46,2.76-1.13,2.32-2.58,4.32-3.88,6.38-.14.26-.13.46,0,.84.15.43.44.93.74,1.41.51,1.06,1.73,1.63,2.47,2.55.84.86,1.71,1.63,2.65,2.5.71.78,1.2.95,1.59,2.39.27,3.64-4.52,3.75-7.03,3.29-.76-.15-1.54-.43-2.19-.77-1.06-.51-1.54-1.06-2.54-1.08-1.37.06-2.37.92-3.41,2.02-.82.88-1.1,1.36-1.45,2.51-.34,1.14-.77,2.47-1.29,3.65-.21.44-.63,1.46-.91,1.85-2.62,4.61-5.92,9.21-7.32,14.33-.19.88-.23,1.51.32,2.22,2.05,2.61,4.98,5.41,7.48,7.44,1.09.82,2.41,1.39,3.72,1.81.31.11.72.22,1.24.58.91.65,1.4,1.84,1.33,2.91-.16,1.71-.79,2.54-1.27,3.95-1.47,3.36-1.54,7.05-2.36,10.56,0,0-.81,3.62-.81,3.62-.15.88-.48,1.58.01,2.18,1.87.85,4.51,2.29,6.23,3.71,1.11.9,2.35,2.03,2.71,3.52.23.64.08,1.63,0,2.24-.21,1.77.49,3.42.78,5.19.14,1.41.23,2.62-.06,4.03-.17.7-.44,1.46-.99,2.04-.46.64-.9,1.31-1.63,1.66-1.05.65-3.18.68-4.06-.6-1.25-1.34-.68-4.01-2.68-4.35-.37-.07-.93.07-1.94-.08-1.09-.21-2.05-1.02-2.37-2.12-.34-1.67-.14-2.16-.69-3.55-.27-.73-.55-1.7-1.16-1.91-.83-.2-2.26.87-2.31,1.69,1.38,4.46-2,7.97-5.7,10-1.06.58-1.72,1.18-2.48,2.03-.34.38-.58.77-.58.91,0,.07,0,.08.03.18.5.94,1.65,1.46,2.82,2.04,2.08.91,4.43,1.54,6.68,1.77,1.95.28,4.46-.4,6.09,1.17,3.75,3.35,4.06,10.46.05,13.75-2.29,2.02-6.16.75-7.2,3.6-.28.94.06,2.04.12,3.18.05.73-.02,1.64-.4,2.46-.79,1.63-2.24,2.52-3.57,3.03-3.77,1.37-10.38,1.06-11.7-3.52-.49-2.2.86-4.09,1.41-5.97.12-.45.07-.65.03-.68-.07-.06.02-.06-.34-.12-2.83.06-5.86,1-8.95.96-.95.11-1.97-.05-2.92-.04-.35-.03-.58,0-1.09-.09l-3.66-.61-7.29-1.21c-2.39-.37-4.9-.87-6.53-.44-2.79.89-4.63,4.27-6.02,6.79-2.24,6.35-7.67,4.6-12.09,1.47-5.44-3.38-10.5-7-7.55-14.14.24-.62.46-1.16.57-1.55.12-.41.12-.6.1-.67,0-.16-.25-.55-1.06-.9-1.76-.78-4.51-1.04-6.48-1.34-1.97-.36-3.8.18-5.98-.49-2.69-.9-3.72-4.06-3.45-6.58.08-4.05,2.41-7.73,4.22-10.98.93-1.74,2.8-4.74,3.33-6.25.01.05.01.06.07.12.1.03-.47-.16-1.03-.23-3.87-.74-7.7-1.09-11.34-3.01-3.36-2.13-5.06-6.47-4.02-10.36.18-.69.63-1.43.93-2.03.96-1.62,1.45-5.28,1.2-6.46.06.13.5.56,1.02.59.5.04.61-.1.48,0-.2.11-.77.54-1.37.93-1.35.93-3.48,1.65-5.25,1.32-5.96-1.08-9.45-7.86-8.22-13.47.69-3.53,2.71-6.64,5.27-9.05.02-.02,0,0-.03.04,0,.01-.06.09-.11.2-.09.18-.25.69-.18,1.19.06.73.54,1.42,1.15,1.74.16.06-.06-.04-.28-.09-1.35-.38-3.24-.84-4.56-1.35-1.15-.49-2.71-.89-4.01-1.73-1.99-1.18-2.61-3.97-.85-5.72.71-.77,1.97-1.46,2.63-2.2.29-.3.65-.87.74-1.22,0-.57-.09-1.47-.13-2.2-.14-4.02.02-8.2,1.8-11.94.79-2.04,3.05-4.1,5.33-2.34,1.44,1.31,1.15,2.61,2.14,3.61.05.04.05.03.03.03-.03.01,0,.01.15-.02,2.51-1.15,5.87-1.69,8.52-.41.71.29,2.34,1.27,2.72,1.4-.04,0-.19,0-.23.04-.05,0-.18.14-.17.13.02-.01.19-.5.28-1.03l.64-3.6.07-.27c-.02.06-.05.16-.06.19v-.07s.04-.15.04-.15l.06-.29c1.11-5.1,2.37-10.21,4.3-15.08.75-1.69,1.24-3.04.61-4.74-2.53-5.01-.63-9.62,3.05-13.29,1.19-1.5,3.96-3.36,5.42-4.33.48-.71.45-2.36.57-3,.03-.19.08-.33-1.02-1.21-.73-.61-1.39-1.58-1.56-2.51-1.01-4.57,5.02-5.76,5.84-9.6.31-1.21-.08-2.36-.11-3.78-.21-3.48.84-6.76,2.17-9.88,1.71-4.4,4.18-8.47,7.24-12.06,1.75-2.25,3.75-3.51,4.17-6.3.35-2.34,1.5-4.82,2.7-6.88.99-2.23.88-4.9.71-7.48-.2-1.58-.54-3.83.16-5.51.29-.95.91-2.02,1.51-2.76.6-.75.48-.51.65-.88.13-.41.16-.51.08-.98-.12-.52-.42-1.46-.58-2.33-.73-3.93-.43-9.59,3.99-11.28.36-.17.57-.28.64-.38.12-.23.15-.52.16-.8,0-.18,0-.34.02-.69,0-.18.01-.4.1-.84.18-.91.88-1.84,1.82-2.17h0ZM69.98,41.18c.57-.19,1.07-.74,1.2-1.29-.14,1.68-1.2,3.7-2.84,4.59-1.25.73-2.11.42-2.59,1.88-.56,1.43-.18,3.74.3,5.32.32,1.02,1.07,2.32,1.15,3.66.08,1.3-.06,2.38-.64,3.58-.46.9-.82,1.21-1.1,1.88-.08.17-.15.4-.2.62-.11.48-.08.53-.03,1.08.55,4.41.39,9.65-2.07,13.7-1.54,2.16-1.45,4.52-2.32,7.04-.9,2.4-2.87,4.39-4.2,6.24-1.6,1.91-3.39,5.01-4.81,7.08-1.44,2.3-3.18,4.64-3.78,7.34-1.03,3.01.04,5.85-.79,8.94-.76,2.62-2.57,4.8-4.45,6.59-.25.25-.48.51-.63.7-.17.22-.17.34-.1.28.1-.1.25-.5.2-.75,0-.18-.13-.51-.24-.67,0-.03-.04-.07,0-.07,5.53,1.63,6.47,9.06,3.39,13.3-.76,1.3-2.93,2.71-3.85,3.13-1.63.85-3.03,2.17-4.35,3.42-.98,1.1-1.58,1.86-1.51,3.11.45,1.26.87,3.73.72,5.32-.13,2.74-1.86,4.79-2.82,7.13-1.48,3.26-2.53,6.86-3.4,10.35-.46,1.79-.8,3.75-1.21,5.78-.36,2.49-2.33,4.91-5.35,3.96-1.11-.35-2.11-1.13-3.07-1.5-2.06-.94-3.64-.12-5.75.64-1.97.72-4.65-.63-5.5-2.5-.42-.73-.67-1.45-.87-1.85-.06-.2-.25-.32.11.04.46.45,1.47.45,1.86.11.19-.16.08-.07.01.06-1.62,3.08-1.59,6.77-1.39,10.39.09,1.08.31,2.04.14,3.32-.46,2.64-2.45,4.43-4.32,5.99.1.02.52-.9.22-1.53-.25-.65-.53-.74-.45-.73.12.04.68.23,1.2.37,1.6.42,3.51.87,5.13,1.15,0,0,.99.21.99.21,1.72.28,3.58,1.62,3.74,3.6.22,2.12-1.21,3.42-2.48,4.64-1.93,1.83-3.33,4.99-2.92,7.38.21,1.53,1.43,3.4,2.59,4.15,1.28.64,1.29.72,4.32-1.09.4-.19,1.13-.55,2.24-.46,1.13.09,2.14.89,2.52,1.54.6.91.82,2.06.81,3.08-.13,3.1-.76,5.55-2.22,8.23,0,0-.47.78-.47.78-.37.6-.38.89-.45,1.65-.02,5.28,4.43,5.81,8.58,6.93,2.01.61,4.1.41,6,1.61,1.02.72,1.41,2.38,1,3.39-.27.87-.6,1.41-.9,1.99-1.19,2.11-1.69,3.02-2.72,4.86-1.61,3.02-3.52,6.1-3.37,9.58.04,1.23.16,2.13.83,2.61.08.04.12.07.22.08.17.05.63.07,1.2.03,2.41-.22,5.29-.06,7.73.29,5.89.54,10.08,4.01,7.09,10.1-2.15,4.48,2.34,6.23,5.66,8.66,1.5.91,3.23,2.37,4.83,2.12,0,0,.04-.01.14-.19.8-1.63,1.8-3.52,2.97-4.97,1.62-2.2,3.77-4.7,6.76-5.3,2.94-.57,5.41.14,8.12.62,0,0,7.25,1.44,7.25,1.44l3.61.72c.09.03.48.05.74.08,3.35.31,6.33-.12,9.81-.61,2.01-.36,4.66.07,5.18,2.51.35,1.4-.35,2.89-.85,4.04-.93,2.11-1.38,3.13.89,4.09,2.44.95,6.71.84,8.23-1.5.37-.95.04-1.8-.02-2.95-.2-1.53.34-3.34,1.48-4.47,1.72-1.99,5.11-1.53,6.93-2.84,2.3-1.9,2.14-6.01.76-8.41-.46-.69-1.04-1.41-1.87-1.49-1.02-.14-2.51.07-3.64-.12-3.69-.47-10.05-1.85-11.82-5.57-.63-1.35.26-3.1,1.06-3.88,1.61-2.06,4.1-2.84,5.93-4.57,1.11-1.03,1.96-2.26,1.86-3.69-.2-.96-.55-2.44.03-3.42.99-1.95,3.02-3.28,5.32-2.89,1.76.31,2.71,2.26,3.16,3.68.21.59.43,1.33.54,2.03.11.69.13,1.49.19,1.65.02.05.03.06.1.13.06.05.05.05.16.08.2.07.89-.04,1.74.05.88.08,1.79.51,2.42,1.13,1.14,1.08,1.44,2.65,1.79,3.89.11.32.15.46.32.6.12.08.48.09.88-.08.37-.18.96-.26,1.25-.6.21-.4.38-.82.44-1.33.31-2.52-.71-4.55-1.17-6.95-.12-.88-.15-2.15-.02-3.03.01-.21,0-.24-.06-.46-.97-2.09-4.22-3.75-6.33-4.82,0,0-.84-.36-.84-.36-2.36-.91-2.63-3.42-2.04-5.49.62-2.87,1.35-6.07,1.63-8.95.31-2.55,1.27-5.05,2.2-7.42.24-.73.53-1.23.27-1.65.03-.03-.75-.26-1.35-.47-2.51-.81-4.79-2.62-6.63-4.41-1.88-1.82-3.7-3.39-5.32-5.55-2.06-2.52-.6-5.97.37-8.54,1.8-4.48,4.97-8.79,6.96-13.05.8-1.75,1-3.59,1.96-5.4,1.9-3.22,5.96-6.4,9.88-4.56,1.96,1.13,3.64,1.85,5.79,1.35.17-.03.31-.1.25-.06-.19.13-.4.63-.31.94.1.37.1.18-.04.03-.93-1.13-1.99-2.27-2.93-3.49-.88-.94-1.24-2.26-2.13-3.23-.63-.91-1.33-1.85-1.42-3.12-.13-1.11.74-2.4,1.16-3.22.77-1.52,1.69-3.33,2.23-4.82.1-.29.21-.64.14-.83-.12-.28-.19-.25-.5-.55-2.43-2-5.11-6.25-3.54-9.51,1.6-2.78,5.38-2.08,7.9-2.12,4.97.18,9.89,1.31,14.75,1.74.81.07,2.17.16,2.72-.02,0,0-.21.13-.28.32-.05.1-.09.31-.08.39-.28-.79-.26-2.27-.02-3.25.34-1.25,1.01-2.36,1.65-3.42,1.24-1.85,2.19-3.78,3.95-5.3,2.1-1.69,4.72-2.54,7.34-2.95,2.28-.17,4.58-.51,6.65-1.53,4.04-1.88,8.68-1.32,12.81-2.69,2.06-.53,3.88-1.84,6.2-1.44.89.15,1.65.45,2.4.86,1.73.98,2.54,2.32,3.55,3.19.07.03.06.04,0,0-.09,0,.08-.04-.22.05-.22.11-.06.04.08-.13,1.49-1.65,3.19-3.76,4.74-5.52.44-.49.83-.95,1.51-1.55.67-.63,1.81-1.01,2.71-1.14,3.9-.52,7.47,1.64,9.8,4.34-.07-.05-.26-.14-.46-.16-.18-.01-.25-.01-.49.06-.26.09-.4.23-.41.24,1.27-1.82,2.46-3.97,3.76-5.91.22-.29.49-.71.86-.98,1.99-1.67,4.8-1.64,7.16-1.31.26.03.58.05.56.04,0,0-.05,0-.18.03-.71.1-1.54,1.15-1.4,2.01.07.5.15.62.29.84.02.05.06.1.1.13,0,0-.03-.02-.05-.04-6.19-3.98-12.25-9.91-12.48-17.75-.08-3.8-.3-9.45,4.43-10.42.75-.17.96-.24,1.08-.32.29-.18.68-.7.83-1.54.48-3.11-.31-5.77-2.79-8.09-.5-.57-1.13-1.5-1.38-2.51-.45-1.66-.1-3.75.54-5.06.41-.93.32-1.36.2-2.26-.89-1.84-1.45-4.14-1.09-6.21.59-3.1,1.67-5.03.83-7.9-.27-.66-.56-1.27-.74-2.11-.53-4.82,3.81-6.9,4.76-7.8.06-.05,0-.06-.14.37-.1.35.03.82.26,1.1.22.24.19.15.03.08-1.42-.63-2.92-1.23-4.37-2.21-3.46-2.47-6.45-5.83-7.39-10.09-.31-1.41-.36-2.83-.55-3.59-.1-.39-.18-.54-.33-.72-.17-.19-.45-.39-.53-.41-.09-.12-1.86.02-3.28-.18-2.59-.36-5.4-1.62-7.48-2.75-.19-.09-.37-.15-.39-.15-.02,0,.17,0,.28-.05.1-.03.28-.21.32-.29.05-.11-.02.03-.08.31-.13.55-.37,1.44-.77,2.19-1.01,2.11-3.4,3.67-5.34,4.34-6.36,2.79-14.22,1.88-19.42-2.92-2.03-1.9-3.26-4.34-4.44-6.71-1.74-3.32-3.53-7.29-3.69-11.12,0,0-.14-1.77-.14-1.77,0-.08-.05-.22.01-.03.03.02.07.36.64.75.54.62,2.35-.02,2.3-.37.17-.22.17-.29.18-.29-.63,2.83-2.07,6.09-4.87,7.63-.77.48-1.44.65-1.87.99,0,0-.05.07-.06.13,0,.04,0-.01,0,.07.01.07.08.28.19.54,2.18,4.78.83,11.41-4.02,13.97-.56,1.24.36,2.66.88,4.15.33.71.71,1.54,1.17,2.17,2.81,4.66.35,12.06-5.67,11.83-4.2-.13-8.02-1.88-11.34-4.28-1.75-1.31-3.38-3.09-4.92-4.41-.02-.02.12.05.18.05.11,0,.45.02.66-.14.24-.1.46-.4.52-.53.1-.28.02-.08.03.16.2,5.87-.96,13.55-7.24,16.15-3.74,1.41-7.93.58-11.1-1.68-.03-.02-.03,0,.17.03.55.12,1.24-.45,1.28-.93.4,2.53-.17,5.42-2.02,7.26-2.11,2.22-4.7,3.42-7.73,3.8-1.32.1-2.4-.23-3.72-.04-1.73.06-3.54.77-5.39.08-2.43-.89-4.1-3.33-4.28-5.84,0-.05-.01,0,.05.13.06.14.18.28.27.35.08.08.22.15.36.19.13.04.24.02.22.03-.85.25-2.05.53-3.27.29-1.32-.21-2.63-1.18-3.36-2.16-.15-.19-.17-.11.13,0,.3.08.44.03.62-.05.14-.1.03-.04-.17.18-1.63,2.16-5.35,2.62-7.47.82-2.9-2.55-3.49-6.1-3.85-9.56-.04-.2-.04-.13.03-.04.04.04.02.03.07.04.12-.03-.39.03-1.02.21-3.35,1.18-6.75-1.37-8.93-3.5.16.25.97.59,1.79.26h0Z"/>
    </g>
  </g>
</svg>