<?xml version="1.0" encoding="UTF-8"?>
<svg id="_Слой_2" data-name="Слой 2" xmlns="http://www.w3.org/2000/svg" viewBox="0 0 217.23 384.03">
  <defs>
    <style>
      .cls-1 {
        fill: #020000;
      }

      .cls-1, .cls-2 {
        stroke-width: 0px;
      }

      .cls-2 {
        fill: #38700e;
      }
    </style>
  </defs>
  <g id="_Гай" data-name="Гай">
    <g>
      <path class="cls-2" d="M185.67,5.54c-7.87-3.88-15.99.03-18,1-2.86,1.38-6.06,2.92-7,6-1.26,4.12,2.4,8.04,5,12,9.11,13.85,9.21,34.05,3,38-3.45,2.2-7.49-1.47-10,1-2.88,2.84,1.6,8.52,2,19,.12,3.07.36,13.07-6,21-1.43,1.78-5.39,6.71-11,7-3.85.2-4.37-2-9-3-7.42-1.61-9.33,3.33-20,4-7.21.45-10.21-1.55-13,1-2.72,2.49-1.1,5.54-4,8-3.67,3.11-8.39,0-11,3-2.2,2.53.19,5.86-2,8-2.62,2.56-7.18-1.09-10,1-3.8,2.82,3.63,12.56-1,20-1.11,1.79-1.36.97-4.5,4.5-3.73,4.2-7.82,8.79-7,13,.74,3.8,4.71,3.3,6.5,7.5,2.27,5.33-3.07,8.59-3,16,.08,7.95,6.26,8.24,9,19,.62,2.42,2.99,11.74-1.5,19.5-2.54,4.39-4.44,3.38-8.5,9.5-3.7,5.59-4.77,10.43-7.5,10.5-1.97.05-2.99-2.42-4-2-1.87.79,2.21,9.05-1,13-3.42,4.21-13.24,1.21-13.5,2.5-.22,1.09,7.19,1.26,10,6,2.24,3.78-.29,7.36-3,22-.12.66-.59,3.2-1.5,6.5-.87,3.15-1.3,4.73-2,6-1.1,2.02-3.08,3.71-7,7-3.02,2.54-3.35,2.59-5.5,4.5-4.47,3.99-3.72,4.41-5.5,5.5-5.87,3.59-12.46-1.93-17,2-.88.77-1.26,1.52-2,3-2.5,5.01-2.55,12.23,1,15,1.81,1.41,2.76.27,4.5,1.5,3.85,2.72.43,9.17,3.5,17.5,1.42,3.84,4.74,9.5,8.5,9.5,3.54,0,4.52-5.08,8-5,4.41.1,4.72,7.68,10,9,4.62,1.16,10.41-3.13,17-8,3.83-2.83,5.31-4.55,7-4,3,.98,1.01,7.27,5,12,4.22,5,13.62,6.45,18,3,3.17-2.49,1.92-6.14,6-9,3.25-2.28,5.54-1.02,7-3,2.4-3.27-2.67-8.29-2-13,1.06-7.5,18.66-3.63,24-13,2.67-4.69-.31-7.52,3-12,4.51-6.09,12.07-3.6,14-8,1.17-2.67-.98-5.02-10-20-4.66-7.74-6.75-11.55-7-17-.03-.68-.33-8.75,3-10,1.5-.56,3.14.5,4,1,5.2,3.04,11.15,2.67,22,2,5.04-.31,10.36-1.54,21-4,7.47-1.73,11.39-2.93,13-1,2.48,2.96-2.89,10.43,0,13,1.38,1.23,3.34.19,5,2,1.4,1.53.71,3.03,2,4,1.57,1.18,4.93.72,6-1,1.76-2.84-3.65-7.64-2-10,1.14-1.62,4.03.17,7-1,2.39-.94,4.35-3.62,7-20,1.83-11.32,2.71-17.06,1-21-1.86-4.29-4.19-5.16-5-10-.76-4.53.9-6.05,0-11-.24-1.32-1.01-5.53-4-9-4.97-5.77-11.12-3.74-13-8-2.01-4.55,3.19-11,4-12,4.69-5.82,8.87-4.44,11-9,2.54-5.43-2.12-10.11,1-14,2.31-2.89,5.84-1.52,7-4,1.32-2.83-2.92-5.34-6-13-2.93-7.3-.91-9.57-4-13-3.93-4.35-8.51-2.15-11-6-2.47-3.82-.21-9.48,2-15,3.7-9.25,6.83-9.03,8-15,1.18-6.01-1.93-6.51-3-18-.39-4.2-.93-10.54,1-18,1.76-6.79,3.45-6.39,4-11,.85-7.16-3.18-8.67-6-20-2.36-9.46-.46-12.04-4-18-1.25-2.1-3.5-5.79-8-8Z"/>
      <path class="cls-1" d="M183.95,9.02c-5.15-2.87-13.07-.45-18.12,2.95-3,1.99-.85,4.51.66,6.92,6.07,7.98,9.73,17.87,10.29,27.91.19,6.3,0,14.22-5.59,18.71-1.1.81-2.57,1.42-3.92,1.56-2.93.3-5.11-.51-6.2-.56.25-.1.39-.21.49-.4.04-.14.07-.13.05-.16.07,2.12.97,4.24,1.47,6.56,2.48,9.96,2.3,20.83-3.11,30.18-3.91,6.41-10.63,12.93-18.88,11.56-3.27-.67-5.22-2.9-8.4-3.08-2.65-.26-4.47.83-7.18,1.87-1.56.62-3.27,1.18-5,1.59-4.72,1.16-10.29.93-14.91.5-.74.01-.83,0-1.13.17-.84.69-.67,1.23-1.05,2.62-.52,3.58-3.86,7.02-7.45,7.71-2.14.51-4.64.25-6.37.48,0,.01,0,.01,0,0,0,0,0,.02,0,.01.02-.02-.02-.07-.05.33-.06.86.14,2.63-.11,3.89-1.17,5.86-6.5,6.77-11.23,5.56-.67-.12-1.19-.16-1.35-.14-.08.01-.09.01-.01,0,.01-.03.07-.02.1-.05,0-.02.09-.07.17-.14.15-.13.27-.38.31-.46.03-.12.02-.08,0,.03-.02.25.02.81.13,1.44,1.34,6,3.06,13.3-1.14,18.8-1.1,1.53-2.54,2.12-3.7,3.52-.83.9-2.15,2.4-2.96,3.34-1.54,1.77-3.35,4.16-3.79,6.19-.05.45-.09.92.12,1.19.84.81,2.24,1.45,3.39,2.57,2.67,2.38,4.08,6.32,3.43,9.83-.71,3.96-3.22,6.97-3.38,10.71-.12,2.62.37,3.95,2.04,6.11,2,2.43,4.29,5.64,5.49,8.76,3.43,9.12,4.14,20.27-2.04,28.46-1.43,1.92-3.94,3.44-5.23,4.99-1.79,2.03-3.25,4.56-4.56,7.07-1.27,2.32-2.46,5.21-4.88,6.75-1.96,1.39-5.08,1.16-6.86-.18-.77-.55-1.13-.88-1.64-1.34-.04-.03-.03-.02.01,0,0,0,.15.1.27.15.21.1.43.19.88.25,1.49.26,3.27-.99,3.42-2.42.01.38.11,1.18.24,1.96,2.65,13.46-4.59,16.9-16.7,15.66,0,0-.25,0-.25,0,.05,0,0,0,.13-.02,2.68-.61,3.34-4.17,1.57-5.82-.44-.42-.52-.41-.69-.51,4.81,1.34,10.86,3.88,12.21,9.62.73,3-.14,6.1-.81,8.66-.85,3.07-1.67,5.98-2.41,8.97-1.1,4.62-2.1,9.3-3.55,13.83-.72,3.46-3.11,7.17-5.74,9.29-4.31,3.94-9.14,6.96-12.7,11.57-3.31,3.48-8.88,3.55-13,2.76-2.07-.27-3.34-.62-4.82,0-.89.49-.91.77-1.52,1.93-1.68,3.29-2.56,8.37-.14,11.11.11.08.16.11.13.1-.02-.01-.1-.01.17.01,2.84-.04,5.75,2.02,6.76,4.73.97,2.42.77,5.64.82,7.88-.04,5.42,1.64,10.71,5.38,14.39.39.37.93.62,1.16.62.66-.41,1.14-1.07,1.94-1.93.92-1.15,3-2.73,4.84-2.98,5.9-.87,7.83,4.48,10.48,7.89,2.2,2.66,5.79.17,8.28-1.19,3.8-2.39,7.38-5.17,11.12-8.06.74-.51,1.49-1.17,3.19-1.71,3.77-1.05,6.82,1.8,7.42,5.41.78,4.8,1.32,8.43,6.33,10.35,2.97,1.19,7.04,1.55,9.42-.36.71-.84.86-1.56,1.36-2.84,1.48-4.56,5.81-7.8,10.51-8.37.28-.06.46-.12.46-.12-.02,0-.16.08-.23.16-.05.05-.1.06-.09.12-.07.11,0,.08-.05-.27-.04-.33-.23-.93-.44-1.53-2.95-6.49-4.04-13.36,3.92-16.54,5.64-2.26,12-2.04,16.66-5.47.83-.68,1.43-1.45,1.86-2.34.81-1.59.44-3.5.61-5.57.15-3.26,2.06-6.52,4.39-8.56,2.97-2.85,7.36-3.61,10.78-4.67,0,0,.32-.13.32-.13.09-.06.28-.14.33-.21.02-.03.09-.03.08-.05,0-.03.04-.02.03-.06,0,0,.04-.02.02-.01,0,0,0,0-.02.06,0,.05,0,.08-.01.11.02.05,0,.03,0,0-.45-1.58-1.63-3.26-2.56-4.92-2.99-4.88-6.91-11.19-9.75-16.07-2.47-4.11-5.05-9.67-5.05-14.92-.23-5.3,1.07-13.99,8.13-13.77,3.35.25,4.56,2.07,7.36,2.81,4.03,1.11,8.22.76,12.63.57,2.55-.17,6.39-.32,8.92-.79,7.39-1.25,15.13-3.35,22.7-4.99,4.69-1.19,10.59-.78,11.65,5.14.55,3.31-.86,6.29-1.36,9.29-.08.49-.03.88-.06.69-.02-.1-.12-.34-.31-.55-.16-.19-.43-.37-.59-.43-.16-.06-.09-.02.21.02,3.55.14,6.86,2.85,7.5,6.43.09.43.16.56.05.29-.1-.26-.46-.64-.62-.73-.39-.21-.22-.08-.02-.1.21,0,.5-.07.55-.12.04-.01,0-.01-.11.09-.21.16-.51.75-.47,1.1-.13-.49-.36-1.03-.77-1.84-.54-1.08-1.41-2.73-1.7-4.12-.56-2.2.04-4.67,1.87-6.17,1.69-1.52,4.29-1.44,6.25-1.22.81.03,1.09.03,1.57-.14.08-.04.05-.02.07-.04.02,0,.22-.24.45-.64,2.6-5.92,3.22-12.66,4.36-19.07.65-4.94,1.87-9.93,1.13-14.73-.48-1.85-1.27-2.89-2.55-4.72-1.76-2.29-2.95-5.46-3.24-8.37-.37-2.47.23-5.21.35-7.54-.01-2.37-.68-4.94-1.73-7.03-1.06-2.05-2.5-3.62-4.57-4.6-1.89-.91-4.52-1.34-6.81-2.59-8.24-4.82-3.91-15.21.8-20.65,1.95-2.71,6.03-5.3,8.74-6.52,1.1-.63,1.16-.75,1.54-1.41.34-.69.49-1.34.43-2.35-.05-1.46-.95-4.54-.89-6.6-.25-4.43,3.48-8.68,7.66-9.52,0,0,1.14-.3,1.14-.3.12-.03.28-.07.32-.09,0,0,.1-.03.1-.03-.64.32-1.04,1.2-.85,1.85-.95-1.73-2.41-3.7-3.55-5.68-1.78-3.08-3.16-6.33-3.98-9.85-.43-1.76-.62-3.7-.82-4.87-.2-1.11-.25-1.12-.89-1.92-1.82-1.94-4.19-1.68-6.75-2.77-7.42-2.97-7.26-11.73-4.86-17.8,1.75-4.87,3.61-9.59,6.74-13.73,1.9-2.5,2.79-3.58,3.13-6.3.1-1.07.06-1.66-.31-2.93-.95-2.72-2.03-6.6-2.42-9.64-1.54-10.62-1.05-22.03,4.37-31.53,1.5-4.79-.89-7.56-3.01-12.71-1.91-4.72-3.15-9.61-3.72-14.63,0,0-.45-4.61-.45-4.61-.63-4.9-3.96-9.56-8.15-11.8h0ZM187.38,2.05c5.25,2.6,8.72,7.13,11.05,12.21,2.07,4.73,1.5,9.74,2.66,14.51.92,4.44,2.41,8.25,4.42,12.32,2.73,4.93,3.21,12.08.18,17.05-3.93,7.58-3.67,16.65-2.51,24.9.43,4.04,2.24,7.3,2.88,11.49.31,3.21-.31,6.29-1.69,9.18-1.79,3.41-3.63,4.89-5.13,7.93-1.72,3.56-3.57,7.91-4.23,11.74-.14,1.45-.13,2.21.47,2.95,1.03.69,2.37.64,4.77,1.48,4.3,1.39,8.17,5.57,8.67,10.14.45,3.35.64,5.25,1.86,8.14,1.44,4.05,4.42,6.87,6.07,11.01,1.19,3.3-.5,7.31-3.76,8.66-1.86.82-2.78.72-3.84,1.26-.1.06-.22.18-.28.3-.04.11-.09.09-.1.35-.01.04-.02.11-.01.21-.01.39.04.63.1,1.07,1.6,6.34.99,13.34-5.68,16.77-4.07,1.81-6.43,3.95-8.49,7.64-.68,1.31-1.72,3.44-1.22,4.49,1.79,1.09,4.15,1.27,6.52,2.52,1.8.85,3.56,2.1,4.97,3.56,4.1,4.25,6.01,10.05,6.05,15.84-.05,2.86-.95,5.41-.12,8.1.73,2.62,3.09,4.62,4.26,7.53.86,1.78,1.34,4.09,1.42,6.03.09,8.37-1.77,16.05-3.11,24.19-1.6,7.54-3.26,18.34-13.44,17.34-.26-.03-1.59-.12-1.68-.11.83-.13,1.83-1.01,1.94-1.88.04-.14.02-.29.03-.42,0-.04-.01-.08-.02-.11.02.02.02.04.02.07.28.76.56,1.32,1.05,2.28,7.08,12.45-11.56,17.07-13.68,6.78-.18-.67-.07-.27-.07-.34-.07-.01.31.17.12.09-5.18-.32-7.75-4.2-6.9-8.97.33-2.02,1.29-4.98,1.42-6.47,0-.17,0-.31,0-.29,0,0,.02.13.14.31.15.28.51.56.78.63-2.41-.08-5.11.87-7.61,1.35,0,0-9.16,2.09-9.16,2.09-6.08,1.47-12.79,2.56-19.15,2.71-6.56.36-14.36.65-20.27-3.19-.91-.49-.62-.12-.02-.36.14-.03.27-.14.37-.24.05-.05-.15.21-.29.62-.84,2.87-.87,6.34-.11,9.29,1.51,5.22,5.36,10.63,8.2,15.54,0,0,4.88,8.02,4.88,8.02,2.88,4.69,6.17,10.34.47,14.81-3.23,2.47-8.1,2-10.94,4.54-1.87,1.57-2.07,3.28-1.98,5.64,0,11.44-10.65,14.72-19.83,16.41-1.92.5-3.74.79-5.13,1.75-.25.2-.3.29-.33.35-.02.02-.02.09-.05.16.02.17-.05.3-.01.51.23,2.75,2.13,5.4,2.57,8.54.71,3.59-1.69,7.78-5.87,8.31-1.3.19-2.7.56-3.67,1.43-1.3,1-1.64,3.07-2.52,4.85-2.3,5.16-8.72,6.9-13.75,6.19-5.78-.62-11.69-3.81-14.15-9.33-1.36-2.83-1.37-5.55-2.09-8.22.24.54,1.11.75,1.57.61.2-.09-.35.17-.87.58-6.65,4.67-17.57,15.4-26.2,10.37-3.04-1.67-4.67-5.48-6.49-7.68-.29-.3-.2-.11-.23-.19,0,.02.01,0,.02,0,.01.02.03,0,.03,0-.14.06-.46.32-.93.84-1.29,1.39-2.79,3.28-5.21,3.9-6.99,1.52-11.27-5.84-13.43-11.22-1.26-3.26-1.75-6.95-1.75-10.35-.05-2.13.13-3.67-.28-5.34,0,0-.03-.12-.03-.12-.02-.02-.03-.04-.04-.06-.05-.15-.16-.24-.27-.35-.07-.05-.01-.01,0-.01-9.55-.56-10.11-13.18-6.98-19.89,1.45-3.75,4.19-6.81,8.5-7.19,4.5-.58,8.45,1.9,12.24-.16.19-.13.19-.13.26-.21,1.76-2.26,3.91-4.26,6.1-6.08,3.45-2.71,7.09-5.63,10.15-8.52,1.39-1.2,1.99-4.83,2.75-7.63.34-1.46.62-2.94.86-4.41.73-5.91,2.5-12.23,3.24-17.99.03-2.03-.99-2.74-2.76-3.75-1.4-.77-3.41-1.18-5.24-1.9-.61-.33-.96-.37-1.7-1.1-2.36-2.29-1.07-6.38,2.29-6.93.58-.12,1.07-.12,1.63-.13,2.24-.07,8.97,1.1,9.49-1.44.7-3.02-1.16-6.75-.51-10.08.73-3.62,4.98-4.83,7.64-2.42,0,0,.33.28.33.28l.24.22c.28.25.44.38.49.41.06.04-.07-.06-.31-.11-.34-.07-.85,0-1.14.23.43-.5.76-1.09,1.2-1.89,2.34-4.47,4.73-9.17,8.66-12.6,7.57-5.13,6.72-15.91,3.87-23.53-2.08-5.33-7.65-8.94-8.05-15.24-.29-2.85.15-6,1.13-8.6.81-2.67,2.43-4.5,2.26-6.91-.27-1.43-1.13-2.03-2.46-2.9-8.16-5.01-4.09-14.04.98-19.58,1.91-2.15,3.89-4.68,6.23-6.39.2-.17.06-.04.14-.13.07-.07.21-.33.32-.53.12-.2.21-.43.31-.64,1.73-4.88-1.45-9.77-1.17-14.95.06-3.42,3.03-6.47,6.53-6.6,2.22-.32,4.38.65,5.98.58-.17.06-.28.14-.38.34-.1.25-.02.16-.02-.41,0-.55-.08-1.43,0-2.61.05-1.15.42-2.77,1.31-4.09,1.37-2.38,4.79-3.7,7.19-3.63,2.35-.17,5.14.63,5.55-2.04.3-1.69,1.19-4.68,2.79-6.07.94-.99,2.16-1.8,3.47-2.25,2.96-1.04,5.93-.22,8.46-.18,4.19.24,8.22-.29,12.12-1.87,1.35-.52,2.82-1.21,4.69-1.77,2.81-.9,6.16-.86,9.03-.06,1.66.34,3.76,1.47,5.09,2.2.57.3.82.4,1.1.45,3.69.41,6.78-2.7,9-5.45,5.78-7.27,6.24-17.77,3.93-26.76-.67-2.95-1.97-6.13-1.63-9.45.32-2.51,2.12-4.96,4.66-5.78,2.66-.9,4.44-.12,6.48.13,1.26.14,1.53.26,2.21-.78,3.91-7.7,1.09-20.25-2.53-27.78-3.38-7.23-12.47-14.35-5.89-22.79,1.86-2.34,4.82-3.77,7.12-4.89,6.37-3.23,14.75-4.4,21.44-1h0Z"/>
    </g>
  </g>
</svg>