<?xml version="1.0" encoding="UTF-8"?>
<svg id="_Слой_2" data-name="Слой 2" xmlns="http://www.w3.org/2000/svg" viewBox="0 0 159.06 176.41">
  <defs>
    <style>
      .cls-1 {
        fill: #050200;
      }

      .cls-1, .cls-2 {
        stroke-width: 0px;
      }

      .cls-2 {
        fill: #76b24e;
      }
    </style>
  </defs>
  <g id="_Грачевский" data-name="Грачевский">
    <g>
      <path class="cls-2" d="M29.8,39.86c-1.04,4.85.34,6.38,1,14,.4,4.6.81,9.9-1,16-1.04,3.53-1.99,6.72-5,9-3.8,2.87-9.17,2.99-10,3-3.16.03-4.01-.76-5,0-2.01,1.56.4,5.82,1,14,.37,5.07,0,8.69-.5,13.5-.66,6.41-1.04,9.67-3,12-2.45,2.91-5.25,3.08-5.5,5.5-.07.66.09,1.07,3,6,2.02,3.42,2.35,3.91,3,4,1.88.25,2.44-3.41,5.5-4.5,4.09-1.46,8.97,3.01,9.5,3.5.64.59,3.9,3.69,4.5,8.5.52,4.18-1.53,5.17-.5,8.5.79,2.56,2.02,2.04,4.5,6.5,1.37,2.45,2.5,4.59,2,7-.34,1.65-1.17,1.93-1,3,.41,2.6,5.69,3.72,7,4,2.28.48,8.03,1.7,10-1,1.16-1.59-.16-2.93,0-8,.11-3.51.2-6.43,2-8,1.28-1.11,2.77-.98,10,0,6.85.93,10.32,1.41,13,2,6.14,1.35,9.24,2.07,11,4,1.67,1.83,1.74,3.37,4,5,2.23,1.61,4.59,1.86,6,2,4.82.47,11.59-1.16,16-6,4.59-5.03,4.78-11.49,5-19,.32-10.77-2.75-13.47,0-19,2.65-5.31,7.95-7.77,7-10-.76-1.79-4.37-.63-6-3-2.03-2.95,1.64-7.5,0-9-1.76-1.61-6.64,3.05-10,1-1.22-.74-.79-1.48-3-4-2.41-2.75-3.59-2.63-4-4-.71-2.38,2.13-5.18,5-8,1.47-1.45,2.58-2.32,9-7,.27-.2,2.55-1.85,7-5,6.68-4.72,7.69-5.32,9-5,2.88.7,4.37,5.14,5,7,1.31,3.88.39,5.65,2,7,1.77,1.48,4.96,1.1,7,0,2.66-1.43,2.11-3.4,5-5,2.43-1.35,3.88-.53,5-2,1.03-1.35,1.05-3.67,0-5-1.07-1.36-2.41-.61-5-2-.8-.43-2.95-1.59-4-4-1.16-2.67-.26-5.27,0-6,.91-2.49,2.63-3.73,4-5,0,0,4.66-4.3,6.5-10.5,1.86-6.25-8.22-16.36-23-25-1.01-.51-2.75-1.31-5-2-6.45-1.96-9.43-.6-20-1-7.15-.27-7.71-.96-10,0-2.9,1.22-4.2,3.26-9,5-1.27.46-2.4.86-4,1-1.22.11-5.38.47-8-2-1.39-1.31-1.11-2.25-3-4-.93-.86-1.9-1.46-3-2-6.08-2.98-11.27-1.61-16-5-3.31-2.37-2.45-4.25-6-6-2.81-1.39-7.35-2.19-9,0-1.05,1.4-.66,3.64,0,5,.79,1.65,1.93,1.95,3,3,3.41,3.36,2.67,11.02-.5,15.5-.69.98-2.13,3.01-4.5,3.5-1.4.29-1.92-.22-3,0-3.33.67-4.75,6.84-5,8Z"/>
      <path class="cls-1" d="M31.69,40.26c-.8,3.3.15,6.22.62,9.58.26,1.75.44,3.56.57,5.28.06,1.64.29,3.74.37,5.35.42,5.66-.63,11.16-3.53,16.15-3.73,5.98-11.71,7.64-18.24,6.75-.4-.06-.79-.08-.7-.06.03,0,.12-.05.1-.03.01.02,0,.01,0,.02,0-.03-.04.12-.07.35,0,.12,0,.29,0,.43l.05.52c.77,4.2,1.82,8.52,1.93,12.93.16,3.58-.13,7.18-.5,10.62-.64,4.49-.45,9.29-2.88,13.4-1.1,1.71-2.72,2.98-4.32,4.01-.9.65-1.42.84-1.53,1.52,0-.05-.02-.17,0-.05.02.08.1.25.17.4.33.67.76,1.43,1.18,2.16,1.13,1.88,2.18,3.95,3.45,5.7.01.02,0,0-.06-.04-.06-.03-.18-.09-.25-.1-.15-.07-.37.07-.26,0,1.4-1.61,2.89-4.01,5.34-4.52,4.12-1.05,7.99,1.52,10.89,4.1,4.31,4.04,6.12,10.1,4.16,15.69-.18,1.19.13,2.56.97,3.47,1.17,1.16,2.48,2.91,3.27,4.43,1.25,2.33,2.88,5.37,2.19,8.31-.11.52-.3,1.07-.55,1.55-.25.48-.49.86-.48.89.09.95,1.49,1.58,2.45,1.97,3.15,1.35,8.52,1.55,11.02-.14-.66-5.18-2.14-15.97,4.64-17.96,3.52-.69,6.78.23,10.16.55,7.02.93,14.06,1.85,20.9,4.12,2,.66,4.27,2.1,5.47,3.98,1.11,1.55,1.27,2.49,2.55,3.49,2.12,1.64,5.32,1.89,7.99,1.68,6.01-.54,11.85-4.07,13.94-9.93,1.09-2.89,1.45-6.23,1.7-9.63.26-3.47.43-6.74.05-10.1-.22-2.57-.86-5.3-.62-8.01.46-4.7,4.27-8.53,7.04-11.58.53-.59,1.01-1.3,1.02-1.55-.02-.08,0,0,0,.02-1.64-.38-4.5-.82-5.67-2.66-1.94-2.66-.29-5.85.29-8.49.05-.31.02-.56.01-.6-.03-.02,0-.05-.16-.11-2.35.12-4.87,1.9-7.45,1.71-1.14-.07-2.19-.41-3.03-1.3-.7-.87-.87-1.47-1.48-2.23-1.31-1.83-2.95-2.84-4.67-4.31-4.47-5.49,9.73-15.04,13.45-17.96,0,0,8.39-6.15,8.39-6.15,2.35-1.56,4.42-3.54,7.24-4.45,6.48-.99,9.07,9.11,9.63,13.86.07.22.1.25.15.3.06.05.18.17.35.24,1.02.59,3.77.1,4.81-.89.36-.31.6-.68,1.12-1.53,1.03-1.85,3.27-3.48,5.39-4.05,1.07-.29,2.17-.44,2.07-.49-.03,0-.08.06,0-.04.05-.09.12-.24.16-.42.09-.37.07-.85-.05-1.17-.05-.16-.13-.26-.16-.3-.06-.04.11.1.06.07-8.56-1.16-13.3-9.4-8.44-17.06,1.55-2.34,3.77-3.63,5.33-5.89,1.68-2.29,3.2-4.81,3.72-7.6-.91-7.67-14.93-16.41-21.35-20.28-3.33-1.78-6.95-2.85-10.75-2.9-3.11-.03-6.79.25-10.34.17-2.56-.05-5.45-.14-8.02-.37-1.42-.02-2.26-.43-3.39.08-2.17,1.03-3.92,2.76-6.49,3.94-1.95.91-3.5,1.52-5.7,2.03-5.4,1.13-12.22-.12-14.8-5.83-3.56-4.18-9.34-3.65-14.45-5.2-3.53-.96-7.05-3.49-8.88-6.78-.8-1.44-3.35-2.13-5.18-2.32-.55-.03-1.02.04-1.15.09-.09.02-.02.03.01-.05.09-.06.13-.19.14-.21,0-.07-.08.27,0,.69.06.42.26.91.36,1.06.29.41.55.48,1.15.97,6.18,4.98,4.77,14.69.73,20.55-1.91,2.88-5.62,5.39-9.29,4.35-.16-.04-.21-.07-.23-.09-.05-.07-.35-.12-.77.17-1.64,1.28-2.51,3.6-2.88,5.73h0ZM27.91,39.45c1.15-4.28,2.65-10.53,8.38-10.2.5.02.58.04.98-.15,3.86-2.08,6.06-10.36,3.26-13.72-.44-.49-.94-.72-1.66-1.33-1.58-1.21-2.71-3.53-2.99-5.36-1.28-7.14,5.28-10.04,11.4-8.12,2.77.72,5.68,2.23,7.32,4.79,1.16,2.05,2.78,3.34,5.12,3.99,3.12.9,6.95,1.04,10.28,2.33,3.55,1.23,7.12,3.51,8.83,7.05.54.93,1.33,1.25,2.78,1.54,2.67.46,5.45-.37,7.91-1.57,2.68-1.26,5.37-4.03,8.68-4.69,1.67-.39,3.5-.1,4.93,0,2.4.26,5.1.32,7.5.38,3.52.09,6.76-.18,10.4-.13,4.6.04,9.29,1.43,13.37,3.51,5.65,3.33,10.99,7.07,15.82,11.58,2.75,2.64,5.29,5.36,7.16,8.82,1.07,1.95,2.06,4.81,1.56,7.58-1.28,5.05-4.32,9.57-8.11,13.06,0,0-.93.82-.93.82-2.91,2.38-3.52,6.89-.07,8.98,1.38,1.01,2.55,1.03,4.3,1.57,4.49,1.7,4.64,8.95.41,11.08-2.3.95-4.27.4-5.7,2.7-2.37,4.46-9.86,6.55-13.6,2.39-1.16-1.31-1.19-3.5-1.36-4.8-.39-2.61-1.56-6.28-3.39-7.93-.38-.3-.82-.41-.78-.38-.48.11-1.21.55-1.72.86-2.77,1.67-9.92,6.77-12.74,8.68-4.61,3.33-9.97,6.67-13.21,11.35-.45.83-.72,1.46-.34,2.13.77.76,2.07,1.65,2.82,2.56,1.19,1.2,2.21,2.89,2.97,4.33.19.28.73.55,1.11.64,2.92.6,4.96-1.87,8.01-1.89.7.06,1.53.47,1.95,1.21.38.74.35,1.39.32,1.94-.14,2.54-2.47,6.44,1.07,7.3,1.27.21,3.3.35,4.4,1.8.76,1.04.65,2.42.01,3.41-2.43,3.28-6.25,5.47-7.42,9.49-1.1,3.18.12,6.34.5,9.63.52,3.48.59,7.12.54,10.6.16,7.34-1.38,15.65-7.9,20.3-6.27,4.53-15.84,6.44-22.56,1.82-1.93-1.21-3.05-3.79-4.37-5.27-.63-.6-1.33-.87-2.29-1.22-2.04-.65-4.94-1.3-7.19-1.77-6.44-1.09-13.32-2.18-19.85-2.71-.3,0-.54.03-.58.05-.06.03.07-.05-.02,0-.16.14-.35.36-.53.86-.83,3.22-.74,7.04-.26,10.34.71,3.88-2.82,6.92-6.5,6.65-2.15-.06-3.93-.73-5.67-1.25-3.06-1-7.1-1.44-8.93-4.6-.27-.59-.5-1.31-.29-2.16.23-.81.53-1.13.65-1.44.42-.91.45-1.9.21-2.89-.58-2-2.1-4.42-3.43-6.23-1.11-1.34-2.89-2.79-3.28-4.69-.99-2.7.72-5.4.52-8-.28-4.54-3.74-8.67-7.79-10.6-2-.91-3.79-1.18-5.28.26-.85.81-1.51,2.15-2.64,3.08-.85.75-2.49,1.03-3.52.32-.94-.6-1.38-1.54-1.94-2.36-.93-1.52-1.79-2.98-2.68-4.5-.63-1.18-1.49-2.35-1.81-3.76-.15-.97.1-1.95.6-2.8,1.07-1.71,3.01-2.4,4.34-3.66,1.13-1.01,1.78-2.01,2.21-3.48.86-3.07,1.02-6.64,1.39-9.89.56-5.11.68-10.03-.03-15.05-.33-2.58-.96-5.07-1.29-7.72-.3-2.09.39-4.71,2.86-5.17,1.76-.2,2.68.35,4.22.28,4.51-.02,9.44-1.44,11.3-5.74,1.65-4.31,2.89-9.25,3.36-13.91.27-3.33-.19-6.75-.59-10.03-.53-3.44-1.47-7.42-.52-10.96h0Z"/>
    </g>
  </g>
</svg>