<?xml version="1.0" encoding="UTF-8"?>
<svg id="_Слой_2" data-name="Слой 2" xmlns="http://www.w3.org/2000/svg" viewBox="0 0 345.84 214.97">
  <defs>
    <style>
      .cls-1 {
        fill: #080100;
      }

      .cls-1, .cls-2 {
        stroke-width: 0px;
      }

      .cls-2 {
        fill: #497b00;
      }
    </style>
  </defs>
  <g id="_Домбаровский" data-name="Домбаровский">
    <g>
      <path class="cls-2" d="M154.93,4.99c-4.58,2.43-9.45,2.01-15.5,1.5-7.08-.6-8.28-2.31-10-1-2.56,1.96.11,5.78-3,11-.44.74-2.76,4.62-7,6-1.85.6-2.51.22-4,1-2.58,1.35-3.46,4-4.5,6.5-1.66,3.99-3.77,9.27-7,12-4.5,3.8-10.85,3.2-13,3-8.89-.84-9.97-6.42-19-8-5.61-.98-4.97,1.21-15.5,1.5-10.25.29-11.64-1.76-21-1-6.72.55-6.35,1.63-13,2-9.22.51-15.62-1.26-16,0-.48,1.58,9.59,4.3,9.5,8.5-.09,3.96-9.12,5.61-9,10,.08,2.73,3.59,4.04,3,6-.58,1.91-4.02.94-6,3-2.48,2.58.36,6.74,6,24,.79,2.41,1.34,4.2,3,5,2.75,1.33,5.56-1.49,13-3,3.03-.61,6.21-1.26,7,0,1,1.59-3.11,4.21-5,10-.22.66-2.87,9.11,1,13,3.47,3.48,10.77,1.91,15,1,6.03-1.3,8.88-3.57,11-2,1.59,1.17.65,2.92,2,7,.21.64,2.12,6.21,7,10,4.35,3.38,6.6,1.88,9,5,2.35,3.06.8,5.31,3,9,1.93,3.23,4.99,4.65,8,6,3.52,1.58,6.86,2.32,18,3,15.25.93,14.48-.13,20,1,2.63.54,5.68,1.37,10,1,2.97-.25,3.88-.84,7-1,3.71-.19,4.75.53,9,1,5.73.63,6.01-.43,14,0,6.53.36,8.01,1.16,9,2,2.6,2.2,1.78,4.56,4,6,2.71,1.76,5.54-.71,12-2,7.08-1.41,13.5-.4,16,0,6.65,1.05,9.86,3.04,13,1,2.3-1.5,2.02-3.51,4-4,2.58-.64,4.4,2.78,10,6,2.84,1.63,5.5,2.5,5.5,2.5,4.18,1.52,6.19,1.44,7,3,.73,1.41.24,3.73-1,5-4.25,4.37-15.34-5.52-21.5-1.5-5.47,3.57-5.43,17.01,0,21,4.58,3.36,11.5-1.27,14,2,2.52,3.3-3.1,9.85-1,12,1.83,1.87,7.77-1.42,15-5,13.17-6.53,19.75-9.79,25-11,13.95-3.22,20.43,2.17,29-4,3.15-2.27,4.91-4.9,7-8,5.65-8.41,3.58-11.67,8-21,5.42-11.45,14.91-20.03,16-21,3.94-3.51,5.53-4.04,7-7,1.14-2.29,2.46-6.51-1-20-2.91-11.34-4.73-10.66-5-16-.57-11.27,7.28-16.49,4.5-20.5-2.59-3.74-12.2-3.21-18,1-3.92,2.85-3.24,5.3-7.5,9.5-5.81,5.72-13.11,7.09-15.5,7.5-1.68.29-15.34,2.66-23-5-2.83-2.83-2.9-5.08-9-12-2.12-2.4-3.21-3.62-5-5-5.64-4.33-8.46-2.86-11-6-2.42-2.99-2.06-7.03-1.5-13.5.15-1.72.56-5.26,2-10,.94-3.07,1.98-5.57,7.5-16.5,4.16-8.24,5.13-9.9,5-13-.04-.91-.38-7.23-4.5-9.5-2.87-1.58-7.12.09-15.5,3.5-5.91,2.4-8.87,3.61-10,5-2.88,3.54-1.33,6.78-.5,22.5.34,6.44.06,11.13-.5,20.5-.26,4.41-.5,6.62-2,9-2.95,4.69-9.57,8.11-14.5,6.5-3.63-1.19-4.17-4.39-7.5-4.5-2.44-.08-3.32,1.6-6.5,3.5-4.61,2.76-11.58,4.51-17.5,2.5-4.25-1.44-7.71-4.72-8-5-2.17-2.09-2.24-3.04-4-4-3.43-1.87-5.91.24-9.5-.5-6.12-1.27-9.14-9.53-9.5-10.5-1.78-4.87-.68-8.01,1.5-19.5,2.23-11.76,5.21-27.51,2.5-28.5-.41-.15-.77.11-1.5.5Z"/>
      <path class="cls-1" d="M156.02,7.06c-5.52,2.97-11.79,2.21-17.6,1.72-2.38-.21-5.43-.93-7.61-1.37.03.01.17-.07.09-.02-.03.03-.12.09-.12.13-.33.63-.19,1.74-.25,2.71.08,7.24-5.88,14.54-13.21,15.17-.82.16-1.45.66-2.01,1.3-.6.71-1.1,1.76-1.6,2.99-2.24,5.27-4.34,11.61-9.35,15.1-6.47,4.2-16.12,3.67-22.46-.24-4.17-2.82-8.37-5.68-13.54-5.2-6.74,1.79-14.3,2.15-21.24,1.26-2.85-.37-5.33-.74-7.92-.68-4.07-.03-7.91.71-11.82,1.67-4.35.76-8.69.75-13.03.54-2.28-.09-4.57-.43-6.76-.38-.02,0-.06.03.2-.06.83-.31,1.48-1.45,1.31-2.39-.04-.28-.14-.58-.27-.8,0,0-.11-.16-.11-.16-.1-.13-.09-.1-.05-.07.6.46,1.49.89,2.26,1.32,3.78,1.89,9.78,5.69,7.15,10.87-1.12,2.27-3.85,3.83-5.64,5.04-1.21.87-2.33,1.51-2.6,2.38.18.77,1.25,1.58,1.86,2.43,2.87,3.63.44,7.49-3.7,8.02-1.36.27-1.83.59-1.91.76-.02.09-.01-.11-.02.2-.01.04,0,.12,0,.23l.02.29.14.75c.52,2.15,3.14,9.1,3.97,11.38,1.32,3.21,2.53,7.96,3.98,10.87.15.19.14.15.2.18.67-.05,1.98-.57,3.36-1.17,2.31-1,4.9-1.95,7.38-2.66,2.58-.68,5.32-1.69,8.15-1.04,3.3.7,5.22,4.35,4.11,7.47-1.09,3.01-3.28,5.39-4.03,8.36-.66,2.32-1.09,5.63-.39,7.76.05.14.08.17.07.18-.02.03.02,0,0,.03.02.02.05.04.08.08,3.17,1.41,8.47.34,12.22-.26,2.7-.51,5.77-1.95,8.85-1.57,4.27.66,6.03,4.04,6.15,7.74.48,4.24,3.27,8.48,6.65,10.83,1.62,1.07,2.63,1.18,4.62,1.82,1.99.55,4.38,2.45,5.52,4.2,1.61,1.97,2.03,5.21,2.51,7.38.98,2.61,3.36,3.52,5.98,4.59,1.25.51,2.08.78,3.14,1.01,7.28,1.26,15.78,1.11,23.3,1.31,0,0,4.06-.01,4.06-.01,2.65-.17,6.93.59,9.42,1.21,3.58.84,6.53.6,10.13-.13,3.33-.51,7.04-.33,10.26.48,3.85.93,7.16.69,11.2.57,3.14.04,5.92.28,9.04.7,2.96.42,6.54,1.26,8.75,3.66,1.37,1.24,2.73,3.96,3.08,5.4.07.22.08.24.04.21-.04-.06-.16-.15-.25-.24-.16-.11-.23-.12-.41-.17-.25-.09-.59.05-.05,0,3.67-.92,8.51-2.39,12.58-2.5,3.06-.19,6.09-.06,9.05.32,4.72.45,9.42,2.22,13.92,3.04,1.76.15,2.28-1.16,3.32-2.52,2.18-2.83,6.21-2.42,8.54-.3,2.63,2.2,4.93,4.39,7.94,5.96,1.08.59,2.23,1.12,3.37,1.58-.28-.04.77.14-.6-.08,1.08.12,2.1.73,3.16.99,1.05.34,2.41.52,3.55,1.05.27.2.53.46.87.68,4.35,3.36,1.14,11.05-4.03,11.17-3.99.31-7.73-1.49-11.38-2.3-2.39-.46-4.94-1.25-6.3.76-2.24,3.57-2.01,11.02,1.15,13.94,2.01.94,4.61,0,7.71-.13,2.64-.19,5.66.72,7.33,3.03,3.15,4.2.51,9.22-.6,13.23.02-.93-.69-1.96-1.54-2.35-.24-.14-.58-.24-.82-.24.21-.04.91-.21,1.56-.45,11.4-4.88,22.36-11.96,34.35-15.81,1.89-.53,3.93-.92,5.88-1.19,1.96-.28,3.95-.39,5.9-.44,5.48-.21,9.78,1.07,14.28-.54,3.65-1.4,6.28-4.8,8.4-8.11,2.02-3.05,3.3-5.79,4.06-9.47.75-3.58,2.06-7.67,3.69-11.07,5.09-10.37,12.62-19.13,21.49-26.12,1.99-1.68,2.26-3.25,2.33-6.01-.16-6.09-2.01-13.43-4.05-19.26-.94-2.72-2.67-5.49-2.96-8.54-.89-6.37,1.08-12.68,3.87-18.06,0,0,.52-1.11.52-1.11.12-.3.3-.67.37-.9.23-.56.13-.72.18-.42,0,.1.03.19.09.27,0,.08.03.17.09.23.09.07.04.09.08.12.03.02.07.03.03.02-1.79-.93-4.25-.65-6.35-.23-3.24.79-6.11,2.09-7.64,5.2-4.44,8.39-13.67,13.47-22.77,14.85-10.25,1.6-22.34.23-28.88-8.96-2.15-3.34-3.51-5.58-5.93-8.43-2.51-2.94-4.95-5.95-8.47-7.59-2.76-1.16-6.62-2.04-8.58-4.87-3.06-3.64-2.99-9.08-2.58-13.31.4-5.74,1.47-11.42,3.58-16.83,2.14-5.17,4.75-9.89,7.25-14.79.93-1.93,3.82-7,4.31-8.93.57-2.24-.17-5.51-1.33-7.27-.4-.55-.74-.91-1.28-1.13-1.2-.35-2.74.19-4.54.69-3.15,1.01-6.51,2.39-9.81,3.68-2.19.89-4.72,1.79-6.57,2.97-1.37,1.12-1.28,2.93-1.28,4.7.47,8.88,1.46,18.05.84,26.97-.2,3.62-.46,7.16-.72,10.76-.13,3.82-1.17,8.52-4.18,11.37-4.22,4.44-11.48,7.6-17.42,4.27-1.55-.86-2.87-2.57-4.06-3.34-.94-.49-1.82-.26-2.66.4-9.74,7.85-22.77,8.68-31.93-.55-1.18-1.03-2.04-2.71-3.28-3.43-1.12-.62-2.08-.66-3.84-.38-8.95,2.19-15.21-6.64-16.97-14.35-1-5.75.99-11.3,1.83-16.73,1.29-6.94,2.68-13.97,3.46-20.95.2-2.29.51-4.88.06-6.8.23.28.63.64,1.33.59.51-.07.43-.12.31-.04l-.58.31h0ZM153.83,2.93c.8-.36.83-.63,2.17-.81,1.01-.08,1.9.43,2.36.91.88.8,1.25,2.27,1.35,3.24.27,2.45.02,4.92-.22,7.23-1.21,10.63-3.84,21.25-5.55,31.7-.53,3.38.11,6.07,1.66,9.07,1.45,2.89,3.58,5.53,6.07,6.39,2.11.86,4.87-.34,7.45-.09,1.85.18,3.53.9,4.91,2.14,1.08,1.03,1.72,2.12,2.72,3.05,6.89,6.91,16.26,6.9,24.15,1.61,2.08-1.62,4.61-3.68,7.57-3.01,2.66.34,4.32,2.84,6.19,4.02,3.83,1.97,8.71-.6,11.46-3.62,2.22-2.33,2.51-5.1,2.64-8.39.32-7.03.79-14.1.31-21.09-.22-3.53-.53-7.04-.88-10.58-.46-5.11-1.69-11.76,3.11-15.41,2.59-1.87,5.19-2.73,7.9-3.95,3.32-1.38,6.53-2.82,10.16-4.09,4.64-1.71,10.02-2.25,13.58,2.7,2.74,4.05,3.63,8.58,2.73,13.22-.63,2.36-1.48,3.99-2.25,5.67-2.32,4.69-4.77,9.78-6.95,14.43-2.53,5.27-4.08,10.79-4.46,16.62-.04,2.78-1.23,9.03,1.43,10.46,2.2.84,5.64,1.81,7.74,3.34,3.46,2.1,6.15,5.24,8.73,8.21,1.23,1.44,2.43,2.95,3.56,4.55,1.63,2.26,2.52,4.2,4.16,5.9,1.45,1.4,3.14,2.34,5.11,3.03,8.47,2.6,19.44.9,25.97-4.7,2.81-2.24,3.7-4.89,5.83-7.83,4.47-5.37,11.56-7.66,18.4-7.39,6.81.22,12.81,5.32,9.98,12.66-.58,1.56-1.63,3.7-2.35,5.23-1.66,3.82-2.77,8.05-1.51,12.07,2.25,4.93,4.11,10.64,5.2,15.86.8,3.67,1.52,7.39,1.56,11.62.25,4.37-1.78,10.27-5.55,13.1-1.6,1.35-2.81,2.28-4.07,3.4-6.07,5.53-11.53,12.43-15.01,19.66-2.46,4.81-2.79,9.85-4.8,15.01-.79,1.98-1.79,3.81-2.86,5.51-4.59,7.6-10.82,13.89-20.27,14.25-3.86.2-7.28-.29-10.91-.22-6.72,0-12.46,1.9-18.66,4.87-5.49,2.51-13.67,6.6-19.22,9.3-3.56,1.57-7.79,4.06-12.07,2.95-2.77-.7-4.76-3.79-4.37-6.73.26-2.59,1.46-4.84,2.04-7.05.15-.55.11-.91.13-.72.02.18.34.73.75.9.37.15.1,0-.46.04-5.01.56-10.65,1.43-14.72-3.19-5.29-6.3-5.36-17.66.05-24.04,3.36-4.13,9.39-3.63,13.57-1.93,3.05,1.06,6.39,2.89,9.24,3.11.53,0,.77-.07,1-.23.25-.15.56-.6.73-1.08.2-.59.2-1.05.09-1.36-.02-.05-.15,0-.28,0-.07.01-.11-.04-.18-.09-1.59-.68-3.6-1.15-5.34-1.72,0,0,.76.14.76.14-1.45-.24-.49-.09-.85-.16l-.14-.04-.27-.09c-.24-.06-1.3-.46-1.57-.56-4.07-1.44-7.75-4.08-11.12-6.64-.46-.32-.89-.52-.96-.49-.03.02.03.03.07.05.05,0,.03.03.12,0,.1-.03.17-.1.13-.03l-.34.61c-4.15,7.54-11.78,3.92-18.35,3.26-3.8-.43-7.67-.48-11.38.1-2.46.36-4.7,1.01-7.09,1.92-2.81,1.17-7.28,2.83-10.69.91-1.94-.87-3.63-2.89-4.38-4.77-.39-.91-.56-1.3-.68-1.45-.16-.21-.52-.42-.41-.28-3.14-.64-6.92-.56-10.16-.44-2.67.16-6.06.65-8.9.38-3.21-.09-6.27-1.12-9.41-.86-3.56.51-7.3,1.5-11.01,1.19-2.93-.05-6.23-.94-8.78-1.35-2.22-.35-4.95-.12-7.39-.24-5.8-.15-11.28-.63-17.02-1.31-4.24-.47-9.66-1.5-13.75-3.71-6.84-3.15-11.33-8.18-11.59-16.08-.14-.6-.44-1.23-1.06-1.46-5.51-1.49-10.53-5.92-13.2-10.8-1.69-2.81-2.91-6.14-3.29-9.4,0,0-.14-1.05-.14-1.05-.04-.25-.09-.51-.09-.46.17.62.8,1.29,1.51,1.34-9.28,3.63-24.85,9.84-30.87-2.32-2.89-6.93-.68-15.33,3.55-20.98.82-1.04,1.77-2.28,2.69-3.17-.12.48-.2,1.02-.13,1.55.16,1.28,1.12,2.61,2.43,2.81.02,0,.08,0,.09-.02-.03,0-.01-.04-.1-.05-.25-.07-.79-.1-1.35-.08-.57.02-1.21.09-1.87.16-2.5.25-5.08.75-7.51,1.61,0,0-2.06.68-2.06.68-.77.23-1.6.5-2.72.63-2.31.43-5.52-1.03-6.69-3.11-2.16-3.87-2.87-8.33-4.49-12.47,0,0-2.69-7.87-2.69-7.87-.63-1.92-1.38-4.18-1.5-6.36-.33-4.04,3.04-6.76,6.71-7.25.68-.11,1.19-.33.93-.19-.18.1-.48.46-.54.75-.12.27-.05.69.01.83.13.23-.16-.26-.61-.73-.45-.52-1.06-1.18-1.6-2.14-1.23-1.98-1.11-5.14.49-7.03,2.08-2.68,4.88-3.59,7.02-5.41.23-.17.3-.3.48-.44.06-.07.07-.11.12-.16.04-.05.1-.1.08-.11,0-.02.01-.03.04-.04-.01,0-.03.01-.02.02.04.02,0,.05.03.03-1.68-2.55-5.45-3.49-7.9-5.48-.22-.19-.47-.39-.79-.79-.32-.41-.67-1.08-.72-1.65-.15-.89.28-2.16.97-2.69.25-.23.37-.29.57-.42,1.01-.61,2.14-.58,3.08-.57,4.79.28,9.51.83,14.27.49,2.76-.09,5.14-.71,7.81-1.3,2.95-.56,5.77-.76,8.75-.79,5.77,0,10.84,1.5,16.48,1.23,2.67-.04,5.31-.22,7.79-.71,1.82-.38,4.58-1.23,6.76-1.01,5.29.22,10.16,3.07,14.3,6.01,3.09,2.02,6.89,2.53,10.48,2.36,8.91-.14,11.16-7.75,14.16-14.83.8-2.06,2.28-4.82,4.51-6.11,1.88-1.36,4.25-.97,6.1-1.96,2.9-1.53,5.27-4.57,5.8-7.86.35-2.83-.33-6.48,2.64-8.43,2.04-1.49,4.72-.46,6.86.02,3.8.76,8.04,1.06,11.81,1.07,2.55-.05,4.89-.5,6.96-1.59h0Z"/>
    </g>
  </g>
</svg>