<?xml version="1.0" encoding="UTF-8"?>
<svg id="_Слой_2" data-name="Слой 2" xmlns="http://www.w3.org/2000/svg" viewBox="0 0 309.83 221.39">
  <defs>
    <style>
      .cls-1, .cls-2 {
        stroke-width: 0px;
      }

      .cls-2 {
        fill: #51b355;
      }
    </style>
  </defs>
  <g id="_Илекский" data-name="Илекский">
    <g>
      <path class="cls-2" d="M16.56,104.4c-4.1-1.88-5.69-9.84-4-16,1.01-3.68,2.31-3.48,3-7,.11-.55,1.5-8.18-3-13-3.56-3.81-7.74-2.6-9-6-.88-2.38.28-5.39,2-7,1.63-1.53,3.22-1.3,6-2,6.36-1.6,6.21-4.85,11-6,5.21-1.25,6.2,2.4,14,2,1.89-.1,8.38-.42,10-4,.9-1.99-.61-2.8,0-6,.7-3.67,3.39-4.15,4-8,.4-2.51-.6-2.86,0-4,1.67-3.17,8.94.44,18-3,4.95-1.88,6.63-4.42,7-5,1.75-2.77.66-4.17,2-6,2.39-3.26,7.61-1.19,19-2,7-.5,10.49-.75,14-3,4.38-2.81,5.18-6.13,8-6,2.82.13,3.17,3.52,8,8,4.14,3.84,8.43,5.56,12,7,3.99,1.6,7.34,2.95,12,3,4.12.05,7.08-.97,13-3,4.26-1.46,6.42-2.23,8-4,3.15-3.54,1.82-7.12,4-8,2.88-1.16,8.29,3.87,11,8,1.23,1.86,1.83,3.44,4,6,1.86,2.2,3.71,3.75,4,4,2.49,2.08,2.99,1.84,4,3,1.79,2.04,1.45,4.16,2,8,.44,3.05,1.02,7.1,3,10,2.82,4.13,8.54,6.01,13,6,7-.02,9.32-4.7,15-3,2.08.62,3.02,1.63,6,2,1.78.22,4.7.59,7-1,2.52-1.75,1.53-3.93,4-6,1.78-1.49,2.59-.59,8-2,5.02-1.31,6.21-2.58,9-2,2.16.45,3.59,1.65,4,2,3.57,3.07,3.38,8.01,4,12,1.11,7.12,4.71,10.28,8,16,8.99,15.64,4.07,24.55,11,47,6.74,21.83,17.04,31.64,13,36-4.78,5.16-23.31-4.14-29,3-.61.76-1.66,2.45-2,3-2.68,4.3-3.49,6.87-5,10-3.19,6.61-4.54,5.44-7,11-2.65,6-2.03,9.53-4,10-1.44.34-2.28-1.42-8-6-3.82-3.06-4-2.73-5-4-3.54-4.49-2.11-9.54-4-10-.93-.23-1.54.95-5,4,0,0-2.34,2.06-5,4-5,3.64-6.66,3.53-8,6-1.1,2.04-1.03,4.16-1,5,.13,3.75,2.13,4.59,2,8-.11,2.91-1.61,3.62-1,5,1.23,2.8,7.78.76,9,3,1.69,3.11-6.77,14.65-15,14-7.42-.58-9.92-10.68-17-10-3.85.37-3.7,3.41-8,4-6.32.87-8.48-5.44-17-6-4.8-.31-4.6,1.66-9,1-6.24-.93-7.35-5.02-14-6-4.96-.73-5.64,1.35-8,0-4.66-2.66-1.74-10.65-8-17-1.8-1.82-1.85-.97-4-3-5.58-5.26-9.23-14.72-6-20,1.58-2.59,4.15-3.09,4-5-.18-2.26-3.85-2.32-5-5-1.58-3.67,4-6.51,4-12,0-6.42-7.62-13.15-14-13-1.65.04-1.94.51-4,1-6.6,1.58-16.56-.13-21-6-4.46-5.9-1.01-12.95-6-16-1.19-.73-1.63-.47-5-1-11.7-1.82-17.1-6.53-20-4-1.59,1.38-.58,3.32-2,4-3.12,1.5-8.13-7.99-14-7-2.79.47-2.99,2.84-6,3-4.01.21-5.94-3.87-8-3-2.51,1.06-.91,7.63-4,9-.47.21-1.31.14-3,0-2.54-.21-4.64-.38-6-1Z"/>
      <path class="cls-1" d="M14.94,107.94c-7.57-3.98-8.02-15.5-5.24-22.55.77-1.9,1.99-2.91,2.31-4.71.96-5.61-.55-10.88-6.36-12.42-7.7-2.35-7.11-12.45-.77-16.32,1.29-.81,3.31-1.1,4.49-1.29,3.15-.51,4.62-1.22,7.14-3.41,2.37-1.99,5.53-3.22,8.72-3.01,2.58.12,5.2,1.7,7.31,2.09,1.29.27,2.63.34,4.09.29,2.27-.15,5.68-.39,7.19-1.87.13-.19.32-.37.37-.6-.58-2.55-.62-5.53.75-7.95,1.07-2.12,2.85-3.13,3.11-5.39.04-.28.05-.52.04-.73-.01-.22-.03-.35-.13-.79-.87-3.43,2.4-5.83,5.39-5.8,4.83-.12,9.18.52,13.68-1.15,2.89-1.03,6.36-2.73,7.14-5.79.14-.51.12-1.21.41-2.45.6-2.43,2.84-4.33,5.26-4.74,5.19-.78,9.8.17,14.81-.27,3.02-.19,6.35-.36,9.31-.82,2.89-.43,5.21-1.51,7.33-3.49,1.3-1.11,2.03-2.32,3.54-3.53,2.09-1.8,5.68-1.7,7.55.39,1.37,1.4,2.02,2.67,3.15,4.02,3.72,4.83,9.13,7.64,14.81,9.72,7.94,3.51,13.51,2.92,21.53-.18,3.66-1.4,8.25-2.08,9.22-6.48.24-.82.44-2.17.9-3.25.91-2.39,3.84-3.45,6.18-2.71,3.06.91,5.48,3.1,7.56,5.27,3.43,3.47,5.06,8.2,8.59,11.45,1.05,1.06,2.16,2.05,3.28,2.84,1.13.66,2.6,1.64,3.42,2.8,1.6,2.06,1.81,4.77,2.01,7.1.34,2.85.73,6.05,1.76,8.67,2.51,6.3,11.15,8.26,16.99,5.74,1.37-.53,2.86-1.36,4.87-1.84,1.95-.51,4.27-.27,6.13.41,1.66.6,2.63,1.35,4.18,1.69,2.25.4,5.15.95,6.9-.78.74-.91,1.15-2.95,2.21-4.13.73-.87,1.44-1.52,2.64-2.09,1.05-.47,1.97-.47,2.95-.57,3.03-.22,6.02-.78,9.09-1.72,1.62-.51,3.77-.84,5.52-.58,1.85.41,3.55,1.32,4.94,2.63,2.75,2.52,3.55,6.43,4.06,9.82.45,3.08,1.06,5.74,2.56,8.39,2.2,3.75,5.71,7.97,7.75,12.23,5.48,10.36,4.94,22.37,7.17,33.5,2.45,12.4,7.38,23.8,13.39,34.99,2.15,4.35,5.81,10.24,2.11,14.87-6.29,6.8-19.58-.28-27.32,2.11-.98.32-1.55.84-2.02,1.68-2.77,3.8-4.34,7.91-6.36,12.21-1.23,2.91-3.72,5.69-5.55,8.22-1.41,2.33-2.28,5.14-2.96,7.92-.49,1.67-.62,3.53-2.39,5.2-1.71,1.57-4.43,1.73-6.36.42-1.08-.68-2.52-2.08-3.47-2.9-1.72-1.52-3.51-2.99-5.34-4.37-1.09-.85-2.35-1.51-3.4-2.69-2.31-2.49-3.64-6.55-4-9.59-.11-.48-.1-.72-.21-1.02-.01-.06,0,.02,0,.02,0-.05.1.26.27.43.14.2.32.38.53.51.67.54,1.78.67,2.58.38.44-.15.56-.28.55-.26l-.19.17c-1.04,1.08-2.46,2.34-3.55,3.34,0,0,.89-1.15.89-1.15-.96,1.48-1.05,1.2-.97,1.22l-.07.07-.15.13c-1.43,1.2-2.91,2.46-4.41,3.57-1.94,1.65-5.08,3.24-6.99,4.61-.65.64-.82,1.52-.93,2.5-.12,1.31.06,2.29.74,3.7,1.22,2.41,1.68,5.52.89,8.22-.19.87-.62,1.65-.82,2.22,0,.02.04-.1.04-.19.03-.15.04-.29.04-.5-.08-1.53-1.24-1.79-.91-1.67.27.08,1.07.18,1.98.22,1.17.11,3.45.12,4.98.91,1.4.62,2.56,1.88,3.03,3.34,1.01,3.44-.83,6.78-2.64,9.45-4.2,5.81-11.05,11-18.76,9.1-5.6-1.42-8.19-6.34-12.24-9.1-.12-.06-.23-.13-.34-.2l-.3-.1c-.39-.17-.74-.15-1.15-.16-.71.13-.47-.02-1.45.82-2.73,2.92-8.1,4.16-11.97,2.67-2.78-.83-5.79-3.36-7.99-4.33-1.78-.82-4.11-1.32-6.02-1.04-.5.06-.92.26-2.34.69-1.33.39-3,.49-4.35.34-2.45-.22-4.99-1.04-7.1-2.25-2.3-1.29-4.33-3.1-6.61-3.59-1.7-.48-3.55-.45-5.22.05-6.39,1.37-10-4.59-10.73-10.01-.73-3.62-1.48-6.74-4.25-8.99-1.41-.71-2.68-1.71-3.71-2.79-6.38-6.42-11.72-18.49-5.06-26.47.95-1.09,2.05-1.9,2.5-2.3.22-.17.17-.26-.13.3-.25.54-.31,1.22-.1,1.78.22.61.59.87.52.81-2.23-1.25-4.93-3.11-5.62-5.95-.94-2.33.37-6,1.44-7.45,1.2-1.9,2.02-3.1,2.3-4.12.96-3.68-2.69-7.29-5.73-8.92-1.51-.73-2.94-1.22-4.27-.92-3.45,1.31-7.33,1.65-10.94,1.37-6.74-.51-14.48-3.4-18.14-9.87-2.33-3.9-2.13-8.13-2.94-12.08-.25-.8-.36-.85-.78-1.19.04.02.16.06.17.06.05,0-.44-.07-.9-.12-3.57-.4-7.17-1.14-10.6-2.17-3.06-.81-6.45-2.41-9.23-2.9.16-.05.36-.12.51-.23.15-.15.35-.35.42-.55.08-.18.04-.21-.04.31-.04.24-.11.64-.27,1.2-1.08,4.01-5.91,5.13-9.04,3.11-2.83-1.63-4.72-4.09-6.98-5.49-.86-.51-1.43-.86-2.16-.77-.08.05.03-.12-.81.61-4.24,3.96-9.87,2.51-13.87-.83-.18-.14-.26-.06.39.03,1.02.09,1.82-.34,2.25-1.04-.42,1.32-.49,3.81-1.37,5.89-.58,1.67-2.23,3.44-4.14,4.07-1.17.37-2.49.26-3.26.2-2.95-.34-5.35-.2-8.44-1.48h0ZM18.19,100.86c1.57.51,4.81.62,6.49.72-.06,0-.16.01-.42.09-.38.14-.35.12-.43.16-.11.06-.21.15-.31.23-.15.19-.14.18-.09.08.51-1.59.47-3.91,1.32-6,.9-2.41,3.4-4.16,6.02-3.85,2.29.38,3.06,1.17,4.42,2.08,1.44,1.01,1.83.99,2.28.94,3.88-3.87,8.91-3.96,13.32-1.04,2.66,1.67,4.49,3.78,6.6,5.18.13.09.14,0-.4-.06-.7-.03-1.57.23-2.14.93-.37.43-.5.79-.54.93-.03.09,0,.02.03-.21.25-2.99,2.83-6.12,6.12-6.46,4.95-.42,8.51,2.02,12.89,3.08,2.57.76,5.17,1.31,7.81,1.68,1.46.21,3.25.22,4.8.99,3.87,1.73,5.74,6.24,5.97,9.99.36,3.75.79,7.37,4.16,9.47,3.82,2.62,9.83,3.51,14.52,2.44,1.01-.23,1.79-.64,2.85-.87,8.62-1.38,17.33,5.39,19.8,13.39.66,2.36.71,5.07-.07,7.4-.84,2.7-2.35,4.64-3.16,5.99-.43.66-.58,1.16-.53,1.02.02-.05-.02-.07,0-.16,0-.08-.04-.15-.03-.19-.12-.25-.17-.2.12.01.85.59,2.14,1.19,3.11,2.11,1.28,1.17,2.15,3.01,2.06,4.81.13,1.77-1.53,4.17-2.5,4.84-.79.67-2.12,1.6-2.4,2.66-1.31,5.07,2.37,11.19,6.05,14.56.25.21.35.28.54.38,1.18.57,2.47,1.6,3.27,2.5,3.28,3.18,4.96,8.29,5.64,12.43.33,1.41.45,2.85,1.22,3.64.02.05.04.03.04.04-.04-.03-.11-.04-.25-.07-.28-.05-.48.02-.17-.05.29-.06.87-.21,1.49-.33,4.73-.92,10.27.73,13.94,3.39,2.18,1.54,4.17,2.68,6.78,2.66,1.06-.07,1.89-.7,3.79-.97,1.4-.22,2.67-.21,3.86-.11,2.36.16,4.82.82,6.96,1.84,3,1.34,4.6,3.02,7.11,4.01.84.39,1.99.21,2.71-.03.74-.26,1.76-1.56,2.82-2.19,3.29-2.27,7.82-2.04,11.12-.07,4.03,2.15,6.44,6.99,10.3,8.38,4.63.9,9.29-3.98,11.34-7.8.14-.3.25-.58.32-.8.08-.22.07-.36.07-.26.04.63.43,1.31.98,1.7.07.05.15.07.21.12.03.02.08.03.1.03-.03,0-.05,0-.07-.01-1.7-.38-3.59-.07-5.85-.75-2.84-.72-5.24-3.68-4.61-6.74.17-.97.7-1.96.94-2.7.12-.36.14-.96.11-1.36-.05-.39-.15-.72-.55-1.6-2.01-3.98-2.01-9.54.61-13.42,2.38-3.35,6.2-4.26,9.08-6.72,1.35-.97,2.73-2.13,4.01-3.2,0,0,.13-.11.13-.11l.06-.05c.13-.02.09-.34-.83,1.1l.89-1.15c1.1-.88,2.43-2.3,3.48-3.24.67-.64,1.13-.98,2.31-1.47,2.69-.94,5.35.86,6.08,3.09.97,2.98.73,6.09,2.74,8.35,3.35,2.44,6.82,5.26,9.87,8.13.28.26.57.49.7.58-.24-.13-.48-.19-.77-.22-.87-.19-1.84.57-2.04.95.54-2.05,1.21-4.68,2.03-6.86,1.07-3.19,3.25-6.56,5.53-9.05,3.14-4.36,4.62-10.07,7.78-14.58,0,0,1.5-2.22,1.5-2.22l.38-.55c.07-.1.11-.18.2-.29,6.42-7.17,17.32-2.88,25.24-2.57,1.65.05,3.08.1,4-.5-.04-2.41-1.78-5.09-2.85-7.49-6.04-11.45-11.16-23.95-13.44-36.87-1.17-6.33-1.51-12.95-2.33-19.22-.77-6.09-2.83-11.76-5.94-16.98-1.53-2.61-3.52-5.22-5.02-8.46-1.48-3.08-2.19-6.81-2.31-10.11-.16-4.62-1.26-8.67-5.63-10.03-.16-.06-.32-.07-.47-.14l-.46-.2c-1.02-.26-1.9.29-2.96.65-2.95,1.26-6.17,2.5-9.53,3-3.82.17-2.91,3.24-4.96,5.7-2.97,3.38-7.27,3.22-11.17,2.59-2.86-.44-5.27-2.67-8.15-1.79-2.76.88-6.11,2.94-9.41,3.18-5.62.56-11.38-1.12-15.52-5.07-4.02-4.01-4.63-9.8-5.29-15.07-.16-1.66-.27-3.16-.63-3.85-.57-1.19-1.13-1.15-2.52-2.17-2.94-2.16-5.25-4.52-7.4-7.43-1.97-2.85-2.96-5.25-5.28-7.6-1.4-1.61-3.56-3.36-5.26-3.82,0-.03.13-.04.17-.1.09-.05.15-.14.18-.17.02-.04.02-.05.02-.03-.04.06-.06.14-.11.29-.16.5-.32,1.38-.58,2.28-1.66,6.44-7.06,8.19-12.66,9.97-9.03,3.43-16,3.96-25.09-.08-4.69-1.82-9.43-4.01-13.23-7.54-2.43-2.06-4.38-5.02-6.29-7.41-.15-.13-.27-.24-.31-.24-.04-.04-.1-.03-.21-.06-.23.02-.23-.01-.63.26-.37.29-.89.84-1.44,1.43-4.39,5.18-10.13,6.74-16.61,7.05-4.81.45-9.92.54-14.67.35-1.55-.03-3.15-.06-4.23.18-.68.18-.97.26-1.26.64-.63.75-.33,1.42-.71,2.9-1.18,5-5.91,7.81-10.29,9.32-4.66,1.77-10.15,1.54-14.9,1.56-.64.03-1.07.22-1,.2.02-.04.11-.06.11-.17.03-.06.08-.26.08-.42,0-.14-.01-.11.03.05.6,2.07.21,4.37-.67,6.35-.75,1.58-1.98,2.83-2.7,4.09-.6,1.36-.66,2.63-.21,4.12.59,1.91-.33,4.27-1.64,5.66-1.75,1.79-3.72,2.48-5.5,2.98-3.7.86-7.03,1.14-10.78.52-2.57-.4-4.42-1.62-6.55-1.82-3.69-.17-5.78,3.63-9.01,5.04-2.38,1.19-5.07,1.63-7.35,2.15-.41.14-.5.22-.78.49-.55.54-1.07,1.58-1.17,2.4-.07.51-.03.9.16,1.21.92.61,2.41.9,3.72,1.5,3.88,1.54,6.92,5.24,8.06,9.15,1.32,4.76,1.49,10.36-1.16,14.64-2.41,3.31-2.41,11.7.83,14.2h0Z"/>
    </g>
  </g>
</svg>