<?xml version="1.0" encoding="UTF-8"?>
<svg id="_Слой_2" data-name="Слой 2" xmlns="http://www.w3.org/2000/svg" viewBox="0 0 368.44 298.71">
  <defs>
    <style>
      .cls-1, .cls-2 {
        stroke-width: 0px;
      }

      .cls-2 {
        fill: #6eaa42;
      }
    </style>
  </defs>
  <g id="_Кваркенский" data-name="Кваркенский">
    <g>
      <path class="cls-2" d="M134.42,281.45c-4.17,3.52-8.3,3.73-17,5-8.03,1.17-14.49,2.11-22,4-5.23,1.31-9.98,2.84-18,4-5.95.86-8.11,1.31-10,0-2.15-1.49-2.6-4.01-3.5-14.5-.85-9.9-1.27-14.85-1-17,1.24-9.83,5.26-9.65,6.5-17.5,1.59-10.02-4.91-10.59-10-32-.86-3.62-2.09-9.57-6.5-15.5-2.56-3.44-5.01-5.29-6-6-1.67-1.19-5.79-4.04-11.5-4.5-4.04-.32-4.4.92-8.5.5-2.6-.26-6.91-.7-9.5-3.5-4.39-4.75.36-11.89-4-16-2.9-2.74-6.1-.72-8-3-3.44-4.13,5.37-12.69,8-25,3.78-17.7-7.64-31.77-4-34,2.51-1.54,6.83,5.8,18,11,2.54,1.18,21.39,9.95,33,1,3.61-2.79,8.32-8.67,8-15-.22-4.28-2.61-6.11-2-11,.67-5.34,4.03-7.21,3-9-1.62-2.82-9.84,1.97-18-2-.46-.22-3.59-1.79-6-5-6.39-8.5-4.34-23.95,3-28,1.61-.89,1.73-.27,14,0,8.7.19,11.47-.06,13,2,1.8,2.43-.77,4.52,1,9,1.61,4.08,4.55,4.4,5,8,.38,3.03-1.54,4.07-1,6,1,3.58,8.43,2.91,15,5,14.94,4.76,16.89,21.12,25,20,5.46-.75,8.51-8.72,9-10,.82-2.14.85-3.4,0-18-.52-9.04-.79-13.59-1-15-.71-4.76-1.36-6.49-1-10,.51-4.9,2.2-5.57,3-10,1.43-7.97-2.96-11.85-1-14,3.05-3.35,12.95,6.83,24,4,8.96-2.3,12.28-11.52,16-10,2.55,1.05,1.23,5.49,4,13,2.84,7.7,8.95,15.83,13,15,2.83-.58,1.96-5.01,6-10,5.59-6.92,17.18-10.68,24-7,5.58,3.01,5.39,9.6,10,10,3.79.33,7.09-3.84,8-5,3.13-3.96,2.77-7.31,4-11,2.91-8.75,13.71-16.44,21-15,7.92,1.56,5.68,12.71,16,19,6.76,4.12,15.17,3.41,32,2,13.4-1.12,17.66-3.11,21,0,4.09,3.81-.19,8.74,2,22,1.84,11.13,5.74,13.05,7,26,.54,5.57.22,9.31-1,13-.67,2.02-2.35,7.13-7,11-4.06,3.38-6.04,2.2-8,5-3.27,4.66.99,9.69-2,13-2.57,2.85-6.59.11-12,3-3.76,2.01-5.56,5.33-7,8-4.68,8.66-.97,13.46-6,20-2.18,2.84-3.66,2.94-5,6-.12.27-2.8,6.62,0,11,3.04,4.75,8.9,1.51,16,6,3.39,2.15,5.93,6.76,11,16,2.41,4.39,5.02,9.14,8,16,4.29,9.87,4.35,12.63,8,15,3.51,2.28,9.51,3.66,11,4,3.28.75,3.29.39,5,1,2.63.94,5.24,2.73,10,9,4.47,5.89,6.71,8.84,7,11,1.03,7.6-6.39,16.73-15,19-8.07,2.13-15.25-2.26-23-7-1.91-1.16-4.28-2.76-18-15-12.67-11.3-13.16-12.19-16-13-6.7-1.91-9.05,1.59-26,5-10.8,2.17-16.2,3.26-22,2-1.88-.41-4.85-1.24-22-13-12.69-8.7-14.41-10.53-14-12,1.2-4.32,19.38-.23,21-5,1.04-3.06-7.31-8.71-24-20-7.32-4.95-9.73-6.24-13-6-6.13.45-7.87,5.7-17,14-8.39,7.62-8.86,4.96-23,16-7.43,5.8-12.08,10.27-17,15-5.79,5.57-8.72,8.4-10,11-3.66,7.4-3.93,18.17,1,26,4.81,7.65,12.03,8.44,12,14-.02,3.8-3.42,6.66-5,8Z"/>
      <path class="cls-1" d="M136.38,283.76c-3.47,3.14-8.52,4.34-12.88,4.93,0,0-12.17,1.84-12.17,1.84-10.25,1.33-19.8,4.65-29.99,6.67-2.36.5-3.95.61-6.19,1.01-3.18.56-7.08,1.13-10.06-1.17-3.83-3.05-3.74-8.37-4.34-12.5-.62-6.19-1.28-12.36-1.65-18.65-.19-2.03.2-4.98.7-7.12.52-2.3,1.53-4.76,2.7-6.73,1.19-2.01,1.98-3.27,2.44-4.75.98-3.14,1.1-6.03-.35-9.13-2.71-5.41-5.81-11.44-7.5-17.38-1.26-3.79-2.05-8.11-3.26-11.78-2.67-8.16-9.08-15.74-17.85-17.06-1.95-.28-2.53-.13-4.77.29-2.56.45-5.09.17-7.58-.21-7.77-1.04-13.31-6.28-12.77-14.78-.11-1.62.28-3.5-.16-4.76-.14-.34-.2-.48-.4-.67-.23-.22-.27-.23-.57-.32-.15-.04-.41-.08-.83-.12-.39-.04-.97-.07-1.74-.18-4.63-.44-7.95-5.07-7.02-9.62,1.28-6.46,5.68-11.94,7.46-17.79,2.55-7.03,2.29-14.23.28-21.43-.83-2.68-1.77-5.83-2.77-8.54-.52-1.94-1.39-3.86-1.21-6.34.2-4.2,4.5-7.14,8.47-5.65,3.18,1.23,5.15,3.45,7.64,5.32,8.85,7.3,29.19,15.56,38.69,6.2,2.82-2.84,4.81-6.14,4.7-9.7-.09-1.72-.78-2.76-1.36-4.8-1.79-5.15-.12-11.51,2.69-15.68-.47,1.29.09,3.12,1.33,3.92.59.36.72.4,1.08.47-1,.02-2.42.19-3.73.35-21.11,3.15-32.29-17.89-24.37-36.04,1.59-3.51,4.98-7.7,9.23-8.74,1.76-.39,3.53-.12,5.18-.08,5,.27,10.21.36,15.27.44,2.97.16,5.94.08,8.73,1.96,2.92,1.84,4.24,5.86,3.59,8.99-.19,1.06-.26,1.72-.05,2.6.48,1.39.7,1.66,1.93,2.95.68.72,2.04,2.09,2.83,4.05.78,1.96.96,3.66.73,5.68-.25,1.95-1.24,3.84-1.11,3.66.06-.06.13-.86-.02-1.27-.09-.42-.33-.79-.61-1.07-.43-.35-.05-.03.59.12,2.82.71,5.67.91,8.83,1.66,4.67,1,9.5,3.35,13.11,6.55,3.72,3.16,6.41,6.99,8.77,10.16,1.36,1.78,2.43,3.26,3.58,3.83,2.31-.56,4.24-4.79,5.1-7.21.33-2.92-.07-6.25-.16-9.33-.19-3.83-.86-14.59-1.11-18.34,0,0-.12-1.44-.12-1.44l-.06-.62-.09-.59c-.52-3.26-1.4-6.99-1.02-10.39.11-2.37,1.01-5.58,2-7.6.43-.95.64-1.51.83-2.17.58-2.1.6-4.29.06-6.49-.45-1.96-1.59-4.43-1.39-6.8.12-2.76,2.06-5.39,4.61-6.32,3.34-1.17,5.55-.2,8.28.75,6.11,2.49,12.73,6.07,18.73,2.17,2.6-1.53,5.12-4.69,7.6-6.71,2.36-2.08,6.52-3.13,9.47-1.19,1.87,1.05,3.11,2.99,3.65,4.99.38,1.4.69,3.7.92,5.09.71,4.35,2.41,8.45,4.85,12.22,1.29,1.86,2.73,3.94,4.47,4.89-.19,0-.53-.14-1.12.07-.55.16-1.39.72-1.59,1.16.04-.11.06-.1.13-.3,2.5-8.67,9.13-14.98,17.54-17.86,5.02-1.7,10.33-2.35,15.66-.47,2.84.97,5.58,3.16,7.23,5.4,1.38,1.59,2.3,3.9,3.38,5.14,0-.03,0,0-.04-.03-.04-.06-.11-.06-.18-.11-.06-.06-.18-.05-.22-.08-.25-.05-.24,0-.04-.07.46-.13,1.65-.99,2.62-2.16l.38-.46c.36-.45.64-.83.93-1.29,1.35-2.26,1.35-4.75,2.16-7.46C236.18,9.35,247.14-.08,258.2,0c5.5.13,9.88,3.79,12,8.64,1.82,3.57,2.73,6.65,5.3,9.21,4.85,5.12,12.44,4.59,19.05,4.34,8.06-.45,16.01-1.14,24.19-2.22,2.58-.22,4.8-.64,7.74-.08,6.7,1.39,9.75,7.46,8.83,13.85-.67,6.12-.57,12.2,1.09,18.11,1.73,5.86,4.82,11.86,5.58,18.15.69,4.62,1.08,8.99.45,13.75-1.32,8.66-5.87,17.21-14.14,21.25-1.26.57-2.47.97-2.65,1.08-.09.05-.03.02-.06.03-.01.02-.14.14-.21.29-.2.29-.28.49-.33.93-.12,1.65.28,3.19.36,5.39.26,4.18-2.39,8.47-6.55,9.55-2.94.77-4.51.27-6.75.58-3.33.44-5.47,2.88-7.1,5.85-.59,1.13-1.29,2.29-1.71,3.48-1.51,3.83-.9,7.26-2.18,11.75-.95,3.62-3.68,7.23-6.43,9.5-2.11,1.54-3.44,7.97-1.15,9.46,2.25.94,5.2.73,8.2,1.7,2.47.71,4.79,1.8,6.85,3.4,5.37,4.7,7.61,10.91,10.92,16.63,1.93,3.62,3.88,7.36,5.63,11.18,2.64,5.36,4.59,11.6,6.99,16.87.79,1.48,1.64,2.06,3.13,2.89,3.11,1.59,7.08,3.03,10.72,3.94l1.57.3c1.95.48,3.43,1.31,5.21,2.1,3.88,2.49,6.57,5.85,9.21,9.33,1.9,2.6,3.99,5.09,5.52,8.12.46.89.83,2.1.9,3.19.63,7.73-4.48,14.6-10.49,18.69-8.57,5.9-18,4.01-26.23-.83-11.16-5.91-19.95-15.25-29.36-23.36,0,0-4.57-4.1-4.57-4.1-1.19-1.02-2.93-2.67-4.18-3.3-1.19-.52-3.08-.88-4.48-.73-5.61.97-11.63,3.55-17.44,4.66-8.42,1.59-16.76,4.23-25.44,3.04-4.52-.63-8.39-3.35-12.16-5.59-3.54-2.22-6.97-4.51-10.39-6.83-3.41-2.33-6.8-4.65-10.18-7.14-1.82-1.39-3.44-2.53-5.13-4.25-.56-.56-1.51-1.73-1.77-2.9-1.22-8.48,12.77-6.12,17.7-6.87,1.25-.1,2.41-.26,3.4-.69.16-.09.21-.15.07.01-.07.09-.08.14-.14.38-.01.1-.03.18-.02.27-.01.05.01.12.01.14-.31-.62-1.1-1.45-1.86-2.16-2.77-2.52-6.15-4.89-9.46-7.22-3.34-2.33-6.73-4.63-10.13-6.93-3.12-2.03-6.64-4.7-9.91-6.04-3.05-1.23-5.89.35-7.97,2.64-4.21,4.5-8.46,9.36-13.43,13.19-5.01,3.8-10.66,6.22-15.56,10.09-9.73,7.09-18.73,15.63-27.17,24.18-7.62,7.53-6.97,22.38-.03,29.74,2.82,3.22,7.22,4.95,9.45,9.03,2.77,5.22-1.21,11.2-5.16,14.16h0ZM132.47,279.13c2.09-1.75,4.76-4.37,3.68-6.81-.63-1.33-2.24-2.2-3.47-3.27-1.64-1.24-3.44-2.69-5-4.4-3.18-3.43-5.31-7.79-6.24-12.24-1.8-8.84-.3-19.14,6.38-25.63,8.87-8.94,17.83-17.41,28.04-24.82,6.49-5,14.13-7.87,19.86-13.82,3.03-2.83,5.49-5.77,8.43-8.84,2.51-2.75,6.25-4.95,10.15-4.78,5.95.29,10.43,4.56,15.12,7.44,5.12,3.48,10.29,6.91,15.29,10.61,1.69,1.26,3.36,2.55,5.02,4.08,1.41,1.38,3,2.86,3.58,5.16,1.14,10.01-15.77,5.93-21.31,7.96-.17.07-.14.14.11-.22.12-.16.18-.38.19-.69.02-.21-.06-.5-.1-.6-.06-.09.14.21.39.46.52.55,1.26,1.18,2.01,1.77,7.18,5.5,14.91,10.61,22.54,15.5,3.23,1.87,6.29,4.21,9.99,4.77,7.37.99,15.79-1.58,23.2-2.97,6.31-1.21,11.71-3.81,18.25-4.79,2.67-.19,4.96.19,7.54,1.29,2.39,1.26,3.68,2.63,5.54,4.21,0,0,4.6,4.13,4.6,4.13,7.67,6.62,14.77,13.86,23.08,19.51,4.78,2.9,10.21,6.34,15.54,6.83,8.22.95,18.31-7.56,17.59-16.26-1.12-2.88-3.36-5.33-5.22-7.93-2.59-3.41-5.04-7.04-8.28-9.65-1.23-.72-2.28-.78-3.72-.89-2.28-.26-4.28-.63-6.42-1.11-9.03-2.13-11.83-5.02-14.9-13.39-3.06-7.56-6.62-14.61-10.72-21.69-2.88-4.75-5.41-10.52-9.36-14.01-4.23-3.15-9.04-1.66-14.01-3.92-7.12-3.65-6.94-13.29-3.8-19.54,1.02-2.21,3.21-3.81,4.53-5.36.89-1.1,1.62-2.36,1.99-3.73.7-3.51.63-8.58,2.13-12.44,3.28-8.92,9.37-16.15,19.67-15.93,1.04,0,1.78-.1,1.78-.14.04,0-.15.03-.23.13-.05.03-.08.04-.09.08-.04,0-.06.04-.06.08-.04.03-.07.07-.06.12-.03,0-.03.03-.02.03,0-.15.02-.29,0-.46-.28-1.91-.58-4.44-.35-6.87.4-3.54,2.51-7.09,5.75-8.76,2.67-1.27,2.91-1,4.73-2.37,8.31-6.67,7.68-19.3,4.88-28.67-1.21-3.78-3.09-7.68-4.18-11.75-1.97-6.99-2.27-14.46-1.48-21.59.04-.49.06-.9.07-1.29.02-.74-.05-1.26-.08-1.31-.02,0-.02,0-.01,0s-.03,0-.01,0c.03,0-.03-.03-.06-.06-.03-.03-.04-.08-.1-.1-.2-.14-.09-.09-.39-.18-1.17-.24-3.07.09-4.52.22-8.11,1.11-16.52,1.85-24.86,2.35-4.49.23-8.85.35-13.46-.41-11.54-1.99-16.93-9.52-20.85-18.83-.58-1.11-.88-1.76-1.63-2.39-.04-.05-.09-.1-.15-.1-.11-.03-.16-.13-.35-.14-.08-.02-.15-.04-.22-.08-.08-.03-.22-.01-.32-.03l-.33-.05-.4.02c-.14,0-.26,0-.41.01-4.23.51-9.15,4.22-11.72,8.05-3,4.22-2.28,9.68-5.24,14.08-5.76,9.38-16.93,13.64-23,2.04-.82-1.42-1.43-2.39-2.49-3.24-2.7-1.91-6.66-1.27-9.81-.2-4.57,1.68-8.39,4.43-10.14,8.92-.86,2.31-1.77,5.49-4.18,7.13-7,4.6-14.09-2.86-17.46-8.25-3.18-4.91-5.45-10.42-6.4-16.2,0,0-.48-3.07-.48-3.07-.07-.44-.14-.76-.19-.94-.02-.08-.08-.07.35.54.09.08.22.27.37.38.66.55,1.65.86,2.48.7.16-.03.28-.06.37-.08l.21-.08c.18-.09.05-.03-.15.13-.2.16-.5.43-.8.71-6.41,6.86-13.41,11.34-23.26,9.69-5.18-.73-9.77-3.4-14.35-4.87.79.12,2.45-.8,2.81-1.89.39-1.01.28-1.4.28-1.44.02.07.07.36.21.79,2.12,5.71,2.2,13.02-.61,18.57-.79,1.69-.97,2.5-1.15,4.24-.27,3.07.91,6.64,1.14,9.77.39,4.74.92,15.29,1.21,20.18.11,4.06.68,8-.1,12.18-1.36,4.54-3.44,8.55-7.01,11.9-3.91,3.82-10.62,4.59-14.95.95-6.26-5.24-9.08-13.45-16.36-16.82-6.5-3.73-18.14-.78-21.06-9.66-.3-1.04-.35-2.32-.14-3.39.1-.88.81-2.52.91-2.76.1-.27.1-.31.11-.34.02,0-.03-.41-.04-.36.03.03-.05-.15-.77-.9-.68-.7-1.75-1.84-2.58-3.17-2.18-3.21-2.71-7.81-1.96-11.26,0,.15.12.61.24.77.11.19.27.33.45.47.51.27.12.03-.6-.02-5.66-.35-12.3-.25-18.15-.64,0,0-1.51-.08-1.51-.08-.47-.02-.95-.04-1.13-.03-.05,0-.08,0-.04,0l.18-.03c.07-.02.21-.05.31-.09.05,0,.18-.08.15-.06,0-.02-.12.1-.2.15-.09.07-.18.13-.28.18-3.14,2.78-4.05,8.21-3.65,12.36.31,4.81,2.84,9.68,7.45,11.59,3.63,1.52,7.31.72,11.35.36,3.05-.38,6.85.53,8.36,3.68.92,1.68.9,3.98.17,5.63-1.24,2.71-2.88,4.51-2.75,7.34.25,2.75,2.06,5.69,2.06,8.82.33,9.38-5.98,17.86-14.11,21.91-14.34,6.48-33.89-1.01-45.28-10.21,0,0-2.45-2-2.45-2-.76-.63-1.54-1.27-2.06-1.62-.24-.17-.46-.26-.2-.16,1.81.59,4.04-.87,4.18-2.76.09.89,1.26,4.19,1.69,5.51,3.82,10.41,5.36,22.57,1.25,33.2-1.5,4.26-3.6,8.16-5.38,11.68-.8,1.44-1.47,3.08-1.79,4.37-.04.2,0,.23-.03.16-.02-.08-.09-.36-.21-.5-.06-.07-.11-.16-.2-.22-.07-.09-.23-.16-.3-.21-.22-.1-.28-.07,0-.04,5.03.11,9.5,2.78,10.92,7.8.71,2.73.56,5.05.46,7.48-.07,1.39,0,2.56.51,3.56,1.21,2.08,4.87,2.32,7.34,2.61,2.03.22,3.1-.48,5.58-.56,1.41-.06,2.65.06,3.89.22,12,1.76,21.26,11.95,24.71,23.1,1.31,4.15,1.9,7.98,3.14,12,1.67,5.96,4.18,10.92,6.91,16.58,2.15,4.38,2.07,10.24.43,14.88-1.7,4.84-4.77,7.29-5.47,12.06,0,0-.22,1.34-.22,1.34-.12.63-.11,1.49-.1,2.45.14,5.7.85,12.34,1.25,18.18.23,2.57.41,5.4,1.27,7.46.07.13.09.14.21.25.13.11.2.15.29.18.17.08.86.14,1.72.07.87-.06,1.85-.19,2.84-.32l3.03-.42c11.07-1.54,21.93-5.43,33.14-6.75,3.07-.43,9.15-1.32,12.21-1.73,3.7-.54,7.09-1.07,9.89-3.46h0Z"/>
    </g>
  </g>
</svg>