<?xml version="1.0" encoding="UTF-8"?>
<svg id="_Слой_2" data-name="Слой 2" xmlns="http://www.w3.org/2000/svg" viewBox="0 0 217.55 225.74">
  <defs>
    <style>
      .cls-1 {
        fill: #3b5927;
      }

      .cls-1, .cls-2 {
        stroke-width: 0px;
      }

      .cls-2 {
        fill: #080000;
      }
    </style>
  </defs>
  <g id="_Красногвардейский" data-name="Красногвардейский">
    <g>
      <path class="cls-1" d="M5.48,152.21c3.23-3.59,7.36-1.16,14-6,4.92-3.59,7.23-8.25,8-10,1.99-4.51,1.99-8.35,2-16,.01-8-1.05-9.12,0-14,.41-1.9,1.29-5.83,4-10,3.65-5.61,7.58-6.99,7-9-.8-2.77-8.64-1.4-10-5-.89-2.35,2.01-4.14,1-7-.79-2.24-3.53-3.92-6-4-3.31-.1-4.61,2.72-7,2-1.57-.47-3.01-2.29-3-4,.01-2.96,4.34-3.68,11-9,5.73-4.57,6.89-7.52,9-7,3.07.76,1.33,7.2,6,11,4.39,3.58,12.59,3.3,16,0,.8-.78,1.32-1.7,3-3,2.35-1.82,3.45-1.65,5-3,2.08-1.81,2.63-4.32,3-6,.35-1.6,1.33-6.02-1-9-2.39-3.06-6.02-1.71-7-4-.82-1.91,1.41-3.52,6-11,3.32-5.4,3.37-6.55,5-7,2.15-.6,4.04.83,10,1,.51.01.77.02,1,0,4.25-.39,6.85-5.69,7-6,2.65-5.55-.69-9.29,2-12,1.53-1.54,4.41-2.06,6-1,2.62,1.75-.04,6.64,3,10,1.7,1.88,4.82,2.9,7,2,3.05-1.26,2.7-5.65,5-6,1.76-.27,3.54,2.07,5,4,2.87,3.78,2.1,5.16,4,7,2.31,2.23,5.54,2.16,12,2,1.66-.04,5.76-.25,10-2,1.26-.52,1.83-.89,2-1,3.6-2.37,3.7-5.99,5-6,1.54-.02,1.31,5.08,5,8,2.19,1.73,4.71,1.86,7,2,5.62.34,10.45-2.17,12-3,2.34-1.25,3.58-2.37,4-2,1.04.93-6.16,8.4-4,12,.52.86,2.01,1.58,5,3,3.03,1.44,3.53,1.23,4,2,1.29,2.13-2.2,4.34-2,9,.1,2.4,1.05,2.24,2,7,.13.64.41,1.22.33,2.01-.06.62-.27,1.02-.33,1.99,0,0-.04.55,0,1,.12,1.46,1.81,3.52,4,4,2.01.44,3.24-.71,4,0,.65.6.33,1.99,0,3-.27.85-.81,2.12-2,3-2.75,2.04-6.13-.3-10,1-1.46.49-3.2,1.48-6,5-3.82,4.81-13.66,19.42-9,25,2.75,3.29,7.32-.39,13,4,1.62,1.25,6.09,4.71,7,10,.23,1.36.18,2.56,1,3,1.63.88,3.81-2.82,8-4,3.81-1.07,9.21-.03,11,3,2.28,3.86-3.05,7.99-1,13,1.61,3.94,5.61,3.08,9,7,6.35,7.32,2.74,22.28-1,23-2.26.44-3.42-4.54-8-5-3.78-.38-5.16,2.79-8,2-3.93-1.1-3.12-8.09-7-9-2.15-.5-5.07,1-8,1-.04,0-.23,0-2,0h-2c-3.91,0-8.64-1.03-11,0-4.87,2.11-6.72,16-1,21,4.03,3.53,9.34.43,12,4,2.53,3.39.98,10.58-3,13-5.05,3.08-10.5-3.66-16-1-6.07,2.94-8.54,15.52-4,21,3.65,4.4,10.71,2.85,12,7,.66,2.14-.57,4.62-2,6-3.17,3.05-7.9,1.22-14,1-14.6-.52-22.06,8.69-26,5-1.93-1.81-.45-4.33-4-13-.92-2.24-1.66-3.66-3-4-2.21-.57-3.91,2.34-7,4-4.25,2.28-8.25.66-13,0-15.07-2.1-23.75,7.37-28,3-3.11-3.2.63-9.19-3-12-1.67-1.29-3.28-.67-10,0-11.11,1.1-10.5-.21-16,1-7.77,1.71-10.53,4.67-13,3-1.67-1.13-1.48-3.23-2-9-.81-8.99-1.61-17.91-5-19-2.45-.78-3.95,3.29-7,3-6.44-.61-13.33-19.97-7-27Z"/>
      <path class="cls-2" d="M3.29,150.24c2-2.49,5.84-3.21,8.55-3.71,2.22-.49,4.07-1.39,5.91-2.7,3.58-2.62,6.48-6.6,7.79-10.82,1-3.19.96-7.12,1-10.64.11-3.97-.19-7.47-.44-11.47-.04-5.76,1.86-11.41,4.91-16.27,1.82-2.98,4.49-5.31,6.72-7.63-.02.01.02-.03-.03.05-.05.09-.05.16-.1.36,0,.17-.02.35.03.52.07.31.26.57.36.66-1.8-.68-5.45-.88-7.71-2.34-.88-.54-1.87-1.45-2.41-2.69-.57-1.18-.61-2.78-.3-3.8.3-1.44,1.04-2.23,1.18-3.22-.05-.74-.58-1.27-1.45-1.81-1.76-.85-2.4-.86-4.35.33-5.96,4.28-13.72-4.05-8.85-9.71,1.36-1.43,3.21-2.45,4.58-3.3,3.17-1.91,6.12-4.03,8.8-6.55,2.25-1.89,4.11-5.15,7.56-5.25,4.99.22,5.12,5.27,6.28,8.73,1.65,4.95,8.15,5.8,12.49,4.19,1.62-.57,2.27-1.82,3.54-3.03,1.44-1.51,3.71-2.75,5.5-3.55,1.35-.71,2.23-2.13,2.72-4.35.47-2.11.9-4.2.29-6.1-.76-1.95-1.46-2.06-3.79-2.67-.69-.21-1.72-.42-2.87-1.38-.83-.72-1.43-1.77-1.61-2.88-.33-2.5,1.1-4.27,2.19-5.91,1.5-2.14,2.88-4.17,4.21-6.32.94-1.59,2.01-3.3,2.9-4.93,1.55-3.12,4.29-4.24,7.61-3.51,2.88.53,5.49,1.21,8.29.85,2.97-1.18,5.11-4.83,5.09-8.07.06-1.83-.62-4.43.22-6.64.34-1.02,1.05-1.97,1.84-2.67,3.15-2.79,9.07-2.95,10.91,1.37.67,1.71.54,3.13.62,4.74.1,2.39.52,3.31,2.09,4.23.98.49,2.15.84,3.03.4,1.17-.86,1.29-2.43,2.26-3.84.59-1.02,2.06-2.21,3.41-2.26,4.17-.39,7.34,4.97,9.14,8,.82,1.44.92,3.09,2.18,4.03,2.37,1.53,6.4,1.02,9.67,1.06,3.91-.14,8.11-.71,11.41-2.9,1.41-1.05,2.03-2.66,3-4.29.67-1.09,2.04-1.93,3.41-1.6,1.54.28,2.34,1.69,2.79,2.99,1.23,4.15,2.86,6.89,7.75,7.06,4.75.56,9.39-.96,13.47-3.41.56-.32,1.01-.64,1.87-1.07.27-.1.46-.26,1.23-.31.36-.02,1.03.09,1.55.54.5.45.72,1.04.75,1.42.05.42,0,.61-.03.86-.07.4-.25.83-.4,1.15-1.31,2.8-4.45,6.04-4.1,9.02.08.14.02.09.12.19,1.52,1.18,3.68,2.02,5.4,2.86.77.38,1.62.56,2.47,1.08.81.53,1.34,1.45,1.47,2.42.17,1.95-.76,3.05-1.39,4.53-.71,1.5-1.09,3.07-.83,4.61.48,1.66,1.51,3.71,1.74,5.48.19,1.04.69,2.34.39,3.46-.06.39-.27,1.06-.27,1.44,0,0,0,.19,0,.19v.4c0,.14-.01.29,0,.3.18,1.15,1.73,2.29,2.79,2.41.99.14,1.88-.45,2.98-.48,5.41.33,2.7,9.01-.9,10.49-3.36,1.9-8.32-.75-11.06,1.4-1.82,1.21-3.35,3.2-4.73,5.02-2.94,4.01-5.65,8.34-7.43,12.82-.86,2.2-1.49,4.59-1.22,6.41.13.79.38,1.45.97,1.92.62.49,1.51.47,2.43.52,2.63-.04,6.08.36,8.46,1.95,1.33.85,2.32,1.65,3.37,2.6,3.18,2.78,5.66,6.88,5.96,11.15.11.71.18.27-.34.04-.14-.05-.32-.06-.43-.04-.02,0-.04.02,0,0,.03-.02.07-.02.16-.08.07-.04.16-.09.27-.16,1.95-1.46,4.65-3.48,7.36-3.95,4.81-.87,11.23.26,13,5.54.78,2.51-.66,5.41-1.39,7.57-.68,1.97-.75,3.98.59,5.47,1.08,1.23,4.1,1.91,6.4,3.88,2.32,1.94,3.76,4.64,4.51,7.34,1.67,4.95.79,18.31-5.15,19.78-3.16.37-4.42-3.73-6.89-4.66-.87-.41-1.92-.52-2.84-.33-1.98.49-4.56,2.87-7.11,1.72-3.27-1.07-3.8-5.28-5.22-7.75-.79-1.49-2.16-1.35-3.66-1.14-1.65.16-3.21,1.03-4.91,1.25,0,0-1.05.15-1.05.15-2.54.39-5.39.76-7.94.63-1.77-.02-3.46-.33-5.06-.1-.41.08-.47.12-.7.27-.45.3-1.06,1.08-1.49,2-1.76,3.78-1.97,9.22-.09,12.79,1.96,4.21,6.66,2.53,10.45,3.78,7.84,3.02,5.69,15.36-.51,19.04-2.91,1.88-6.76,1.01-9.53-.07-2.88-1.04-5.81-2.23-8.06.32-3.34,3.8-4.44,10.6-2.17,15.08,1.8,3.04,5.3,3.1,8.53,4.35,2.8.82,5.19,3.81,4.83,6.84-.21,4.48-4.33,8.51-8.73,8.59-4.04.24-7.94-.86-11.7-.69-2.37.04-4.72.36-7.04.95-3.61.86-6.99,2.53-10.54,3.94-2.45,1.01-5.71,1.73-8.1-.17-2.27-1.62-2.47-4.59-2.88-6.95-.6-2.97-1.86-7.16-3.41-9.67-.2-.23-.13-.11-.01-.09.04.03.15,0,.16,0-.33.1-.75.48-1.28.89-7.68,7.19-13.15,3.35-21.88,2.92-4.88-.16-9.46,1.09-14.12,2.73-2.84.89-5.82,2.25-9.02,1.56-4.24-.95-5.67-5.53-5.32-9.1.05-1.35.11-2.52-.02-3.3-.13-.8-.38-1.04-.79-1.25-1.54-.13-4.22.35-5.75.48-3.9.44-7.95.79-11.92.72-2.3-.14-4.63.12-6.91.74-5.06.86-11.51,6.42-15.65.75-1.46-2.34-1.19-4.73-1.49-7-.45-5.04-.81-10.28-1.77-14.94-.31-1.41-.64-2.6-1.23-3.67-.09-.2-.18-.26-.25-.36-.04-.07-.06-.06-.07-.07-.01,0-.02-.04-.01-.03.04.06.09.04.23.08.1,0,.27.03.36-.03,0,.02.01,0-.02.01-1.04.67-2.18,1.94-3.69,2.57-4.63,2.15-9.14-2.19-11.13-5.93-3.98-7.19-6.7-18.4-.96-25.39h0ZM7.68,154.19c-3.98,5.23-.64,16.47,3.47,21.03.64.69,1.38,1.1,1.58,1.09.1,0,.1.02.3-.05,1.24-.67,2.62-2.3,4.27-2.78,3.11-1.09,6.04,1.38,7.09,4.11,2.5,6.52,2.45,13.22,3.16,19.98.09,1.54.2,3.19.55,4.3.01-.01-.05-.04-.01-.02.01,0,.04.03,0,0-.06-.01.04.03.42-.05,4.28-1.46,8.59-3.34,13.23-3.84,2.61-.28,5.32.04,7.92-.13,3.56-.08,7.77-.68,11.38-1.04,4.27-.76,8.12,1.4,8.8,5.86.42,2.68-.26,5.06.31,7.1.09.24.22.4.37.57.16.14.23.19.43.24.39.11,1.39.02,2.47-.28,3.67-1.07,7.31-2.57,11.24-3.34,5.23-1.18,11.29-.86,16.37.31,4.73.98,6.91.31,10.24-2.69,1.37-1.25,3.65-2.54,5.74-1.99,2.97.61,4.25,3.76,5.18,6.16,1.47,3.31,2.35,7.89,2.96,11.25.04.14.07.16.1.2.02.04.08.09.13.13.1.07.09.08.32.11,1.66-.02,4.28-1.39,6.12-2.11,4.92-2.14,10.44-3.71,15.92-3.73,2.79-.06,5.55.32,8.01.59,2.85.37,5.96.52,7.07-2.5.63-1.62.16-2.26-1.27-2.78-3.95-1.21-8.96-2.42-11.1-6.64-4-7.41-1.28-20.91,7.31-23.82,4.35-1.35,8.34,1.38,12.21,2.07,4.33.67,6.74-7.13,4.34-10.07-1.45-1.16-3.88-.57-6.03-1.02-6.86-.71-9.92-8.06-9.75-14.18.09-5.09,1.38-12.59,7.49-13.93,4.66-.78,9.43.62,13.99,1.12,1.14.2,2.35.22,3.54.05,2.17-.32,4.5-1.41,6.63,0,2.98,1.73,2.83,6.18,5.1,8.06.68.46,1.4.48,2.23.06.94-.44,2.2-1.34,3.79-1.71,3.07-.81,6.41.93,8.24,3.17.62.63,1.03,1.23,1.66,1.61.1.06.04,0,.02.02-.02.03.32-.17.6-.52,2.81-4.26,3.08-10.41,1.8-15.27-1.3-4.7-4.12-6.38-8.29-8.22-3.83-1.84-4.88-6.91-3.46-10.49.6-2.04,1.92-4.18,1.07-5.95-1.65-2.43-5.65-2.82-8.39-2.26-2.45.54-3.81,1.97-6.02,3.49-.99.69-2.37,1.18-3.58.67-2.19-.75-2.14-3.28-2.49-4.93-.6-2.74-2.38-5.06-4.47-6.92-2.65-2.57-5.45-3.58-9.17-3.37-3.86.23-7.09-2.23-7.57-6.03-.41-3.12.4-5.88,1.43-8.64,2-5.05,4.79-9.53,7.94-13.88,3.82-5.36,7.72-8.83,14.74-7.58,1.23.13,2.05.06,2.54-.2,1-.39,1.78-2.25,2-3.32.02.01.13.34.53.53.22.09.37.1.43.09.02,0-.03-.02-.14,0-3.77.93-7.85-1.37-8.72-5.22-.15-1.16,0-2.35.25-3.4.04-.22.04-.3.01-.47-.06-.25-.23-.93-.32-1.3-.37-2.24-1.27-3.75-1.92-5.97-.43-2.28.07-4.67,1-6.64,0,0,.81-1.73.81-1.73.23-.5.31-.92.27-.95,0-.01-.04-.08-.04-.1,0,.02.09.1.09.1-1.84-.67-3.81-1.6-5.58-2.45-1.21-.61-2.6-1.21-3.48-2.43-2.6-4.51,1.97-9.31,3.6-12.99-.05.4.03.91.55,1.37.38.35.89.42,1.1.41.45-.04.34-.07.31-.04-2.71,1.73-5.72,3.44-8.94,4.36-2.67.81-5.57,1.12-8.37.89-6.39-.11-10.01-3.89-11.81-9.72-.05-.13-.1-.26-.14-.34-.04-.1-.09-.2-.1-.21,0,0-.03-.07-.01-.03.38.57,1.45.74,2.05.38.51-.33.36-.36.28-.14-.98,1.98-2.06,3.88-3.88,5.33-4.64,3.4-10.66,4.11-16.24,4.2-2.92.03-5.56.24-8.58-.76-1.71-.59-3.21-1.73-4.28-3.27-.93-1.41-1.1-2.52-1.76-3.77-.8-1.58-2.68-4.03-3.96-5.05-.13-.1-.22-.13-.24-.14,0,.01.07.02.21.01.06-.01.16,0,.23-.06.08,0,.16-.08.19-.1.08-.05.05-.07-.03.08-.92,1.91-1.88,4.44-4.1,5.6-3.44,1.83-7.56.56-10.2-1.9-2.53-2.26-2.81-6.03-2.8-8.96-.03-.51-.12-.91-.17-1.02-.06-.11.08.07,0,0-.87-.27-2.52.17-2.85,1.07-.3,1.41.18,2.93.12,4.86.03,2.32-.61,4.81-1.78,6.86-1.79,3.11-4.66,6.2-8.51,6.68-1.88.14-3.7-.05-5.51-.27-1.84-.16-3.7-.92-5.28-.75,0,0,.16-.09.13-.08-1.19,1.72-2.4,4.26-3.61,6.08-1.68,2.81-4.17,6.14-5.59,8.62,0-.1,0-.32-.06-.38,0-.05-.03-.08-.06-.12-.01-.06-.09-.09-.1-.12,8.43,1.44,10.12,8.27,8.21,15.64-.6,3.09-2.49,6.54-5.56,8.09-1.78.82-2.88,1.39-4.21,2.65-1.39,1.62-3.16,3.46-5.31,4.22-5.85,2.24-13.14,1.49-17.65-3.24-2.15-2.25-3-5.57-3.62-8.24-.07-.3-.14-.5-.21-.75-.07-.16-.14-.39-.18-.42-.02-.04-.04-.1-.03-.05.01.04.02-.02.07.07.04.06.12.08.18.12.18.14.5.11.71.08.17-.06.13-.05.05,0-3.14,2.97-6.51,6.4-10.22,8.81-2.09,1.51-4.87,2.86-6.67,4.41-.02.03-.03.06-.06.08-.02.02.02,0,0,0,.06-.08,0-.18.04,0,.03.29.52.93.82,1.05.17.07.02,0-.04.03.69-.31,1.83-1.04,2.92-1.49,2.58-1.12,5.85-.62,8.11.74,3.6,1.93,5.57,6.32,3.58,10.18-.29.67-.51,1.16-.55,1.36-.04.22,0-.03-.04-.03-.03-.05-.04-.03.16.11.21.13.6.3,1.07.44,2.93.85,7.97.89,8.9,4.92.62,2.47-1.26,4.48-2.82,5.9-4.07,3.64-6.72,7.99-7.94,13.23-1.24,4.17-.17,8.39-.19,12.7-.06,5.56.37,10.72-1.24,16.27-.88,2.83-2.22,5.39-3.89,7.72-3.37,4.7-8.36,8.58-14.1,9.82-2.22.6-4.08.44-5.5,1.91h0Z"/>
    </g>
  </g>
</svg>