<?xml version="1.0" encoding="UTF-8"?>
<svg id="_Слой_2" data-name="Слой 2" xmlns="http://www.w3.org/2000/svg" viewBox="0 0 311.08 377.56">
  <defs>
    <style>
      .cls-1 {
        fill: #020000;
      }

      .cls-1, .cls-2 {
        stroke-width: 0px;
      }

      .cls-2 {
        fill: #6eaa42;
      }
    </style>
  </defs>
  <g id="_Кувандыкский" data-name="Кувандыкский">
    <g>
      <path class="cls-2" d="M32.8,313.46c-1.73-2.5-3.3-6.89-1.5-9.5,1.67-2.41,4.51-.79,8-3,5.54-3.51,3.27-10.68,8-13,4.02-1.98,7.52,2.3,11,0,3.65-2.41,3.07-9.24,3-10-.58-6.06-4.42-7.78-3.5-10.5,1.42-4.22,10.95-.96,16.5-6.5,6.11-6.09,4.47-19.89-.5-22.5-1.98-1.04-3.69.1-5.5-1.5-2.1-1.86-.93-4.4-2.5-8.5-1.7-4.44-4.12-3.64-5-7-1.59-6.1,4.34-9.41,3-16-.69-3.4-3.79-3.63-4-7-.16-2.56,1.26-3.97,2.5-6.5,2.95-6.02,1.88-12.28,1.5-14.5-.27-1.56-1.84-10.75-9-15-4.8-2.85-10.73-2.65-15.5-2.5-5.15.17-8.51,1.22-12-1-2.36-1.5-1.87-2.64-4-4-5.55-3.54-13.13,1.55-14.5-.5-1.26-1.89,5.46-5.72,5.5-12.5.02-4.32-2.68-8.14-4-10-2.2-3.11-4.28-3.44-6-7-.7-1.44-1.77-3.73-1-6,.71-2.09,2.38-2.18,4-4,2.1-2.36,2.09-5.6,2-12-.04-3.03-.36-6.06-1-12-.76-7.11-.95-7.43-1-10-.12-5.88.72-9.8,1-11,1.04-4.5,2.08-9.01,4.5-9.5,2.51-.51,3.47,3.88,9,7,4.19,2.36,10.78,3.76,15,1,3.05-1.99,3.11-5,5-5,1.65,0,2.64,2.3,6,9,0,0,2.26,4.5,7,13,3.53,6.32,4.17,6.85,5,7,4.84.88,8.3-12.44,13-12,4.15.39,8.16,11.6,16,34,.64,1.82,2.12,6.08,6,8,3.39,1.68,8.32,1.43,10-1,1.74-2.52-1.45-5.3,0-8,2.48-4.61,14.18-.97,16-5,.87-1.94-1.64-3.19-2-7-.71-7.55,7.94-16.07,13-15,2.04.43,2.47,2.2,4,2,2.75-.36,4.8-6.53,5-12,.36-9.94-5.43-17.01-4-18,1.24-.86,4.62,5.2,10,5,4.18-.16,5.97-3.95,9-3,2.85.9,2.71,4.72,5,5,2.74.34,3.65-5.05,8-6,3.6-.79,5.67,2.32,8,1,2.25-1.27.73-4.39,3-7,3.41-3.94,10.21-.76,12-4,1.1-1.99-.32-5.27-2-7-2.09-2.15-4.01-1.34-5-3-1.61-2.7,1.79-7.73,4-11,3.84-5.68,6.38-6.67,6-9-.52-3.16-5.47-2.92-7-7-1.35-3.61.74-8.61,3-9,3.12-.54,6.07,7.76,9,7,1.82-.47,1.86-3.97,3-4,1.81-.05,1.12,8.74,6,13,5.3,4.62,16.56,3.36,21-2,2.34-2.83,1.35-5.05,4-7,3.22-2.37,7.67-1.29,13,0,5.79,1.41,10.09,2.45,12,6,2.26,4.19-1.09,7.59,1,10,2.38,2.74,8.98,1.01,20-2,8.55-2.33,12.25-4.1,15-2,2.06,1.58,2.91,4.81,3,7,.15,3.7-1.87,4.87-1,7,1.12,2.76,4.88,1.78,7,5,1.14,1.73.65,2.93,1,7,.53,6.29,1.98,6.88,2,10,.05,6.29-5.79,6.99-10,16-2.32,4.96-4.78,13.77-1,18,2.18,2.44,4.88,1.61,6,4,1.58,3.38-3.37,6-4,12-.48,4.51,2.02,9.01,7,18,1.92,3.46,3.52,5.82,3,9-.03.2-.77,4.35-4,6-2.28,1.17-3.55-.07-5,1-2.74,2.03.43,7.44-2,10-2.7,2.85-8.43-1.95-13,1-3.64,2.34-5.03,8.61-3,12,1.64,2.74,5.13,2.95,5,4-.2,1.67-8.89-.37-13,4-3.85,4.09-3.05,13.13,1,16,2.78,1.97,5.81.14,7,2,1.53,2.38-3.27,5.65-4,13-.47,4.74,1.31,5.64,0,8-2.19,3.95-7.71,2.43-11,7-1.92,2.68-.55,3.93-2,6-4.68,6.69-21.85-2.31-27,4-2.3,2.81.78,5.02,0,15-.81,10.39-4.65,14.64-2,18,2.7,3.42,8.15.91,10,4,2.05,3.42-4.01,7.61-6,16-2.09,8.79,3.02,10.61,4,25,.76,11.23-2.26,11.44-1,22,1.39,11.61,5.47,14.92,3,19-3.49,5.77-15.34,5.28-22,5-5.36-.22-9.19-1.18-18-1-7.46.15-9.01.93-10,2-4.13,4.46,2.49,12.98-1,17-2.93,3.37-10.66.93-20-2-13.97-4.39-22.55-7.09-27-15-.77-1.37-2.18-6.24-5-16-2.72-9.42-3.65-11.53-6-13-5.39-3.37-11.66,1.72-14.5-1.5-2.59-2.94,1.81-8.16-1.5-13.5-1.38-2.23-2.35-1.66-4.5-4.5-3.68-4.86-2.57-8.83-4.5-9.5-2.4-.83-4.45,5.23-11,10-5.32,3.87-6.68,1.98-20,7-9.14,3.44-11.98,5.64-15,4-4.09-2.22-3.45-8.72-6-9-2.74-.3-3.37,7.22-9,10-5.3,2.61-13.39.21-17-5Z"/>
      <path class="cls-1" d="M30.37,315.15c-1.42-2.14-2.39-4.35-2.74-7.08-.15-1.35-.11-2.92.58-4.53.34-.79.82-1.56,1.56-2.25.72-.7,1.71-1.2,2.5-1.42.8-.23,1.45-.31,2-.38.53-.06.97-.12,1.36-.19.77-.14,1.35-.36,1.95-.71.29-.17.55-.39.82-.59.23-.24.49-.44.67-.73.42-.52.76-1.16,1.06-1.96.65-1.56.92-3.66,2.12-6.16.62-1.25,1.74-2.6,3.13-3.41,1.34-.84,3.03-1.25,4.54-1.18,1.51.06,2.75.44,3.75.73,1,.31,1.8.51,2.24.49.43-.01.61-.07.98-.36.33-.27.67-.76.93-1.42.53-1.32.72-3.16.66-4.93-.03-.89-.16-1.67-.34-2.47-.21-.78-.49-1.53-.88-2.29-.39-.78-.88-1.51-1.5-2.61-.3-.55-.66-1.26-.88-2.21-.24-.99-.13-2.2.24-3.17.35-.98,1.1-1.92,1.89-2.49.79-.59,1.56-.9,2.23-1.12,1.36-.43,2.49-.57,3.56-.71,2.12-.27,4-.48,5.64-.98,1.64-.49,2.97-1.23,3.95-2.34,1.02-1.09,1.77-2.57,2.25-4.22.46-1.66.65-3.46.59-5.25-.06-1.78-.36-3.58-.93-5.14l-.21-.58c-.08-.19-.18-.35-.26-.52-.09-.17-.17-.35-.26-.51l-.29-.42c-.18-.33-.4-.42-.57-.67-.09-.06-.17-.09-.24-.15-.07-.08-.14-.11-.2-.13-.12-.04-.26-.08-.62-.11-.35-.03-.92-.02-1.7-.11-.77-.08-1.8-.37-2.62-.87-.83-.5-1.46-1.07-2.04-1.84-.57-.76-.95-1.65-1.15-2.41-.2-.76-.27-1.39-.35-1.95-.13-1.1-.22-1.94-.41-2.74-.18-.79-.47-1.59-.79-2.23-.35-.66-.63-1.07-1.18-1.55l-1.19-1.02c-.53-.47-1.14-1.17-1.57-1.92-.45-.77-.71-1.54-.88-2.24-.14-.69-.3-1.37-.31-2.1-.1-1.43.13-2.89.51-4.11.37-1.24.86-2.34,1.29-3.29.9-1.92,1.5-3.41,1.57-4.78.01-.35,0-.69-.03-1.04-.06-.34-.1-.75-.16-.91-.14-.41-.3-.67-.93-1.32-.32-.33-.74-.73-1.21-1.29-.47-.54-.99-1.31-1.32-2.15-.36-.85-.5-1.73-.56-2.54-.05-.77.02-1.6.19-2.39.36-1.61,1.07-2.82,1.59-3.73.53-.93.95-1.65,1.27-2.45.7-1.56,1.1-3.27,1.29-5.03.58-6.98-1.86-15.57-7.21-19.13-2.59-1.82-6.11-2.47-9.95-2.55-.96-.02-1.94-.01-2.95,0l-1.52.03-1.45.05c-1.96.06-4.05.36-6.65.14-1.29-.12-2.71-.44-4-1.05-1.28-.62-2.4-1.31-3.52-2.53-.53-.59-.94-1.25-1.15-1.58-.22-.33-.3-.44-.48-.62-.17-.17-.46-.35-.73-.52-.28-.16-.58-.29-.91-.4-1.29-.43-2.99-.42-4.84-.07-.93.16-1.9.38-2.98.61-.55.11-1.13.23-1.85.3-.37.03-.77.06-1.3,0-.48-.05-1.25-.19-2.02-.74-.77-.55-1.36-1.47-1.48-2.48-.11-1,.13-1.64.31-2.1.4-.94.77-1.4,1.12-1.9.69-.94,1.3-1.7,1.85-2.47,1.09-1.52,1.87-3.02,2.15-4.53.62-2.97-.87-6.28-3.13-9.38-.32-.44-.53-.74-.81-1.05-.26-.31-.55-.6-.86-.9-.62-.59-1.43-1.23-2.34-2.12-.91-.9-1.76-2.02-2.36-3.15-.32-.6-.53-1.03-.8-1.6-.25-.56-.49-1.16-.68-1.82-.39-1.3-.61-2.89-.26-4.54.17-.8.46-1.64,1-2.47.53-.83,1.25-1.47,1.79-1.88,1.12-.82,1.56-1.1,1.95-1.57.37-.44.58-.86.77-1.5.36-1.29.39-3.27.37-5.24l-.07-3.05c-.03-.98-.09-1.93-.17-2.92-.16-1.97-.41-4-.65-6.04l-.72-6.13-.39-3.07c-.13-1.02-.27-2.24-.3-3.39-.08-2.21-.04-4.41.13-6.63.09-1.11.22-2.22.39-3.34.08-.56.18-1.12.3-1.69.11-.59.24-1.1.36-1.6.5-2.06.95-4.16,1.98-6.6.13-.3.3-.63.46-.94.21-.34.36-.65.62-1.01.45-.67,1.16-1.48,2.21-2.13.53-.33,1.18-.58,1.86-.74.73-.13,1.48-.15,2.26.02,1.53.36,2.41,1.12,3.01,1.65,1.1,1.07,1.66,1.85,2.31,2.54.61.69,1.21,1.29,1.84,1.83,1.26,1.07,2.68,1.92,4.31,2.55,1.61.62,3.32,1.04,4.94,1.1,1.61.08,3.1-.21,4.14-.83.54-.3.95-.68,1.39-1.23.23-.29.44-.62.72-1.06.3-.45.58-1.01,1.38-1.84.25-.23.46-.43.79-.64.34-.21.67-.4,1.08-.54.82-.29,1.59-.31,2.36-.21.78.13,1.54.47,2.05.83.26.18.51.38.67.54.19.17.38.36.5.51.58.66.91,1.2,1.25,1.73.32.52.6,1.02.86,1.5,1.04,1.93,1.94,3.76,2.89,5.6l.36,1.51c1.48,2.36,2.89,4.68,4.26,7.02.68,1.17,1.35,2.34,2.01,3.53l.5.9.56.98,1.14,1.92c.38.63.76,1.24,1.13,1.78.18.26.37.53.5.68.11.16.27.21-.17-.08-.24-.16-.62-.25-.68-.26-.07-.03-.15,0-.22-.02-.16.03-.23.03-.23.04.04-.02.38-.26.73-.65.72-.77,1.53-1.97,2.33-3.21.82-1.26,1.66-2.6,2.74-4.02.55-.71,1.16-1.45,2-2.21.42-.38.93-.76,1.52-1.12.65-.35,1.37-.69,2.3-.83.89-.16,1.91-.08,2.76.18.88.26,1.52.66,2.09,1.06,1.1.81,1.76,1.63,2.36,2.4,1.15,1.56,1.94,3.04,2.68,4.52.73,1.48,1.37,2.94,1.99,4.4,2.42,5.83,4.44,11.63,6.5,17.43l1.52,4.35.76,2.16c.24.69.46,1.27.72,1.83.51,1.12,1.13,2.08,1.84,2.81.72.73,1.45,1.19,2.41,1.51.96.31,2.09.45,3.05.34.99-.05,1.69-.54,1.59-.5,0,.01-.06.08-.08.18,0,.05-.03.07-.01.11-.02-.01,0,.01,0-.03,0-.14-.13-.69-.37-1.47-.21-.79-.56-1.85-.54-3.34.02-1.51.66-3.2,1.68-4.34,1.03-1.19,2.28-1.86,3.33-2.26,1.07-.4,2.05-.6,2.96-.74,1.82-.27,3.43-.31,4.94-.39,1.47-.07,2.93-.18,3.74-.42.39-.1.51-.26.22,0-.09.14-.21.29-.27.61-.02.17-.04.34-.01.49,0,.05,0,.1.02.15.02.05,0,.03.01.04,0,0-.08-.2-.26-.51l-.58-1.1c-.43-.85-.84-1.88-1.09-2.94-.51-2.14-.35-4.25.07-6.17.43-1.94,1.22-3.66,2.15-5.24.93-1.59,2.06-3.02,3.34-4.31,1.28-1.3,2.71-2.47,4.47-3.41.88-.47,1.82-.89,2.93-1.17,1.08-.29,2.37-.42,3.77-.2.68.1,1.44.35,2.09.69.65.33,1.2.75,1.58,1.07l.57.48c-.03-.06-.67-.31-1.05-.25-.2.03-.29,0-.42.08-.11.05-.14.04-.2.1-.03.02-.02-.01-.01,0,.01,0,.06-.08.1-.11.18-.22.46-.62.69-1.14.97-2.08,1.54-4.93,1.64-7.52.09-2.63-.3-5.29-1.1-7.93-.4-1.33-.88-2.64-1.44-4.01l-.89-2.18c-.15-.39-.32-.83-.48-1.37-.08-.27-.17-.59-.24-1.02-.03-.26-.07-.43-.07-.82-.01-.28.04-.8.19-1.32.2-.62.57-1.31,1.22-1.86.61-.54,1.43-.88,2.19-.95.73-.07,1.31.06,1.67.17.44.13.64.25.89.37.82.46,1.16.79,1.54,1.08l1.73,1.49c1.02.84,1.97,1.46,2.81,1.73.83.28,1.56.3,2.32.05.39-.12.82-.33,1.36-.65.54-.31,1.16-.75,2.07-1.26l.75-.38c.3-.12.58-.25.91-.35.67-.21,1.46-.37,2.28-.34,1.63.05,3.11.66,4.28,1.63,1.15.97,1.75,2.04,2.18,2.78.4.75.77,1.31.65,1.13-.01,0-.04-.03-.09-.08-.05-.04-.09-.06-.16-.1-.14-.1-.3-.14-.45-.18-.3-.06-.64-.06-.91.08-.44.22-.05.04.3-.45.8-.95,1.89-2.63,3.75-3.98,1.87-1.39,4.54-2.12,6.96-1.68,1.18.19,2.19.59,2.94.89.74.32,1.3.48,1.19.44-.03,0-.27,0-.4.07-.14.04-.19.1-.35.24-.05.08-.13.13-.15.21-.03.02-.04.1-.03.05.01,0,.06-.24.11-.51.1-.61.2-1.57.51-2.66.3-1.09.88-2.3,1.67-3.26.39-.49.86-.91,1.32-1.34.5-.35,1.02-.76,1.56-1,1.08-.58,2.16-.85,3.15-1.05,1.97-.35,3.66-.29,4.93-.41.61-.04,1.06-.16,1.13-.19.08-.06-.38.3-.34.42-.04.11.04-.08-.05-.44-.07-.35-.23-.8-.45-1.24-.22-.43-.51-.87-.79-1.18-.29-.31-.49-.48-.76-.61-.29-.16-.65-.22-1.91-.69-.61-.24-1.49-.73-2.17-1.46-.69-.73-1.06-1.51-1.34-2.3-.51-1.62-.33-2.96-.12-4.04.24-1.09.58-2.03.95-2.87.75-1.7,1.63-3.11,2.5-4.49l1.31-1.98c.46-.67.94-1.35,1.44-2.02.98-1.32,2.11-2.61,3.09-3.73.48-.54.92-1.09.99-1.24.07-.1-.04.04-.04.19-.01.19,0,.23.01.31.03.07.08.17.09.18.02,0-.04-.02-.04-.05-.03-.03-.12-.09-.17-.14-.32-.23-.94-.58-1.67-1-.73-.43-1.59-.95-2.44-1.69-.86-.75-1.66-1.76-2.21-2.86-1.1-2.25-1.19-4.53-.87-6.57.16-1.03.44-2.03.86-3.01.43-.98.96-1.96,1.86-2.95.23-.25.47-.49.79-.73.16-.12.3-.24.47-.35.19-.12.39-.23.6-.34.36-.22.94-.39,1.44-.51.55-.11,1.14-.12,1.68-.05,1.08.15,1.86.56,2.45.94.6.38,1.04.77,1.42,1.14,1.48,1.46,2.33,2.76,3.23,3.83.42.52.85.98,1.09,1.18.11.09.17.1-.02.03-.17-.08-.74-.16-1.18,0-.23.09-.4.18-.54.3-.05.03-.1.07-.13.12-.03.04-.04.03-.05.06-.03.03.06-.07.16-.32l.41-.99c.1-.24.19-.46.37-.8.07-.14.19-.35.34-.56.1-.17.35-.49.62-.76.2-.23.82-.68,1.31-.88.66-.25,1.35-.38,2.08-.26.71.08,1.41.44,1.83.75.46.35.72.66.91.93.22.3.3.46.44.71.09.18.17.36.24.53l.17.45.13.39c.29.98.44,1.74.61,2.48.33,1.47.66,2.79,1.1,3.98.44,1.18.99,2.21,1.64,2.97.63.75,1.44,1.27,2.45,1.73,1,.45,2.18.72,3.41.82,2.45.24,5.12-.16,7.35-1.11,1.11-.48,2.13-1.08,2.91-1.78.34-.37.72-.72.95-1.1.25-.38.43-.75.62-1.32.2-.54.41-1.42.91-2.5.49-1.1,1.41-2.23,2.33-2.96,1.8-1.51,4.16-2.22,6.15-2.34,2.02-.13,3.8.12,5.44.42,1.64.31,3.18.69,4.67,1.05,1.49.36,3.02.73,4.61,1.19,1.58.47,3.25,1.02,4.98,1.98.86.5,1.73,1.08,2.53,1.85.8.77,1.49,1.68,2.03,2.67.51,1,.92,2.11,1.09,3.26.17,1.14.14,2.24.02,3.2-.11.96-.29,1.77-.38,2.37-.1.6-.04.89-.07.73-.07-.18-.16-.22-.09-.19.08.03.34.17.86.19.96.1,2.34-.04,3.7-.28,1.38-.24,2.81-.54,4.26-.9,2.88-.7,5.86-1.52,8.78-2.32l4.39-1.26c1.5-.42,3-.88,4.78-1.21.87-.17,1.87-.29,3.01-.27,1.12.02,2.52.29,3.72.98,1.19.67,2.1,1.56,2.77,2.48.67.92,1.15,1.87,1.51,2.8.7,1.89,1.06,3.7,1.02,5.82-.03,1.05-.22,2.16-.52,3.12-.29.95-.65,1.79-.69,2.02-.02.11,0,.03-.02-.08-.01-.11-.02-.11-.03-.13-.02-.02-.06-.09-.07-.08.03,0,.08.07.29.16.74.4,2.96.88,4.85,2.52.46.4.9.85,1.25,1.34.37.48.69.99.98,1.61.29.62.48,1.32.59,1.91.1.6.14,1.13.16,1.56l.07,2.31c.03.71.07,1.42.15,2.11.14,1.4.34,2.73.68,3.96.17.64.38,1.23.65,2.08.27.83.54,1.96.6,3.03.03.52.03,1.04-.01,1.57,0,.52-.09,1.05-.2,1.6-.19,1.09-.63,2.15-1.14,3.11-1.08,1.87-2.35,3.12-3.39,4.23-2.12,2.18-3.74,4.14-5,6.57-1.26,2.37-2.22,5.11-2.78,7.74-.27,1.32-.43,2.64-.42,3.85,0,1.21.21,2.31.59,3.07.19.38.41.69.64.94.25.24.47.4.93.6.47.22,1.11.38,2.22.89.52.24,1.19.64,1.77,1.17.61.54,1.08,1.23,1.41,1.89.31.69.57,1.4.64,2.22.06.4.04.78.01,1.17-.02.4-.09.73-.17,1.07-.33,1.33-.85,2.24-1.28,3-.88,1.49-1.62,2.59-2.09,3.69-.48,1.08-.74,2.17-.79,3.22-.04,1.04.17,2.16.56,3.39.8,2.46,2.24,5.12,3.64,7.77l2.18,4.01c.71,1.32,1.49,2.61,2.26,4.21.38.8.75,1.69,1.02,2.69.27,1,.42,2.12.38,3.23-.02.58-.08,1.03-.2,1.68-.12.54-.25.99-.4,1.47-.31.93-.71,1.84-1.25,2.73-1.06,1.77-2.77,3.47-5.13,4.29-1.19.45-2.71.46-3.39.42-.35-.01-.44.02-.3,0,.06-.01.15-.04.22-.07.07-.03.09-.06.14-.07.06-.05.15-.14.16-.17.02-.04,0,.04-.01.17-.04.29,0,.92.07,1.62.07.71.19,1.52.22,2.51.02.98,0,2.17-.52,3.58-.5,1.41-1.7,2.85-3.26,3.6-1.55.75-3.05.79-4.07.74-1.06-.06-1.97-.19-2.72-.29-.79-.11-1.45-.18-2.05-.22-1.19-.05-1.89.15-2.2.41-.3.26-.71.71-1.02,1.5-.34.73-.55,1.68-.55,2.54-.05.85.18,1.63.32,1.79.05.09.04.04.17.15.13.09.38.26.88.5l1.08.52c.11.05.26.13.45.24.18.1.32.18.63.4.24.17.51.35.98.83.3.27.97,1.14,1.31,2.09.37,1.05.45,2.43.06,3.54-.31,1.14-1.16,2.13-1.7,2.58-.67.56-1.08.75-1.51.96-.37.16-.67.26-.95.34-.99.27-1.53.3-2.04.36-.98.1-1.73.13-2.45.18-.71.05-1.35.11-1.95.19-1.19.16-2.18.44-2.79.75-.64.33-.8.5-1.16,1.04-.33.54-.62,1.42-.73,2.39-.11.97-.08,2.02.1,2.98.17.96.53,1.82.84,2.28.08.06.14.2.2.24.05.02.08.11.1.11.03.03.02.06.3.13.27.07.77.08,1.84.13.5.03,1.25.07,2.25.37.27.09.52.16.8.29.3.14.6.29.88.46.57.37,1.18.87,1.57,1.38.87,1.04,1.38,2.35,1.49,3.69.06.64-.01,1.14-.08,1.71-.09.44-.19.84-.32,1.25-.49,1.37-.95,2.09-1.35,2.83-.79,1.38-1.39,2.45-1.86,3.57-.46,1.1-.77,2.2-.93,3.35-.1.57-.14,1.14-.14,1.65,0,.53.03.98.13,1.6l.21,1.22c.08.52.17,1.31.1,2.19-.06.91-.35,1.78-.66,2.49-.3.68-.69,1.25-1.1,1.81-.87,1.11-2,2.02-3.06,2.59-1.04.56-2.01.91-2.82,1.18-1.61.52-2.77.86-3.49,1.3-.4.2-.66.45-.95.71l-.39.45c-.12.16-.21.31-.27.41-.11.24-.12.19-.19.79-.03.32-.06.84-.19,1.53-.12.67-.38,1.48-.73,2.14-.68,1.32-1.6,2.3-2.68,3.12-1.09.82-2.24,1.26-3.31,1.59-2.16.6-4.03.62-5.77.58-1.74-.04-3.36-.21-4.91-.37-1.55-.16-3.05-.32-4.48-.43-1.42-.11-2.8-.13-3.94,0-.59.05-1.07.17-1.5.28-.38.14-.66.29-.83.41-.12.11-.26.31-.2.26.04-.04.1-.18.12-.24.02-.07.02-.02.04.15.04.32.19,1.05.35,1.8.16.75.32,1.61.46,2.46.28,1.71.41,3.46.45,5.18.06,3.42-.27,6.79-.85,10.11-.04.85-.33,1.64-.52,2.43l-.65,2.29c-.42,1.44-.79,2.83-.83,3.32,0,.21-.03.09-.12-.05-.03-.09-.06-.04-.08-.04,0,0,.15.11.52.2.39.09,1,.17,1.76.23.75.07,1.73.15,3,.46l.47.12.55.19c.36.13.71.27,1.13.51.76.4,1.59,1.05,2.21,1.79.3.38.61.76.84,1.2.23.44.43.9.61,1.36.29.96.45,2.02.37,2.88-.01.23-.03.45-.05.68l-.11.55c-.08.35-.16.78-.26,1.06-.2.59-.42,1.2-.63,1.64-.86,1.9-1.66,3.18-2.32,4.46-.67,1.26-1.22,2.44-1.67,3.61-.88,2.3-1.35,4.73-1.2,6.49.07.92.31,1.93.72,3.24.41,1.29.96,2.84,1.44,4.44,1,3.23,1.66,6.67,1.98,10,.33,3.31.45,6.68.11,10.24-.17,1.76-.5,3.51-.77,4.95-.27,1.45-.44,2.62-.5,3.87-.13,2.45.18,5.3.64,8.01.23,1.36.54,2.7.9,4.04.35,1.35.79,2.68,1.27,4.21l.37,1.21c.12.42.25.91.36,1.38.21,1.04.45,2.2.37,3.71-.05.72-.16,1.53-.39,2.25-.12.37-.24.73-.38,1.09-.15.32-.31.64-.48.96-.69,1.2-1.52,2.26-2.46,3.08-1.87,1.68-3.89,2.6-5.76,3.25-1.87.6-3.67.95-5.41,1.19-3.47.43-6.78.44-9.97.34-1.61-.06-3.09-.11-4.79-.23-1.65-.12-3.23-.3-4.72-.45-2.99-.32-5.81-.52-8.73-.56-1.45-.02-2.94,0-4.37.04-1.42.05-2.86.13-3.99.31-.55.08-1.02.22-1.09.24-.03.01.08-.05.17-.13.07-.09.04,0,.03,0-.05,0-.02.05-.05.07-.06-.01-.02.15-.07.21-.05.07-.02.3-.05.44-.02.17.02.44,0,.66.06,1.01.35,2.36.67,3.9.3,1.56.74,3.29.67,5.71.02.55-.14,1.31-.26,1.96-.15.68-.47,1.46-.79,2.16-.43.69-.86,1.42-1.45,1.98-.29.29-.6.56-.91.82-.32.23-.65.43-.99.64l-.51.29-.49.2c-.33.13-.66.26-1,.37-.61.15-1.27.31-1.83.37-1.15.14-2.2.14-3.16.07-1.93-.14-3.64-.47-5.26-.86-1.62-.39-3.18-.82-4.69-1.29-3.04-.92-5.92-1.88-8.86-2.83-2.94-.96-5.9-1.94-8.91-3.11-3-1.18-6.06-2.52-9.03-4.46-1.47-1-2.92-2.11-4.23-3.44-1.29-1.34-2.49-2.81-3.41-4.42l-.36-.6c-.15-.26-.34-.66-.43-.87-.23-.52-.37-.92-.52-1.34-.29-.82-.53-1.58-.76-2.34-.47-1.52-.9-3-1.32-4.49l-2.5-8.86c-.41-1.46-.83-2.91-1.27-4.31-.44-1.38-.9-2.78-1.39-3.84-.24-.54-.48-.94-.67-1.18-.18-.23-.34-.38-.72-.6-.66-.4-1.38-.6-2.44-.61-1.06-.02-2.35.2-3.94.46-.84.12-1.68.27-2.83.29-.51.03-1.22-.04-1.86-.12-.74-.17-1.46-.34-2.23-.79-1.48-.81-2.64-2.16-3.17-3.69-.53-1.51-.51-2.83-.44-3.84.19-1.98.55-3.36.62-4.52.08-1.16-.02-2.02-.35-2.82-.18-.37-.42-.88-.6-1.07-.09-.11-.13-.16-.29-.29l-.86-.65c-.81-.6-1.62-1.41-2.23-2.15-.61-.75-1.14-1.49-1.63-2.3-.98-1.59-1.73-3.4-2.19-5.12-.23-.84-.41-1.68-.56-2.22l-.05-.19-.04-.11c-.03-.11-.02-.04,0-.02.05.15.51.67,1.07.83.26.14.61.11.86.12.13,0,.27-.03.39-.08.11-.04.13-.03.2-.06.05-.02.12-.07.13-.08,0,0,0,.02-.01.02,0,0,0,0-.03.02l-.1.1c-.29.25-.75.78-1.21,1.34-1.87,2.31-4.14,4.99-6.82,7.12-1.35,1.06-2.76,2.07-4.49,2.92-1.75.84-3.57,1.3-5.06,1.64-3.01.68-5.75,1.39-8.59,2.34-2.82.93-5.62,1.98-8.41,3.12-1.41.57-2.81,1.16-4.34,1.75-.78.29-1.57.58-2.52.83-.93.23-2.03.47-3.36.35-1.34-.11-2.64-.63-3.61-1.31-1.04-.66-1.86-1.56-2.48-2.45-1.24-1.81-1.74-3.59-2.23-4.98-.22-.68-.49-1.3-.54-1.37-.01-.04,0-.02.02.02.02.03.05.05.08.07.03,0,.12.13.2.16.09.06.17.06.27.13.21.12.46.11.69.12.24,0,.5-.07.68-.16.34-.17.31-.23.23-.12-.09.09-.24.32-.4.57-.32.51-.68,1.19-1.06,1.88-.78,1.4-1.69,2.94-2.97,4.37-1.26,1.42-2.95,2.72-4.86,3.44-3.8,1.48-7.68,1.14-11.1.01-3.42-1.17-6.61-3.25-8.83-6.43ZM35.22,311.78c1.31,1.86,3.5,3.33,5.87,4.09,2.36.78,4.98.84,6.91.03,1.92-.73,3.31-2.55,4.67-5.13.36-.65.7-1.34,1.18-2.14.24-.4.51-.82.92-1.32.41-.48.95-1.09,1.99-1.58.53-.24,1.17-.4,1.79-.4.61-.03,1.23.13,1.81.34.54.22,1.05.58,1.43.92.16.16.31.33.46.5.16.18.28.35.36.48.78,1.21,1.01,2.06,1.3,2.82.51,1.5.95,2.68,1.48,3.4.26.36.5.61.77.76.28.2.46.24.65.26.41.06,1.72-.29,3.02-.82,1.33-.52,2.75-1.14,4.18-1.74,2.87-1.2,5.8-2.35,8.8-3.37,2.97-1.03,6.16-1.9,9.12-2.59,1.48-.36,2.65-.69,3.66-1.19,1.02-.51,2.12-1.29,3.16-2.14,1.03-.86,2.01-1.8,2.95-2.84.94-1.04,1.82-2.15,2.83-3.39.52-.62,1.03-1.28,1.87-2.07l.32-.29c.12-.1.28-.22.43-.33l.45-.32c.17-.11.43-.23.65-.33.24-.1.43-.2.73-.28.31-.08.64-.14.96-.17.63-.09,1.35.06,1.99.23.62.24,1.23.56,1.7,1.02.26.23.47.46.61.66.15.21.34.46.43.65.19.36.39.77.47,1.03l.16.44.11.36.6,2.23c.36,1.24.82,2.28,1.46,3.29.31.5.68,1,1.05,1.43.38.43.66.71,1.09,1.02.22.17.54.37.99.72.44.34.96.82,1.36,1.3.83.97,1.27,1.86,1.76,2.86.9,2.02,1.12,4.3.99,6.18-.11,1.9-.49,3.52-.55,4.59-.04.51.04.75.03.69-.04-.06-.09-.21-.24-.29-.11-.02-.07-.06-.07-.03.13-.02.18.03.44,0,.39,0,1.06-.11,1.73-.22,1.43-.25,3.16-.62,5.18-.64,1.99-.04,4.39.42,6.36,1.61.96.53,2.01,1.36,2.79,2.33.78.95,1.3,1.9,1.71,2.74.82,1.72,1.32,3.24,1.84,4.77.5,1.52.96,3.01,1.4,4.49l2.64,8.8c.44,1.45.89,2.91,1.34,4.31.23.7.46,1.39.69,2.02.11.3.23.62.32.8.06.14.04.09.08.16l.25.38c1.25,2.07,3,3.7,5.17,5.1,4.43,2.75,10.24,4.52,16.01,6.33,2.91.89,5.86,1.82,8.71,2.63,2.82.79,5.72,1.54,8.01,1.66,1.1.08,2.06-.13,1.94-.19.03.03-.19.07-.18.2-.05-.02-.03.06-.02,0,0-.04,0-.08,0-.12,0-.02.02-.03.02-.06v-.13c.02-.65-.21-1.95-.55-3.38-.32-1.46-.75-3.1-.93-5.15-.02-.55-.08-1.04-.05-1.64.05-.62.04-1.17.19-1.84.16-.67.24-1.3.57-1.99.29-.68.58-1.35,1.04-1.94.44-.61.84-1.17,1.52-1.74.67-.58,1.44-1.04,2.11-1.34,1.34-.58,2.38-.78,3.33-.96,1.9-.33,3.52-.42,5.17-.51,1.63-.08,3.21-.12,4.82-.12,3.21-.02,6.52.18,9.62.48,1.55.14,3.02.29,4.44.38,1.36.08,2.94.12,4.39.16,2.93.06,5.78,0,8.39-.36,1.29-.19,2.5-.46,3.55-.81,1.02-.36,1.8-.82,2.2-1.21.23-.17.32-.38.4-.49,0-.03.02-.05.04-.07-.01,0-.02,0-.02,0,.02,0,0,0,0,0-.01,0,.02.03,0-.01.02-.02-.04-.39-.14-.84l-.24-.84-.31-.99c-.45-1.39-.99-2.96-1.44-4.58-.45-1.61-.85-3.26-1.15-4.92-.58-3.32-1.03-6.59-.9-10.28.06-1.82.32-3.68.6-5.25.28-1.58.5-2.85.61-4.14.22-2.54.11-5.34-.21-8.12-.31-2.77-.84-5.37-1.68-7.99-.41-1.33-.91-2.66-1.45-4.29-.53-1.6-1.08-3.58-1.22-5.72-.16-2.12.07-4.26.53-6.09.45-1.86,1.07-3.64,1.85-5.28.78-1.64,1.67-3.18,2.55-4.56.87-1.37,1.76-2.66,2.23-3.52.14-.24.17-.36.24-.49.04-.07,0-.03.03-.05h.02s-.02.06-.02.1c.02.09.01.4.13.61.02.11.07.22.14.31.07.09.1.19.18.26.13.16.36.31.44.35.09.03.08.03.08.03,0,0,0,0,0-.01l-.08-.02c-.21-.07-.77-.15-1.54-.22-.77-.09-1.68-.15-2.8-.38-1.12-.24-2.44-.66-3.73-1.48-1.3-.85-2.35-1.99-3.14-3.41-.81-1.5-1.06-3.18-1.05-4.5.09-2.58.61-4.16.97-5.68l.54-2.15c.18-.69.27-1.39.53-2.04.72-2.67,1.07-5.43,1.2-8.13.04-1.35.02-2.66-.1-3.99-.07-.67-.15-1.33-.26-2.08-.1-.76-.25-1.53-.32-2.75-.03-.6-.03-1.32.13-2.15.14-.81.46-1.68.87-2.4.82-1.39,1.78-2.3,2.91-3.08,1.12-.73,2.27-1.17,3.35-1.46,1.06-.25,2.09-.4,3.04-.45,1.92-.12,3.61.04,5.24.18,1.63.15,3.18.37,4.67.54,1.49.17,2.92.31,4.25.34,1.32.05,2.55-.07,3.35-.32.81-.24.99-.54,1.1-.71,0-.02-.02.05,0-.03.01-.07.04-.31.07-.76.04-.93.37-2.51.95-3.64.56-1.18,1.23-2,1.98-2.87.79-.82,1.69-1.59,2.63-2.14,1.89-1.17,3.72-1.67,5.01-2.15.64-.23,1.1-.44,1.41-.62.28-.18.32-.29.4-.39.02-.07.07-.13.07-.16-.03,0-.06.14-.09.28-.02.11,0,.14-.05-.1l-.23-1.04c-.19-.89-.34-1.96-.38-2.97-.04-1.02,0-1.99.1-2.93.18-1.9.63-3.8,1.27-5.56.63-1.75,1.48-3.39,2.16-4.7.32-.61.59-1.24.6-1.33-.03.04-.04.06-.04.13-.06.19-.04.3-.03.57.03.58.26,1.14.63,1.6.34.48,1.12.88,1.34.93.27.08.25.05-.02.06-.46-.01-1.5.05-2.75-.11-1.24-.14-2.74-.59-4.02-1.36-.66-.37-1.18-.83-1.72-1.29-.52-.46-.92-.96-1.35-1.46-1.52-2.01-2.29-4.08-2.76-6.11-.46-2.04-.6-4.08-.39-6.16.21-2.07.74-4.22,1.92-6.35.59-1.05,1.37-2.11,2.32-3.03.95-.91,2.02-1.63,3.08-2.17,2.13-1.07,4.17-1.49,6.01-1.76.92-.13,1.8-.21,2.63-.27.81-.06,1.6-.1,2.14-.16.25-.02.48-.08.23-.01-.09.03-.22.06-.41.15-.27.12-.5.23-1.03.66-.39.33-1.11,1.16-1.38,2.12-.3.93-.29,2.11.06,2.98.24.78.83,1.48.98,1.62.34.33.46.4.54.47.16.1.13.09.14.1.03.02,0,0-.05-.03l-.99-.49c-.87-.45-1.95-1.06-2.98-1.98-1.02-.9-2.01-2.18-2.58-3.49-.58-1.3-.89-2.58-1-3.77-.12-1.2-.08-2.34.08-3.44.32-2.19,1.05-4.23,2.26-6.15,1.18-1.88,3.03-3.73,5.52-4.75,1.23-.47,2.53-.73,3.68-.74,1.19-.05,2.2.12,3.15.28.91.18,1.76.41,2.47.61.74.21,1.35.37,1.81.45.49.1.59.03.43.15-.18.11-.23.36-.2.33.04-.02.15-.39.17-.94.03-.54-.01-1.26-.04-2.08-.03-.84-.1-1.74.08-2.97.1-.62.26-1.29.61-2.03.34-.72.88-1.45,1.54-1.98.62-.55,1.47-1,2.37-1.2.89-.2,1.57-.15,1.99-.14.84.04.89.03,1.15-.04.55-.2,1.21-.71,1.72-1.56.26-.42.48-.92.66-1.44.08-.25.17-.54.21-.75.01-.1.06-.41.05-.6.02-.83-.24-1.72-.83-2.9-.58-1.15-1.39-2.5-2.15-3.86l-2.25-4.05c-1.48-2.75-3-5.5-4.14-8.87-.54-1.69-.95-3.62-.88-5.65.09-2.01.58-3.94,1.35-5.66.75-1.72,1.74-3.17,2.41-4.32.34-.56.53-1.03.56-1.19.02-.17.02.06.02-.02-.07-.03.23.17-.1-.02-.28-.15-1.12-.4-2.05-.8-.95-.41-2.04-1.08-2.88-1.92-.84-.84-1.5-1.8-1.99-2.8-.96-2.01-1.22-4.02-1.25-5.86-.02-1.85.21-3.59.55-5.27.71-3.36,1.8-6.46,3.4-9.52.81-1.51,1.73-2.99,2.79-4.34,1.04-1.36,2.2-2.6,3.26-3.71,1.06-1.1,1.95-2.08,2.4-2.88.19-.4.36-.76.42-1.19.04-.21.09-.42.08-.68.02-.24.03-.48.01-.73-.03-.47-.12-.84-.31-1.47-.19-.61-.49-1.46-.72-2.31-.48-1.72-.73-3.44-.9-5.09-.09-.83-.14-1.65-.18-2.47l-.08-2.28c-.01-.33-.04-.57-.07-.73-.03-.16-.04-.2-.08-.28-.08-.18-.33-.5-.54-.68-.23-.2-.54-.39-1.08-.61-.53-.23-1.27-.45-2.27-.92-.49-.22-1.09-.57-1.67-1.03-.59-.49-1.15-1.14-1.53-1.84-.38-.69-.65-1.42-.77-2.29-.11-.87,0-1.72.16-2.36.34-1.26.64-1.82.78-2.34.15-.5.22-.92.24-1.4.03-.95-.2-2.21-.58-3.18-.37-.99-.96-1.69-1.27-1.82-.14-.08-.29-.13-.69-.14-.4,0-.93.03-1.56.16-1.24.23-2.69.65-4.13,1.07l-4.45,1.28c-3,.83-5.93,1.64-9,2.39-1.53.38-3.1.72-4.74,1-1.65.26-3.35.52-5.45.35-1.01-.07-2.27-.33-3.54-1.02-1.27-.69-2.49-1.93-3.03-3.59-.51-1.63-.31-2.92-.2-3.83.14-.92.29-1.61.35-2.17.12-1.14,0-1.72-.36-2.46-.4-.71-.96-1.28-1.93-1.82-.95-.54-2.2-.99-3.56-1.38-1.35-.4-2.81-.75-4.3-1.11-2.94-.71-5.88-1.44-8.01-1.29-1.05.09-1.76.35-2.32.81-.27.24-.35.32-.49.62-.15.3-.33.92-.63,1.82-.3.88-.76,1.92-1.36,2.82-.59.93-1.31,1.65-2.03,2.38-1.5,1.36-3.17,2.32-4.86,3.05-1.7.74-3.46,1.18-5.24,1.46-1.78.29-3.59.33-5.41.17-1.82-.15-3.67-.56-5.48-1.34-1.78-.77-3.62-1.96-4.96-3.57-2.68-3.2-3.52-6.84-4.22-9.87-.17-.75-.33-1.49-.48-1.98l-.05-.16-.03-.09s0,0,0,0c.04.08.04.07.14.22.08.11.22.28.52.51.27.21.79.46,1.31.53.54.06,1.05.02,1.52-.2.33-.09.76-.47.84-.55.14-.13.27-.31.27-.31.04-.06.06-.11.04-.07,0,0-.06.12-.11.24l-.47,1.14c-.2.46-.48,1.04-.97,1.68-.14.17-.25.32-.42.5-.18.18-.36.35-.55.51-.45.34-.94.65-1.54.85-1.16.43-2.54.3-3.42-.05-.91-.34-1.49-.77-1.97-1.16-.94-.78-1.51-1.49-2.07-2.15-1.05-1.3-1.94-2.53-2.67-3.22-.32-.37-.66-.37-.03-.22.32.05.79-.05.9-.13.03-.01.07-.03.09-.06.01,0,.01,0,.02,0,.01-.02-.02.01-.05.05-.31.32-.84,1.39-.95,2.33-.17.97-.03,1.89.24,2.41.14.26.3.49.59.75.31.26.75.56,1.34.9.59.35,1.34.72,2.27,1.38.25.19.47.35.73.58.26.26.5.46.75.78.49.6.95,1.37,1.18,2.18.24.81.36,1.63.25,2.58-.11.91-.46,1.79-.79,2.34-.7,1.19-1.29,1.78-1.81,2.4-2.08,2.3-3.58,4.33-5.24,6.93-.77,1.21-1.5,2.42-1.98,3.53-.26.56-.42,1.08-.51,1.48-.1.41-.05.65-.07.5,0-.08-.06-.14-.2-.32-.15-.17-.36-.26-.26-.21.17.09,1.32.36,2.4.91,1.11.55,2.1,1.38,2.84,2.21.74.83,1.3,1.69,1.78,2.62.47.93.86,1.92,1.09,3.08.22,1.14.31,2.53-.22,4.1-.15.39-.31.78-.55,1.15-.25.38-.52.74-.82,1.08-.32.3-.67.59-1.02.85-.35.23-.69.38-1.04.56-1.35.56-2.43.66-3.34.75-1.79.13-3.18.11-4.23.32-.5.11-.93.22-1.2.38-.17.06-.23.18-.38.23-.08.12-.21.19-.29.3-.34.42-.47.85-.73,2.67-.09.49-.17,1.01-.42,1.72-.1.32-.3.74-.5,1.1-.25.39-.5.78-.84,1.12-.67.72-1.42,1.14-2.25,1.49-.85.32-1.87.44-2.66.35-1.65-.18-2.51-.67-3.19-.92-.67-.27-1.11-.42-1.45-.47-.61-.09-1.13.04-1.73.45-.31.21-.66.57-1.05,1.02-.4.46-.81,1.03-1.4,1.74-.3.36-.63.75-1.11,1.19-.19.2-.56.47-.84.68-.32.23-.79.46-1.2.64-1,.37-2.12.48-3.17.24-.53-.1-1.03-.32-1.52-.58-.24-.13-.42-.28-.63-.43-.21-.16-.38-.31-.52-.46-1.21-1.27-1.5-2.13-1.86-2.7-.32-.59-.55-.85-.58-.86,0-.01-.03.01.08.01.14,0,.05-.05-.42.2-.89.47-2.51,1.75-4.66,2.44-2.16.74-4.66.64-6.72-.08-2.08-.71-3.69-1.87-5.03-2.97l-1.76-1.51c-.22-.19-.47-.35-.32-.26.08.04.11.06.36.15.18.05.57.15,1.11.1.57-.05,1.2-.32,1.68-.72.49-.43.78-.94.91-1.39.11-.33.12-.67.12-.75-.01-.2,0-.19-.02-.25,0-.06,0,0,.03.1.06.19.16.48.29.8l.85,2.08c.6,1.47,1.19,3.03,1.67,4.64.98,3.22,1.53,6.7,1.41,10.21-.07,1.75-.28,3.46-.64,5.16-.37,1.71-.84,3.39-1.68,5.16-.41.87-.94,1.79-1.74,2.74-.23.24-.42.47-.7.72-.3.25-.57.48-.92.7-.4.22-.76.44-1.23.6-.51.15-.95.3-1.54.32-.54.04-1.22-.03-1.79-.2-.31-.08-.54-.19-.8-.31-.23-.11-.43-.23-.63-.35-.7-.47-1.01-.79-1.23-.96-.43-.32-.27-.22-.4-.24-.21-.06-1.16.1-2.1.64-.96.5-1.93,1.28-2.8,2.17-.87.88-1.67,1.88-2.27,2.94-.62,1.05-1.12,2.16-1.33,3.22-.23,1.06-.3,2.08-.08,2.94.11.44.26.84.52,1.36l.5.93c.19.36.46.85.72,1.57.06.2.12.36.18.59.05.23.1.47.13.71.05.53.05,1.08-.06,1.63-.21,1.07-.66,1.94-1.26,2.65-.3.38-.62.64-.96.93-.31.22-.67.48-.97.63-.65.36-1.22.54-1.77.71-2.15.59-3.78.59-5.37.7-1.56.08-3.02.14-4.23.32-.6.09-1.13.22-1.49.36-.38.14-.49.27-.46.25.01.02.07-.16.05-.14-.01.05.06.49.26,1.17.19.69.53,1.61.64,3,.03.34.01.75,0,1.12-.06.41-.11.82-.23,1.23-.24.83-.65,1.59-1.12,2.21-.97,1.25-2.17,1.99-3.28,2.46-1.12.47-2.2.7-3.24.8-2.09.21-4.06-.03-6.02-.65-.98-.32-1.96-.78-2.87-1.34-.91-.57-1.72-1.25-2.44-1.98-1.43-1.48-2.46-3.15-3.22-4.82-.38-.83-.7-1.68-.97-2.44l-.76-2.18-1.53-4.33c-2.05-5.75-4.08-11.54-6.37-17.03-.58-1.37-1.17-2.71-1.8-3.98-.63-1.27-1.31-2.48-1.99-3.39-.33-.45-.68-.8-.82-.89-.06-.03-.08-.05.06.01.12.04.35.05.49.03.16-.05.18-.04.15-.04-.06.05-.17.11-.32.25-.3.27-.69.71-1.07,1.21-.78,1.02-1.57,2.28-2.43,3.58-.88,1.32-1.76,2.7-3.13,4.18-.7.73-1.52,1.53-2.86,2.19-.7.31-1.5.6-2.43.64-.45.05-.91,0-1.37-.06-.43-.05-1.18-.27-1.76-.62-1.1-.69-1.45-1.23-1.82-1.66-.35-.44-.6-.81-.85-1.19-.48-.74-.9-1.43-1.3-2.13l-1.16-2.06-.56-1.02-.59-1.12-2.35-4.57c-1.54-3.06-3.03-6.13-4.46-9.17l.36,1.51c-.92-1.85-1.82-3.75-2.72-5.47-.22-.43-.45-.84-.66-1.2-.21-.35-.44-.69-.54-.8-.04-.05-.04-.04-.04-.05-.01-.03.03.02.07.05.08.05.35.2.63.23.26.05.5.02.84-.08.16-.07.28-.11.39-.2.1-.08.13-.09.18-.15.07-.09-.19.24-.45.66-.27.44-.62.97-1.02,1.51-.8,1.1-1.91,2.18-3.15,2.93-2.5,1.56-5.28,1.99-7.78,1.95-2.53-.05-4.9-.55-7.17-1.36-2.26-.8-4.5-2-6.42-3.57-.96-.78-1.84-1.64-2.61-2.48-.76-.82-1.49-1.68-1.88-2.03-.16-.15-.15-.02.36.12.27.05.5.07.72,0,.18-.01.33-.11.43-.15.19-.1.15-.16.03.04-.05.05-.12.21-.19.31-.07.15-.14.28-.22.45-.6,1.38-1.08,3.33-1.54,5.29l-.33,1.43c-.1.45-.19.9-.26,1.37-.16.92-.28,1.87-.38,2.82-.18,1.9-.25,3.84-.21,5.77.02.92.09,1.76.21,2.8l.34,3.09c.43,4.18.87,8.21,1.12,12.52.06,1.08.09,2.19.09,3.28l-.02,3.16c-.07,2.15-.04,4.37-.82,7.07-.4,1.34-1.19,2.79-2.22,3.88-.98,1.1-2.33,1.91-2.88,2.3-.29.21-.34.27-.38.31-.04.04-.11.18-.16.39-.11.38-.09.91.08,1.59.09.34.22.7.38,1.09.15.37.39.88.55,1.19.36.71.75,1.26,1.29,1.84.54.58,1.34,1.24,2.2,2.1.42.43.85.89,1.24,1.38.39.48.77,1.02,1.05,1.43,1.25,1.8,2.45,3.84,3.25,6.15.8,2.28,1.14,4.99.6,7.57-.52,2.57-1.79,4.79-3.12,6.61-.66.91-1.36,1.76-1.89,2.48-.26.34-.49.72-.49.74-.01,0,.08-.11.04-.59-.06-.49-.35-.95-.7-1.2-.35-.25-.6-.25-.57-.26-.02,0,.1,0,.24-.01.31-.03.75-.11,1.21-.21.94-.2,1.98-.48,3.09-.7,2.19-.43,4.74-.76,7.45-.05,1.36.38,2.62.95,3.83,1.92.62.49,1.21,1.18,1.57,1.7.37.52.54.73.71.89.29.3.98.71,1.57.94.6.24,1.23.35,2.01.38,1.53.07,3.57-.23,5.73-.4l1.65-.1,1.58-.07c1.06-.04,2.15-.07,3.26-.04,2.22.04,4.53.23,6.87.77,2.34.54,4.72,1.52,6.8,3.01,2.08,1.46,3.79,3.33,5.12,5.35,1.33,2.02,2.29,4.18,3.03,6.37.74,2.18,1.2,4.5,1.47,6.67.29,2.26.35,4.61.1,6.95-.27,2.34-.83,4.71-1.84,6.93-.47,1.12-1.1,2.19-1.6,3.05-.51.87-.82,1.5-.91,1.92-.05.22-.08.43-.06.69.03.22.04.38.09.48.05.12.1.24.3.47.2.23.51.56.92.97.82.81,1.94,2.26,2.39,3.85.25.82.3,1.46.4,2.13.07.68.07,1.38.03,2.06-.08,1.39-.43,2.68-.83,3.86-.42,1.18-.91,2.18-1.33,3.11-.87,1.85-1.4,3.24-1.29,4.47-.01.31.08.64.13.96.07.3.15.52.23.64.08.14.14.24.39.46l1.16,1.01c1.01.88,1.96,2.17,2.54,3.36.59,1.21.98,2.38,1.26,3.61.28,1.21.4,2.44.51,3.39.05.46.11.87.17,1.11.07.24.11.31.16.38.03.06.19.2.24.23.06.03.05.05.31.09.24.04.72.04,1.4.09.67.05,1.56.18,2.4.53.42.17.82.38,1.15.62.35.24.71.48,1.02.74.51.54,1.12,1.1,1.46,1.67l.58.87c.17.29.3.58.45.87.31.58.54,1.17.74,1.75.83,2.34,1.18,4.67,1.24,7.02.05,2.34-.2,4.7-.86,7.03-.68,2.31-1.81,4.64-3.62,6.58-1.78,1.99-4.25,3.28-6.56,3.94-2.33.69-4.59.9-6.57,1.15-.98.12-1.9.27-2.52.47-.31.09-.5.21-.54.24-.04.04.04-.05.03-.06.03,0,0-.14,0-.12.02.06.09.3.29.65.39.71,1.04,1.71,1.58,2.78.55,1.08,1.01,2.28,1.32,3.5.28,1.21.46,2.49.49,3.67.05,2.35-.1,4.72-1.09,7.27-.51,1.25-1.29,2.58-2.54,3.65-.62.53-1.35.98-2.17,1.29-.42.15-.84.29-1.27.34-.44.09-.85.11-1.26.1-1.63-.02-2.85-.44-3.82-.71-.98-.29-1.76-.48-2.32-.49-.55-.01-.95.1-1.36.36-.4.24-.67.53-.99,1.12-.3.6-.57,1.44-.84,2.4-.27.95-.56,2.05-1,3.19-.77,2.28-2.61,4.88-5.02,6.23-1.18.71-2.58,1.2-3.84,1.43-1.25.22-2.38.3-2.75.44-.21.06-.15.06-.18.08-.02.02-.12.13-.17.29-.14.29-.22.86-.13,1.56.15,1.38.86,3.09,1.75,4.37Z"/>
    </g>
  </g>
</svg>