<?xml version="1.0" encoding="UTF-8"?>
<svg id="_Слой_2" data-name="Слой 2" xmlns="http://www.w3.org/2000/svg" viewBox="0 0 206.87 236.61">
  <defs>
    <style>
      .cls-1 {
        fill: #020000;
      }

      .cls-1, .cls-2 {
        stroke-width: 0px;
      }

      .cls-2 {
        fill: #425d1a;
      }
    </style>
  </defs>
  <g id="_Манаевский" data-name="Манаевский">
    <g>
      <path class="cls-2" d="M202.75,69.44c-1.49-1.42-3.87-.39-8,0-4.02.38-7.99.76-11-1-5.59-3.27-7.21-13.51-4-17,.64-.69,1.26-.89,2-2,1.47-2.19,1.19-4.62,1-7-.54-6.94-.81-10.41,0-14,.75-3.32,1.92-4.89,1-6-1.09-1.32-4.1-.79-6,0-3.24,1.35-2.93,3.33-6,5-2.91,1.58-5.94,1.29-9,1-3.06-.29-5.1-.48-7-2-1.8-1.44-2.82-3.55-4-6-1.24-2.57-1.07-3.13-2-4-1.7-1.57-5.03-2.26-7-1-3.46,2.22.58,8.38-3,15-2.2,4.06-7.09,7.97-12,8-3.78.02-5.74-2.27-8-1-2.26,1.27-1.37,4.17-3,7-4.16,7.23-19.79,5.28-22,5-4.24-.53-11.57-1.45-17-7-2.24-2.29-3.49-4.86-6-10-4.6-9.43-3.86-12.41-7-14-4.82-2.45-9.69,2.64-13,0-3.21-2.55.32-8.14-3-12-3.58-4.16-13.16-4.03-16,0-3.1,4.4,3.23,11.53,0,15-2.76,2.97-8.88-.64-12,3-1.35,1.58-1.82,4.15-1,6,1.33,3,5.14,1.99,8,5,3.3,3.47,3.46,10.32,1,12-3,2.05-8.07-4.84-12-3-5.43,2.55-4.49,19.81,1,22,2.09.83,4.65-.6,6,1,1.24,1.46-.28,3.41,1,5,1.4,1.74,3.94.26,6,2,1.43,1.21.88,2.51,2,6,1.45,4.53,3.09,4.54,4,8,.23.89,1.59,6.44-1,9-3.61,3.57-11.12-2.43-15,1-1.69,1.49-1.79,5.66-2,14-.16,6.37.26,7.82-1,9-3.38,3.18-11.21-2.78-14,0-1.88,1.88.92,5.34,2,13,.85,6-.49,6.55-1,22-.29,8.67.05,11.24,2,13,1.73,1.56,5.32,3.02,9,3,2.39-.01,3.33-.64,4,0,2.02,1.94-5.12,9.24-3,13,2,3.54,12.2,3.91,17-1,4.49-4.6,1.44-10.96,5-13,2.8-1.6,6.71,1.17,19,9,16.78,10.69,14.78,8.91,19,12,8.08,5.91,13.81,11.27,21,18,3.57,3.34,9.4,8.93,18,16,5.73,4.7,7.88,6.12,11,7,7.64,2.16,17.76.23,20-5,1.53-3.56-1.89-5.66-1-13,.29-2.41.86-7.06,4-9,2.56-1.58,4.98-.22,11,1,7.23,1.46,16.46,3.34,21-1,2.16-2.06,3.11-5.38,3-8-.21-4.99-4.28-7.86-3-10,.94-1.57,3.35-.42,5-2,2-1.91.69-5.71-1-13-3.49-15.08-2.25-17.76-1-19,1.82-1.79,4.16-1.02,5-3,.89-2.09-.65-5.43-3-7-2.3-1.54-4.33-.69-5-2-.99-1.93,2.74-5.06,2-6-.59-.75-3.02,1.14-7,2-5.75,1.25-8.43-1.14-11,1-1.89,1.58-1.58,3.8-3,4-1.45.21-3.24-1.92-4-4-1.2-3.28.79-4.65,1-10,.21-5.27-1.6-7.46,0-9,1.05-1.02,2.16-.38,6-2,2.52-1.07,2.87-1.69,3-2,.63-1.48-.92-2.39-1-5-.01-.41-.06-3.38,2-5,1.49-1.18,3.33-1.05,4-1,3.12.25,3.88,2.36,7,4,3.53,1.85,8.64,2.35,12,0,1.38-.97,3.46-3.1,3-5-.61-2.53-4.99-1.59-8-5-3.02-3.42-2.33-8.57-2-11,.35-2.6.83-6.17,3-7,2.24-.86,3.82,2.14,9,3,1.53.25,5.53.93,7-1,1.06-1.4-.27-2.76-1-9-.39-3.36-.15-4.19-1-5Z"/>
      <path class="cls-1" d="M201.52,70.72c-.56-.41-1.46-.18-2.31-.09-4.08.6-7.96,1.29-12.36.77-8.41-1.09-12.41-11.6-9.96-19.01.49-1.47,1.73-2.74,2.86-3.65,1.19-1.43,1.2-3.04,1.04-5.03-.21-2.61-.46-5.26-.59-7.97-.12-2.69-.06-5.65.71-8.48.43-1.53.86-2.78,1.14-3.73.04.15.14.27.17.28.08.03-.22-.11-.66-.11-1.29-.03-3.14.49-4.26,1.32-.96.75-1.56,1.85-2.63,2.76-4.17,3.71-9.88,2.7-14.86,1.9-6.4-.76-8.45-7.11-10.5-12.17-1.18-1.55-4.23-2.11-5.79-1.09-1.37.74-.76,3.54-.59,6.25.7,5.97-2.24,12.01-7.16,15.43-2.42,1.76-5.49,3.11-8.95,2.94-2.1-.04-4.02-.99-5.6-1.22-.07,0-.04.02-.06.02-.15.14-.04-.05-.22.38-.49,1.95-.69,4.25-2.14,6.29-1.02,1.55-2.44,2.67-3.86,3.51-6.56,3.49-14.2,3.09-21.25,2.34-7.16-.7-14.87-3.32-19.57-9.25-2.26-2.88-3.62-6.03-5.22-9.2-1.49-3.01-2.87-6.38-3.95-9.48-.42-1.2-.9-2.39-1.18-2.68-.26-.36-.9-.56-1.36-.67-2.45-.27-5.24,1.43-8.16,1.43-3.12.17-6.16-2.04-6.93-5.07-.63-1.98-.26-4.93-.37-6.61-.02-4.53-7.61-4.91-10.7-3.11-1.29.76-1.13,1.65-.82,3.4.63,3.03,1.9,5.2,1.49,8.96-.41,3.7-4.13,6.05-7.55,5.98-1.7.03-4.06-.18-5.25.1-1.16.19-1.46,1.54-1.41,2.48.03.24.1.45.13.48.03.03-.01.02.21.15.43.28,1.83.62,3.4,1.29,1.58.64,3.3,1.89,4.43,3.37,3.74,4.6,4.88,15.67-2.61,17.18-3.63.68-7.24-3.05-10.06-3.61,0,.05-.07-.03-.04.02,0,0,0,0,0-.02-.06.05-.2.17-.39.45-1.41,2.58-1.49,6.21-1.11,9.29.27,2.02.86,4.83,2.3,6.08.64.18,1.24-.02,2.34-.01,1.25-.01,2.57.13,3.81.95,2.29,1.42,2.71,4.14,2.41,6.42,0,.14.01.1-.02-.01-.1-.26-.27-.48-.54-.59,4.46.04,7.79,1.94,8.34,6.95.29,1.65.75,3.19,1.51,4.62,1.06,1.71,2.69,3.8,3.11,5.95,1.49,5.12.84,13.04-5.77,14.17-3.54.54-5.96-.61-8.88-1.02-1.27-.19-1.96-.1-2.34.13.02,0,.02-.05.04-.05,0-.02-.01.01-.03.05-.02.02-.04.08-.07.15-.71,2.27-.67,5.2-.8,7.73-.06,2.29-.18,5.55-.17,7.84-.04,1.87.14,2.88-.56,5.09-.85,2.44-3.79,3.93-6.11,3.89-3.66.11-6.32-1.59-9.48-1.74-.17.04.06,0,.24-.2.1-.1.25-.43.25-.52-.06.28.14.76.27,1.38,1.47,4.8,3.16,10.83,2.39,16.68-.82,7.65-1.48,15.59-1.14,23.16.16,2.29.68,2.98,2.46,3.87,1.86.92,4.13,1.4,6.17,1.27.78-.04,1.8-.3,2.89-.24,2.76.11,4.26,3.09,3.58,5.45-.73,3.15-3.42,6.3-3.65,9.22.01.17.03.06.07.16,3.27,2.27,9.55,1.15,12.36-1.53,1.96-1.85,2.07-4.87,2.37-7.52.35-4.75,4.04-7.89,8.73-6.4,5.52,2.07,11.13,6.27,16.07,9.32,6.64,4.47,13.71,8.25,20.18,12.94,10.74,7.89,20.1,17.74,29.83,26.45,3.9,3.48,7.92,6.93,11.98,10.13,3.72,3.23,8.24,4.75,13.16,4.55,3.78.02,9.88-1.38,10.93-5.07.07-2.37-1.29-4.66-1.37-7.18-.2-5.03.28-11.39,4.63-14.79,2.01-1.69,5.09-1.5,7.4-.88,2.03.48,5.56,1.38,7.67,1.75,5.45.9,12.73,2.88,17.26-.94,2.13-2.19,2.96-6.03,1.76-9.02-.72-2.31-3.22-4.72-2.52-7.56.31-1.23,1.62-2.37,2.78-2.56.99-.18,1.92-.22,2.58-.46,2.27-.64-1.23-10.62-1.44-12.78-1.05-5.45-2.57-10.82-1.7-16.47.25-1.7,1.8-3.51,3.44-4.15,1.02-.46,1.8-.52,2.52-.9.09-.05.1-.09.15-.15.23-.33.25-1.34-.16-2.27-.91-2.03-2.26-3.28-4.65-3.56-1.35-.11-3.01-.94-3.31-2.55-.5-2.16,1.4-4.36,2.2-5.86-.11.35.21,1.06.74,1.25.19.08.36.08.38.09.09,0,.09,0,.07,0,0,0-.03,0-.08.02-3.18,1.25-6.57,2.61-10.22,2.5-1.44,0-2.88-.22-4.03-.3-1.73-.13-2.5.46-3.18,1.85,0,0-.39.88-.39.88-1.37,3.34-4.84,2.42-6.6.01-1.46-1.81-2.5-4.43-2.01-6.83.41-2,1.05-3.75,1.2-5.7.46-3.21-.64-5.73-.54-8.96.12-1.11.9-2.2,1.9-2.77,1.15-.6,2.21-.59,3.26-.9,1.15-.3,2.33-.76,3.39-1.28.51-.24,1.05-.58,1.21-.75.04-.04,0,0-.02.04-.01,0,.02-.05.01-.05-.05-.51-.5-1.16-.76-2.04-.98-3.15-.1-7.18,2.88-8.98,2.42-1.33,5-1.21,7.31-.12,1.84.97,3.15,2.6,4.86,3.41,4.05,2.19,10.91,2.05,12.6-2.93-.01-.21.02-.31-.13-.43-.12-.13-.59-.36-1.16-.55-7.94-1.91-10-8.4-8.82-15.65.46-2.93.66-6.74,3.71-8.44,3.04-1.6,5.86,1.66,8.58,2.31,2.07.6,5.14,1.01,6.57.39.17-.07.27-.16.37-.22.06-.08.15-.16.12-.15,0,0,.01-.03,0-.2-.02-.2-.06-.45-.13-.75-.8-3.13-1.35-6.68-1.57-9.95-.03-.29-.07-.54-.1-.62-.04-.08.01,0-.06-.09h0ZM203.97,68.15c.76.63,1.21,2,1.24,2.9.16,1.88.33,3.95.67,5.78.2,2.2,1.52,4.44.76,6.78-1.74,3.61-6.17,2.99-9.18,2.53-2.69-.33-5.31-1.93-7.56-3.07-.38-.12-.37-.07-.6,0-.39.13-.94,1.05-1.23,2.15-1.21,5.22-2.29,13.04,4.06,15.08,1.61.64,3.56.86,4.75,2.59,1.07,1.51.54,3.78-.39,5.06-1.73,2.65-4.75,4.34-7.83,4.61-4.37.48-8.98-1.23-12.12-4.14-2.21-2.11-6.22-2.01-6.95,1.26-.56,1.84.03,3,.76,4.86.79,2.36-.89,4.04-2.84,4.88-1.83.93-4.04,1.61-6.02,1.94-.56.13-.5.16-.67.33-.14.21-.07.45-.06.8.38,2.41.9,5.58.56,8.19-.05,2.53-1.44,4.92-1.24,7.35.27,1.29,1.25,3.19,2.47,3.74,0-.02-.27.08-.3.14,0,.07.32-.66.62-1.32.69-1.55,2.06-3.02,3.82-3.52,2.21-.59,4.4.11,6.4.07,2.39.03,4.71-.58,7.05-1.57,1.21-.44,2.65-1.39,4.1-.83.65.2,1.28,1.14,1.28,1.76.02.24,0,.62-.04.74-.27.99-.89,1.94-1.28,2.52-.38.7-.86,1.32-.91,1.91.02-.04-.02-.03-.03-.08-.05-.09-.21-.17-.09-.12.1.04.36.09.68.14,3.17.25,6.16,2.64,7.3,5.62.94,2.1.93,5.2-1.27,6.65-1.64,1.14-4.01.71-4.43,2.92-.44,2.18,0,4.92.3,7.22.79,5.2,2.15,10.2,3.33,15.4,1.2,5,.84,9.59-5.63,9.97-.15.04-.15.07-.1.03.03-.06.08-.05.06-.09.35,1.31,1.9,3.43,2.47,5.16,2.34,5.82-.44,13.7-6.69,15.66-5.52,1.78-11.27.63-16.73-.33-2.16-.44-5.59-1.14-7.8-1.71-1.82-.37-2.76-.65-4,.23-1.2.9-1.74,2.28-2.17,3.84-.53,2.18-.85,4.81-.62,7.09.19,2.76,1.88,5.39,1.4,8.34-.66,3.61-3.62,5.86-6.62,7.15-5.55,2.22-11.44,2.29-17.14.67-2.81-.84-5.31-2.57-7.57-4.28-4.28-3.31-8.31-6.72-12.34-10.24-10.97-9.67-20.78-20.03-32.79-28.1-5.62-3.39-11.34-6.88-16.87-10.4,0,0-6.69-4.22-6.69-4.22-2.21-1.37-4.47-2.78-6.58-3.77-.79-.28-1.68-.78-2.35-.7-.11.02-.2.06-.29.13-.04.1-.15.1-.25.47-.5,2.01-.46,5.44-1.42,7.83-.57,1.58-1.54,3.12-2.76,4.33-4.91,5.1-17.86,6.8-21.6-.18-1.9-4.65,1.84-8.85,3.18-12.9.02-.1-.01-.12.03.17.03.21.13.44.25.62.13.42,1.09.85,1.38.84.14,0,.1,0,.02,0-6.08,1.03-14.93-.96-16.65-7.77-.82-3.6-.54-7.3-.5-10.71.13-5.28.52-10.81,1.08-16.01.4-3.68-.19-7.1-1.17-10.64-.77-3.19-3.07-7.56-.29-10.51,2.95-3.24,7.44-1.56,10.71-.72,1.41.34,2.58.67,3.51.41,0,0,.02-.02,0,0-.01,0-.13.18-.15.23.29-1.91-.03-4.69.12-6.81.24-4.22-.09-8.33.87-12.57.68-3.45,3.65-5.85,7.26-5.89,3-.25,6.72,1.43,9.33,1.19,1.77-.35.88-5.85.11-7.2-.96-1.58-2.5-3.56-3.1-5.46-.78-1.7-1.12-4.19-1.49-5.78-.01-.01.04.1.08.14.05.04-.01,0-.03-.02-.04-.03-.1-.06-.47-.12-.37-.06-.96-.04-2.01-.18-1.19-.1-2.95-.89-3.78-1.95-.97-.99-1.49-2.77-1.44-4.02-.07-.72.12-1.25.07-1.65,0,.01.03.2.14.38.09.18.21.28.39.42.44.24.45.12,0,.14-1.5.12-3.7.27-5.46-.67-4.2-2.31-5.33-7.04-5.99-11.21-1.39-8.71,2.11-22.02,13.53-15.71,1.46.77,2.89,1.77,3.92,2.04,0,.03-.1,0-.13,0-.08,0-.12.07-.23.07-.15.03-.27.14-.37.23.81-1.77.09-5.18-1.14-6.65-.8-1.06-2.02-1.49-3.41-1.95-1.71-.5-3.99-1.63-5.05-3.51-.68-1.09-.95-2.2-1.08-3.26-.49-4.26,2.16-8.75,6.46-9.71,2.65-.83,5.7.08,7.62-.44.2-.05.13-.08.17-.08-.04-.03.04.03,0-.01,0,0,0-.01.02-.01.01-.01,0-.08,0-.11.08-.32-.06-1.38-.38-2.52-1.22-4.02-2.75-9.45,1.03-13.09,5.38-5,16.32-4.48,20.82,1.54,1.23,1.69,1.74,3.79,1.82,5.42.16,2.11-.19,3.68.1,5.24.08.2.04.19.1.21.03.05.05.05.11.07.05.04.37.02.76-.02,2.6-.45,5.61-1.88,8.84-1.24,3.01.44,5.83,2.76,6.77,5.59,1.59,4.36,3.12,8.57,5.23,12.65,1.56,3.2,3.12,6.5,5.87,8.64,5.57,4.57,13.57,5.2,20.58,5.42,4.07-.08,9.73-.41,12.15-3.62.92-1.2.94-3.16,1.55-4.92.56-2.13,3.18-4.27,5.6-4.07,2.37.04,4.06,1.33,5.94,1.47,4.11.43,8.66-2.83,10.84-6.34,1.22-2.02,1.71-4.3,1.73-6.72.12-2.39-.45-5.61,1.42-7.62,2.84-2.63,7.43-1.43,9.8,1.13.96,1.39,1.05,2.43,1.83,3.74,1.56,3.25,3.51,6.48,7.46,6.61,4.44.32,9.94,1.26,12.83-3.01,1.92-2.63,5.23-4,8.56-3.99.87.04,1.94.13,3.09.98,2.61,2.02.76,5.32.16,7.72-.62,2.3-.66,4.69-.54,7.27-.09,5.43,2.52,12.71-2.61,16.77-.64.46-.86.86-1.17,1.52-1.16,3.38-.26,7.55,1.65,10.53,2.67,4.45,7.97,3.63,12.62,3.24,2.95-.11,6.46-1.8,9.12.55h0Z"/>
    </g>
  </g>
</svg>