<?xml version="1.0" encoding="UTF-8"?>
<svg id="_Слой_2" data-name="Слой 2" xmlns="http://www.w3.org/2000/svg" viewBox="0 0 244.88 377.47">
  <defs>
    <style>
      .cls-1 {
        fill: #83d24b;
      }

      .cls-1, .cls-2 {
        stroke-width: 0px;
      }
    </style>
  </defs>
  <g id="_Новосергиевский" data-name="Новосергиевский">
    <g>
      <path class="cls-1" d="M184.34,13.48c-.7-1.85-1.49-3.35-3-4-.9-.39-1.74-.33-4,0-5.37.78-5.06,1.08-6,1-4.03-.35-4.08-5.44-9-7-1.85-.58-1.57.22-7,0-5.41-.22-6.74-1.06-8,0-1.84,1.54-1.9,5.73,0,8,1.97,2.34,4.62.93,8,3,4.28,2.63,5.25,8.11,5.5,9.5.92,5.19-.66,11.37-5,15-3.47,2.9-7.68,3.32-9.5,3.5-6.07.61-9.16-1.86-11,0-1.57,1.58-1.24,5.3.5,7.5,2.58,3.26,6.72,1.05,10,4,3.47,3.13,3.84,9.42,2,14-2.63,6.54-9.66,8.81-14,9-1.61.07-1.63-.2-4.5-.5-1.7-.18-17.12-1.81-20,4-.34.68,0,.47-.5,5.5-.4,4.08-.6,6.11-1,7-1.84,4.05-7.03,6.25-10.5,6.5-3.61.26-6,0-6,0-1.19-.13-1.56-.25-2,0-1.91,1.08-1.98,7.23,1,10,2.86,2.66,6.19.03,9.5,2.5,3.74,2.79,1.19,7.42,4.5,10.5,1.41,1.31,3.23,1.74,18.5.5,7.78-.63,10.81-1.03,14,1,.28.18,4.86,3.17,4.5,6.5-.17,1.53-1.25,1.98-1,3,.58,2.4,6.85,1.38,8,4,1.13,2.58-4.03,5.57-3,9,.67,2.24,3.16,1.94,5.5,4.5,3.26,3.57,4.23,10.51,1.5,13.5-3.63,3.98-11.97-1-15,3-1.74,2.3.67,4.4-1,9-1.34,3.7-4.5,6.76-8,8-.65.23-1.97.63-9,0-9.02-.81-11.84-1.92-14,0-1.58,1.4-1.08,2.88-3,4-2.57,1.5-5.04-.24-6,1-1.22,1.59,2.4,4.95,1,8-.41.89-1.07,1.37-2,2-5.95,4.04-8.92,6.05-11,6-5.36-.14-10.17-5.18-10-8,.01-.25.07-.54,0-1-.36-2.29-3.08-3.57-4-4-.97-.46-2.28-.89-4-1-.85-.05-6.58-.42-8.5,2.5-1.82,2.78,2.04,5.13,1,10-.88,4.11-4.02,4.28-6.5,10.5-.98,2.46-.43,2.29-1.5,5.5-1.26,3.78-2.74,8.57-7,12-2.21,1.78-5.95,4.79-10,4-3.52-.69-5.33-3.87-8-3-1.51.49-1.3,1.51-3,2-2.84.81-5.34-1.6-6.5-.5-.47.45-.07.86-.5,1.5-1.31,1.94-6.04-.36-7.5,1.5-.76.97.29,1.9-.5,3.5-.87,1.77-2.58,1.54-4,3-1.85,1.9-2.5,5.97-.5,8.5,2.07,2.62,6.17,2.53,8.5,1.5,1.2-.53,1.26-1.01,2-1,2.56.05,6.05,6,5.5,11.5-.2,1.98-.87,3.4,0,5,.81,1.5,2.21,1.75,3.5,2.5,4.33,2.54,5,9.4,5.5,14.5.52,5.27,0,10,0,10-.32,2.95-.78,4.42,0,5,1.13.84,3.5-1.2,9.5-4.5,6.76-3.72,8.42-3.7,9.5-3.5,3.74.69,5.71,4.43,6,5,1.98,3.92,1.26,9.11-1.5,11.5-2.57,2.22-5.37.7-7,3-1.51,2.13.42,4.21-1,7-1.28,2.51-4.18,3.43-6,4-5.97,1.88-8.81-1.18-12,1-2.55,1.74-.98,3.75-4,7-2.21,2.38-5.08,3.46-10.5,5.5-3.28,1.24-5.56,1.81-5.5,2.5.09.98,4.68.2,7,3,1.7,2.05.72,4.45,2,5,1.64.7,3.31-3.19,7-4,3.61-.79,8.01,1.71,10,5,3.25,5.37-.07,12.6-.5,13.5-1.3,2.72-2.83,3.98-3,7-.06.97-.22,3.82,1.5,5.5,1.75,1.71,3.99.77,12,0,7.99-.77,9.73-.35,11-2,2.13-2.76-1.03-6.19,1-9,1.33-1.84,3.61-1.65,13-2,12.91-.48,7.27-.78,15-1,3.5-.1,6.65-.09,10-2,1.32-.75,3.24-1.88,4-4,1.02-2.85-.87-5.16,0-6,1.38-1.34,7.7,3.08,9,4,14.51,10.26,20.24,18.27,27,17,.82-.15.42-.21,3-1,6.89-2.1,8.44-1.29,12-3,1.41-.68,4.18-2.01,6-5,2.04-3.36,2-7,2-7-.02-1.84-.46-2.61,0-3,1.16-.98,5.63,2.41,9,5,7.31,5.62,8.73,8.13,12,8,1.79-.07,3.19-1.05,6-3,1.96-1.36,3.13-2.53,8-8,5.92-6.66,6.49-7.52,7-9,.35-1.01.3-1.24,1-8,.58-5.62.87-8.43,1-9,1.34-5.91,3.43-6.7,4-12,.3-2.81.6-5.52-1-7-2.79-2.58-8.79.92-10-1-1.02-1.62,3.01-4.51,2-8-.66-2.3-2.76-2.21-3-4-.26-1.88,1.82-3.59,10-10,3.79-2.97,5.29-4.12,5-5-.6-1.81-7.92.27-9-2-.82-1.72,2.86-4.04,7-10,2.83-4.07,5.94-8.54,6-14,.04-3.91-1.53-4.07-4-12-2.12-6.81-3.48-11.16-2-16,1.05-3.44,4.01-8.69,8-9,4.96-.38,6.76,7.23,12,7,4.12-.18,8.27-5.12,8-9-.18-2.67-2.35-3.26-5-8-.68-1.21-2.63-4.71-3-8-1.05-9.45,11.22-15.21,9-21-1.23-3.2-5.54-2.87-6-6-.42-2.8,2.9-4.05,6-9,.54-.85,6.02-9.8,3-15-2.5-4.31-8.75-2.43-10-6-1.25-3.57,3.39-10.07,9-12,3.41-1.17,5.87-.21,7-2,1.16-1.84.11-5.27-2-7-2.67-2.19-5.33-.25-7-2-2.8-2.93,3.05-10.01,0-14-1.77-2.32-4.87-1.4-6-4-.98-2.27,1.03-3.78,0-6-1.1-2.38-3.74-1.37-6-4-2.12-2.46-.57-4.24-3-8-1.57-2.42-2.59-2.27-3-4-.5-2.11.82-3.21,2-7,1.07-3.46,1.65-5.3,1-7-.95-2.5-3.73-2.6-12-6-7.13-2.93-8.35-4.2-9-5-1.51-1.86-2.01-4.24-3-9-1.42-6.82-.78-9.09-3-13-1.44-2.53-1.75-1.67-3-4-2.54-4.74-.94-7.79-3.5-14.5Z"/>
      <path class="cls-2" d="M181.64,14.51c-.51-1.14-.73-1.97-1.43-2.36-.07-.03-.04-.02-.08-.02-.04,0-.15-.01-.32,0-2.09.27-4.9.59-7.04,1.16-2.28.58-5.06-.68-6.53-2.36-1.57-1.76-3.07-4.38-4.91-4.67-.34-.06,0-.05-.57,0-.52.07-1.23.14-1.86.18-3.31.25-6.82-.27-10.03-.49-.04,0,.14-.02.25-.09.13-.09.14-.08.14-.09-.36.61-.41,1.46-.27,2.31.11.67.41,1.27.68,1.55.39.35.59.34,1.31.48,9.16.55,13.58,9.86,13.1,18.09-.76,12.32-10.94,18.65-22.53,17.3-1.54-.21-3.14-.54-4.38-.61-.09.04.31-.1.37-.21.07-.08,0-.04-.04.15-.24,1.08.14,2.58.9,3.39.72.64,1.27.64,2.79.85,10.07.47,12.85,12.14,9.57,20.11-2.03,5.22-6.98,8.87-12.21,10.21-2.48.64-5.49,1.04-8.03.39-5.47-.61-12.91-1.36-17.74,1.31-.35.28-.55.46-.72.76-.03.07.1-.22.12-.4.03.52-.14,2.63-.21,3.55-.42,2.99-.27,6.47-1.49,9.44-2.28,4.55-7.06,7.11-11.9,7.91-2.89.36-6.25.26-8.37-.01-.22-.04-.46-.02-.08-.04.19-.02.5-.12.65-.21.13-.06.22-.11.3-.21.11-.08.14-.18.12-.12-.02-.02-.05.14-.09.21-.48,1.68.14,4.38,1.18,5.33,1.13,1,2.19.48,4.12.64,2.95,0,6.43,1.89,7.68,4.8,1.11,2.23.89,4.65,1.5,6.52.15.5.48.93.84,1.25.06.04.12.08.41.16.31.06.71.13,1.16.16,5.83.23,12.86-.53,18.8-.95,5.02-.49,10.21-.29,14.09,3.81,2.79,2.51,4.5,6.77,2.11,10.04.08-.14.12-.68.04-.9-.02-.13-.08-.26-.16-.36-.04-.09-.1-.17-.17-.23,2.01.75,5.72.67,7.63,3.26,1.41,1.69.96,4.47-.05,5.97-.65,1.14-1.95,2.75-2.24,3.67-.12.26-.07.38-.1.48.03.09.04.18.03.14-.02-.02.04.07.38.27,5.44,2.28,8.53,8.28,8.25,14.09-.07,4.97-3.49,8.72-8.47,8.67-2.73.18-5.92-.83-8.32.01-.24.14-.46.34-.49.58-.08.26.12,1.4.23,2.67.47,6.57-4.34,12.73-10.4,14.89-1.5.48-2.64.44-4.04.45-5.42-.06-10.74-1.02-16.04-1.43-1.79,0-2.08.09-2.74,1.54-1.49,3.78-5.44,4.49-8.73,3.99.24-.03.46-.21.64-.37.22-.24.33-.52.34-.71,0-.31.01.07.17.44,2.06,4.44,2.24,8.32-2.59,11.07-2.29,1.53-4.43,3.03-6.95,4.45-1.24.68-3.21,1.65-5.02,1.54,0,0-1.01-.08-1.01-.08-5-.7-10.97-4.95-11.19-10.36.01-.78.09-.33-.01-.74-.28-1-2.35-2.03-3.39-2.4-1.62-.58-3.6-.6-5.31-.42-1.32.13-2.97.54-3.54,1.51-.1.42.06.78.27,1.37,1.64,3.34,2,8.13-.49,11.3-2.11,2.59-4,4.34-5.1,7.42-.39.95-.45,1.41-.71,2.76-.59,2.38-1.28,4.23-2.12,6.45-1.58,4.37-4.76,8.28-8.73,10.83-4.36,3.21-9.62,3.91-14.26.35-.88-.59-1.57-.88-1.8-.87-.09,0-.33.05-.41.1-.04.02-.05.02-.16.13-1.11,1.5-3.5,2.3-5.33,2.02-1.61-.15-2.79-.74-3.72-.93.16,0,.42-.1.58-.22.1-.1.22-.19.36-.46.13-.26.14-.51.13-.43.01.09-.07,1.1-.44,1.67-.34.56-.8,1.05-1.31,1.34-1.04.68-2.54.74-3.55.68,0,0-1.63-.09-1.63-.09-.56-.04-.97-.02-1.34.05-.02.01-.05.02-.07.02.02,0,.04,0,.04-.02.03-.01.07-.04.09-.08.05-.05.16-.28.16-.4.05.47.24,1.84-.14,2.77-.4,1.55-2.04,2.97-3.33,3.44-.49.23-.81.39-1.05.57-.88.6-1.56,2.4-1.42,3.89.14,3.48,4.24,4.14,6.85,2.98.66-.31.37-.29,1.33-.82,2.58-1.26,5.27,1.36,6.38,3.17,2.02,3.17,2.92,6.83,2.53,10.55-.15,1.23-.44,2.31-.39,2.86.14,1.7,2.14,1.72,3.35,2.72,5.13,3.63,5.43,10.54,6.05,16.14.27,3.18.25,6.39-.02,9.56,0,0-.02.21-.02.21,0,0-.01.11-.01.11,0,.08,0,.02,0-.09-.08,1.35-.42,2.73-.43,3.91,0,.11.04.02-.14-.25-.19-.27-.59-.42-.76-.4.38-.1.77-.29,1.28-.57,3.29-1.88,6.61-3.92,10.02-5.58,2.27-1.01,4.63-2.34,7.28-1.98,8.01,1.6,11.46,12.45,6.44,18.77-.87,1.09-2.16,1.98-3.49,2.39-1.7.57-2.92.29-3.95,1.01-.42.42-.56.81-.5,1.53,0,0,.14,1.6.14,1.6.38,2.66-1.42,5.78-3.75,7.05-3.22,1.85-6.83,2.7-10.5,2.31-2.51-.23-5.44-1.26-6.18,1.9-1.95,8.45-11.94,9.71-18.6,12.7.65-.56.35-1.79-.3-2.06,5.24.75,8.48,2.36,8.91,7.89-.11-.17-.41-.31-.6-.24,0-.03-.05.03,0-.01.15-.06.54-.37.91-.71,3.97-4.23,9.12-4.52,13.68-1.22,4.26,2.75,5.82,8.4,4.77,13.1-.45,2.31-1.17,4.5-2.32,6.59-1.04,1.88-2.2,3.21-2.32,5.29-.17,1.71.04,3.58,1.25,4.61.22.16.45.25.83.3,1.45.1,2.95-.12,4.48-.31,4.24-.56,8.77-.86,12.98-1.2.75-.04,1.64-.2,2.12-.63,1.25-1.53.3-3.06.19-5.07-.44-5.5,3.75-6.31,8.11-6.38,6.59-.2,12.99-.37,19.49-1.11,4.21-.21,8.42.19,12.08-2.01,3.59-1.93,4.02-3.94,3.03-7.54-.41-10.55,26.71,14.31,30.06,16,2.37,1.54,4.66,2.75,7.29,2.15,1.21-.53,2.42-.84,3.58-1.2,4-1.36,8.49-1.11,12.11-3.34,4.08-2.16,6.14-6.93,5.49-11.39-.41-1.88.77-3.49,2.81-3.24,0,0,.37.05.37.05,0,0,.29.08.29.08,2.91.99,5.16,2.94,7.46,4.6,2.55,1.96,5.21,4.08,7.65,6.19,1.43,1.14,2.65,2.33,4.44,2.15.67-.07,1.41-.42,2.27-.95,3.62-2.12,6.46-5.14,9.22-8.35,1.98-2.37,5.49-5.98,7.12-8.47.75-1.13.71-2.28.9-3.91,0,0,.32-3.24.32-3.24,0,0,.71-6.6.71-6.6.27-2.21.33-4.42,1.16-6.67.64-2.05,1.83-4.12,2.53-6.03.65-1.79.8-3.96.91-5.83-.03-1.55.06-2.76-1.47-3.13-2.23-.44-4.68.84-7.21.45-1.84-.19-3.19-2.18-2.63-4.02.57-1.91,2.26-3.69,2.17-5.54-.15-.73-.21-.87-.84-1.4-.33-.29-.94-.62-1.59-1.48-.64-.88-.86-1.97-.68-3.04.4-1.76,1.33-2.65,2.38-3.73,1.71-1.63,3.41-2.96,5.12-4.34,0,0,5.11-4.04,5.11-4.04.91-.73,1.87-1.48,2.44-2.17-.15.32-.14.69,0,1.04.11.24.28.42.38.49.11.08.15.09.14.09-.01,0-.15-.05-.34-.06-2.14-.27-4.6.28-6.88-.5-1.79-.49-3.1-2.55-2.4-4.42.59-1.65,1.91-2.89,2.82-3.99,2.85-3.14,5.31-6.58,7.45-10.15,1.5-2.61,2.55-5.26,2.6-8.19.08-3.03-2.08-5.52-2.92-8.42-.71-1.76-1.45-4.49-2.05-6.33-2.45-7.25-2.58-14.16,2.41-20.5,2.6-3.62,7.66-5.5,11.47-2.42,1.92,1.4,3.1,3.2,4.76,4.49,3.17,2.87,7.79-1.88,8.15-5.11.21-1.75-1.2-2.44-2.27-3.98-4.3-5.56-8.04-13.74-4.12-20.51,1.9-3.88,5.52-7.11,7.28-10.58,1.16-2.78-1.43-2.98-3.53-4.52-1.45-.87-2.57-2.96-2.49-4.73.06-2.97,2.58-4.85,4.2-6.8,2.56-2.92,4.45-6.71,5.37-10.41.4-1.81.44-3.62-.17-4.74-.73-1.42-1.95-1.78-3.61-2.23-1.62-.4-4.36-1.01-5.66-2.64-4.17-5.46,1.94-12.87,6.64-15.65,2.39-1.62,5.78-2.08,8.46-2.36.26-.08.12-.05.06.03-.04.05.03-.03.05-.22.17-1.4-1.14-3.54-2.2-3.8-1.15-.47-3.25.15-4.94-.69-4.3-1.96-3.19-6.95-2.1-10.47.48-1.59.86-3.29.43-4.58-.13-.15-.19-.35-.36-.47-.14-.13-.32-.25-.65-.39-.33-.14-.78-.28-1.36-.48-2.59-.66-4.79-3.21-4.63-6.03.1-1.5.43-2.12.56-3.14,0-.1-.02-.16-.08-.28-.07-.1,0-.04-.13-.13-.24-.19-1.56-.49-2.91-1.18-2.06-1.09-3.81-3.14-4.3-5.45-.32-1.62-.35-2.77-1.04-4.08-.83-1.52-1.39-1.93-2.73-3.35-1.73-2.04-1.46-5.24-.34-7.39,1.53-3.25,3.18-9.2,2.04-8.89-.36-.28-1.27-.69-2.23-1.04-3.02-1.12-6.26-2.26-9.21-3.52-4.86-2.06-9.72-4.01-11.13-9.76-1.22-4.46-2-8.79-2.55-13.18-.28-2.05-.75-3.45-1.72-5.05-.23-.37-.43-.64-.61-.83,0,0-.53-.51-.53-.51-4.58-4.64-3.07-11.66-5.4-17.2h0ZM187.04,12.45c.84,2.22,1.44,4.64,1.72,6.97.32,2.49.33,4.81,1.48,6.96.28.6.47.89.82,1.28,1.74,1.67,2.84,3.67,3.61,5.94,1.07,3.32,1.05,6.76,1.76,9.97.66,2.79.94,5.97,2.32,8.29.17.27.36.5.59.71,1.8,1.42,4.1,2.33,6.39,3.36,2.88,1.13,6.06,2.48,9.02,3.49,6.46,2.22,7.1,6.33,5,12.37,0,0-.52,1.62-.52,1.62-.38,1.13-.88,2.28-1.3,3.23-.28.74-.65,1.25-.41,1.86,1.17.96,2.59,2.83,3.3,4.26.64,1.19,1.06,2.67,1.23,3.89.13,1.57.47,2.63,1.82,3.38.93.51,1.89.59,3.1,1.31,2.51,1.37,3.39,4.78,2.45,7.28-.15.53-.21.84-.21.98,0,.2.07.45.24.55.2.2,1.2.45,2.55,1,.67.28,1.44.72,2.09,1.33,3.93,3.62,1.66,9.09.67,13.24-.18.85-.09,1.52-.05,1.45-.16-.04.11.04.58.05.85.02,2.46-.07,4.05.53.8.28,1.51.75,2.13,1.24,3.41,2.75,5.21,9.29.77,11.98-1.95,1.03-4.26.67-6.11,1.24-2.56.75-4.8,2.56-6.4,4.71-.82,1.12-1.98,3.2-1.44,4.37.81.62,1.77.72,3.18,1.12,10,2.21,8.65,12.38,4.75,19.49-1.43,3.01-3.9,5.91-6.17,8.27-.36.46-.8.89-.84,1.31.07.33-.04.33.49.75.54.41,1.6.86,2.76,1.66,1.26.85,2.47,2.35,2.82,3.92,1.01,4.17-2.23,7.65-4.53,10.58-2.36,2.99-4.9,6.2-4.62,9.99.49,4.98,3.75,9.26,6.88,13.2,3.94,6.23-3.51,15.44-10.37,14.57-3.94-.5-6.03-4.1-8.67-6.26-3.66-2.75-6.99,3.52-8.01,6.61-1.54,4.77.49,9.91,1.86,14.6.9,3.23,2.21,5.83,3.53,9,2.3,7.22-2.31,14.23-6.32,19.78-1.79,2.72-4.55,5.14-6.26,7.71.08-.22-.11-.67-.25-.76,1.78.55,5.12-.13,7.4.66,1.16.33,2.24,1.8,1.95,3.11-.07.78-.72,1.64-1.16,2.1-4.09,3.91-9.8,7.28-13.56,11.38-.29.34-.35.59-.35.63,0,.03.32.3.82.69,1.15.78,2.23,2.6,2.3,4.08.3,2.81-1.33,4.74-2.3,6.92.04-.17-.11-.52-.31-.67-.17-.14-.25-.13-.18-.12.05.02.22.02.41.02,2.09-.2,4.49-.88,6.93-.41,1.54.26,3.2,1.46,3.84,2.95.69,1.51.69,2.88.67,4.08-.06,3.53-.88,7.09-2.54,10.14-1.47,2.82-1.95,5.68-2.21,8.92,0,0-.7,6.35-.7,6.35l-.33,3.24s-.18,1.66-.18,1.66c-.03.28-.07.58-.14.92-.49,2.76-2.63,4.9-4.34,6.95-4.5,4.94-8.5,10.43-14.4,13.87-3.83,2.58-7.58,1.54-10.82-1.52-2.45-2.05-4.96-4.25-7.51-6.13-2.08-1.51-4.09-3.26-6.35-4.08-.01,0-.02,0-.03,0,0,0-.03-.01-.02-.01.13,0,.12-.01.3-.07.28-.06.62-.65.62-.82.02-.23,0,.05.05.29l.1.86c.26,3.06-.54,6.13-2.06,8.83-1.55,2.72-4.1,4.62-6.83,5.86-3.59,1.72-7.62,1.57-11.3,2.8-1.41.34-2.67.91-3.98,1.29-2.21.43-4.55.01-6.55-.96-4.72-2.31-9.26-6.7-13.33-9.95-3.31-2.75-6.71-5.45-10.2-7.88-1.74-1.03-3.75-2.6-5.7-2.82-.05.02.18-.06.24-.24.05-.18,0-.05.05.13.02.18.08.43.14.69,2.29,6.87-4.99,11.11-10.91,11.6-2.3.23-4.45.19-6.57.31-6.45.77-13.06.98-19.5,1.2-2.06.12-4.5.22-4.97,1.16-1.27,2.12.76,5.02-.22,7.54-.27.72-.62,1.38-1.17,1.95-1.05,1.11-2.56,1.36-3.88,1.51-2.26.23-4.37.34-6.52.54-3.28.25-6.43.8-9.75,1.08-4.99.61-7.11-3.78-6.64-8.14.03-2.38,1.56-4.71,2.67-6.58,1.81-3.46,2.84-7.84,1.71-11.32-1.11-3.33-4.9-6.12-8.35-5.92-1.65.09-3.01,1.15-4.62,2.67-.71.68-2.17,1.83-3.45,1.51-2.42-.52-2.2-2.84-2.68-4.65-.47-1.91-3.25-2.55-5.35-2.81-.3-.06-.6-.1-1.08-.27-.24-.11-.55-.16-1.05-.71-.52-.53-.57-1.72-.16-2.27.32-.51.57-.65.78-.81.94-.6,2.02-.94,3.01-1.3,4.5-1.86,10.26-2.96,13.16-7.05.94-1.29.85-2.92,1.77-4.46,2.06-3.37,5.9-3.04,9.08-2.51,2.8.37,5.85-.48,8.27-1.84,2.22-1.36,2.24-3.06,1.91-5.46-.14-1.49.43-3.32,1.65-4.37,2.17-2.12,5.39-.79,7.06-3.06,3.23-3.96.88-11.75-4.23-12.77-1.71-.09-3.44.99-5.04,1.68-2.78,1.4-5.7,3.09-8.39,4.71-1.49.82-2.95,1.93-4.82,1.88-3.78-.52-2.52-4.81-2.27-7.3,0,0-.01.21-.01.21l.12-1.72c.24-5.52-.08-11.47-1.66-16.74-.62-1.79-1.54-3.36-2.82-4.17-.55-.45-1.57-.67-2.9-1.61-1.33-.96-2.21-2.62-2.25-4.27.02-2.7.77-3.83.36-6.19-.4-2.34-1.43-5.4-3.37-6.71-.06,0-.16-.08-.11-.04.06-.02.33-.04.44-.11-6.89,4.78-16.77-.34-13.61-9.57.5-1.82,2.42-3.89,4.29-4.56.71-.37.89-.37,1.1-.91.04-.16.06-.18,0-.69-.02-.26-.11-.67-.04-1.31.06-.65.4-1.39.81-1.83,1.83-2.22,5.04-1.23,7.39-1.45.22-.06-.01-.04-.12.21-.1.11-.12.56-.09.12,0-.19.06-.71.31-1.21.26-.5.56-.81.89-1.05.77-.62,1.92-.77,2.81-.59,1.3.22,2.59.85,3.34.85.63.08,1.27-.14,1.34-.27.07-.06.2-.21.47-.49.58-.61,1.51-1.2,2.37-1.38,3.95-1.2,6.43,3.38,10.08,3.06,1.52-.1,3.19-.89,4.76-2,3.28-2.15,5.7-5.09,7.07-8.85.66-1.77,1.46-3.96,1.87-5.74.36-2.28,1.23-4.66,2.44-6.67,1.69-3.3,5.92-5.43,4.88-9.51-.53-2.21-2.37-5.02-1.13-7.56,2.85-5.91,13.58-5.36,18.11-1.96,1.75,1.07,3.55,3.66,3.17,6.05.85,2.8,4.19,4.98,7.03,5.38,1.12.18,1.83-.24,3.09-.91,2.1-1.19,4.43-2.81,6.54-4.25.56-.43,1.39-.85,1.68-1.3.48-1.1-.53-2.67-.98-4.03-.99-2.16-.43-5.38,2.59-5.91,2.01-.36,3.42.59,4.71-.5.08-.1.16-.19.37-.68.7-2.07,3.07-4.24,5.39-4.4,4.05-.38,7.86.65,11.79.87,2.66.16,6.12.66,8.52.18,3.89-1.36,7.29-5.78,6.88-9.67-.28-1.95-.61-4.62.84-6.39,4.17-5.86,13.77-.05,15.63-4.03,1.1-2.88.08-6.81-1.91-9.15-.89-1-1.98-1.46-3.29-2.18-1.49-.65-3.06-2.87-3.09-4.63-.32-3.16,2.16-5.55,3.25-7.82-.04.05.04.39.14.5-.77-.37-3.14-.75-4.56-1.17-2.34-.54-4.63-3.1-3.54-5.78.34-.86.55-1,.75-1.46.05-.11.06-.39-.18-.91-.24-.51-.76-1.15-1.37-1.74-2.71-2.84-5.97-2.52-9.84-2.22-3.82.31-9.09.78-12.87.97-3.61,0-7.93.9-11.31-1.34-1.33-1.03-2.28-2.35-2.83-3.91-.84-2.19-.58-4.28-1.3-5.96-1.35-2.26-3.55-1.22-6.21-1.6-3.2-.24-5.97-3.15-6.85-6-1.63-4.1-.84-12,5.09-11.14,1.19.21,4.03.24,6.19.07,3.06-.32,6.68-2,8.02-4.77.54-2.75.71-5.98.96-8.92.03-.55.05-1.01.07-1.64,0-.17,0-.4.08-.83.07-.46.3-1.02.4-1.2,4.12-7.77,19.05-6.35,26.38-5.31,7.05.04,13.35-4.94,12.79-12.37-.18-2.46-.91-4.74-2.91-5.75-1.98-.66-4.24-.46-6.75-1.63-5.24-2.62-7.17-11.83-1.36-14.91,2.51-1.12,5.21-.03,7.5.18,3.67.37,7.92-.12,10.95-2.22,5.96-4.14,6.43-14.39,1.49-19.42-1.91-1.91-4.38-1.33-7-2.38-4.2-1.85-5.52-6.97-4.27-11.06.53-1.96,2.55-4.16,4.79-4.26,1.11-.1,1.72.02,2.34.07,1.57.16,3.32.39,4.89.43,1.66.11,3.02.04,4.64-.14.66-.08,2.13-.1,2.8.19,1.51.44,2.95,1.21,4.11,2.24,1.57,1.32,2.89,3.71,4.1,4.6.14.1.28.1.48.15.18,0-.28.03-.04,0,2.84-.55,5.06-1.07,8.08-1.26,3.84-.26,6.44,3.03,7.42,6.13h0Z"/>
    </g>
  </g>
</svg>