<?xml version="1.0" encoding="UTF-8"?>
<svg id="_Слой_2" data-name="Слой 2" xmlns="http://www.w3.org/2000/svg" viewBox="0 0 271.58 319.92">
  <defs>
    <style>
      .cls-1 {
        fill: #83bb33;
      }

      .cls-1, .cls-2 {
        stroke-width: 0px;
      }

      .cls-2 {
        fill: #020000;
      }
    </style>
  </defs>
  <g id="_Новоорский" data-name="Новоорский">
    <g>
      <path class="cls-1" d="M175.84,9.84c-5.02,3.88-3.98,6.44-10.5,13.5-2.13,2.31-5.64,6.04-11,9-1.86,1.03-4.76,2.41-14.5,4.5-11.71,2.51-12.88,1.65-24,4-8.35,1.76-8.76,2.47-15.5,3.5-4.33.66-8.64,1.57-13,2-4.17.41-6.89.44-9.5,2.5-.67.53-3.36,2.65-3.5,5.5-.2,4.11,5.14,5.32,10,11,1.61,1.88,3.76,8.61,8,22,2.21,7,3.15,10.28,1.5,13.5-1.53,3-3.54,2.47-5.5,5.5-3.74,5.77,1.36,11.02-1.5,16.5-3.32,6.37-13.58,5.79-13.5,8.5.07,2.3,7.41,1.26,11.5,6.5,3.45,4.42,3.48,11.88,3.5,18.5,0,1.84-.08,4.16,1,7,1.33,3.51,3.48,5.32,4.5,6.5,3.83,4.43.64,11.31-1,25-1.77,14.79-2.72,22.3-6,28-2.63,4.57-7.25,12.58-16,14-6.23,1.01-12.95-1.74-17-6-5.06-5.32-3.22-10.16-7.5-12.5-4.42-2.41-8.06,1.84-17.5,3.5-13.83,2.43-22.46-3.83-24.5-.5-.44.71-.76,2.17,8,16,6.03,9.51,7.6,11.05,8,15,.5,4.93-1,11.64-5.5,14.5-3.89,2.47-6.82.02-9.5,2.5-2.42,2.23-1.62,5.68-1,16,.84,13.88-.17,14.83,1.5,16.5,4.02,4.02,10.07-1.32,26,0,6.8.56,12.95,2.13,16,3,9.23,2.62,9.64,4.38,15,5,8.56.99,9.46-3.28,20-4,9.96-.68,11.22,2.98,22,2,8.64-.79,8.22-3.18,14-3,13,.4,18.22,12.6,25,10,2.65-1.01,4.76-4.68,9-12,2.44-4.22,3.17-6.52,6-8,3.56-1.86,5.87-.03,8-2,2.92-2.69,1.51-8.78,1-11-1.51-6.54-4.81-8.55-4-10,2.27-4.07,28.82,10.82,35,4,4.75-5.23-6.02-19.39-1-24,2.6-2.39,6.11.85,16,1,10.69.16,11.43-3.56,23-4,11.21-.43,14.06,2.92,19,0,6.06-3.58,7.36-11.91,8-16,1.9-12.15-4.02-13.42-3-25,.79-9.04,4.71-11.77,7-28,.61-4.34.76-7.18-1-9-4.03-4.14-12.62,2.65-18-1-6.6-4.49,1.31-18.19-6-25-6.76-6.3-21.83-2.32-23-2-5.45,1.5-5.55,3.05-9,3-8.03-.12-16.9-8.68-19-18-1.34-5.94.77-9.11-2-12-3.79-3.96-10.71-1.14-12-4-1.33-2.95,5.92-6.3,6-13,.06-4.68-3.45-5.35-4-10-.37-3.19.86-6.42,12-19,9.4-10.61,10.55-10.61,14-16,1.24-1.93,5.06-8.15,7-17,1.09-4.99,1.78-8.39,0-12-1.78-3.62-5.84-7.05-10-7-2.72.03-3.36,1.53-5,1-3.89-1.24-1.74-10.06-6-13-4.02-2.78-11.7.68-16,4Z"/>
      <path class="cls-2" d="M178.73,13.59c-3.35,2.53-4.71,7.05-7.64,10.27-4.42,5.3-9.45,10.06-15.74,13.18-7.76,3.37-15.73,4.61-23.95,5.97-6.31.75-11.91,1.54-17.97,2.99-3.06.7-6.06,1.64-9.24,2.23-5.53.88-11,1.97-16.53,2.53-2.36.31-5.42.15-7.12,1.55-.72.5-1.64,1.46-1.83,2.22-.01.02,0,.03,0,.02.01-.01-.03,0-.01-.02,0-.02,0-.05-.03-.06.01-.02,0-.03-.01-.04,0,0,.15.24.49.57,2.62,2.27,6.35,4.78,8.65,7.78,1.88,2.56,2.69,5.43,3.72,8.18,1.04,3.02,1.99,6,2.93,8.97l2.8,8.96c1.03,3.54,2.25,7.53,1.27,11.39-.61,2.41-2.04,4.74-4.05,6.18-1.97,1.36-1.98,1.29-2.54,2.06-1.24,1.95-.88,3.34-.5,5.91.24,1.52.59,3.4.42,5.65-.2,4.46-3.65,8.74-7.43,10.53-2.54,1.36-6.09,2.33-7.96,2.96,1.44-1.15,1.22-3.82-.29-4.75,6.18,1.53,11.85,4.01,14.31,11.02,2.05,5.73,1.83,11.78,1.88,17.53-.02,1.86.23,3.52.98,5.18.76,1.79,2.08,3.14,3.46,4.63,2.26,2.41,3.04,6.56,2.78,9.37-.51,6.48-2.17,12.4-2.85,18.71-1.06,7.96-1.65,15.84-4.03,23.67-.75,2.41-1.93,4.92-3.28,7.1-2.2,3.7-4.6,7.12-8.16,10.04-12.13,10.21-31.82,2.68-35.25-12.44-1.04-3.73-3.87-2.24-6.8-1.17-7.65,3.23-16.48,4.25-24.61,2.45-2.78-.43-5.62-1.52-8.26-1.7-.1,0-.05,0,.13-.14.08-.05.15-.16.19-.21l.08-.17c.04-.07.12-.3.14-.41.07-.52-.05-.37.04-.15.9,2.99,2.68,5.97,4.18,8.8.85,1.3,1.33,2.81,2.01,4.19.77,1.34,1.76,2.54,2.61,3.84,2.67,4.01,6.43,8.15,7.03,13.16.87,7.17-1.59,16.31-9.38,18.71-2.15.62-4.22.41-5.01.61-.41.09-.44.16-.58.28-.08.09-.15.17-.22.26-.04.08-.07.15-.09.23-.12.31-.2,1.61-.09,2.98.55,6.1,1.36,12.42,1.62,18.61.1,2.63.19,4.16.27,5.29-.09-.28-.31-.51-.24-.46.05,0,.11.06.13.08.05-.04,0,.03.08,0,.06.04.16.01.24.02.07,0,.1.03.21.02h.32c3.09-.28,6.62-1.22,9.91-1.52,13.97-1.54,27.98,1.57,40.66,7.14,2.72.82,5.52,1.07,8.25.1,1.15-.39,2.62-1.05,4.31-1.64,3.34-1.2,7.03-1.83,10.56-1.95,4.85-.44,10.05,1.26,14.61,2.05,2.56.35,5.36.2,7.95-.16,3.25-.31,5.5-1.89,8.78-2.51,5.95-.9,11.81.69,16.67,3.6,3.07,1.8,5.68,4.03,7.84,5.47,1.26.76,1.93,1.23,2.54,1.11.78-.38,1.57-1.58,2.45-2.84,1.28-2,3.42-5.52,4.66-7.7,3.46-6.85,6.89-10.83,14.88-10.56-.1.02-.23.12-.27.14-.05.06-.05.02-.03.03.28-.4.33-1.14.37-1.82.04-2.23-.61-5.32-1.39-7.41-.76-2.41-3.02-4.61-3.37-7.32-.31-1.83.78-4.12,2.3-5.07,3.36-2.01,6.18-.92,9.27-.26,4.57,1.25,9.03,2.89,13.44,4.15,3.7,1,7.76,2.22,11.08,1.44.25-.1.3-.15.32-.17.02,0,.05-.03.12-.28.39-1.88-.63-4.85-1.23-7.04-.98-3.44-2.1-6.32-2.17-10.25-.21-4.01,2.92-8.4,7.27-8.44,2.97-.05,5.61,1,8.28,1.39,4.04.67,8.55.86,12.42,0,2.86-.67,5.98-1.91,9.06-2.49,5.11-.96,10.02-1.01,15.08-.45,2.63.25,5.78,1.2,8,.83,6.02-2.04,7.3-10.27,8.04-16.01.54-4.47-.9-8.1-2.28-12.39-1.51-5.02-1.27-10.56-.06-15.57.85-3.37,2.09-6.28,3.01-9.1,1.44-4.24,2.4-8.6,3.06-13.03.32-2.06.65-4.11.48-6-.08-.71-.23-.99-.67-1.29-1.32-.47-2.76-.02-4.61.33-4.41,1.12-10.53,2.15-14.23-1.98-5.37-5.81-1.21-15.2-3.62-21.43-.69-1.7-1.99-2.7-3.6-3.39-2.51-.99-5.37-1.1-8.46-.91-4,.37-8.18,1.06-11.83,2.83-1.55.84-3.93,2.49-6,2.55-11.99.27-21.58-10.46-24.34-21.37-.68-2.64-.77-5.5-.67-8.18.02-.97-.27-1.67-.17-2.26.02-.06-.16-.23-.33-.37-2.05-1.13-5.26-.57-7.84-1.21-5.3-1.15-7.04-6.92-3.91-11.13,1.33-2.02,3.71-4.28,4.28-6.48.12-.54.18-1.08.12-1.62-.16-.86-.4-.95-1.07-1.95-1.18-1.45-2.49-4.02-2.82-6.06-1.38-6.3,3.13-11.81,6.57-16.33,4.04-5.07,8.14-9.74,12.46-14.43l3.19-3.39c5.28-5.59,8.43-12.72,10.18-20.11.53-2.71,1.62-5.92.77-8.39-.74-2.03-3.23-4.55-5.43-4.66-.25.01-.18-.02-.48.08-.17.06-.47.22-1.28.52-.41.14-.93.31-1.59.39-1.84.32-3.79-.35-5.25-1.31-1.95-1.38-3.15-3.67-3.64-5.92-.68-2.87-.67-5.08-1.56-6.86,0-.08-.03.01,0-.04-.02,0-.01-.02-.06-.04-.07,0-.08-.07-.23-.07-.06,0-.11-.03-.17-.05-3.32-.13-7.08,1.85-9.87,3.88h0ZM172.94,6.09c6.61-5.24,19.22-10.17,24.76-.88,1.8,2.74,1.96,7.05,2.91,9.68.01.07,0-.03-.03-.06-.04-.09-.07-.07-.16-.2-.41-.42-.79-.65-1.45-.75-.54-.11-1.29.06-1.33.09,10.41-5.06,22.54,5.97,21.6,16.67-.96,10.48-4.67,20.28-10.82,28.76-1.8,2.48-4.62,5.17-6.69,7.35-4.19,4.37-8.38,8.97-12.17,13.55-1.56,1.93-3.59,4.47-4.54,6.53-.31.75-.4,1.03-.28,1.72.13.69.23.98,1.13,2.28,4.55,5.72,2.95,13.32-1.53,18.42,0,0-1.49,1.8-1.49,1.8l-.27.35c-.09.12-.18.23-.22.29l-.14.21s0,.02-.02.02c.21-.52.19-1.32-.08-1.88-.23-.63-.8-1.22-1.39-1.43,1.28.29,3.15.2,4.72.48,4.72.41,10.12,4.3,10.48,9.65.08,3.12-.44,5.7.54,8.58,1.83,6.17,7.98,13.09,14.77,13.37.32.01.27.23.67.23.41-.01,1.2-.4,2.03-.78,1.68-.75,3.45-1.31,5.24-1.73,10.15-2.24,25.28-2.81,29.65,8.86,1.26,3.61,1.08,7.2.88,10.71-.06,2.56-.58,5.66.15,7.83.71,1.79,2.03,1.89,4.1,1.76,3.14-.29,6.05-1.54,9.71-1.4,3.8-.02,7.48,3.32,7.77,7.2.37,2.74-.12,5.38-.46,7.9-.69,4.79-1.74,9.56-3.28,14.16-1.98,5.77-4.11,10.83-3.52,16.76.16,2.66,1.09,5.04,2.16,8.26,1.09,3.25,1.51,7.1,1.19,10.53-.87,8.71-3.48,19.51-13.28,22.34-5.05,1.05-9.81-1.09-14.77-.85-2.88-.03-5.79.19-8.47.76-4.53,1.06-9.24,3.23-14.09,3.35-3.42.23-6.78.03-10.15-.48-2.26-.28-4.6-1.07-6.62-1.19,0,.01-.03,0-.02,0,.09,0,.2-.04.27-.11.03,0,.06-.01.07-.04.01,0,.02,0,.02,0,.02,0,.02-.02,0,.02-.29,1.19.15,2.72.55,4.34.81,3,1.97,5.95,2.65,9.19,1.15,4.56.24,10.63-5.22,12.64-5.73,2.02-11.21.24-16.38-.98-5.55-1.35-10.95-3.81-16.47-4.47,1.29-.19,2.66-1.87,2.41-3.5-.02-.25-.07-.42-.14-.62-.04-.07.01.01.01.01.02.03,0,.02.05.09,5.54,7.72,9.54,26.76-4.63,26.95-1.95.03-3.01.45-3.97,2.15-1.16,2.19-3.21,5.71-4.51,8.02-2.49,4.08-4.97,9.25-9.95,10.87-7.1,2.29-12.61-4.17-18.04-7.27-3.1-1.8-6.77-2.89-10.09-2.38-1.17.17-2.3.87-3.68,1.3-5.26,1.72-10.58,2.11-16.04,1.52-3.23-.35-6.16-1.46-9.1-1.79-3.83-.42-7.9,0-11.57,1.26-2.91,1.07-6.86,2.84-10.37,2.78-2.03.04-3.81-.12-5.75-.48-4.78-1.04-8.85-3.67-13.55-4.79-9.79-2.85-20.13-4.04-30.14-2.33-3.07.41-7.1,1.29-10.31.09-3.28-1.11-5.97-4.25-5.89-7.89-.02-6.55.05-12.71-.26-19.24-.02-4.18-.87-9.17,2.21-12.73,1.25-1.46,3.47-2.55,5.24-2.62,1.72-.12,2.91.12,4.26-.1,4.84-1.32,6.21-7.62,6.08-12.15-.1-2.81-1.69-5.05-3.11-7.51,0,0-4.8-8.02-4.8-8.02-3.16-3.69-5.6-7.72-7.8-12.13-.35-.69-.6-1.54-.75-2.33-.3-1.48.48-3.25,1.78-4.14,1.63-1.23,3.93-1.11,5.47-.9,2.36.32,4.67.82,6.94,1.1,5.74.78,11.4.3,16.89-1.37,3.31-.98,5.53-2.36,9.28-3.13,3.57-.74,7.73,1.01,9.67,4.14,1.41,2.2,1.93,4.97,2.86,6.88,2.68,5.51,9.82,8.78,15.63,7.96,5.96-.84,9.93-5.95,12.84-11.04,2.68-4.27,3.58-9,4.39-14.08.64-4.31,1.25-9.32,1.75-13.72.53-4.64,1.45-9.5,2.21-13.97.3-2.66,1.2-5.89-.36-7.92-4.05-3.8-6.66-9.38-6.48-15-.19-5.61.46-13.17-2.99-17.42-2.39-2.66-6.3-2.39-9.54-4.24-1.2-.64-2.57-2.55-2.55-4.15-.13-1.67.75-3.45,2.01-4.42,1.84-1.43,3.67-1.76,5.67-2.46,5.59-1.76,7.59-3.48,6.29-8.96-1.44-6.26.27-12.63,6.23-16.07.29-.24.33-.29.51-.55.18-.29.32-.65.39-.95.37-2.26-.58-4.52-1.2-6.86-2.16-6.64-4.67-15.21-7.28-21.6-.26-.61-.56-1.21-.74-1.48-2.78-3.71-7.86-5.46-10.31-10.04-2.94-6.18,2.36-12.84,8.03-14.93,3.78-1.33,6.57-1.04,10.14-1.61,4.21-.63,9.38-1.54,13.52-2.26,2.93-.56,5.87-1.52,8.86-2.21,6.03-1.52,12.73-2.5,18.76-3.26,7.02-1.2,14.66-2.46,21.15-5.26,5.95-3.11,11.26-8.47,14.85-14.07,1.44-2.64,4.08-6.71,6.82-8.54h0Z"/>
    </g>
  </g>
</svg>