<?xml version="1.0" encoding="UTF-8"?>
<svg id="_Слой_2" data-name="Слой 2" xmlns="http://www.w3.org/2000/svg" viewBox="0 0 268.54 214.43">
  <defs>
    <style>
      .cls-1, .cls-2 {
        stroke-width: 0px;
      }

      .cls-2 {
        fill: #457a1f;
      }
    </style>
  </defs>
  <g id="_Октябрьский" data-name="Октябрьский">
    <g>
      <path class="cls-2" d="M121.06,18.25c-3.64-2.36-10.71-1.03-14,3-3.33,4.09.25,7.23-3,15-1.16,2.76-3.25,7.77-8,10-2.88,1.35-4.92.83-7,3-2.17,2.26-1.11,4.02-3,6-2.61,2.74-7.57,3.29-11,2-2-.75-1.99-1.56-4-2-1.44-.31-2.13-.05-7,1-4.32.93-5.2,1.03-6,2-.89,1.09-.53,1.87-1,4-1.15,5.26-4.65,6.45-4,9,.52,2.04,2.82,1.6,4,4,1.38,2.82-.18,6.71-2,9-2.28,2.87-4.94,3.17-10,5-3.11,1.13-16.21,5.86-16,10,.15,3.01,7.21,2.94,8,7,.74,3.82-4.3,10.04-10,12-1.8.62-3.59.78-4,2-.59,1.77,3,2.95,4,6,1.22,3.73-2.17,7.87-8,15-4.08,4.99-6.12,7.48-9,9-1.87.98-3.49,1.45-4,3-.87,2.67,2.8,4.78,2,8-.05.2-.07.2-3,4-1.8,2.34-2.71,3.53-3,5-.15.74-.07.95,0,3,.15,4.85-.27,4.65,0,6,.75,3.74,3.7,3.77,4,7,.22,2.4-1.4,3.11-1,5,.57,2.72,4.65,4.64,8,5,6.67.72,13.38-4.43,17-9,2.74-3.45,3.27-6.03,5-6,3.31.05,4.03,9.51,8,10,3.52.43,5.14-6.76,10-7,4.11-.2,5,4.83,9,5,5.12.22,6.07-7.91,16-15,5.31-3.79,6.08-2.21,11-6,8.83-6.8,8.86-13.83,13-14,3.73-.16,3.79,5.56,13,16,6.23,7.07,10.56,9.38,12,16,.79,3.62-.22,4.2,1,7,2.27,5.19,6.32,4.49,12,11,3.05,3.5,3.57,5.64,6,6,2.71.4,3.64-2.02,7-2,4.27.02,6.59,3.95,8,3,1.05-.71.57-3.41,0-5-1.08-2.98-3.02-3.36-3-5,.02-2.2,3.51-4.72,7-5,5.12-.41,8.43,4.18,10,3,1.66-1.25-1.57-6.78,0-8,1.88-1.46,7.11,5.98,13,5,4.08-.68,4.03-4.67,9-8,8.19-5.48,17.15-.57,19-4,2.44-4.53-12.53-14.26-10-20,2.03-4.61,12.84-1.01,18-8,2.6-3.53.49-5.3,3-11,2.77-6.29,8.87-12.09,16-14,6.85-1.83,9.13,1.4,14-1,7.73-3.82,9.85-15.88,8-17-2.04-1.23-8.26,11.21-16,10-4.22-.66-4.94-4.76-11-6-4.99-1.02-6.29,1.39-9,0-5.83-2.99-2.31-15.44-8-18-1.98-.89-4.74-.43-6,1-2.55,2.9,2.17,8.52,0,11-2.04,2.33-9.33.88-14-3-3.96-3.29-4.4-6.95-7-7-2.73-.06-3.18,3.97-7,5-3.73,1.01-8.93-1.32-10-5-.94-3.26,1.66-6.56,2-7,2.37-3.01,4.81-2.41,6-5,1.03-2.22.38-5.16-1-7-2-2.67-4.38-1.5-7-4-3.05-2.91-4.04-8.53-2-11,1.53-1.86,4.02-1.02,5-3,.72-1.46.23-3.68-1-5-2.27-2.44-5.82-.52-8-3-.87-.99-1.63-2.82-1-4,1.67-3.13,11.86.54,13-2,.48-1.08-1.21-2.08-3-6-.43-.94-1.8-3.96-2-7-.41-6.21,4.25-9.41,3-11-1.34-1.7-8.12.13-13,4-3.41,2.7-4.72,5.46-6,5-1.36-.49-1.57-4.18-1-7,.84-4.2,3.13-5.18,3-8-.1-2.18-1.57-3.5-4-6-8.69-8.92-10.1-12.65-12-12-2.19.75-.26,5.69-4,11-2.25,3.19-5.24,4.65-8,6-3.16,1.54-8.3,4.1-12,2-1.71-.97-1.36-1.94-3-3Z"/>
      <path class="cls-1" d="M119.96,19.95c-3.24-1.89-9.35-.2-11.4,2.99-1.3,1.94-.55,3.98-.65,6.46.02,2.58-.55,5.25-1.5,7.67-1.62,4.33-4.38,9.11-8.89,11.35-2.21,1.34-4.95,1.05-6.56,2.59-.74.82-.79,1.1-1.1,2.33-1.78,7.11-11.4,8.79-17.21,5.58-.78-.42-1.18-.96-1.96-1.14-.75-.21-.85-.1-1.85.04,0,0-1.88.39-1.88.39-.98.25-4.77.99-5.78,1.25-.57.13-1.14.32-1.15.35,0,0,.02-.03-.06.07-.06.08-.04.05-.05.08-.04.03-.1.81-.2,1.57-.22,1.55-.65,3.09-1.35,4.54-.79,1.71-2.24,3.37-2.91,4.6,0-.02,0-.02,0,0-.02.02.01.02-.03-.03-.11-.11.05.07.71.43,6.26,3.31,3.99,11.85-.22,15.87-2.29,2.23-5.3,2.99-8.05,3.92-4.75,1.62-9.79,3.49-13.98,6.12-1.08.75-2.07,1.44-2.47,2.25.02.01,0-.01.01-.13-.03-.1-.07-.2-.08-.19.03.01.01.02.05.06,2.2,1.47,6.06,2.38,7.42,5.35,1.66,3.28-.24,7.22-2.28,9.78-2.73,3.49-6.65,6-10.99,7.01-.24.08-.44.16-.52.2-.09.05,0,.02.1-.15.08-.11.19-.45.1-.73-.06-.23-.08-.18.02-.06,6.49,5.56,4.75,10.39.21,16.38-3.46,4.37-6.54,8.36-10.45,12.43-1.03,1-2.22,1.99-3.59,2.74-1.11.63-2.31,1.06-3.14,1.67-.2.18-.23.24-.27.42-.03.12-.01.36.18.8.78,1.4,2.62,4.55,1.88,6.83.04-.06-.16.61-.31.82-.12.2-.18.27-.24.36l-.33.44c-1.29,1.79-4.09,4.93-4.97,6.79-.08.2-.15.39-.19.58-.05.24-.05.26-.05.55.09,1.96.15,4.11.03,6.12,0,0-.07.97-.07.97-.05.63.22,1.3.47,1.83.66,1.05,1.48,1.66,2.39,2.84,1.14,1.53,1.48,3.59.97,5.45-.26.91-.68,1.62-.79,1.96-.1.32-.1.36,0,.69.18.56.89,1.32,1.82,1.87,6.56,3.99,14.27-.48,18.84-5.56,1.29-1.4,2.34-2.9,3.34-4.54.83-1.48,2.44-3.67,4.57-3.2,1.14.2,2.04.94,2.64,1.78,1.64,2.42,2.19,4.94,3.61,7.18.46.73,1,1.31,1.76,1.23,1.86-.63,3.27-3.59,5.1-4.99.88-.8,2.03-1.37,3.08-2.03,2.09-.76,4.63.18,6.15,1.62,1.79,1.54,2.77,3.35,4.98,2.81,1.8-.72,3.1-3.21,4.4-4.89,1.55-2.2,3.31-4.42,5.32-6.39,2.05-2.02,4.2-3.75,6.69-5.25,2.36-1.45,4.81-1.87,6.94-3.44,4.17-2.84,7.11-6.78,9.61-11.16,2.09-4.06,6.8-6.38,10.48-2.79,1.34,1.43,1.95,2.62,2.69,3.77,1.99,3.34,4.11,6.46,6.6,9.42,3.45,4.26,7.3,7.32,10.89,11.76,2.38,3.06,3.82,7.08,3.85,10.97-.42,4.33,3.28,5.94,6.5,8.11,3.48,2.35,6.46,5.93,8.78,9.21.53.59.51.69.99.73.12,0,.19,0,.57-.18,3.91-2.61,8.52-2.35,12.24.28.69.44,1.27.89,1.67,1.09-.36-.14-.86-.1-1.29.04-.6.14-1.19.95-1.19,1.18.03-.55-.06-1.09-.22-1.72-.44-2.08-1.78-2.57-2.81-4.4-1.86-3.47,1.11-7.16,4-8.67,4.62-2.79,10.04-1.69,14.18,1.09.28.16.51.29.71.39.18.1.35.14.19.1-.46-.03-1.03.02-1.45.4-.36.21-.59.68-.69,1.01-.11-1.61-.92-3.32-.92-5.39-.15-2.09,1.57-4.46,3.94-4.4,1.75.11,2.29.53,3.43,1.18,2.44,1.54,4.77,3.7,7.5,4.08.68.1,1.38-.03,1.92-.33.89-.42,2.55-3.54,4.91-5.6,4.43-4.24,11.34-5.32,17-4.81,1.39.05,2.72.14,3.44-.07,0,.02-.18.1-.24.23-.18.19-.14.47-.15.3-.11-.69-.77-1.62-1.24-2.32-3.14-4.83-11.69-11.25-8.56-18.04,2.28-4.16,7.44-3.87,11.15-4.64,4.41-.69,8.22-2.78,8.03-7.41,1.07-11.71,12.43-22.37,24.22-22.84,2.69-.16,4.92.8,7.37.39,5.28-1.47,8.42-8.05,8.48-13.24,0-.16-.07-.28,0-.09.02.03.05.09.13.23.06.08.17.22.38.4.3.29,1.11.54,1.54.47.37-.03.54-.14.56-.14.04-.03.04-.02.02,0-.02.01-.02,0-.05.03-2.95,2.67-5.34,6.05-8.88,8.21-4.73,3.14-10.09,2.63-14.1-1.45-2.4-2.22-5.41-3.3-8.6-2.64-.56.11-1.2.31-2.2.44-3.11.53-6.4-1.97-7.52-4.53-1.83-3.75-1.72-8.6-2.77-11.99-.65-1.83-1.12-2.41-2.94-2.33-.44.04-1.15.27-1.31.53-.27.28.29,2.75.61,3.63,3.05,9.21-5.14,10.92-12.16,8.17-2.82-1.04-5.48-2.63-7.68-4.88-1.49-1.48-2.59-3.34-3.74-4.82-.07-.11-.2-.21-.26-.26-.04-.03.02.02.08.02.02,0,.03.02.04,0,.01.01.03.01.03,0,.02.01.05,0,.06-.02,0,.02.02-.02,0,0-1.28,1.15-2.26,3-4.44,4.16-1.74.93-3.68,1.2-5.38,1.04-9.67-1.07-13.38-10.09-6.69-17.31,1.27-1.57,3.64-2.44,4.81-3.36.98-1.21.36-4.12-.93-5.13-.81-.56-1.74-.67-2.93-1.12-4.94-1.88-7.54-7.47-7.12-12.51.18-1.96,1.09-4.15,2.92-5.32,1.22-.87,2.66-1.02,3.42-1.38-.02.03-.07.06-.05.06.21-.51-.05-1.39-.45-1.93-.92-1.01-2.3-.64-3.75-.95-1.78-.1-4.2-1.53-5.08-3.17-1.79-2.53-1.69-6.7,1.59-8.05,3.36-1.32,6.79-.35,9.97-.37.55.01,1.09-.04,1.3-.09-.38.13-.86,1.02-.69,1.58.1.38.07.18-.06,0-.57-.8-1.12-1.7-1.65-2.58-2.99-5.18-4.81-11.9-1.87-17.51.32-.69.67-1.32,1-1.92.33-.58.64-1.17.74-1.43,0,0-.02.05-.02.08-.01.06.02.02,0,.16,0,.11.01.22.05.32.1.54.58.87.65.9.23.09-.18-.06-.63,0-4.55.58-8.89,3.25-12,6.66-1.18,1.19-2.37,2.88-4.46,2.91-4.91-.46-4.23-7.4-3.42-10.81.39-1.52,1.15-3.06,1.87-4.22.55-.98.95-1.42.93-2.38-.3-2.06-2.4-3.29-3.74-4.95-2.69-2.85-5.49-6.02-7.97-9.08-.57-.7-1.13-1.34-1.73-1.89-.14-.14-.2-.11-.04-.09.24.09.5,0,.67-.08.07-.08.17-.1.22-.2.04-.06.05-.04.04-.07-.43,1.55-.46,3.73-1.04,5.54-.82,2.93-2.52,5.64-4.79,7.65-2.28,2.05-4.94,3.24-7.3,4.39-2.62,1.25-5.31,2.4-8.37,2.53-2.43.16-5.61-.95-6.91-3.29-.31-.47-.4-.54-.8-.84h0ZM122.17,16.54c.71.41,1.56,1.31,1.97,1.97.4.6.44.62.78.86,2.93,1.57,6.22-.15,9.34-1.54,2.4-1.17,4.63-2.23,6.31-3.76,1.69-1.52,2.89-3.51,3.48-5.69.62-1.96.35-3.91,1.19-6.16.66-1.54,2.41-2.56,4.12-2.1,1.95.57,2.8,2.05,4.03,3.34,0,0,2.58,3.01,2.58,3.01,1.71,1.97,3.48,3.88,5.31,5.75,2.04,2.13,4.98,4.49,5.12,7.84.21,1.7-.69,3.76-1.52,5.04-1.52,2.48-2.14,5.52-1.38,8.28.02.08.05-.05-.32-.29-.21-.15-.54-.22-.8-.22-.32,0-.5.07-.59.12-.14.08.05-.05.18-.18.34-.33.79-.83,1.25-1.33,4.11-4.49,9.69-8.03,15.96-8.39,2.39-.05,5,1.46,4.6,4.36-.03.19-.06.42-.11.57l-.13.41c-.62,1.61-1.3,2.44-1.9,3.79-1.58,3.09-1.12,6.41.16,9.54.66,1.7,1.48,3.25,2.52,4.77.56,1.01,1.01,1.16,1.36,2.72.45,2.05-1.33,3.94-3.05,4.28-3.52.81-7.25-.54-10.46.2-.03.03,0,.02.1-.1.11-.1.16-.29.17-.33,0-.06,0,0,.02.09.53,1.9,1.31,1.57,3.76,1.89,4.15.2,7.41,4.26,6.73,8.45-.29,2.56-2.52,4.22-4.56,4.63-.65.18-.97.31-1.1.42-.67.6-.7,1.69-.59,2.9.22,1.81,1.19,3.96,2.64,5.03,1.08.92,3.99,1.14,5.46,2.51,3.61,3.17,4.83,8.77,1.63,12.82-1.19,1.37-2.66,1.83-3.86,2.61-1.4.87-2.75,3.06-2.96,4.65-.21,1.71.91,2.81,2.4,3.63,1.68.94,3.92,1.09,5.06.42,1.33-.73,2.36-2.86,4.17-4.01,1.97-1.31,4.89-.95,6.5.73,1.64,1.62,2.56,3.69,4.08,5.15,2.24,2.29,5.65,3.94,8.87,4.35.26.03.52.06.76.05.25.02.48,0,.69-.02.43-.02.77-.13.87-.19,0-.01.07-.02.04-.02-.02,0-.04.02-.04.05-.09.04-.09.15-.11.16-.21-3.07-2.59-6.98-.49-10.32,1.83-2.88,5.22-3.64,8.31-3.03,2.86.42,5.39,3.6,5.93,5.95.95,3.06,1.07,5.75,1.55,8.15.44,1.75.75,3.8,2.27,4.49.23.08.23.09.55.07.32-.03.95-.2,1.69-.36,3.16-.72,6.59-.22,9.55,1.2,2.11,1,3.64,2.52,5.26,3.82,5.49,4,10.85-5.67,14.97-8.48.8-.53,2.06-.94,3.21-.59.86.21,1.5.81,1.92,1.39,1.64,2.67.75,5.82.13,8.48-1.79,5.96-5.55,11.74-12.16,13.41-2.75.71-5.87-.32-8.46-.25-2.13.03-4.39.69-6.49,1.67-6.87,3.36-12.29,10.22-12.31,18.09-.8,6.07-7,9.73-12.54,10.48-2.06.47-5.19.54-6.77,1.4-.23.15-.24.19-.28.25-.16.78.27,1.6.95,2.75,2.78,5.07,15,14.16,6.81,19.57-2.11,1.04-4.28.77-6.37.73-2.63-.13-4.96-.13-7.12.39-2.14.49-4.1,1.51-5.69,2.95-2.61,2.46-4.41,6.8-8.55,7.33-5.22,1.04-9.44-2.63-13.38-5.1-.1-.06-.16,0,.31.01.54,0,1.48-.41,1.72-1.02.26-.43.18-.61.2-.5,0,.16.08.72.22,1.3.27,1.2.71,2.71.71,4.07.14,2.04-1.36,4.27-3.47,4.49-2.74.4-5.08-2.1-7.29-2.76-2.3-.87-5.28-.13-6.7,1.84-.03.04.02-.02.02-.15.02-.13-.06-.45-.12-.55-.16-.19.33.37.87.97,2.36,2.72,4.16,8.06,1.76,11.28-.71.96-2.44,1.66-3.67,1.37-.4-.04-.87-.23-1.23-.37-2.44-1.15-4.45-3.64-7.11-2.38-1.29.61-3.08,1.83-4.97,1.7-4.03.14-6.1-3.62-8.08-6.17-1.53-1.89-3.19-3.52-5.14-4.87-2.31-1.64-5.17-3.01-6.92-5.71-1.42-1.94-2.27-4.98-2.05-7.3.03-5.65-3.89-9.16-7.74-13.04-3.84-3.87-7.42-8.19-10.33-12.83-1.26-1.85-2.65-4.75-3.93-6.24-.23-.2-.21-.16-.18-.18-.06,0-.21.02-.28.03-.21.05-.96.9-1.62,1.94-2.87,4.78-6.6,9.34-11.37,12.39-3.37,2.22-7.38,2.74-10.45,5.4-4.29,2.98-7.18,7.17-10.46,11.26-2.3,2.94-6.15,4.3-9.48,1.96-1.94-1.35-2.59-2.82-4.25-3.74-.36-.16-.73-.24-1.16-.25-.41.11-.87-.08-1.4,0-1.66.75-2.54,2.23-3.8,3.7-2.28,3.19-5.95,4.5-8.66.61-1.61-2.14-2.3-4.97-3.76-6.89-.15-.19-.29-.31-.4-.4-.1-.06-.14-.06-.14-.06-.02,0,.05,0,.07,0,.01-.01-.09.06-.22.23-.27.33-.61.88-.94,1.44-3.91,6.69-10.32,12.49-18.32,13.49-5.89.68-15.57-3.65-11.55-10.78.32-1.47-.44-2.32-1.57-3.38-1.11-1.09-2.14-2.83-2.38-4.44-.16-.7-.1-1.74-.04-2.46.07-1.22.04-2.5,0-3.79-.05-1.55-.26-3.32.44-4.76.72-1.65,1.62-2.7,2.41-3.79l2.42-3.17.59-.78.27-.36s.07-.1.03-.05c-.06.07-.22.57-.16.35.08-.31.05-.59-.05-.97-.44-1.51-2.61-3.96-2.13-6.36.35-2.92,3.33-4.06,5.45-5.15,3.16-1.91,5.25-5.06,7.72-7.96,1.67-2.06,3.34-4.11,4.87-6.16,2.02-2.89,4.98-6.49,1.4-9.3-.81-.88-2.17-1.76-2.52-3.4-.53-2.3,1.41-4.19,3.32-4.66,3.45-.8,6.58-2.73,8.76-5.55.86-1.24,2.41-3.51,1.75-4.8-.21-.58-1.26-1.12-1.94-1.48-1.85-.9-5.64-2.21-5.94-5.11-.98-6.91,14.53-11.61,19.59-13.56,2.17-.8,4.63-1.31,6.2-2.84,1.36-1.34,2.49-3.65,2.59-5.44,0-1.47-.22-1.99-1.43-2.65-1.36-.62-2.97-2.18-3.11-3.86-.41-1.52.64-3.72,1.38-4.58,1.55-2.09,2.5-3.59,2.81-6.04.1-.55.04-1.12.37-2.37.43-1.28,1.12-2.2,2.27-2.94,1.74-.94,2.96-1,4.6-1.41,0,0,3.87-.85,3.87-.85,1.63-.29,2.8-.76,4.66-.65,1.7.06,3.4.96,4.68,1.91,2.68,1.41,7.28,1.1,9.25-1.4.55-.89.5-2.19,1.17-3.43.88-1.78,2.17-3.08,3.91-3.99,1.85-.97,4.1-1.05,5.63-1.92,3.09-1.56,4.77-4.43,6.24-7.73,1.07-2.3,1.7-4.37,1.78-6.74.1-1.87-.22-4.48.52-6.57,2.58-6.7,12.34-9.8,18.45-6.19h0Z"/>
    </g>
  </g>
</svg>