<?xml version="1.0" encoding="UTF-8"?>
<svg id="_Слой_2" data-name="Слой 2" xmlns="http://www.w3.org/2000/svg" viewBox="0 0 417.29 334.94">
  <defs>
    <style>
      .cls-1 {
        fill: #aad320;
      }

      .cls-1, .cls-2 {
        stroke-width: 0px;
      }

      .cls-2 {
        fill: #020100;
      }
    </style>
  </defs>
  <g id="_Оренбургский" data-name="Оренбургский">
    <g>
      <path class="cls-1" d="M79.25,9.54c-1.25,1.8-.91,3.11-1.5,6.5-.66,3.79-1.32,7.61-3.5,8.5-2.21.9-3.76-2.12-6.5-1.5-3.3.75-5.06,6.08-5.5,9.5-.5,3.95.86,4.47,1,10,.11,4.2.2,7.93-2,11-2.76,3.85-6.28,2.67-8,6-1.82,3.53.04,8.89,3,12,1.62,1.7,3.52,2.69,15,5,10.72,2.16,13.54,2.2,17,5,1.46,1.18,5.46,4.42,5,8-.56,4.36-7.19,4.96-9,11-.65,2.18-.35,3.98,0,6,1.37,8.01,6.36,9.52,10,17,4.32,8.86,2.53,17.45,2,20-.72,3.45-1.86,8.94-6,11-2.77,1.38-4.17-.14-10,0-5.8.14-6.09,1.67-14,3-9.34,1.58-13.25.12-14.5,2.5-1.58,3.02,4.04,6.66,2.5,10.5-1.55,3.86-9.43,5.67-13,3-1.97-1.48-2.38-4.15-3-4-.74.18.67,3.86-1,7-1,1.88-3.35,2.94-8,5-4.42,1.95-6.63,2.93-9,3-1.45.04-6.61.19-9-3-2.59-3.47-.11-8-2-9-1.58-.84-5.21,1.38-6.5,4.5-1.14,2.76,0,5.15,2.5,11.5,4.79,12.18,3.43,10.57,6,16,4.1,8.67,5.42,7.84,8,14,2.82,6.74,1.87,9.25,4,21,.11.58,1.81,9.84,5,20,4.34,13.84,6.37,13.2,10,25,4.14,13.46,2.15,16.39,7,25,2.27,4.03,7.28,12.92,14,13,6.6.08,10.14-8.41,14-7,3.42,1.25.91,8.02,5,13,4.67,5.69,14.38,4.7,31,3,10.46-1.07,15.8-1.67,21-5,5.29-3.39,13.18-10.81,12-18-.77-4.7-5.07-7.09-4-9,1.13-2.03,6.01.52,12-1,7.43-1.88,11.63-8.76,13-11,4.31-7.06,1-8.86,5-21,3.26-9.92,6.61-12.17,6-19-.48-5.34-2.73-6.31-2-10,1.41-7.1,11.74-13.41,18-11,6.51,2.5,5.12,13.06,10,14,6.93,1.33,15.17-18.91,21-17,1.08.35,2.4,1.58,3,3,.93,2.19-.37,3.61,0,6,.41,2.65,2.73,5.68,5,6,5.35.75,9.23-13.66,14-13,3.54.49,2.4,8.55,7,11,7.64,4.06,17.97-14.34,33-13,11.23,1,14.88,12.1,22,10,8.52-2.51,6.39-19.32,15-22,8.08-2.52,14.32,10.96,24,9,8.44-1.71,16-14.44,13-22-4.09-10.33-25.44-4.89-31-17-2.64-5.75-1.19-14.32,3-19,4.36-4.87,9.91-3.54,14-10,1.42-2.25,2.23-4.74,5-6,2.8-1.28,4.37.17,6-1,3.3-2.38-1.37-9.67,2-14,2.98-3.83,11.04-3.8,13-1,1.03,1.48-.04,3.15,1,4,1.86,1.51,5.76-3.39,10-3,6.62.61,7.33,13.5,13,14,2.63.23,3.47-2.46,14-14,5.1-5.6,6.25-6.44,6-8-.92-5.69-17.65-3.29-22-12-3.32-6.65,3.11-14.71,0-17-2.32-1.71-6.06,2.64-14,4-6.26,1.07-7.94-.95-17-2-15.67-1.83-21.81,2.91-25-1-4.1-5.02,4.01-15.3,0-19-3.79-3.49-13.9,3.02-16,0-1.02-1.47,1.14-3.37,2-8,1.22-6.53-.96-14.36-4-15-3.29-.69-4.18,7.75-11.5,10.5-7.97,2.99-16.45-3.41-19,0-1.09,1.46.43,2.67-.5,4.5-2.6,5.12-16.14-1.14-23.5,5.5-3.58,3.23-1.7,5.89-5,8-6.25,4-12.74-5.71-25-4-7.27,1.01-10.63,5.21-16,3-3.65-1.5-4.81-4.56-7-4-2.69.69-1.95,5.55-6,10-.75.83-3.57,3.92-7.5,4.5-8.05,1.18-17.64-8.66-19.5-15.5-.2-.74-.58-2.45-2-4-2.37-2.6-5.99-2.92-7-3-3.51-.27-4.04,1.14-7,1-4.17-.19-7.17-3.18-8.5-4.5-.88-.88-6.22-6.18-5-12,.52-2.46,2.34-4.31,6-8,4.51-4.56,7.94-6.61,7.5-7.5-.4-.79-3.05.98-7,0-2.69-.67-3.42-1.99-6-2-1.73,0-2,.58-4,1-3.24.67-7.29.11-10-2-1.47-1.15-2.17-2.61-3.5-5.5-3.42-7.42-2.58-11.01-5-12-2.35-.96-3.6,2.13-8,2-3.8-.11-8.05-2.57-10-6-1.09-1.92-.7-2.8-2-4-2.07-1.9-4.07-.61-7-2-3.87-1.84-3.2-5.44-6-6-1.58-.32-4.08,1.45-9,5-2.3,1.66-3.2,1.85-4,3Z"/>
      <path class="cls-2" d="M80.59,10.47c-1.03,1.51-.77,3.62-1.16,5.48-.73,3.23-.8,7.84-4.12,9.91-.73.43-1.77.61-2.63.43-.86-.17-1.46-.51-1.97-.77-1-.58-1.67-.91-2.18-.89-3.08.35-4.26,5.8-4.62,8.51-.28,3.05,1.23,6.13,1.07,9.27.41,5.7-.27,12.89-6.42,15.52-1.09.5-2.05.84-2.65,1.25-2.67,1.96-1.48,6.6.19,9.18,1.91,3.63,5.91,4.19,9.66,5.13,4.09.94,8.26,1.72,12.45,2.5,3.19.65,6.84,1.15,9.77,3.01,3.9,2.68,8.97,7.32,6.65,12.63-1.57,3.2-5.34,4.59-7.13,6.95-2.17,2.53-1.76,5.85-1.01,8.92,1.06,4.57,4.67,7.5,7.35,11.35,1.3,1.87,2.38,3.92,3.22,6.04,2.53,6.35,2.58,13.49,1.04,20.02-.98,4.59-2.7,9.98-7.81,11.9-2.31.9-4.92.05-7.19-.08-1.94-.13-4.01-.1-5.82.22-1.94.36-3.97,1.2-5.97,1.71-5.32,1.45-10.78,1.79-16.15,2.07-.46.04-.9.11-1.16.19-.27.09-.3.14-.28.11-.09.27-.03.41.13.87.27.68.81,1.56,1.36,2.54,3.87,5.99-.25,11-6.44,12.26-4.65,1.08-9.81-.34-11.73-5.25-.09-.2-.25-.46-.18-.35.09,0,.12.57,1.66.66,1.5-.22,1.73-1.43,1.74-1.44.03-.18.02-.13.02-.08.58,6.07-1.01,9.35-6.69,11.82-4.25,1.79-8.03,4.14-12.7,4.73-6.92.58-13.89-2.45-13.17-10.75.02-.54.05-1.09.04-1.48.02-.39-.12-.68.04-.34.05.1.14.15.22.25.09.09.22.12.27.16.09.03.14.04.16.05.05,0,.03,0,.02,0-1.47.31-3.14,2.02-3.61,3.47-.64,2.5.94,4.92,1.83,7.59,1.56,3.97,3.14,7.97,4.48,12.11.63,2.08,1.28,3.74,2.21,5.67,1.72,3.99,4.18,7.15,6.46,10.81,1.13,2.07,1.98,4.09,2.69,6.29,1.38,4.28,1.5,8.66,2.15,12.97,1.16,8.28,3.17,16.52,5.59,24.52,1.79,6.21,4.33,11.67,7.15,17.44,2.63,6.04,4.41,12.37,5.62,18.84.39,2.14.7,4.25,1.12,6.2.81,3.99,2.75,7.45,4.87,10.93,1.96,3.21,4.51,6.61,7.79,8.22,5.69,2.6,8.88-3.94,13.59-6.1,2.11-.98,5.04-.12,6.12,2.05,1.54,3.26.89,7.18,2.49,10.08,3.6,6.83,14.72,4.77,21.33,4.52,4.2-.37,8.45-.81,12.66-1.25,6.25-.72,12.15-1.27,17.19-4.95,4.56-3.36,9.83-8.17,10.14-14.12.01-2.71-1.53-4.52-3.09-6.73-1.75-2.21-1.66-5.46,1.46-6.39,2.11-.47,4.21.05,6.21.09,5.98.44,11.01-2.7,14.56-7.51,1.17-1.57,2.31-3.37,3.09-5.03,1.68-3.64,1.03-8.04,1.97-12.05,1.15-6.38,3.99-12.57,6.6-18.36,1.1-2.65,1.22-5.38.63-8.1-.42-2.14-1.75-4.12-1.88-6.43-.21-3.92,2.12-7.65,4.76-10.18,5.12-5.04,15.06-8.57,20.52-2.09,2.47,2.97,3.14,6.07,4.81,8.97.42.71.93,1.17,1.01,1.04.04-.13-.12-.24.08-.37,3.32-2.61,5.6-7.06,8.73-10.31,2.64-2.57,6.33-6.53,10.68-6.62,4.85.12,8.59,5.41,7.86,10-.07.68-.11,1.13-.09,1.41.02.29.07.42.14.57.26.6.79,1.4,1.29,1.85.21.17.38.34.51.38-.03.15-.21.47-.28.59-.07.1-.13,0-.23.04-.07-.02-.16.02-.19,0,.89-1.01,1.84-2.97,2.73-4.4,2.28-4.06,9.19-10.29,14.03-6.46,2.34,2.14,2.58,5.23,3.84,7.55.61,1.13,1.18,1.98,2.24,1.94.93-.2,2.07-.85,3.09-1.55,5.16-3.74,10.09-7.9,16.77-10.01,10.61-3.52,18.72-.99,26.76,6.32,2.69,2.14,4.65,3.54,7.05,1.33,3.81-4.68,3.85-11.69,7.73-16.87,2.45-3.72,7.83-5.61,12.03-4.01,5.28,1.74,8.99,6.38,13.76,8.34,6.81,2.64,12.61-5.14,14.46-10.88.85-2.97,1.11-6.15-1.31-8.21-4.77-3.34-10.86-3.21-16.89-5.18-11.58-3.01-16.44-12.42-13.63-23.78,1.17-4.95,4.35-9.95,9.03-12.32,2.26-1.21,4.27-1.87,5.64-2.72,1.42-.81,2.38-1.82,3.29-3.2,2.74-5.38,6.01-8.94,12.49-8.33,0,0-.13,0-.26.07-.15.05-.23.12-.33.17-.11.03-.13.18-.22.22-.07.07-.08.2-.1.16,0,.07.08-.69-.03-1.56-.95-6.03-1.06-11.86,5.23-15.09,5.53-2.79,15.57-2.31,16.69,5.19.06.52.06.96.05,1.25,0,.3,0,.51,0,.45,0-.03-.02-.4-.33-.92-.16-.26-.35-.48-.55-.65-.46-.49-1.44-.72-2-.6,1.22-.55,2.39-1.37,3.98-2.11,4.56-2.4,10.08-1.26,13.16,3.34,1.59,2.2,2.51,4.28,3.45,6.06.78,1.3,1.23,2.54,2.29,3.36.04,0-.01-.01-.04,0-.03-.04-.55.04-.64.12-.13.1.13-.11.36-.32l.43-.43.47-.52c4.66-5.55,9.8-11.32,14.71-16.67.29-.33.52-.66.54-.7.03-.04-.07.1-.11.33-.08.27-.07.61-.05.72,0,.23.15.47.23.55-.42-.3-1.29-.64-2.27-.94-4.16-1.2-8.62-1.89-12.83-4.01-8.93-4.48-9.29-12.7-6.64-21.1.24-.91.41-1.87.38-2.06,0-.1-.03.2.32.7.31.45.79.72,1.31.78.38.07.42-.05.14.07-.23.07-.63.23-1.04.41-3.11,1.47-6.28,2.91-9.73,3.6-3.54.87-7.7.73-11.18-.22,0,0-3.04-.69-3.04-.69-8.21-1.8-16-1.33-24.37-.29-5.91.67-10.44-3.18-10.39-9.16-.06-4.37,2.13-8.49,2.35-12.34-.02-.21-.05-.3-.03-.28.01.04.08.16.14.19-3.5-.37-7.63,1.93-11.62,1.8-3.17.03-6.08-2.5-5.85-5.8.32-2.66,1.19-3.55,1.8-5.52,1.1-3.28,1.04-6.98.12-10.31-.33-1.03-.6-1.84-1.16-2.5-.04-.07.03.05.1.05.32.21,1.01.24,1.45.09.27-.07.44-.21.47-.23.08-.08-.14.12-.35.42-4.32,7.22-9.47,11.94-18.42,11.16-3.66-.21-6.87-1.57-10.13-1.78-.06.02.24-.05.5-.29.29-.24.47-.71.49-1.08.02-.18,0-.2.01-.07l.14.88c.69,4.43-3.02,7.75-7.22,8.11-5.91.9-17.05-2.19-19.32,5.02-.95,4.48-5.08,7.46-9.66,7.29-3.09-.13-6.23-1.71-8.44-2.64-5.18-2.45-10.59-3.49-16.05-1.53-2.9.94-6.81,3.07-10.53,2.7-3.43-.19-6.5-2.27-8.85-4.48-.3-.26-.52-.36-.34-.28.21.12.74.08.98-.02.32-.11.53-.44.44-.31-.07.12-.22.4-.38.84l-.53,1.44c-2.25,7.21-9.93,14.27-18.11,12.43-8.49-1.88-16.07-9.7-18.66-17.82,0,0-.19-.68-.19-.68-.11-.36-.23-.67-.37-.96-1-2.38-5.06-3.38-7.28-2.87-5.21,2.13-10.92.12-14.66-3.54-3.72-3.44-6.89-7.83-7.18-13.09-.21-2.81,1.09-6.05,2.87-7.99,3.04-3.54,6.13-6.38,9.51-9.32,0,0,1.13-.99,1.13-.99.18-.16.32-.3.46-.43l.13-.14s0,0,0,.02c-1.04,1.68.35,4.04,2.28,4.06.07.01.17-.01.08,0l-1.48.27c-3.12.65-6.85-.07-9.59-1.68-.72-.37-.91-.38-1.63-.42-.32.01-.3,0-.59.1-4.85,1.91-10.67,1.44-15-1.85-2.2-1.72-3.15-4.21-4.1-6.5-1.3-3.02-2.19-6.39-2.84-9.57-.11-.5-.22-.93-.34-1.28-.12-.34-.21-.48-.23-.53,0-.04-.17-.15-.19-.16-1.02.13-2.29,1.1-3.75,1.48-6.03,1.62-12.68-2.08-15.15-7.67-.43-.93-.43-1.78-1.03-2.44-.56-.56-1.06-.79-1.94-.9-2.05,0-5.06-.59-6.77-2.21-1.44-1.17-2.04-2.8-2.95-4.08-.69-.9-1.5-.42-2.37.02-1.67.92-3.41,2.22-5.11,3.44-1.2.87-2.69,1.93-3.96,2.72-.36.26-.53.43-.73.71h0ZM77.91,8.61c1.5-1.94,3.66-2.63,5.51-4.16,3.1-1.99,8.37-7.07,11.73-2.78,1.4,2.11,2.13,4.28,4.73,4.89,1.34.43,3.4.14,4.93.94,1.28.59,2.43,1.83,2.83,3.14.21.61.32,1.02.5,1.42,1.13,2.51,3.6,4.34,6.18,5.21,1.65.51,3.52.81,5.12.14.79-.31,1.46-.79,2.59-1.42,2.51-1.5,5.67-.29,6.74,2.41,1.53,4.41,2.93,8.95,5.45,12.86,1.3,2.04,3.36,2.67,5.8,2.94,1.2.09,2.48,0,3.61-.34.97-.31,2.67-1.06,3.85-.96,1.98-.16,4.25.81,5.86,1.67,1.46.64,2.83.73,4.45.46.62-.08,1.6-.38,2.53-.37,2.19-.04,4,2.05,3.56,4.15-.44,2.14-2.07,3.1-3.5,4.45-3.08,2.59-6.18,5.66-8.7,8.56-2.29,2.39-1.43,5.57.17,8.1,2.15,3.17,5.66,7.04,9.67,6.81.89-.07,1.51-.47,2.63-.71,1.46-.37,3.02-.37,4.26-.25,4.94.32,9.98,3.53,11.29,8.53,1.6,5.97,7.7,12.38,13.76,13.75,4.98.88,8.82-3.59,10.35-8.11.43-1.11.78-2.41,1.53-3.61,1.98-3.34,6.38-3.72,9.2-1.07,1.46,1.3,3.04,2.72,4.96,2.87,2.64.02,4.69-1.46,7.77-2.41,4.54-1.63,9.86-1.88,14.56-.68,4.32.89,8.55,3.77,12.46,4.35,0,0,.18-.02.18-.02.12-.01.23-.01.35,0,.1-.03.19-.07.29-.09.2.01.39-.2.61-.26.17-.08.32-.21.45-.33.08-.08.1-.13.19-.32.49-1.49.97-3.49,2.21-5.11,1.79-2.41,4.17-3.96,6.85-4.95,5.12-1.75,9.9-1.21,13.9-1.23,1.56-.07,2.89,0,3.73-.4-.05.05-.12.13-.15.23-.06.12-.06.45-.07.25-1.3-4.99,2.91-8.54,7.62-7.82,3.32.36,6.37,1.55,9.33,1.72,4.54.49,7.68-1.72,9.9-5.36,2.05-3.45,5.1-7.83,10.07-5.19,2.52,1.41,3.88,4.4,4.62,6.9,1.77,5.83,1.19,12.6-1.42,18.05-.17.37-.21.72-.15.29,0-.06.01-.32-.04-.47-.08-.57-.46-1.14-.88-1.45-.58-.38-.76-.27-.59-.29,4.37-.42,8.83-2.83,13.51-1.52,3,.69,5.48,3.99,5.43,7.05.19,3.72-1.44,7.25-2.01,10.34-.3,1.18-.45,2.69-.06,3.54.01.06.07.08.09.14.04.01.06.02.07.06.03,0-.02,0,.07.02,2.07.34,5.37-.46,7.94-.61,2.22-.23,4.5-.33,6.76-.33,4.54.03,9.02.47,13.47,1.38,2.21.45,4.32,1.04,5.93,1.23,3.56.38,6.99-.68,10.31-2.12,0,0,2.89-1.34,2.89-1.34.56-.25,1.14-.51,1.93-.75l.61-.18c3.06-.93,6.88.95,7.61,4.23,1.03,3.84-1.42,8.15-1.55,11.55-.83,9.19,13.28,7.7,19.15,11.51,1.7.99,3.56,3.04,3.78,5.3.28,1.15-.21,3.18-.85,4.1-1.04,1.83-2.42,2.92-3.62,4.35-2.9,3.1-5.69,6.19-8.44,9.39-1.52,1.78-3.14,3.72-4.84,5.57-.94.95-1.41,1.49-2.87,2.31-3.87,2.14-8.46-.53-10.35-3.66-2.19-3.05-3.29-7.29-5.83-9.46-.79-.41-1.33-.12-2.41.31-1.55.67-3.41,2.09-5.27,2.55-4.01,1.14-7.24-2.06-6.87-5.86,0-.24,0-.33,0-.34-.03-.03.12.39.23.53.02.04.05.06.08.08-1.46-.76-4.35-.56-5.83.22-1.8.84-1.65,2.42-1.5,4.34,0,0,.35,3.18.35,3.18.14,1.54.16,3.27-.4,4.76-.72,2.31-3.13,4.26-5.58,4.37-1.47.1-1.9-.13-2.82-.01-2.26.54-2.65,2.87-4.07,4.85-1.4,2.19-3.51,4.29-5.83,5.56-2.3,1.32-4.39,1.97-5.88,2.78-4.56,2.36-6.31,8.04-6.11,12.92.85,15.57,24.82,7.85,31.31,20.23,3.03,6.07.82,13.26-2.67,18.49-4.02,6.42-12.32,11.73-20.02,8.38-4.32-1.7-7.6-4.95-11.19-7.17-1.57-.96-2.96-1.44-4.01-1.29-3.13.41-4.21,3.88-5.36,6.81-1.66,4.36-2.4,8.9-6.06,12.71-2.55,2.7-7.2,3.91-10.84,2.17-3.55-1.49-6.53-4.85-9.57-6.81-4.51-3.16-10.28-3.61-15.02-.7-7,3.73-15.43,14.18-24.5,11.91-3.25-.88-5.51-3.95-6.34-6.8-.58-1.67-1-4.26-1.67-5.49-.05-.1-.05-.02-.03-.07.03.1.13.05.2.12.18.05.3.05.34.12-1.55,4.85-4.33,9.33-8.83,12.44-1.1.76-2.89,1.5-4.45,1.48-1.16-.08-2.4-.17-3.54-.26-1.37-.32-2.4-1.54-3.26-2.45-2.54-2.89-3.61-7.42-2.29-11,.11-.38.14-.49.18-.54.11-.03,0-.46-.31-.85-.15-.18-.33-.35-.42-.4-.04-.03-.05-.03.03,0,.09.07.21.04.27.07.19-.02.13.01,0,.09-.16.12-.38.29-.63.55-2.33,2.66-4.44,6.7-7.19,9.49-3.01,3.29-7.33,7.88-12.65,7.02-10.35-2.03-2.82-20.53-17.52-14.56-3.78,1.78-7.89,5.22-8.05,9.62.26,1.94,1.4,3.72,1.73,5.78.48,2.41.6,4.81.13,7.24-1.27,5.42-4.45,9.86-5.97,15.09-1.33,3.96-2.08,7.78-2.3,12-.13,2.23-.6,4.83-1.6,6.9-4.98,10.09-13.23,16.6-24.95,14.67-.48-.03-.98-.07-1.31-.05-.35,0-.51.14-.21-.07.06-.03.12-.09.13-.16.09-.12.13-.32.09-.46.02.07.22.46.48.82,8.7,10.12.79,20.18-8.07,26.59-5.4,4.05-12.8,5.05-19.12,5.7-8.69.78-17.03,2.19-25.89,1.59-8.45-.63-13.48-5.33-14.15-13.92-.2-1.36-.21-2.4-.78-3.28-.46-.21-1.05.25-1.56.59-2.61,1.98-4.68,4.57-8.22,5.89-10.28,3.37-16.9-8.44-20.83-16.01-2.01-3.95-2.68-8.63-3.42-12.85-.75-4.09-1.83-8.09-3.14-12.05-1.3-4.07-3.09-7.57-4.98-11.45-3.7-7.94-5.94-16.29-7.97-24.73-.98-4.18-1.82-8.46-2.41-12.75-.77-6.08-1.14-12.31-4.3-17.63-2.26-3.54-4.95-7.2-6.61-11.09-2.66-5.89-4.22-12.08-6.82-18.05-1.26-3.39-3.18-6.99-1.91-10.79,1.27-3.46,4.67-6.83,8.63-6.57,1.91.15,3.31,2.12,3.28,3.86.04,1.61-.18,3.41.13,4.79.8,3.3,5,3.63,8.06,3.5,1.56-.11,3.43-.88,5.35-1.69,2.98-1.45,6.59-2.47,9.07-4.6,1.28-1.5.89-3.85.85-5.74,0-.82.15-2.47,2.29-2.88,4.56.11,1.4,6.54,9.75,5.05,1.79-.42,4.65-1.45,4.47-3.59-.23-1.79-1.86-3.3-2.54-5.34-1.53-3.82.96-6.95,4.96-7.04,5.24-.27,10.43-.53,15.47-1.89,2.12-.53,4.06-1.36,6.31-1.76,3.42-.58,6.89-.37,10.19.16.84.1,1.45.19,2.18-.07,3.32-1.26,4.37-5.44,5.16-8.82,1.39-5.87,1.42-12.06-.78-17.67-2.04-6.22-7.92-9.93-10.11-16.2-1.51-4.55-2.11-10.12,1.31-14.04,1.6-1.99,3.65-3.21,5.13-4.41,1.55-1.25,2-2.14,1.67-3.53-.57-2.19-3.26-4.57-5.33-5.98-2.52-1.56-5.45-1.9-8.45-2.54-4.18-.81-8.38-1.62-12.58-2.6-3.21-.86-7.07-1.48-9.66-3.96-4.23-4.19-7-12.75-1.3-16.89,1.19-.75,2.27-1.08,3.11-1.48,4.76-2.03,4.6-7.67,4.47-12.22,0-2.14-.4-3.87-.86-6.04-.47-2.34-.12-4.82.5-7.08,1.34-5.22,5.38-10.65,11.13-6.78.43.24.78.39.98.43.19.03.25.02.45-.08.34-.15.81-.82,1.13-1.66.65-1.7.99-3.82,1.35-5.87.37-2.21.27-4.88,1.72-6.81h0Z"/>
    </g>
  </g>
</svg>