<?xml version="1.0" encoding="UTF-8"?>
<svg id="_Слой_2" data-name="Слой 2" xmlns="http://www.w3.org/2000/svg" viewBox="0 0 170.2 277.96">
  <defs>
    <style>
      .cls-1, .cls-2 {
        stroke-width: 0px;
      }

      .cls-2 {
        fill: #d7e900;
      }
    </style>
  </defs>
  <g id="_Переволоцкий" data-name="Переволоцкий">
    <g>
      <path class="cls-2" d="M70.36,5.76c-1.58,1.11-.45,2.82-2.5,4.5-2.63,2.16-5.8.43-10,3-1.05.64-2.05,1.26-2,2,.14,2,7.66,1.06,10,5,1.01,1.7.04,2.6-1,10-1.07,7.63-.44,8.73-2,11-2.31,3.36-5.42,3.38-5.5,5.5-.1,2.47,4.12,2.8,5.5,6.5,1.52,4.09-1.67,8.96-3,11-3.34,5.1-6.13,4.68-7,8-.48,1.83,1.4,5.59,5,13,1.8,3.71,2.36,4.64,2.5,6.5.37,4.77-2.55,8.44-3,9-3.06,3.75-8.37,5.97-13,5-5.37-1.12-7.38-6.02-10-5-2.15.84-2.44,4.76-2.5,5.5-.36,4.79,2.64,6.48,5,13,.94,2.59,2.56,7.21,2,13-.27,2.83-.82,7.26-4,11-2.24,2.63-4.6,3.51-4.5,5.5.1,1.92,2.35,2.06,3.5,4.5,1.54,3.27.03,8.36-3,11-3.19,2.78-6.21,1.24-8,4-1.42,2.19-1.1,5.58.5,7.5,1.63,1.95,3.43,1,5.5,2.5,5.23,3.81,2.2,16.2,2,17-1.35,5.29-2.79,4.89-4,10-1.72,7.24,1.03,8.64-.5,14.5-.84,3.22-3.89,6.81-10,14-6.18,7.27-8.48,8.16-9.5,8.5-1.72.56-3.32.68-4,2-.99,1.92.49,5.45,3,7,3.55,2.19,6.94-.93,9,1,.52.48,1.17,1.48,0,12-.5,4.51-.76,5.59,0,7,1.45,2.7,5.16,3.89,8,4,6.49.24,8.77-5.15,14-4,3.23.71,3.33,2.98,6,3,4.09.03,4.62-5.31,10-8,6.5-3.26,12.1,1.34,15-2,2.71-3.12.12-9.8,1-10,.71-.16,1.4,4.37,4,5,1.39.34,2.34-.68,6-3,4.15-2.64,6.22-3.96,8-4,3.14-.08,6.68,2.06,8,5,1.57,3.5-.83,6.29,1,8,1.38,1.28,4.28,1.13,6,0,1.54-1.01,1.42-2.31,3-3,1.77-.76,2.82.47,4,0,3.22-1.28-.07-12.4,3-14,2.84-1.48,8.56,6.52,11,5,1.29-.8,1.3-4.01,0-6-1.44-2.21-3.98-2.11-4-3-.03-1.77,9.96-3.48,13-4,6.55-1.12,9-1.02,13-3,3.19-1.58,2.7-2.17,5-3,6.35-2.29,10.13,2.22,14,0,3.17-1.81,3.65-6.55,4-10,.13-1.29.51-6.19-2-12-2.12-4.9-3.97-5.05-9-13-4.14-6.54-4.07-8.3-4-9,.5-5.21,6.47-9.61,7-10,2.48-1.79,3.96-1.95,4-3,.03-.63-.46-1.77-11-6-3.95-1.59-5.93-2.38-8-3-7.6-2.28-8.8-1.05-12-3-4.12-2.51-5.76-6.77-7-10-1.34-3.49-3.4-8.83-1-12,2.06-2.72,5.31-1.07,8-4,2.14-2.33,2.08-5.53,2-10-.14-8.15-2.88-10.36-1-14,1.62-3.14,4.34-2.84,5-6,.61-2.9-1.34-4.8,0-7,.58-.95,1.71-1.86,3-2,3.25-.35,5.13,4.47,7,4,1.65-.41,3.1-4.88,2-9-2.26-8.5-13.35-7.92-16-17-1.3-4.45-1-9-1-9,.26-4,1.39-6.33,0-8-1.56-1.88-4.41-.67-5-2-.84-1.9,3.69-7.35,8-7,3.27.27,3.72,3.65,7,4,4.05.43,9.06-4.05,9-8-.03-2.15-1.53-2.4-5.5-7.5-3.43-4.41-5.65-7.27-7.5-11.5-1.16-2.65-1.59-4.5-3.5-5.5-2.19-1.15-3.47.33-5.5-.5-3.6-1.47-1.79-7.03-6-12-.43-.5-3.12-2.17-8.5-5.5-5.57-3.45-6.58-3.94-7.5-3.5-2.62,1.24.22,7.67-3,11-3,3.1-9.31,1.54-13.5.5-12.16-3.01-18.55-10.43-22-8Z"/>
      <path class="cls-1" d="M71.67,7.62c-.16.42-.25,1.54-.84,2.58-.98,1.7-2.6,2.8-4.39,3.25-1.64.4-2.91.38-3.98.56-1.72.18-3.28.99-4.57,1.98,0,0,.03-.02.11-.18.07-.14.16-.43.12-.74,0-.3-.2-.65-.32-.8-.15-.17-.2-.19-.22-.21,1.87.71,3.92.77,5.98,1.66,3.57,1.38,5.85,4.36,4.69,8.36-.77,3.65-1.32,7.23-1.67,10.94-.24,1.98-.17,4.3-1.14,6.31-1.16,2.55-3.8,4.35-5.86,5.71-.05.06-.02.02.03-.07.02-.1.04-.12.02-.18,0-.02,0-.07-.03-.09.37.43.94.73,1.63,1.25,4.45,2.79,5.26,8.09,3.21,12.66-1.65,3.78-4.04,7.45-7.35,9.91-.95.73-1.76,1.25-2.03,2.31.14,1.58.99,3.21,1.67,4.81,1.56,3.43,3.27,6.72,4.89,10.21,2.01,4.1.88,9.28-1.45,12.88-3.97,6.18-12.52,9.57-19.36,6.18-2.23-.99-3.85-2.92-5.75-4,0,0-.02-.02.02,0,.03,0,.05-.02.07,0,.05-.01.04-.03.02,0-1.12,1.48-1.35,4.4-.7,6.26.64,1.79,2.24,4.04,3.34,6.48,1.14,2.48,1.98,4.89,2.63,7.54,1.77,7.88.85,17.54-5.47,23.24-.78.71-1.89,1.59-2.34,2.24,0-.02,0,.01,0-.02-.02-.04-.04-.11-.02-.06,1.15.96,2.85,2.37,3.42,4.01,1.74,4.55.08,9.51-3.15,12.89-1.09,1.1-2.57,2.04-4.07,2.5-1.92.69-3.07.4-3.96,1.41-1.19,1.6-.73,5.29,1.53,5.56,9.36,1.49,8.34,13.55,6.81,20.46-.59,3.77-3.31,6.75-4.07,10.48-1.06,3.69.03,6.89.09,10.75-.04,1.53-.28,2.88-.73,4.39-.97,2.82-2.6,4.91-4.3,7.14-3.27,4.06-6.34,7.86-9.96,11.66-1.45,1.45-2.98,2.94-4.83,4.04-1.31.86-3.11,1.07-4.33,1.63-.05.03,0,.01.02-.03.07-.09,0-.02,0,.24,0,.25.07.61.21.98.52,1.37,1.76,2.75,3.27,2.8.76.05,1.73-.17,3.25-.4,1.31-.23,4.82-.29,5.96,3.24.4,1.89.33,2.87.3,4.55-.15,3.8-.63,7.64-1.01,11.38-.02.69-.13,1.16.04,1.57.36.77,1.02,1.31,2,1.81,8.02,3.84,11.25-5.47,19.29-2.77,1.36.33,3.04,1.72,3.88,2.46.28.18.24.16.41.19.6-.03.74-.04,1.27-.51.58-.52,1.32-1.54,2.16-2.58,1.76-2.27,4.34-4.32,7.15-5.28,2.75-.98,5.95-.93,8.67-.52,1.25.16,2.44.33,3.1.23.39-.04.56-.12.81-.33,1.42-2.18.17-5.34.25-7.98,0-.16.03-.42.12-.77.14-.34.25-1.17,1.56-1.84,1.25-.6,2.6.12,2.85.41.89.86,1.04,1.44,1.45,2.38.43,1.07.96,1.93,1.21,2.13.11.1.14.09,0,.12-.05.06.42-.11.89-.4l3.2-1.93c2.96-1.53,5.93-3.97,9.44-4.15,5.19.17,10.58,4.52,10.19,10.03-.03.73-.13,1.4-.2,1.99-.07.58-.08,1.07-.02,1.27.06.16.11.24.38.42,1.44.63,3.64.29,4.53-1.15,1.4-2.54,3.91-3.2,6.44-2.39.16.02.1,0,.07.02-.04,0-.05.04-.01-.01,1.61-3.74-1.5-11.76,3.05-14.09,2.95-1.11,5.5,1.47,7.56,2.91.98.75,1.97,1.51,2.79,1.92.39.23.73.16.38.21-.16.05-.25.15-.23.13.33-.75.18-1.93-.17-2.82-.4-1.06-1.26-1.62-2.33-2.04-1.76-.58-3.06-2.2-1.89-4.05,1.51-1.81,3.37-2.01,5.34-2.69,4.95-1.33,10-2.1,14.99-2.88,2.44-.38,4.48-.95,6.52-2.05,1.71-.73,3.17-2.59,5.09-3.03,0,0,1.06-.33,1.06-.33,1.79-.47,3.77-.53,5.53-.24,2.94.3,6.21,2.5,8.05-.49,1.04-1.77,1.36-4.09,1.58-6.26.58-4.49-.42-9.27-2.54-13.23-1.13-2.05-2.85-3.76-4.32-5.69-3.22-4.41-6.32-8.52-8.04-13.82-.96-4.69,2.44-9.02,5.61-12,1.6-1.54,3.79-2.92,5.61-3.9-.24.23-.43.65-.4,1.06,0,.25.16.72.29.85-2.39-1.72-5.43-2.82-8.28-4.07-5.7-2.38-11.21-4.67-17.42-5.32-5.98-.81-9.9-6.38-11.76-11.58-1.42-3.88-3.19-7.75-2.43-12.09.32-2.41,2.6-5.01,5.13-5.46,1.59-.4,3.21-.48,4.23-1.58,2.21-2.4,1.53-5.86,1.59-9.24-.05-7.85-5.17-12.88,3.26-18.64.32-.29.46-.5.58-.79.85-2.06-1.2-4.77-.08-7.33,1.11-2.86,4.26-4.69,7.25-3.8,1.74.51,2.87,1.65,4.01,2.7.49.45.93.9,1.18,1.01-.07-.02-.14-.07-.22-.07-.09,0-.37-.06-.53.02-.14,0-.33.13-.35.12-.19.15.08-.14.2-.49,1.13-3.11.37-6.91-2.16-9.01-3.82-3.16-9.5-4.85-12.47-9.61-2.54-4.1-3.02-9.08-2.93-13.73.1-1.6.35-3.34.6-4.91.07-.52.08-.93.06-1.04-.03-.12.06.15.11.18.06.08.22.1,0,.04-.93-.2-2.12-.07-3.53-.78-3.7-2-2.36-6.6-.06-9.11,4.34-5.04,10.93-6.54,15.65-.84.76.58,1.05.55,2.25.23,1.95-.66,4.11-2.68,4.27-4.71.07.11-.05-.14-.4-.54-4.73-5.37-9.33-11.01-12.16-17.7-.84-1.77-.97-3.61-2.55-4.19-.19-.04-.42-.05-1.07.04-5.6.9-7.4-3.37-8.19-7.83-.38-2.04-1.39-3.97-2.31-5.19-.9-.73-2.06-1.43-3.16-2.15-3.36-2.04-7.21-4.84-10.68-6.41,0,0,0,0,0,0,.1.02.29-.02.36-.05.12,0,.16-.1.21-.12-.55,3.6.52,8.09-2.84,11.05-5.49,4.97-18.05.4-24.02-2.25-3.41-1.54-6.59-3.65-9.89-5.03-.47-.18-.9-.28-1.16-.29-.27,0-.28.02-.36.06h0ZM69.05,3.91c3.08-2.11,6.71,0,9.39,1.41,2.25,1.21,4.37,2.39,6.57,3.39,3.86,1.76,15.56,5.97,19.1,3.13,2.94-3.01-.72-9.38,4.03-11.59.65-.27,1.5-.32,2.2-.15,1.05.28,1.62.62,2.25.93,2.36,1.28,4.42,2.63,6.59,3.92l3.23,1.96c1.3.91,3.37,1.83,4.4,3.17,2.45,2.64,3.19,6.95,4.2,10.05.36.79.53.78.96.94.92.07,2.31-.46,3.72-.13,1.06.2,1.93.61,2.74,1.18,3,2.36,3.35,6.06,5.27,8.91,2.44,3.96,5.65,7.88,8.84,11.37,0,0,1.34,1.42,1.34,1.42.13.14.25.27.39.45,3.23,3.64.83,9.17-2.36,11.93-4.16,3.84-10.15,4.67-14.14,0-1.41-1.75-3.89.26-4.99,1.57-.32.4-.62.82-.73,1.17.01-.03-.03.04.01-.11.01-.14,0-.13-.04-.47-.02-.13-.07-.26-.13-.38-.13-.43-.72-1.02-1.04-1.15-.39-.19-.39-.12-.2-.11,4.77.11,7.92,3.39,7.07,8.38,0,0-.28,1.94-.28,1.94-.6,3.71-.37,7.76.84,11.24,2.02,4.85,7.83,6.28,11.59,10.1,2.26,2.18,3.73,5.25,3.94,8.4.66,5.83-3.46,14.19-9.32,7.49-1.15-1.1-1.55-1.81-2.58-1.74-.82.27-1.5.88-1.37,1.85.69,2.76,1.09,6.58-1.74,8.87-1.29,1.06-2.12,1.48-2.62,2.17-1.37,1.68-.95,3.21-.43,5.41.98,3.73,1.25,7.8,1.15,11.71-.03,2.85-.54,6.22-2.83,8.37-1.14,1.2-2.88,1.97-4.24,2.25-1.39.32-2.39.49-2.84.87-2.12,1.99-.91,5.24-.02,8.13,1.52,4.07,3.16,8.97,7.07,11.22,1.95,1.2,4.21.97,6.51,1.47,5.13.9,9.95,2.91,14.72,4.84,2.99,1.27,6.11,2.45,8.95,4.32.45.32,1.07.8,1.48,1.44.43.61.68,1.69.47,2.45-.4,2.07-2.57,2.75-4.04,3.71-2.59,1.71-5.21,4.29-6.43,7.17-.27.7-.56,1.53-.39,2.23.19.82.69,1.92,1.21,2.94,1.67,3.16,3.69,6.31,5.85,9.14,1.56,2.05,3.41,3.96,4.68,6.35,2.56,4.9,3.64,10.44,2.95,15.91-.44,4.3-1.54,9.76-6.35,11.37-3.15.98-5.71-.44-8.4-.84-1.57-.26-3.07-.16-4.54.34-1.26.4-1.5.82-2.7,1.65-1.79,1.18-3.65,1.99-5.71,2.62-6.16,1.51-12.5,1.75-18.56,3.44-1.12.3-2.35.67-3.08,1.07-.17.07-.28.23-.09-.01.39-.51.2-1.54-.31-1.87-.06-.03.23.12.51.23,3.62,1.25,5.62,5.26,4.72,9.02-.31,1.1-.96,2.3-2.28,2.74-.76.26-1.43.18-1.94.06-3.32-.85-5.89-4.56-8.58-5.34-.83,1.75-.44,4.3-.54,6.33-.09,2.13.17,4.46-1.23,6.53-.6.94-2.23,1.57-3.26,1.29-1.24-.25-1.28-.41-1.99-.26-.63.28-.58.31-1.19,1.2-.4.61-1.09,1.35-1.82,1.78-3.87,2.37-10.17.86-9.05-4.6.24-1.6.4-3.17-.38-4.54-1.35-2.46-4.7-4.39-7.49-3.21-1.8.89-4.31,2.69-6.02,3.88-1.95,1.16-3.03,2.69-5.62,3.35-3.8.62-5.79-3.01-6.99-5.67.03.05.07.13.34.36.14.19,1.32.84,2.43.31,1.16-.62,1.2-1.27,1.3-1.47.08-.27.05-.47.07-.17.41,3.23,1.14,6.43-.55,9.78-.72,1.38-2.05,2.57-3.54,3.04-1.91.68-4.35.32-5.84.14-3.17-.45-6.22-.31-8.74,1.72-1.97,1.49-2.83,3.45-4.9,5.4-3.08,2.82-7.11,2.49-10.06-.53-1.37-.96-2.74-.85-4.34-.1-2.15,1.07-4.76,2.92-7.49,3.31-5.49.98-12.87-1.3-14.01-7.5-.22-2.27.28-4.16.45-6.24.28-3.29.92-7.01.56-10.25,0-.03,0,0,.06.11.06.11.23.31.24.31,0,.02.02.03.04.02,0,.02.03.03.05.02-1.22-.11-2.88.62-4.9.43-1.76-.09-3.65-.89-4.94-2.07-3.18-2.68-5.13-8.69-.91-11.42.99-.6,2.37-.94,3.27-1.18,1.51-.32,3.3-2.02,4.98-3.67,3.34-3.44,6.63-7.43,9.68-11.16,2.29-2.9,4.01-5.21,4.07-8.64.06-2.33-.73-5.01-.5-7.55.14-4.1,1.68-7.96,3.73-11.45,1.61-3.9,2.33-9.24,1.77-13.46-.41-2.4-1.35-4.41-3.97-4.64-4.62-.77-6.69-6.26-5.41-10.36,1.15-3.91,3.92-4.62,7.36-5.39,3.45-1.14,5.64-5.91,4.45-9.28-.32-.73-.65-1.06-1.78-1.96-.73-.6-1.64-1.58-1.85-2.69-.78-2.99,1.77-5.02,3.67-6.64,3.47-3.06,4.53-7.47,4.79-12.02.26-4.62-1.07-9.3-2.98-13.48-1.06-2.4-2.55-4.25-3.52-6.91-1.18-3.53-.81-8.84,2.3-11.43,2.73-2.08,5.69-.02,7.66,1.77,1.83,1.54,3.52,2.45,5.51,2.65,7,.82,14.77-6.97,11.81-13.97-1.56-3.34-3.31-6.74-4.87-10.16-1.7-3.71-3.58-7.83.07-11.24,1.45-1.35,2.9-2.15,4.04-3.6,1.4-1.71,2.68-3.78,3.52-5.79.85-2.02,1.02-4,.27-5.33-1.19-2.14-5.04-3.11-5.36-6.09-.22-1.29.28-2.76,1.24-3.66,1.9-1.74,3.94-2.27,4.98-4.47.59-1.4.48-3.07.71-4.77.25-2.55.58-5.09,1.02-7.63.23-1.72.8-3.6.93-5.18,0-.13-.02-.14-.02-.18-.02-.04-.07-.16-.17-.29-2.22-3.1-9.47-1.17-10.23-5.81-.17-2.45,2.15-3.65,3.91-4.63,1.34-.71,2.88-1.14,4.29-1.34,1.93-.3,3.16-.09,4.45-.89.79-.62.61-.59.93-1.84.16-.88.97-2.38,1.86-2.88h0Z"/>
    </g>
  </g>
</svg>