<?xml version="1.0" encoding="UTF-8"?>
<svg id="_Слой_2" data-name="Слой 2" xmlns="http://www.w3.org/2000/svg" viewBox="0 0 359.52 284.62">
  <defs>
    <style>
      .cls-1 {
        fill: #080000;
      }

      .cls-1, .cls-2 {
        stroke-width: 0px;
      }

      .cls-2 {
        fill: #9fc300;
      }
    </style>
  </defs>
  <g id="_Первомайский" data-name="Первомайский">
    <g>
      <path class="cls-2" d="M148.11,16.16c3.17-2.31,5.91,1.27,14,0,2.38-.37,8.58-1.34,13-6,2.92-3.07,2.72-5.28,5-6,3.04-.95,5.98,2.15,11,6,7.85,6.01,7.29,3.76,18,11,5.55,3.75,9.24,6.98,15,12,7.04,6.14,7.25,7.05,15,14,13.12,11.77,17.18,13.36,19,14,2.51.88,9.11,2.98,17,1,1.5-.38,8.63-2.17,14-8,1.47-1.6,1.51-2.09,2.61-2.76,4.73-2.89,9.78,3.82,17.39,3.76,13.78-.11,19.11-9.68,27-6,3.52,1.64,2.22,3.43,9,9,6.65,5.46,10.1,5.55,11,9,.84,3.23-1.7,5-5,12-1.87,3.98-2.91,7.98-5,16-1.35,5.19-1.44,6.51-4,20-3.65,19.21-4.18,20.31-3,23,2.9,6.63,8.85,6.13,13,15,1.37,2.93,3.23,6.91,2,11-2.24,7.48-13.71,11.74-23,11-9.26-.74-14.37-6.29-17-4-2.62,2.28,2.42,7.86,0,15-2.25,6.64-9.76,11.12-16,12-4.54.64-4.46-1.18-12-1-7.49.18-10.31,2.04-13,0-2.98-2.25-1.22-5.8-4-8-3.7-2.92-11.28-.15-16,3-4.96,3.31-4.63,5.62-12,15-7.57,9.64-9.62,9.38-12,15-3.44,8.13-2.2,15.87-2,17,2,11.53,10.17,15.95,8,20-2.26,4.22-11.87.82-16,7-1.54,2.3-.49,3.2-2,6-3.27,6.06-12.99,10.72-19,7-3.4-2.1-4.99-6.5-5-10-.02-5.45,3.76-6.52,4-12,.24-5.53-3.31-11.68-7-12-.9-.08-2.34.14-7,5-5.75,6-6.14,8.36-9,11-1.45,1.34-3.25,2.48-18,5-17.84,3.05-21.27,2.4-23,2-4.28-1-11.11-2.58-14-8-2.18-4.08-.97-8.18-4-10-2.56-1.54-4.85.53-7-1-2.64-1.88-3.38-7.97-1-11,5.29-6.73,22.57,6,31-1,7.07-5.87,5.4-23.53-2-28-5.38-3.25-11.37,1.94-16-2-4.88-4.15-1.55-12.73-6-15-2.38-1.21-4.9.44-9,2-4.41,1.69-10.28,2.12-22,3-2.48.19-5.49.36-27,0-18.64-.31-21.29-.52-24-3-4.65-4.25-1.06-7.5-7-17-2.26-3.61-6.68-10.67-15-15-3.15-1.64-4.39-1.6-5-3-2.44-5.62,12.71-17.35,20-23,16.49-12.77,19.53-10.36,26-19,3.96-5.29,5.63-9.94,12-14,1.51-.96,9.01-5.74,14-3,2.16,1.19,2.45,3.02,4,3,2.69-.03,5.61-5.61,6-11,.52-7.22-3.71-11.21-2-13,2.08-2.17,8.18,3.87,15,2,4.38-1.2,4.05-4.28,10-10,6.72-6.46,9.87-5.15,22-14,4.85-3.54,7.31-5.36,9-8,1.11-1.73,2.53-4.66,4-18,1.19-10.82.73-13.34,3-15Z"/>
      <path class="cls-1" d="M145.66,12.8c1.25-.93,2.93-1.51,4.44-1.56,2.93-.15,5.09,1.01,7.52,1.04,5,.17,10.86-1.23,14.37-4.75,1.34-1.26,1.91-2.68,3.01-4.31,2.18-3.42,7.21-4.06,10.41-2.16,4.95,2.75,8.89,7.23,13.68,9.73,5.73,2.85,11.5,6.39,16.63,10.34,5.13,3.93,10,8.32,14.75,12.63,4.7,4.49,8.93,8.78,13.79,12.97,3.48,3.05,7,6.04,10.77,8.63,1.86,1.28,3.4,2.12,5.4,2.71,9.53,3.19,21.07.2,27.3-7.8,1.81-2.55,6.05-3.74,8.97-2.79,4.63,1.18,8.35,4.43,12.62,4.19,2.81-.02,5.53-.54,8.22-1.5,5.28-1.71,11.24-6.51,17.57-4.91,2.24.53,4.36,1.63,5.87,3.43,1.66,2.03,2.39,3.51,4.31,5.18,2.13,2.01,4.53,3.8,7.03,5.38,2.1,1.34,5.62,3.09,6.66,6.14,1.38,3.29-.11,6.88-1.87,9.5-1.55,2.62-3.02,5.22-4.09,8-4.76,13.24-6.66,27.39-9.49,41.14-.68,3.78-1.63,7.56-1.95,11.26-.1,1.59.95,3.07,1.95,4.25,1.92,2.13,5.04,3.81,7.13,6.2,2.46,2.61,4.09,5.84,5.38,9.11,3.46,8.04.07,15.48-7.52,19.46-9.38,5.09-20.61,4.78-29.93.08-.72-.32-1.39-.59-1.98-.79-.55-.19-1.06-.23-.95-.23.18-.03.35-.21.41-.39-.01,1.46.86,3.76,1.13,5.77.29,1.76.39,3.68.1,5.58-1.1,7.42-7.52,12.9-14.23,15.28-2.57.91-5.38,1.53-8.17.94-2.43-.58-4.38-1.27-6.82-1.2-3.09-.04-5.99.38-9.09.91-1.96.29-3.97.62-6.05-.3-2.13-.85-3.85-3.24-4.25-5.32-.33-1.29-.38-2.4-1.07-3.14-3.93-2.6-13.88,3.02-16.09,6.77-4.21,6.77-8.93,13.66-14.54,19.41-4.26,3.9-5.89,9.01-6.3,14.64-.43,5.64,1.04,10.94,4.17,15.75,2.05,3.5,5.58,6.89,4.31,11.64-2.03,6.82-10.16,5.26-14.96,7.27-1.02.55-1.85,1.22-2.03,2.31-.73,7.05-7.41,12.59-13.93,14.57-6.38,2.13-13.97-.04-17.15-6.32-3.25-5.96-2.74-12.27.87-17.5,1.92-2.98.51-8.64-2.31-10.56-.02-.03.01.04.15,0,.12.01.37-.01.48-.04.14-.03.19-.05.2-.05,0,0-.13.06-.32.2-.18.12-.41.29-.65.48-3.21,2.7-6.2,6.18-8.64,9.69-2.13,3.39-5.32,6.66-9.36,7.62-9.61,2.64-19.03,3.97-28.96,5.22-3.5.35-7.42.71-10.93-.2-5.01-1.1-11.44-3.19-15-7.9-1.38-1.73-2.39-3.91-2.87-5.85-.52-2.05-.8-4.05-1.04-4.67.08.08.08.07.18.1.1,0-.16-.02-.91.07-.42.04-.88.11-1.59.13-.68.01-1.53-.02-2.48-.28-8.01-2.47-8.95-15.4-2.75-20.23,6.63-4.8,15.31-.35,22.08.6,3.91.51,6.54,1.01,8.66-1.52,3.22-4.76,2.47-12.75-.21-17.51-1.85-3.34-4.16-2.78-7.77-2.23-2.66.4-5.94.46-8.48-.87-6.1-2.93-6.82-9.39-7.43-14.88-.08-.48-.17-.9-.34-1.24,0,.01,0-.03.02,0,.02.1.13.1.17.19.09.04.39.16.46.13-2.94.82-7.02,3.03-10.42,3.49-4.93.97-9.88,1.26-14.76,1.67-2.57.2-7.25.55-9.82.5-9.37.08-19.36-.17-28.71-.31-5.32-.3-10.22.17-15.75-1.61-2.95-1.12-5.37-3.39-6.88-6.15-1.5-2.76-1.51-6.24-2.36-8.86-1.78-5.12-5.34-10.01-9.05-13.82-2.45-2.37-5.23-4.31-8.35-5.67-1.4-.61-2.91-1.16-4.17-2.47-8.86-10.34,13.43-25.35,20.31-31.09,5.09-3.97,10.79-7.8,16.42-10.9,3.84-2.02,6.63-4.32,9.04-7.89,3.29-4.93,6.68-10.55,11.94-13.84,6.29-4.4,16.48-8.1,22.65-1.34,0,0,.75.83.75.83,0,0,.03.04,0,0-.61-.58-1.99-.95-2.87-.64-.72.27-.54.32-.37.1,1.57-2.03,2.37-5.18,2.33-7.78.06-3.24-1.69-5.82-2.31-9.15,0,0-.08-.69-.08-.69-.03-.21-.02-.61,0-.91.03-.35.02-.59.13-1.02.54-2.82,3.23-5.03,6.07-5.06,4.84-.19,8.67,4.02,13.25,2.52.68-.34.88-.69,1.53-1.54,1.86-2.58,4.36-5.68,6.9-7.85,3.7-3.53,8.69-5.7,13.08-7.97,4.96-2.75,10.57-6.58,14.76-10.12,2.03-1.85,2.61-3.17,3.31-5.95,1.38-5.76,2.01-12.17,2.63-18.19.46-3.98.33-9.24,4.17-11.91h0ZM150.55,19.52c-.67,4.32-.91,10.61-1.58,15.58-.91,6.82-1.57,15.36-7.35,20.28-5.2,4.5-10.44,8.25-16.39,11.68-2.67,1.5-5.62,2.83-8.05,4.4-2.2,1.47-4.27,3.46-5.99,5.49-1.58,1.86-2.72,3.95-4.66,5.97-4.92,4.96-12.96,3.76-18.6,1.23-.7-.27-1.36-.51-1.66-.58-.12-.04-.16,0,.21,0,1.19-.04,2.39-.93,2.85-2.05.21-.45.31-1.05.26-1.49,1.13,2.98,2.45,6.84,2.47,10.4.02,5.25-1.33,10.3-4.7,14.48-3.43,4.03-8.76,4.44-12.15-.02-1.09-1.14-3.01-.5-4.7.02-2.32.86-4.81,2.29-6.76,3.88-1.95,1.58-3.45,3.55-5.14,6.14-2.55,4.02-6.12,9.19-10.5,12.1-4.19,2.79-8.32,4.73-12.31,7.46-5.07,3.4-10.06,7.3-14.76,11.16-4.08,3.52-8.83,7.28-11.22,11.93-.12.3-.08.43-.1.12-.04-.43-.31-.84-.64-1.2-.16-.18-.35-.3-.39-.33-.14-.08.07.04.36.16,4.57,1.86,8.79,4.66,12.3,8.12,5.04,5.23,9.15,11.02,11.47,17.88.78,2.39.96,4.8,1.5,6.82.19.73.7,1.13,1.25,1.67,1.02.77,2.28.79,4.12,1.02,12.15.74,25.42.72,37.58.8,2.65,0,6.54-.22,9.18-.45,4.6-.37,9.19-.63,13.61-1.47,3.21-.59,5.07-1.74,8.41-2.93,3.49-1.42,8.16-.72,10.61,2.57,1.19,1.55,1.86,3.52,2.15,5.38.51,2.82.39,7.63,2.56,8.22,2.31.33,5.24-.67,8.39-.56,9.4.03,14.23,10.19,14.88,18.1.85,7.76-1.26,17.92-9.47,21.25-7.06,2.83-14.73-.16-21.35-1.52-1.81-.3-4.35-.91-5.49-.3-.02-.07-.34.37-.47,1.22-.14.81-.06,1.87.19,2.63.13.38.27.69.36.78-.11-.11-.31-.21-.52-.27,4.41-.96,9.44.88,11.04,6.19.85,2.8.68,5.33,2.33,7.5,2.43,2.87,5.9,3.73,9.98,4.75,2.65.68,5.24.24,8.01.04,7.55-.82,15.44-2.13,22.99-3.68,2.01-.43,4.11-.91,5.82-1.67.4-.22.36-.16.84-.62.96-.92,1.6-1.88,2.43-3.06,1.87-2.73,4.18-5.47,6.51-7.85,4.64-4.87,9.68-8.92,15.81-3.33,4.54,4.56,6.44,11.42,4.61,17.63-.55,2.15-2.72,4.91-3.12,6.33-.85,2.46.66,6.9,2.64,8.02,1.6.97,3.75.98,5.7.37,3.21-.98,6.54-3.25,7.93-6.34.14-.37.16-.51.31-1.55.45-3.64,3.41-6.92,6.59-8.36,3.63-1.79,7.73-1.5,11.02-2.57,0-.02-.02.02-.09.09-.02.04-.05.06-.06.11-.05.04-.08.1-.08.16.02.07-.04.12-.04.19,0,.07.04.15,0,.13,0,0,0,.01.02.01-.04-.08-.08-.19-.1-.28l-.08-.16c-.87-1.76-2.03-3.22-3.17-5.12-5.93-8.94-6.88-20.89-2.85-30.85,1.04-3.17,3.88-6.78,6.24-8.95,4.29-4.34,8.17-9.13,11.72-14.14.9-1.27,1.75-2.58,2.84-4.01,2.11-2.94,5.45-5.19,8.68-6.68,4.24-1.89,9.07-3.48,13.79-1.88,1.09.45,2.16,1.07,3.04,2.03,1.54,1.58,1.86,3.93,2.17,5.67.26,1.07.43,1.5,1.26,1.99.81.41,2.23.23,3.32.11,3.18-.41,6.6-.67,9.87-.51,3-.1,6.15,1.38,9.09.7,7.66-1.14,16.4-7.51,14.56-16.06-.32-2.34-1.79-5.58-1.02-8.24.48-1.73,2.04-3.1,3.78-3.42,2.77-.34,4.06.54,6.16,1.32,2.94,1.27,5.59,2.34,8.41,2.79,8.8,1.67,26.73-3.13,21.41-15.1-1.08-2.6-2.3-5.17-4.24-7.18-2.73-2.87-6.89-4.82-9.03-8.59-.79-1.37-1.57-2.86-1.73-4.51-.17-1.45.03-3.02.21-4.34,1.92-11.11,4.04-21.88,6.06-32.94,1.45-6.37,2.93-12.65,5.14-18.86,1.42-3.84,3.61-7.38,5.54-10.87.37-.85.53-1.07.38-1.71-.14-.36-.13-.45-.56-.82-2.11-1.42-5.45-3.41-7.73-5.14-3.26-2.42-6.55-5.6-8.81-8.98-.29-.33-.44-.43-.87-.67-2.14-1.04-3.89-.66-6.23.34-7.19,3.61-16.64,7.77-25.04,5.1-2.91-.87-6.09-2.73-8.62-3.47-.81-.16-1.01-.18-1.6.16-.03.03.03-.04-.18.21l-.78.98c-8.49,10-23.27,13.45-35.48,8.98-3.9-1.35-7-3.77-10.16-6.11-12.6-9.65-23.14-21.77-35.8-31.24-5-3.73-10.05-6.85-15.74-9.6-5.11-2.68-8.87-6.62-13.48-9.49-.41-.2-.64-.22-.6-.21.07-.02.02.05.32-.14.11-.08.14-.14.05-.02-.09.14-.23.37-.43.72-4.52,8.68-14.88,12.29-24.07,11.94-2.27-.08-5.13-.87-6.56-.99h0Z"/>
    </g>
  </g>
</svg>