<?xml version="1.0" encoding="UTF-8"?>
<svg id="_Слой_2" data-name="Слой 2" xmlns="http://www.w3.org/2000/svg" viewBox="0 0 189.36 182.32">
  <defs>
    <style>
      .cls-1 {
        fill: #050200;
      }

      .cls-1, .cls-2 {
        stroke-width: 0px;
      }

      .cls-2 {
        fill: #407a20;
      }
    </style>
  </defs>
  <g id="_Пономаревский" data-name="Пономаревский">
    <g>
      <path class="cls-2" d="M65.19,2.08c-.93.23-1.55,1.3-4,2-1.17.33-1.95.35-3,1-1.19.73-1.8,1.71-2,2-2.02,2.93-8.74,3.83-10,4-4.44.59-4.61-.45-15-1-5.22-.28-7.02-.11-8,0-4.14.48-3.59,1.18-9,2-1.65.25-2.46.3-3,1-1.22,1.6,1.23,3.69,1,7-.14,2-2.16,4.31-6,9-2.81,3.43-4.45,4.7-4,6,.44,1.27,2.51,1.41,5,2,3.86.91,6.31,2.31,11,5,2.8,1.6,8.69,5,12,12,.86,1.82,3.63,7.69,2,14-1.09,4.2-4.7,10.82-6,13-.17.29-.6.99-1,2-1.06,2.63-1.02,4.96-1,6,.12,4.94.74,10.51,1,13,.83,7.92.43,8.59,0,9-3.03,2.87-11.88-3.53-14-1-.95,1.13.74,2.52,1,8,.13,2.85.25,5.33-1,8-1.08,2.3-2.28,2.82-2,4,.44,1.85,3.46,1.29,6,4,2.05,2.19,1.16,3.7,3,5,2.34,1.65,5.81.64,8,0,3.91-1.14,3.83-2.51,7-3,3.34-.52,4.22.87,7,0,3.15-.99,4.11-3.43,5-3,1.14.56.5,5.08-1,9-2.08,5.43-4.87,7.28-4,9,1.09,2.17,6.02.22,8,3,1.19,1.67.65,4.1,0,7-.84,3.78-2.09,4.24-2,7,.07,2.17.87,2.27,1,5,.15,3.03-.77,4.13,0,5,.95,1.08,2.66-.26,6,0,4.42.34,6.06,3.05,8,2,1.08-.59,1.43-1.9,2-4,.85-3.16,0-4.08,1-6,.76-1.47,2.47-3.24,4-3,1.9.3,1.26,3.47,4,5,2.33,1.3,6.05.82,7,1,0,0,.51.09,1,0h0c.6-.1,1.41-.34,2-1,.75-.84.44-1.57,1-2,1.03-.79,2.7,1.33,5,1,2.14-.31,3.54-2.33,4-3,1.69-2.45.71-3.88,2-5,1.89-1.64,5.83-.18,9,1,4.73,1.76,4.91,3.07,7,3,4.13-.14,4.59-5.29,9-7,6.68-2.59,12.91,6.42,17,4,3.79-2.24,2.88-12.57,1-19-1.7-5.83-4.11-8.13-3-12,.87-3.02,3.6-6.02,7-7,6.91-1.98,13.72,5.24,16,3,1.18-1.15-.55-3.15,1-6,1.15-2.12,3.27-3.16,5-4,3.48-1.7,4.32-.69,6-2,.89-.69,1.9-1.95,3-10,.96-7.03.28-6.76,1-8,2.71-4.7,9.15-2.9,12-8,.39-.7,1.36-2.68,1-5-.61-3.95-4.34-4.15-6-8-2.18-5.05,2.35-9.04,0-12-2.25-2.83-7.36-.4-9-3-1.32-2.09,1.35-4.67,3-10,.46-1.49,3.49-11.26-1-18-3.61-5.42-10.55-6.59-13-7-7.92-1.33-9.89,2.44-18,1-5.78-1.02-10.33-3.92-12-5-6.22-4.03-8.33-8.18-13-8-.59.02-3.25.13-5,2-3.32,3.56.67,9.19-2,12-2.3,2.43-7.73.84-14-1-3.85-1.13-7.88-2.31-12-5-11.78-7.7-15.1-22.98-19-22Z"/>
      <path class="cls-1" d="M65.68,4.06c.17-.08-.14.07-.54.36-.41.28-.91.59-1.42.84-2.03,1.12-4.54.72-5.79,2.76-1.48,2.18-3.96,3.16-6.26,3.87-2.93.79-5.78,1.36-8.81,1.23-4.62-.53-9.03-1.15-13.66-1.25-2.68-.09-5.22-.14-7.74.42-2.44.76-5.66,1.61-8.13,1.88-.4.06-.71.17-.67.16.08-.06.1-.06.14-.19.02-.12-.01.04.1.36.1.31.25.72.42,1.16,2.22,5.15-.21,8.08-3.18,11.8-1.75,2.31-4.31,5.1-5.87,7.22-.03.05-.06.1-.06.11-.02.03-.01.03,0,.01.01-.02.03-.2,0-.33-.05-.26-.29-.44-.17-.35,2.86.86,6.3,1.27,9.05,2.72,5.17,2.62,10.33,5.23,14.42,9.47,5.46,5.9,8.82,14.18,6.92,22.33-1.5,5.16-3.97,9.61-6.58,14.2-.91,1.7-1.34,3.57-1.35,5.54.04,3.45.35,7.14.72,10.73.28,2.74.61,5.55.75,8.35.02,1.34.16,2.57-.31,4-.2.75-1.03,1.54-1.65,1.91-4.38,2.36-9.09-1.22-13.19-1.56-.21,0-.22.07.01-.08.22-.08.48-.74.42-.86,1.1,3.49,1.52,7.45,1.32,11.16-.11,2.61-1.14,5.47-2.79,7.58-.28.35-.43.7-.31.38.08-.31.02-.56-.15-.77-.16-.17-.06-.04.25.08.65.27,1.72.62,2.72,1.17,2.49,1.22,4.26,3.78,4.96,6.36.31.5.85.65,1.57.77,2.1.16,4.71-.64,6.66-1.5.93-.48,2.71-1.76,4.09-2.05,1.63-.43,3.46-.53,5.08-.23.83.14,1.39.29,2.1.22,1.65-.19,2.82-1.3,4.12-2.47.24-.2.67-.49,1.04-.62,1.22-.55,2.83.03,3.49,1.16.65,1.05.71,2.33.66,3.37-.33,4.53-2.02,8.9-4.4,12.68-.5.8-1.03,1.59-1.29,2.12-.12.25-.06.29-.09,0-.04-.23-.19-.41-.27-.44-.05-.02.18.07.47.13.34.05.72.09,1.18.13,6.39.16,8.46,4.26,6.95,10.06-.35,1.85-1,4.04-1.8,5.65-.52,1.11-.56,1.78-.44,2.82.32,1.24.93,2.86.91,4.24.09,1.37-.13,3.05-.32,4.29,0,.07.01-.04-.07-.22-.1-.19-.15-.26-.3-.36-.17-.11-.32-.15-.35-.13,1.46-.19,3.13-.54,4.71-.42,2.47.04,4.96,1.22,7.05,2.23.26.08.28.06.23.07-.02,0,.04.01.1-.06.53-.77.78-2,1.1-3.01.4-1.34.32-2.43.53-3.89.46-2.37,2.09-4.37,4.25-5.4,1.3-.71,3.49-.29,4.19,1.16.69,1.26.81,2.56,1.66,3.48,1.65,1.81,5.44,1.43,7.12,1.73.57-.25,1.64-.44,2.04-.9.56-.6.24-.9.77-1.8.32-.5.88-.84,1.47-.92,1.33-.06,2.21.69,3.32,1.01,2.78.83,4.97-2.89,4.93-5.29,1.02-7.67,13.52-2.89,17.59-.48.4.22.57.28.58.26,0,.01.23,0,.41-.02.33-.06.55-.15,1.03-.64,2.94-3.77,6.08-7.7,12.15-6.72,3.75.67,6.12,2.45,9.06,3.95.89.43,1.6.76,2.13.73,1.12-1.55,1.16-4.12,1.1-6.39-.15-3.63-.86-7.44-2.07-10.86-.95-2.86-3.07-6.15-2.88-9.72.46-6.77,6.88-12.34,13.59-11.92,4.46.17,7.85,2.54,11.59,3.76-.7-.02-1.47.81-1.49,1.43-.9-5.24,2.24-9.19,6.47-11.13,1.59-.83,3.35-1.56,5.17-1.81,0,0,.7-.11.7-.11.17-.03.23-.05.26-.05.02,0,.01,0,.05-.03.03-.01.13-.09.15-.11,0,0-.02,0,.01-.01.03-.04.07-.12.13-.23.11-.23.24-.6.36-.97,1.04-3.85,1.63-8.52,1.86-12.57-.16-2.38,1.51-4.74,3.36-6.12,2.01-1.46,4.12-2.04,6.28-2.8,2.42-.87,3.31-1.92,3.79-4,.13-1.18.13-1.91-.76-2.8-.45-.47-1.27-1.08-2.16-1.9-1.98-1.71-3.48-4.55-3.63-7.26-.3-3.45,1.13-5.58,1.26-7.87.01-.04,0-.03,0-.03-.07-.1-.09-.13-.34-.22-1.82-.52-3.54.04-6.02-.83-1-.36-1.94-1.03-2.58-1.9-3.09-4.08,1.33-8.76,2.28-12.58,1.1-3.43,1.65-7.18,1.24-10.53-.63-7.5-7.74-10.48-14.33-10.99-3.82-.39-7.6,1.51-11.53,1.56-7.05.11-13.15-2.51-18.76-6.16-2.96-1.81-6.33-5.4-9.05-6.61-1.2-.44-3.3-.12-3.99.94-.46.97-.21,1.96-.09,3.33.78,4.12.08,8.77-4.47,10.47-5.32,1.75-10.64-.58-15.64-1.86-4.07-1.15-8.37-2.73-12.02-5.1-7.54-4.66-11.25-13.02-15-20.44-.63-1.15-1.23-2.29-2.11-3.02,0,0,.02.02.03,0,.08.03.19.02.27-.02h0ZM64.69.1c3.11-.72,5.14,2.58,6.62,4.64,1.16,1.72,2.29,3.37,3.45,4.94,2.34,3.14,4.89,5.94,7.59,8.28,4.16,3.69,8.97,5.76,14.35,7.22,3.54.88,7.23,2.53,10.77,2.22.01,0,.03,0,.05,0,0,0-.01,0-.02,0,.01.02-.04.02-.05.06,0,.04-.07.05-.07.1-.01.03-.04.04-.02.08.18-.84.02-1.48-.08-2.79-.31-2.56-.3-5.84,1.52-8.3,2.85-3.87,8.08-4.84,12.36-3.24,2.44.97,4.08,2.57,5.85,4.1,2.87,2.57,5.74,4.73,9.14,6.35,3.14,1.48,6.72,2.6,10.13,2.48,2.92-.1,5.68-1.26,8.7-1.5,2.27-.23,4.7.03,6.86.45,19.48,3.5,19.88,21.42,12.19,36.19-.1.29-.13.5-.13.45.02-.1-.06-.36-.14-.45-.11-.1-.23-.21-.18-.16,1.18.36,3.99.03,5.86.77,2.14.65,4.13,2.74,4.41,5.07.61,3.26-1.78,6.23-1.03,9.24.62,2.1,2.2,2.68,3.89,4.41.96.93,1.96,2.41,2.32,3.93,1.09,4.22-.7,8.79-4.16,11.3-2.68,2.15-6.38,2.02-8.67,4.23-.09.09-.14.22-.22.32-.07.08-.18.27-.13.19.04-.08.09-.33.07-.21-.1,2.81-.43,5.67-.84,8.39-.64,3.35-.89,7.72-3.62,10.37-.7.62-1.47,1.09-2.37,1.39-1.83.56-2.55.3-4.09,1.03-1.65.81-4.01,1.77-4.35,3.68-.17.88.13,1.24.09,2.55-.07,4.2-4.18,5.66-7.65,4.12-2.88-1.1-6.1-3.04-9-3.16-3.34-.26-6.72,2.73-7.08,5.99.06,2.45,1.62,4.61,2.46,7.38,2.02,6.42,3.21,12.87,1.61,19.62-.81,3.15-3.77,6.25-7.49,5.53-5-.58-9.83-7.15-14.47-3.96-1.46,1.09-2.2,2.72-3.76,4.22-1.7,1.72-4.22,2.7-6.73,2.13-.98-.23-1.7-.67-2.16-.95-1.75-1.12-3-1.78-4.88-2.6-2.15-.84-4.38-2.21-6.26-1.72-.18.06-.17.25-.26.51-.21.97-.64,2.43-1.27,3.32-1.58,2.5-4.61,4.86-7.73,3.75-.61-.17-1.99-.89-2.31-.97.1,0,.19-.07.23-.15.04-.1-.03.06-.11.35-.43,1.82-2.53,3.16-4.36,2.75-.23-.05-.27-.06-.32-.33.02-.04-.15-.33-.01.12h-.13c-.34.08-.85-.04-1.24.01-3.71.29-7.65-.32-9.13-4.26-.2-.42-.39-.8-.54-.99-.19-.2-.12-.09-.18-.1-.16,0-.71.26-1.19.77-.48.49-.93,1.15-1.16,1.74-.23.58-.21.98-.19,2.01.03.98-.08,2.12-.31,3.12-.58,3.3-2.17,7.25-6.42,5.9-2.06-.84-3.89-1.95-5.95-1.94-2.62-.18-6.11,1.81-7.67-1.5-.75-2,.27-3.61,0-5.5-.04-.84-.15-1.29-.44-2.11-.37-.96-.64-2.36-.59-3.45-.03-2.18,1.18-3.94,1.72-5.79.39-1.47.84-3.41.92-4.86-.03-1.23-.05-1.66-1.16-2.06-1.77-.54-4.04-.02-5.92-1.2-3.26-2.26-1.51-5.42.17-7.89.93-1.48,1.68-2.95,2.28-4.52.75-2.13,1.55-4.71,1.36-6.83.01.03.01.03.1.2.05.07.08.09.16.19.33.4.97.58,1.49.52.68-.13.61-.26.55-.17-.87.78-1.8,1.69-3.04,2.35-1.54.86-3.54,1.38-5.35,1.12-1.93-.32-3.64-.63-5.39.24-4.43,2.88-13.48,6.06-16.91.09-.68-1.33-.58-2.22-1.49-3.16-1.66-2.08-4.88-1.59-6.35-4.33-.39-.8-.52-1.7-.29-2.62.32-1.31,1.16-1.96,1.72-2.96.75-1.25,1.16-2.6,1.25-4.16.13-2.91-.08-5.94-.93-8.74-.23-.89-.72-2.48-.03-3.68,3.18-5.14,10.14.49,14.29.19.23-.02.32-.07.35-.09.03-.01.06-.05-.09.11-.22.31-.2.42-.2.34.2-1.5-.06-3.27-.15-4.83-.51-5.57-1.22-10.95-1.27-16.68,0-2.61.64-5.34,1.9-7.69.68-1.2,1.38-2.37,2.02-3.6,3.28-6.14,6.23-12.06,3.55-19.09-2.08-6.68-7.29-11.48-13.41-14.64-3.89-2.4-7.67-4.04-12.18-4.83-2.65-.5-4.88-3.07-3.1-5.92.62-1.14,2.08-2.53,2.85-3.49,1.15-1.33,2.34-2.79,3.49-4.17,1.32-1.72,2.82-3.17,3.23-4.99.11-1.47-.61-2.78-1.08-4.3-.16-.55-.37-1.33-.15-2.35.25-1.02.87-1.82,1.75-2.33,2.46-1.05,4.84-.78,7.12-1.6,3.53-1.3,7.8-1.47,11.49-1.23,4.56.13,9.24.71,13.74,1.23,3.6-.05,8.73-.74,11.32-3.17.95-1.36,2.12-2.64,3.72-3.28,1.32-.58,2.69-.6,3.79-1.23,1.09-.48,1.18-1.05,2.78-1.55h0Z"/>
    </g>
  </g>
</svg>