<?xml version="1.0" encoding="UTF-8"?>
<svg id="_Слой_2" data-name="Слой 2" xmlns="http://www.w3.org/2000/svg" viewBox="0 0 233.07 275.04">
  <defs>
    <style>
      .cls-1 {
        fill: #020000;
      }

      .cls-1, .cls-2 {
        stroke-width: 0px;
      }

      .cls-2 {
        fill: #0eac69;
      }
    </style>
  </defs>
  <g id="_Саракташский" data-name="Саракташский">
    <g>
      <path class="cls-2" d="M98.3,38.53c-2.74-.21-5.03.33-8.5,1.5-4.97,1.67-7.57,3.02-10,4-3.69,1.5-9.65,3.91-16,3-7.92-1.13-12.17-6.81-18-5-.55.17-1.24.45-3,1-4.22,1.32-6.33,1.98-8,2-4.76.04-7.52-3.46-8.5-2.5-.63.62.01,2.56,1,4,3.01,4.38,8.09,2.38,12.5,5.5,5.23,3.7,5.37,11.66,5.5,18.5.05,2.88.22,12.21-4,14-1.61.68-3.52.12-4.5,1.5-.82,1.16-.27,2.68,0,4,.49,2.4-.51,5.43-2.5,11.5-2.07,6.31-3.1,9.46-5,11-.48.39-4.43,3.5-8.5,2.5-2.51-.62-3.23-2.35-5-2-2.23.45-1.98,3.39-4.5,4.5-3.08,1.35-6.48-1.7-7.5-.5-.68.8.9,2.1,1,5,.11,3.31-1.84,4.93-1,6,.61.78,1.99.36,5,0,4.86-.59,7.29-.88,9,0,3.1,1.6,4.02,6.19,4,9-.04,5.79-4.11,7.9-3,10,1.85,3.52,12.71-3.54,22.5,1.5,2.19,1.13,4.98,3.2,8.5,2.5,1.98-.39,3-1.42,4.5-2.5,3.64-2.62,10.97-6.14,16-4,5.11,2.18,6.36,9.58,6.5,10.5,1.06,6.79-3,9.62-1,13,1.93,3.27,6.07,1.2,13.5,5.5,2.75,1.59,6.29,3.64,7.5,7.5,1.1,3.51-.28,6.75-1.5,9.5-2.65,5.99-5.52,6.51-13,15-5.53,6.27-5.85,8.13-9,9-4.13,1.15-9.27-.48-12.5-3.5-4.39-4.11-3.72-9.36-7-10-2.59-.51-3.71,2.62-7,2-2.15-.41-5.09-2.39-6-3-.79-.53-1.98-1.4-3-1-.45.18-.76.55-1,1-1.4,2.64.6,6.12-.5,9.5-.88,2.72-3.76,5.31-6.5,5.5-1.72.12-2.8-.75-4,0-1.11.69-1.64,2.34-1.5,3.5.27,2.19,3.19,3.92,17,8,11.11,3.28,12.22,2.6,15,5,2.62,2.26,2.06,3.23,9,12,2.76,3.49,4.02,4.81,6,6,1.29.78,5.79,3.47,10,2,2.96-1.04,3.76-3.42,5-3,1.45.5.75,3.88,2,9,.22.91,2.16,8.84,5,9,2.72.15,3.76-6.97,7-7,1.5-.02,2.13,1.5,7,7,4.05,4.57,5.01,5.11,6,5,2.09-.22,4.15-3.29,4-6-.18-3.26-3.48-4.36-3-7,.27-1.49,1.65-2.93,3-3,2.33-.12,3.07,3.95,5,4,2.85.07,2.69-8.76,9-15,4.29-4.24,6.02-1.8,12-7,4.63-4.03,5.96-7.55,10-8,3.01-.33,3.69,1.56,6,1,5.4-1.32,5.82-12.55,8.5-12.5,1.37.02,1.37,2.95,4,7,3.9,6.02,7.38,4.95,10.5,10.5.94,1.66-.01.67,3,10,1.25,3.88,1.94,5.69,1,7-1.51,2.09-5.7.82-6,2-.25.99,2.55,2.6,5,4,1.6.91,2.94,1.52,4,2,0,0,2.64,1.19,5,2,7.59,2.61,16.52-.79,19,3,.99,1.52-.13,2.53,1,4,2.48,3.23,11.11,2.61,13-1,1.51-2.88-2.69-4.98-3-11-.4-7.77,6.28-10.18,5-16-1.11-5.03-6.4-4.55-9-11-1.98-4.92-.78-9.84,0-13,2.25-9.18,7.75-12.23,6-17-.89-2.42-2.81-3.05-3-6-.19-2.96,1.65-3.95,1-6-.82-2.57-4.01-1.98-6-5-1.7-2.58-1.74-6.61,0-8,2.13-1.7,6.44.99,7,0,.49-.88-3.18-2.48-4-6-.86-3.7,2.21-6.13,1-8-1.02-1.57-3.44-.23-7-1-6.61-1.42-6.55-7.84-15-12-3.89-1.92-4.83-1.01-7-3-3.92-3.6-3.97-9.42-4-13-.03-4.32-.08-10.08,4-14,3.69-3.54,9.03-3.93,10-4,4.85-.35,7.1,1.57,9,0,2.14-1.77,1.38-5.93,1-8-.38-2.07-1.28-7.04-5-9-3.92-2.07-6.98,1.32-11-1-2.06-1.19-3.8-3.54-4-6-.25-2.97,1.93-3.95,4-9,1.35-3.28,1.72-6.01,2-8,.82-5.95-.44-7.5,1-12,1.03-3.21,1.9-3.11,2-5,.27-5.03-5.6-11.09-11-11-4.79.08-7.51,4.95-9,4-1.96-1.26,3.93-9.04,1-14-2.83-4.79-10.67-1.46-17-8-2.68-2.77-2.21-4.33-5-6-3.52-2.1-8.97-2.42-13,0-4.69,2.82-4.43,7.52-8,8-2.75.37-5.96-2.01-6-4-.03-1.49,1.72-2.01,5-5,3.02-2.75,4.78-5.27,6-7,2.85-4.07,5.03-7.18,4-9-1.41-2.49-8.74-2.53-12,1-2.26,2.45-.57,4.48-3,10-1.01,2.28-3.06,6.96-7,8-2.99.79-4.97-1.07-6,0-1.74,1.81,3.84,7.22,2,11-.79,1.63-4.19,2.42-11,4-4.87,1.13-7.07,1.19-9,1-2.43-.24-2.7-.82-5-1Z"/>
      <path class="cls-1" d="M98.09,41.33c-5.19-.14-10.27,2.5-15.07,4.45-10.48,4.84-19.29,6.44-29.87.55-2.84-1.35-4.69-2.23-7.4-1.09,0,0-1.36.46-1.36.46-6.38,2.16-11.14,3.94-17.48.06-.37-.21-.84-.42-.67-.35.93.3,2.28-.36,2.7-1.3.08-.15.12-.3.15-.38.03-.1.04-.22.05-.25.03-.26,0-.25.02-.22.54,2,2,2.97,4.08,3.31,1.62.35,3.89.61,6.17,1.61,8.92,3.91,9.05,15.31,9.15,23.34-.06,4.56-.02,8.57-2.49,12.98-.76,1.2-2.01,2.48-3.72,3.17-1.67.61-2.97.55-3.29.68-.09.02-.07.03-.02,0,.08-.02.2-.11.32-.21.21-.19.32-.44.34-.59.02-.11,0,0,.05.29,1.49,4.73-.69,9.73-2.03,14.14-2.31,6.79-3.28,13.33-11.07,15.94-2.49.93-5.51,1.1-8.1.03-.68-.27-1.31-.63-1.81-.95-.5-.32-.88-.58-.95-.6-.05-.03.03.03.16.05.14.04.33.04.44.03.2-.01.51-.15.64-.28.14-.13.03-.05-.15.27-2.76,5.67-7.93,5.64-12.46,3.82,1.51.1,2.82-1.37,2.78-2.84-.03-.59-.09-.55-.05-.49,1.07,2.17,1.53,5.05,1.04,7.49-.2,1.11-.62,2.22-1.01,3.24-.03.08-.04.18,0-.1.1-.81-.31-1.71-.94-2.21-.25-.21-.52-.35-.73-.43-.44-.15-.52-.11-.5-.12.06,0,.48-.03.9-.09,2.53-.34,4.72-.67,7.36-.88,1.79-.13,4.21-.15,6.12.85,4.4,2.3,5.95,7.37,6.1,11.94.2,3.33-1.39,7.23-3.09,9.83-.09.17-.08.19-.12.25.02-.02.03-.05.03-.07,0-.01.05-.17.04-.26.12-.88-.58-1.93-1.42-2.14,1.67.01,3.69-.54,5.93-.88,5.33-.96,11.42-.88,16.4,1.82,1.98,1,3.57,2.29,5.65,2.01,1.39-.28,1.86-1.07,3.37-2.07,1.83-1.29,3.7-2.3,5.7-3.19,11.19-5.01,19.95-.59,22.41,11.29.76,3.29.42,7.27-.73,10.43-.31.94-.56,1.75-.6,2.11-.03.38-.05.11,0,.29.05.05.01.04,0,.03,1.42.58,3.84.81,5.59,1.39,6.1,2.02,13.69,5.85,15.67,12.68,1.38,5.05-.55,9.38-2.75,13.65-2,3.82-5.46,6.44-8.35,9.24-2.67,2.55-5.17,5.28-7.56,8.14-1.31,1.52-2.59,3.39-4.42,4.76-6.22,4.07-14.96,1.15-19.39-4.24-2.08-2.41-2.84-5.5-4.01-7.99-.32-.53-.31-.49-.59-.6-.12-.02-.2-.05-.42.02-1.33.54-2.44,1.61-4.38,1.81-3.95.4-7.05-2.85-10.15-4.54-1.5,1.66-.23,4.49-.09,6.69.55,4.81-3.66,9.46-8.44,9.91-1.39.11-2.8-.41-2.96-.23-.07.06-.19.22-.29.43-.21.42-.23,1.12-.15,1.12-.02.09.48.57,1.15.96,2.3,1.3,4.95,2.13,7.53,3,5.43,1.75,10.86,3.31,16.42,4.63,1.99.44,4.54,1.29,6.09,2.74,1.63,1.25,2.91,3.3,3.98,4.96,2.05,3.11,4.38,6.12,6.73,9.01,2.19,2.9,4.83,4.74,8.1,5.69,2.32.6,4.27.42,5.99-1.11.92-.79,1.8-1.86,3.17-2.02,1.5-.24,2.99.77,3.5,2.12,0,0,.13.33.13.33l.08.27c.21.73.26,1.27.33,1.79.25,2.53.59,5.62,1.42,8.07.67,2.04,1.29,4.14,2.6,5.44,0-.01.01.04-.03,0-.04-.03-.09-.04-.13-.03-.23-.08-.53.17-.4.05,1.54-1.78,2.03-3.93,4.04-5.76,2.27-2.03,5.18-1.5,6.94.68,3.01,3.34,5.81,7.27,9.21,10.04.08.05.07.02-.03,0-.11-.03-.23,0-.17-.02,1.27-.44,2.24-2.99,1.82-4.05-.21-.99-1.3-1.91-1.95-3-.85-1.13-1.31-3.25-.77-4.67,1.46-4.55,6.73-5.95,9.43-1.74,0,0,.82,1.13.82,1.13.22.31.44.48.36.42-.08-.09-.6-.18-.92.02-.29.2-.09.09.03-.16,1.16-2.39,1.91-5.25,3.22-7.81,1.91-3.81,4.73-7.61,8.77-9.42,1.94-.8,3.4-1.05,5.03-2.07,3.1-1.91,5.3-4.59,7.9-7.4,2.38-2.83,6.92-4.45,10.45-2.77,1.2.58,1.52.59,2.48-.27,1.61-1.83,2.23-4.18,3.17-6.72.7-1.87,1.54-4.58,4.09-5.23,1.51-.42,3.29.5,4.02,1.87,1.05,1.9,1.41,3.5,2.49,5.25,1.76,3.37,4.54,4.92,7.55,7.1,1.91,1.62,3.32,3.35,4.35,5.76.64,2.24.87,3.57,1.56,5.66,1.28,4.98,6,12.69-1.24,15.29-1.37.49-2.73.42-4,.59-.08,0,.01,0,0,0-.03,0,.12-.03.18-.06,1.26-.53,1.88-2.38,1.06-3.5,2.08,1.71,5.17,3.04,7.63,4.28,0,0-1.27-.27-1.27-.27,2.54.55.79.19,1.38.32,1.46.63,3.02,1.25,4.51,1.76,3.37,1.09,6.48.93,10.32.85,2.03-.03,4.61-.09,6.81.6,2.23.74,4.27,2.6,4.66,5.06.13.77.09,1.39.09,1.65,0,.29.02.22-.02.07-.04-.15-.11-.25-.1-.24.04.05.71.5,1.64.63,1.72.38,4.61-.1,5.64-1.18-.01.02-.06.16-.06.26,0,.12,0,.15-.01.09-1.21-2.46-2.95-5.24-3.24-8.23-.53-3.39.31-7.38,2.04-10.27,1.12-2.26,3.11-4.1,2.82-6.28-.19-1-.54-1.4-1.37-2.09-1.79-1.38-3.71-2.59-5.32-4.64-6.3-8.2-3.38-19.79,1.02-27.94.88-1.73,2.62-4.09,2.66-5.56-.11-.7-.27-.84-.85-1.63-2.88-3.18-3.15-7.73-1.37-11.4.04-.13,0-.05,0,.09,0,.17.01.3.05.37.01.07.1.2.17.31.11.11.12.13.08.09-.26-.24-2.32-.91-4.04-2.42-3.29-3.09-4.46-7.35-3.22-11.88,1.71-5.12,6.54-5.5,10.95-4.11.27.07.53.1.36.08-.08,0-.14-.01-.38,0-1.92.13-3.51,2.29-3.05,4.26.15.61.26.81.53,1.22,0,0,.04.04.04.04l-.03-.03-.08-.08c-4.94-4.34-5.9-8.99-3.31-14.88.03-.08-.06.15.01.53.02.82,1.13,1.81,1.72,1.86.22.03.03,0-.15,0-.46,0-1.26.05-2.1.03-3.64.08-7.81-1.7-10-4.52-1.96-2.35-2.99-4.62-4.99-6.62-1.66-1.7-3.96-2.99-6.18-3.69-7.33-1.11-10.16-8.84-10.29-15.18-.29-6.22-.47-13.24,4.21-18.09,3.74-3.85,8.6-5.33,13.67-5.54,2.05-.15,4.32.47,5.97.52-.01-.02-.14,0-.28.05-.13.07-.19.09-.22.12-.07.06-.02,0,.03-.27.05-.27.08-.7.06-1.18-.13-2.82-1.26-9.18-4.34-9.64-.43-.11-2.61.32-3.18.4-1.88.36-4.4.16-6.25-.72-4-1.99-6.54-5.36-6.86-9.94-.32-3.59,2.57-6.45,3.96-9.25,1.1-2.15,1.81-4.43,2.27-6.95.55-2.8.67-4.86.66-7.8.01-3.19,1.02-6.82,2.76-9.51.17-.27.19-.32.2-.33.01,0,.04-.1.06-.29,0-.41.01-.82-.09-1.24-.89-3.71-5.2-7.51-9.06-6.62-1.91.49-3.64,2.39-5.54,3.41-1.64.96-4.04.47-4.99-1.27-1.57-3.16,1.06-6.73,1.51-9.75.76-3.45-.08-5.19-3.92-5.75-2.84-.5-6.05-1.14-8.74-2.61-2.2-1.21-4.09-2.86-5.58-4.87-1.17-1.48-1.5-3.15-3.18-3.95-3.76-2.02-9.21-1.59-12.01,1.78-1.33,1.55-2.12,3.85-4.08,5.44-4.6,3.74-13.89-1.19-11.69-7.2.65-1.36,1.34-1.75,2.23-2.52,0,0,1.62-1.27,1.62-1.27,4.48-3.65,8.07-8.55,10.77-13.61.19-.44.22-.81.22-.72-.02.05.08.24.11.33-1.64-.74-5.2-.45-6.88.87-.62.51-1.08.81-1.25,1.65-.3,4.21-1.83,9.08-4.34,12.75-2.79,4.4-7.36,6.34-12.26,4.8.73.07,1.64-.85,1.59-1.56.63,2.07,1.9,3.73,2.48,6.31,1.22,5.39-2.05,7.74-6.65,8.9-5.74,1.33-11.58,3.52-17.72,2.58-1.57-.22-2.4-.85-3.82-.92h0ZM98.52,35.73c2.76.24,4.96,1.33,7.79.93,2.45-.21,5.08-.87,7.81-1.5,2.19-.64,4.86-.95,6.73-2.07.08-.06-.09.07-.11.18.14-.4.11-.62,0-1.23-.37-1.57-1.62-3.7-2.26-5.6-.27-.78-.51-2.12-.18-3.16.36-1.65,2.24-3.02,3.89-2.92,1.35,0,2.31.48,3.3.54,4.27.18,7.16-7.69,7.56-11.28.04-5.08,3.82-8.48,8.75-9.35,3.79-.8,9.85-.05,10.49,4.79.11,3.82-2.35,6.37-4.17,9.23-2.43,3.63-5.42,7.16-8.88,9.87-.42.38-1.93,1.45-2.28,1.82-.14.12-.14.18-.03-.03.11-.23.11-.53.09-.58,0-.06-.02-.04.04.06.6.91,2.42,1.85,3.32,1.27,1.18-1.14,1.84-3.08,3.3-4.67,1.11-1.32,2.55-2.45,4.09-3.24,5.47-2.65,12.32-2.15,16.87,1.98,1.24,1.2,1.73,2.59,2.61,3.75,1,1.35,2.37,2.5,3.83,3.3,3.87,2.21,8.08,1.29,12.16,3.82,3.47,2.15,4.16,6.9,3.27,10.34-.43,2.34-1.45,4.43-1.86,6.57-.03-.65-.55-1.28-1.17-1.54-.43-.18-.85-.17-1.23-.06-.08.04-.02,0-.02,0,.01,0,.03-.01.04-.02l.27-.18,1.62-1.23c2.51-2.12,6.85-3.54,10.19-2.39,6.43,1.71,13.49,10.14,9.97,16.8-2.1,3.45-1.36,6.89-1.37,10.83-.03,1.55-.19,3.12-.36,4.53-.35,3.01-1.18,6.16-2.49,9.05-.74,1.85-2.14,3.79-2.88,5.35-.07.23-.06.21-.05.43.02.44.28,1.13.74,1.74.97,1.33,1.98,1.76,3.58,1.5,6.61-1.51,11.66,1,14.18,7.33,1.36,4.1,2.31,8.17,1.4,12.57-.51,2.55-3.15,5.35-6.03,5.37-2.6.04-4.33-.78-6.5-.79-5.78-.16-11.24,2.67-12.06,8.85-.43,2.46-.42,5.29-.4,7.83.12,3.68.64,7.11,3.34,9.37.37.28.55.39,1.02.54,1.97.48,4.58,1.41,6.35,2.5,3.74,1.83,7.51,6.22,10.11,8.48,2.31,1.79,4.38,1.38,7.24,1.28,1.51-.05,3.52.33,4.88,1.79,1.46,1.34,1.89,4.03,1.39,5.65-.43,1.83-1.41,3.16-1.21,4.4.15,1.27,2.03,2.57,2.99,3.77,1.82,2.07,1.44,5.64-1.29,6.92-2.16,1.13-4.58-.12-6.55-.34-.27-.02-.13.07.32-.2.23-.17.38-.28.43-.44,0,.02,0,.01-.02.04-.37,1.31.23,3.51,1.85,4.1.86.42,3.02,1.42,3.88,2.66,1.06,1.33,1.59,2.82,1.55,4.55.03,1.85-1.18,3.33-1.15,4.67.02.32.06.43.13.59.78,1.27,2.58,3.29,2.87,5.19.61,2.13.23,4.61-.68,6.57-.78,1.7-1.89,3.52-2.68,4.92-1.28,2.25-2.18,4.44-2.79,6.8-.95,3.78-1.55,6.83-.45,10.24,1.06,3.97,5.16,5.09,7.55,8.3,1.94,2.63,2.47,6.2,1.4,9.28-.68,2.26-2.42,4.4-3.36,6.11-1.66,2.8-1.82,5.85-.39,8.78.9,1.93,2.4,3.89,2.28,6.44-.85,10.01-21.43,10.16-20.61-.42,0,.08.09.23.09.23-.03.05.08.01-.15-.07-.35-.17-.66-.22-1.09-.28-4.06-.44-8.19.22-12.61-.6-2.95-.52-5.79-1.74-8.51-2.96.5.09-1.32-.3,1.14.21l-1.27-.27-2.73-1.39c-.89-.46-1.83-.92-2.64-1.43-1.65-1.04-3.47-1.95-4.73-3.74-1.32-1.9-.56-4.63,1.63-5.45,1.16-.46,2.35-.42,3.52-.51.36-.03.63-.09.81-.13.16-.05.14-.08.08,0-.06.05-.17.27-.18.35-.38-2.6-1.66-5.58-2.36-8.31-.37-1.31-.84-2.97-1.14-4.34-.3-1.18-.07-.89-.65-1.84-1.63-2.94-4.03-3.58-6.81-6.1-3.06-2.7-5.08-6.97-6.32-10.34,0,0,.16.19.3.25.4.3.99.37,1.39.26.25-.03.47-.17.66-.33-1.27,2.12-1.86,5.26-3.36,7.82-1.84,3.72-6.01,6.48-10.15,4.18-3.86-1.6-6.31,3.52-9.04,5.75-1.49,1.4-3.06,2.74-4.97,3.85-2.37,1.53-5.36,1.71-7.45,3.47-4.47,3.53-5.54,9.08-7.94,14.11-1.55,2.93-5.16,3.22-7.2.22-.35-.43-1.08-1.58-1.43-1.85-.14-.11,0,0,.11,0,.13-.02.06-.02-.06.05-.12.07-.29.23-.42.4-.63.97-.25.98.68,2.3,1.56,1.61,2.6,5.03,1.75,7.35-.88,2.7-2.25,4.99-5.43,5.81-3.62.72-6.48-3.95-8.63-6.04-1.77-1.87-3.4-4.24-5.2-5.95-.01,0,.09.05.18.05.07,0,.09.03.1.02.02-.05,0,.03-.01,0-1.99,1.75-2.67,5.69-5.68,6.75-6.35,1.88-8.7-10.18-9.31-14.48-.13-.89-.26-3.25-.49-3.98,0,0,0-.02,0,0,.01.03.03.06.05.09.08.12.38.41.71.47.24.11.67.03.9-.06.13-.08,0,0-.09.09l-1.06.96c-4.55,4.21-11.53,2.48-16.02-.71-1.8-1.2-3.24-2.85-4.56-4.45-3.06-3.7-5.92-7.72-8.52-11.72-.85-1.15-2.06-2.3-3.39-2.81-2.5-.88-5.45-1.4-8.08-2.18-5.65-1.62-11.2-3.17-16.65-5.44-2.79-1.1-6.53-3.31-5.95-6.89.22-2.33,2.03-4.84,4.62-4.81,1.26.04,1.83.35,2.77.35,2.05-.13,3.96-2,4.81-3.79,1.97-3.17-1.51-9.28,2.79-11.6,2.63-.94,4.43,1.26,6.51,2.21,2.74,1.33,3.83,2.06,6,.33,2.47-2.05,6.21-1.73,7.97,1.07,1.58,2.51,2.28,5.21,4.14,7.1,2.61,2.87,8.43,4.83,11.7,2.7.35-.28.86-.88,1.41-1.59,2.97-3.88,6.09-7.69,9.55-11.18,0,0,4.05-4.03,4.05-4.03,2.42-2.38,3.74-5.23,4.71-8.37,1.52-4.71-2.3-7.27-6.13-9.3-3.37-2.02-6.47-2.11-10.33-3.21-5.37-1.9-6.31-7.25-4.42-11.95,1.34-3.55.69-7.59-1.12-10.77-1.52-2.49-2.79-3.07-5.7-2.76-4,.58-7.76,2.8-11.26,5.45-3.46,2.38-8.49,2.06-12,.11-3.09-1.76-5.56-3.03-9.15-2.99-3.6-.1-7.36,1-11.09,1.33-4.05.51-8.11-2.38-7.01-6.95.34-1.47,1.62-3.24,2.12-4.26.98-1.87,1.12-3.9.69-5.94-.34-1.66-.88-2.78-1.74-3.35-.6-.22-1.32-.16-2.34-.12-2.13.15-4.68.48-6.9.77-.53.06-1.06.15-1.96.14-.45-.02-1.02-.02-1.91-.34-.9-.32-1.92-1.11-2.4-2.03-.84-1.21-.69-3.21-.23-4.38.44-1.18,1.05-2.53.78-3.79-.2-1.42-1.02-2.07-1.09-3.97-.07-2.04,1.5-3.95,3.5-4.31.91-.19,1.81-.06,2.67.16,1.62.44,2.55,1,3.58.87.15-.08.06.07.37-.34.14-.21.33-.54.63-1.05,1.42-2.83,5.19-4.44,8.19-2.72,2.05,1.22,2.79,2.08,5.32,1.21,1.11-.42,2.35-1.03,3.17-1.94.64-.81,1.34-2.54,1.95-4.23,1.18-3.41,2.5-7.23,3.5-10.67.33-1.31.68-2.43.59-3.66-.21-1.41-.76-2.76-.41-4.54.3-2.14,2.35-4.2,4.52-4.51.96-.27,1.75-.15,2.34-.37.06-.05.25-.14.53-.54,1.51-2.72,1.46-6.2,1.54-9.36-.29-5.99.62-14.61-5.21-17.6-1.23-.56-2.81-.81-4.92-1.24-2.31-.4-5.2-1.74-6.7-3.79-1.5-1.98-2.69-4.28-2.11-6.9.27-.82.78-1.74,1.64-2.22,1.02-.69,2.15-.65,3.19-.39,1.09.35,1.45.63,1.92.87l1.18.63c3.77,2.22,7.65.02,11.54-1.04,1.04-.3,1.75-.65,2.9-.91,7.51-1.83,12.97,5.09,20,5.24,11.56.71,21.33-9.13,33.03-8.51h0Z"/>
    </g>
  </g>
</svg>