<?xml version="1.0" encoding="UTF-8"?>
<svg id="_Слой_2" data-name="Слой 2" xmlns="http://www.w3.org/2000/svg" viewBox="0 0 305.85 138.74">
  <defs>
    <style>
      .cls-1 {
        fill: #020000;
      }

      .cls-1, .cls-2 {
        stroke-width: 0px;
      }

      .cls-2 {
        fill: #648006;
      }
    </style>
  </defs>
  <g id="_Сакмарский" data-name="Сакмарский">
    <g>
      <path class="cls-2" d="M16.05,23.52c-1.79-.63-3.05,2.65-7,3-2.25.2-4.5-.5-4.5-.5-1.89-.59-2.53-1.32-3-1-.93.63,1.36,3.6,1,8-.2,2.52-1.05,2.66-1,5,.06,3.03,1.52,5.28,2,6,1.5,2.24,2.48,2.08,6,5,4.53,3.76,4.41,5.28,7,6,3.24.9,6.35-.67,7-1,2.75-1.39,2.63-2.91,6-5,2.23-1.39,4.52-2.81,6-2,2.44,1.34.25,7.46,3,9,.81.45,1.36.12,3,0,4.42-.31,10.44,1.45,12,5,.97,2.2-.31,3.84,1,5,1.22,1.07,3.51.71,5,0,3.11-1.48,3.06-4.6,5-5,.63-.13,2.39-.17,6,5,6.14,8.8,5.36,15.12,9,16,2.13.51,5.45-.91,8-2,1.77-.76,2.84-1.45,4-1,1.8.71,1.32,3.21,3,4,1.67.79,3.96-.84,7-3,2.71-1.93,4.19-2.98,5-5,1-2.5-.11-3.74,1-5,1.6-1.82,5.6-1.12,8,0,2.75,1.28,5.82,4.22,6,8,.14,3-1.61,5.12-4,8-1.67,2.01-2,1.89-11,9-5.63,4.45-6.04,4.93-8,6-1.7.93-2.37,1.1-3,2-2.3,3.26-.33,10.71,4,12,2.52.75,5.43-.71,7-2,2.25-1.84,2.35-3.8,4-4,1.56-.19,3.35,1.35,4,3,.89,2.24-.79,3.51,0,5,1.33,2.5,6.74.2,9,3,1.11,1.37.09,2.27,1,7,.51,2.66.84,4.36,2,6,1.95,2.77,6.1,5.15,9,4,2.52-1,1.56-3.63,5-8,2.66-3.37,3.88-2.61,8-7,3.08-3.27,3.87-5.25,5-5,2.04.45.66,7.12,4,9,1.59.89,2.91-.05,7-1,1.57-.36,7.77-1.76,14-1,5.39.66,6.22,2.37,11,2,.97-.07,6.2-.48,7-3,.55-1.73-1.49-2.8-1-4,1.16-2.83,14.42-1.62,22-3,.54-.1,1.43-.28,2-1,1.76-2.22-2.11-6.2-1-8,2.06-3.33,17.56,6.79,26,1,1.57-1.08,3.65-3.22,5-6,.63-1.3.84-2.21,2-8,1.34-6.7,1.59-8.14,3-9,1.44-.88,3.53-.79,5,0,3.14,1.69,2.24,5.96,5,7,1.92.72,3.22-1.01,5,0,1.31.75,2.04,2.51,2,4-.07,2.58-2.41,3.45-2,5,.4,1.51,3.15,2.73,5,2,1.91-.75,1.43-3.01,4-6,1.2-1.39,3.65-3.63,5-3,1.59.74.07,4.7,2,6,1.55,1.04,4.77.01,6-2,1.25-2.04-.52-3.49,0-7,.61-4.15,3.37-4.13,4-8,.7-4.33-2.4-6.45-1-9,1.18-2.14,3.75-1.35,6-3,6.16-4.52,3.67-22.7-3-25-3.35-1.15-6.85,2-9,0-1.53-1.43-.09-3.37-2-6-.95-1.32-1.48-1.07-5-4-1.76-1.47-2.65-2.22-3-3-1.2-2.66.85-4.92,0-6-1.22-1.54-6.75,1.43-11,3-7.73,2.85-16.21,2.09-33,1,0,0-2.93-.19-7,0-3.53.17-5.33.26-7,1-1.62.71-3.08,2.14-6,5-3.53,3.45-3.04,3.54-4,4-4.29,2.05-9.23-2-11,0-.78.88-.02,1.89-1,3-1.31,1.48-3.96,1.14-5,1-4.76-.62-7.08-3.71-8-3-.9.7,1.61,3.44,1,7-.57,3.32-3.7,6.47-7,7-3,.49-3.59-1.6-8-2-4.73-.43-5.61,1.82-9,1-2.44-.59-2.59-1.9-8-7-3.88-3.65-4.11-3.23-8-7-3.98-3.86-5.97-5.79-7-8-2.08-4.47-.11-5.86-2-10-2-4.39-4.58-3.91-9-9-5.67-6.54-5.11-11.74-8-12-2.99-.27-3.32,5.29-10,10-5.32,3.75-7.37,1.83-12,6-.91.82-2.94,3.21-7,8-2.44,2.87-3.24,3.9-5,5-1.29.81-4.61,2.9-8,2-3.3-.88-3.3-3.7-6-4-2.5-.27-3.15,2.07-8,4-2.6,1.04-5.09,2.02-7,1-3.22-1.73-2.11-7.59-4-8-1.65-.36-2.33,4.16-7,8-5.08,4.19-11.5,4.77-14,5-1.28.12-2.15.1-3,0-.95-.11-5.13-.72-8-4-1.14-1.3-1.76-2.87-3-6-1.54-3.88-1.44-5.12-2.5-5.5Z"/>
      <path class="cls-1" d="M15.6,24.8c-1.48.73-2.67,2.15-4.53,2.67-2.29.74-4.56.46-6.79-.13,0,0-.06-.02-.06-.02,0,0-.06-.02,0,0,.1.03.21.04.32.04l-.4-.06c-.67-.21-1.34-.49-1.93-.78-.26-.14-.63-.29-.52-.25.07.04.54-.02.73-.23.12-.12.17-.24.21-.32.03-.13.03-.14.04-.15,0-.03.03.26.11.51l.25.87c1.09,3.1,1.22,6.84-.05,9.89-.31,2.03.36,4.42,1.54,6.19,1.22,2.08,3.63,2.94,5.41,4.54,1.9,1.45,3.95,3.64,5.5,5.29,2.43,1.99,6.4.81,8.67-.89,1.75-1.79,3.63-3.8,5.93-4.96,1.68-1.09,5.07-2.78,7-.69,1.99,2.35.93,5.34,1.86,7.75.16.34.33.45.46.54.07.02-.04,0,.12,0,6.19-1.15,16.63.73,16.9,8.68,0,.76.05,1.37.08,1.19,0-.08-.11-.32-.15-.39-.05-.08-.08-.1-.05-.11.09,0,1.03-.06,1.71-.4,1.71-.8,1.87-2.6,3.22-4.04,6.46-6.18,13.22,5.96,15.63,10.88,1.23,2.52,2.08,5.38,3.11,7.85.09.16.19.37.26.48.16.26.21.24.12.23.02-.04-.07,0,0,0,.04.02.16.03.31.03,1.89-.09,4.16-1.16,6.04-1.89,2.39-1.21,5.5-1.99,7.68.34.93.97,1.31,2.15,1.7,3.17.04.08,0,.01-.11-.08-.11-.08-.24-.14-.34-.15-.13,0-.14-.01-.12,0,.06-.01.17-.02.34-.08,1.46-.56,2.78-1.61,4.22-2.57,1.96-1.45,4.28-2.55,4.37-5.09-.31-3.67,1.92-5.98,5.46-6.29,7.95-.7,16.62,7.07,13.57,15.27-1.24,2.95-2.94,4.66-4.94,6.95-2.28,2.17-6.78,5.28-9.18,7.2-.85.65-6.65,5.22-7.54,5.83-1.01.87-4.02,2.17-4.39,2.58-1.65,2.57-.07,8.18,3.14,8.92,1.47.27,3.79-.71,5.16-2.02,1.04-.98,1.17-1.67,2.36-2.93,2.4-2.43,6.26-.48,7.67,2,.45.72.82,1.57.93,2.55.17,1.29-.23,2.32-.45,3.29-.02.15-.02.15-.02.13.03,0-.06.02.18.14,2.66.65,6.77-.07,8.71,2.85.82.9.83,2.89.78,3.75.04,2.75.49,5.97,1.53,8.48,1.11,2.18,3.6,4.27,6.19,4.51,1.59.13,2.29-.52,2.75-2.05.84-2.49,2.27-4.99,4.12-6.95.97-1.04,2.21-1.87,3.18-2.54,1.98-1.36,3.63-3.07,5.18-4.91,0,0,1.16-1.44,1.16-1.44.85-.98,1.32-2.01,2.92-2.48,3.74-.4,3.31,4.63,4.01,6.86.42,1.41.87,2.47,2.14,2.48,5.43-1.4,11.17-2.82,16.9-2.51,2.62.09,5.35.52,7.82,1.36,2.39.88,4.33,1.1,6.8.75,1.56-.21,3.26-.52,4.35-1.49.21-.24.3-.44.27-.58-.07-.61-.92-1.43-1.1-2.41-.53-2.84,2.9-3.67,4.82-3.95,5.13-.7,10.12-.48,15.18-.95,1.41-.23,3.41-.12,4.37-.91.13-.16.19-.37.15-.8-.24-1.68-1.55-3.45-1.64-5.56.02-2.56,2.62-3.09,4.5-2.72,8.17,1.43,18.97,7.47,25.16-.86,1.52-1.9,2.36-3.8,2.8-6.29,0,0,1.51-7.39,1.51-7.39.51-2.02.62-4.18,2.13-5.95,3.08-2.88,8.53-1.27,9.85,2.59.78,1.67.76,3.19,2.24,3.73,1.06.2,2.1-.58,3.53-.44.99.11,1.82.61,2.41,1.2,1.72,1.8,2.19,4.53,1.07,6.7-.42.92-1.11,1.5-1.43,2.21-.02.09-.01.07,0,.16.03.16.33.5.71.73.77.48,1.89.69,2.57.44.35-.12.49-.25.74-.66.73-1.67,1.62-3.68,2.93-5.1,1.55-1.53,3.12-3.49,5.7-3.41,1.11.07,2.04,1.39,2.08,2.36.29,1.26-.03,2.45.42,3.47.17.33.28.43.6.54,1.67.35,4.42-1.16,3.96-3.06-1.18-2.86-.91-6.77,1.09-9.36.94-1.2,1.66-1.89,1.99-2.73.78-2.07.38-3.91-.52-6.11-1.18-2.57-.16-5.86,2.65-6.78,1.73-.6,3.34-.65,4.46-1.91,4.01-4.54,2.28-18.04-2.91-21.1-2.33-.77-3.58.54-6.34.77-2.08.35-4.76-1.22-5.21-3.49-.44-2.02-.03-3.36-1.63-4.51-1.87-1.2-3.8-2.65-5.49-4.08-1.31-.98-2.77-2.8-2.9-4.62-.27-1.47.24-3.4.45-4.44,0-.01,0,.04,0,.1,0,.05.01.11.04.25.1.48.53.95.94,1.14.07.03.17.05.22.06.27.03-.25.04-.66.18-2.87.86-5.35,2.28-8.5,3.43-7.59,2.79-15.75,2.32-23.62,2.06-3.46-.12-6.93-.36-10.35-.7-3.63-.26-7.88-.25-11.42.25-1.96.39-3.23,1.94-4.8,3.33-1.34,1.28-2.65,2.49-3.86,3.83-.53.66-1.45,1.62-2.28,1.94-3.55,1.78-7.39.32-10.67-.37-.05,0-.1,0-.14-.01.01.01.04,0,.05-.01.05,0,.18-.04.24-.1.09-.05.21-.11.26-.21.14-.13.3-.52.28-.57,0-.07-.02.26-.07.79-.33,3.57-4.37,5.1-7.39,4.68-3.16-.12-6.44-1.71-8.96-3.36-.06-.04.11.04.17.04.02,0,.31.05.53,0,.17-.04.58-.12.84-.32.56-.35.99-1.12.9-1.77-.02-.12.03.12.11.35,1.08,2.48,1.69,6.45.2,9.15-2.03,4.35-7.43,8-12.23,5.95-2.38-1.19-3.81-1.72-6.22-1.61-1.01.04-1.83.32-3.21.74-2.34.78-5.44.38-7.33-1.3-2.4-2.26-4.31-4.67-6.74-6.8-1.84-1.75-3.88-3.12-5.78-4.85-3.81-3.76-8.59-7.18-9.96-12.68-.35-1.34-.35-2.93-.35-4.2,0-2.01-.85-4.04-2.18-5.43-2.75-2.28-6.35-4.76-8.45-7.87-1.62-2.11-2.93-4.57-3.94-6.99,0,0-.73-1.67-.73-1.67-.25-.51-.49-.98-.68-1.13-.01-.02,0,.02,0,0,0,0-.03-.01-.04,0-.02-.02,0,0,0,0,0-.02-.01,0-.03.01-.84.63-1.4,1.85-2.29,3.04-2.29,3.39-5.38,6.3-9.09,8.14-2.26,1.19-4.89,1.41-6.95,2.59-2.04,1.16-3.47,2.94-5.02,4.72,0,0-4.92,5.72-4.92,5.72-1.23,1.43-2.74,3.22-4.49,4.25-3.58,2.44-9.09,3.86-12.6.42-.9-.78-1.33-1.74-2.2-2.11-1.39-.43-1.86.61-3.53,1.62-1.12.77-2.36,1.44-3.62,1.96-4.39,2.01-9.82,3.24-11.66-2.71-.54-1.64-.57-3.04-1.07-4.29,0,.02.03.05.05.07.04,0,.16.14.28.12.29.09.59-.09.53-.08-.1.13-.25.26-.35.43-3.33,6.08-8.48,10.32-15.37,11.77-5.24,1.24-11.2,1.49-15.7-2.04-3.4-2.47-4.48-6.72-5.88-10.44,0,0-.58-1.78-.58-1.78-.09-.26-.19-.51-.26-.62-.09-.11.03,0,0-.03h0ZM16.5,22.25c1.69.57,1.99,2.69,2.52,4.09.78,2.17,1.74,4.71,2.82,6.69,3.32,5.2,10.09,5.15,15.48,3.75,4.6-1.09,8.79-3.53,11.44-7.49,1.3-1.63,2.35-5.32,5.16-4.82,3.51,1.05,1.78,6.67,4.48,8.14,1.69.69,4.11-.65,5.89-1.3,2.65-.9,4.02-3.01,6.77-3.89,1.78-.5,3.98.38,5.04,1.67,1,1.11,1.5,1.7,2.3,2.03,3.93,1.47,8.46-2.03,10.87-5.22,2.19-2.49,5.85-7.23,8.25-9.46,1.74-1.65,4.28-2.93,6.49-3.48,1.22-.35,2.24-.68,3.23-1.19,3.07-1.56,5.61-4.05,7.53-6.93,1.5-2.29,3.5-5.93,7.12-4.55,2.15.9,2.82,3.13,3.65,4.91,1.87,4.4,4.62,8.21,8.44,11.01.94.72,2.09,1.43,3.2,2.55,2.15,2.23,3.35,5.23,3.4,8.24-.22,3.7,1.08,6.2,3.64,8.7,3.43,3.64,7.22,6.89,11.02,10.14,2.3,2.06,4.46,4.48,6.65,6.53.35.27.54.38.93.49,2.31.63,3.99-1.04,6.59-1.09,1.54-.11,2.95-.01,4.45.32,1.98.34,3.31,1.53,4.83,1.65,2.14-.12,4.2-1.95,5.09-3.92.73-1.69.48-2.99-.52-5.47-1.3-2.81.68-5.83,3.87-4.77,1.61.65,3.14,1.86,4.65,2.32,1.19.42,3.92.9,4.76.32,0,0,.02-.03-.04.05-.05.07-.09.24-.08.15-.03-4.25,3.87-5.45,7.44-4.32,2.05.44,3.81,1.09,5.48.32.17-.13-.3.23-.13.08,1.43-1.75,3.11-3.39,4.67-4.95,1.99-2.01,4.54-4.43,7.55-5,4.83-.85,9.17-.79,13.99-.75,10.1.17,21.15,2.64,30.81-.41,2.79-.91,5.96-2.52,9.16-3.27.81-.14,1.56-.4,3.08-.12.44.15.91.26,1.32.57,1.1.7,1.75,2.14,1.61,3.4-.14,1.63-.87,2.57-.57,3.85.07.2,0,.07.06.18.12.19.53.6.95.98,1.19,1.12,2.84,2.46,4.16,3.41,1.37.87,2.7,2.21,3.29,3.76.76,1.63.63,3.71.73,4.09.03.08,0,.09.02.09-.01,0,.02.02.02.04.02,0,.04.02.05.04.02.02.11.09.49.08,1.28-.08,4.08-1.04,5.87-.8,7.05.95,8.94,9.92,9.34,15.76.3,5.31-1.1,12.9-7.31,14.21-.9.29-1.94.3-2.41.97-.46.72-.22,1.18.07,2.1,1.87,4.27,1.6,8.41-1.9,11.96-.6.81-.91,1.63-1.04,2.68-.26,1.74.5,3.68.23,5.58-.59,3.37-4.59,5.34-7.7,4.48-1.8-.5-2.51-2.61-2.49-4.18-.01-.8-.05-1.61-.25-2.19-.02,0,.07.06.05.04-.05-.04-.56.11-.98.38-1.86,1.18-3.45,3.05-4.34,5.13-.53,1.3-1.24,3.13-2.89,3.58-2.41.71-5.36-.22-6.42-2.7-.39-.93.06-2.17.6-2.85,1.64-1.78,1.68-3.64.33-5.23-.7-.59-.91-.61-2.31-.2-1.51.55-3.7.09-4.72-1.34-.9-1.19-1.2-2.49-1.72-3.72-.73-2.03-2.73-2.85-4.64-2.36-.43.11-.86.34-1.06.56-.94,1.19-1.01,3.13-1.44,4.68,0,0-1.49,7.42-1.49,7.42-.62,3.93-2.95,7.79-6.16,10.27-6.94,4.99-15.67,1.14-22.98-.63-.88-.23-2.5-.53-3.12-.34,0-.04.04,0,.01-.03,0,.01,0,.05-.01.09.19,1.68,1.42,3.11,1.64,5.24.44,4.24-3.93,4.51-7,4.78-2.57.24-5.1.33-7.62.43-2.5.12-5.03.2-7.37.56-.84.19-1.9.29-2.52.79.04,0,.08-.24.06-.25-.01,0,.07.19.22.43,4.71,7.65-9.77,8.94-14.25,6.72-4.51-1.53-9.46-1.42-14.28-.72-3.23.35-6.05,1.55-9.32,2.11-2.76.29-4.82-2.31-5.33-4.72-.49-1.71-.48-3.4-1.01-4.79.05.07.31.22.55.16.24-.08.11-.06-.02.09-.3.29-.71.8-1.09,1.28-1.2,1.44-2.52,3.08-3.91,4.37-2.63,2.58-6.23,4.04-7.94,7.39-1.09,1.62-1.32,3.47-2.5,5.23-2.77,3.39-7.76,1.52-10.58-.76-4.41-3.28-4.88-9.73-5.1-14.74-.26-.58-.79-.75-1.46-.95-2.54-.48-7.19.33-8.23-3.24-.54-1.37.36-2.86.28-4.02-.04-.74-1.25-2.26-2.13-2.22.04,0,.09-.04.01.02-2.21,3.62-6.23,6.76-10.84,6.22-6.46-1.01-9.68-10.64-5.95-15.77,1.4-1.68,3.54-2.12,5.15-3.44.82-.6,6.36-5.11,7.3-5.87,0,0,5.95-4.7,5.95-4.7,2.09-1.51,3.37-2.96,4.82-4.93,4.8-5.21-1.14-11.21-6.9-11.02-.43.03-.69.12-.84.22,0,.01,0,.01-.01,0,.01,0,.09-.11.11-.19.02-.07,0,0,0,.24l.02,1.01c.15,4.23-3.3,7.36-6.4,9.41-2.06,1.44-4.18,3.29-6.89,3.8-1.93.43-4.45-.78-5.29-2.58-.44-.68-.55-1.34-.85-1.85-.07-.13-.08-.09,0,0,.08.08.22.2.32.22.1.05.29.07.34.06.05,0-.03.01-.19.08-3.04,1.34-6.27,3.11-9.82,3.32-5.39.32-7.03-4.79-8.5-8.82-1.8-4.4-4.09-9.22-7.73-12.28-.06-.04-.06-.02.11,0,.18.02.54,0,.72-.1.22-.07.38-.27.35-.24,0-.02-.11.11-.24.29-1.09,1.96-3.25,4.27-5.61,4.88-3.58,1.35-8.97-.11-8.51-4.84.11-1.07.31-2.07-.36-2.96-2.28-2.8-6.76-3.74-10.33-3.4-.78.12-1.97.23-2.8-.26-.98-.52-1.64-1.43-1.95-2.26-.76-1.91-.41-4.22-.74-5.92-.21-.76-.13-1.12-.84-1.08-1.71.35-4.28,1.98-5.77,3.22-1.82,1.95-3.84,3.99-6.54,4.66-2.74.87-6.3.89-8.54-1.22-1.08-1.05-1.75-1.94-2.64-2.79-2.16-2.35-4.9-3.83-7.34-5.92-2.88-3.06-4.33-7.86-2.63-11.82.63-2.17.2-4.51-.47-6.67-.13-.8-.53-1.26-.48-2.29,0-.17.01-.33.11-.61.07-.24.21-.48.45-.71,1.51-1.33,2.98.35,4.38.63,0,0-.4-.06-.4-.06.25,0,.46.08.7.14,2.59.68,5.15.58,7.26-1.22,1.03-.82,2.51-1.94,3.99-1.36h0Z"/>
    </g>
  </g>
</svg>