<?xml version="1.0" encoding="UTF-8"?>
<svg id="_Слой_2" data-name="Слой 2" xmlns="http://www.w3.org/2000/svg" viewBox="0 0 336.16 328.69">
  <defs>
    <style>
      .cls-1 {
        fill: #020000;
      }

      .cls-1, .cls-2 {
        stroke-width: 0px;
      }

      .cls-2 {
        fill: #63a000;
      }
    </style>
  </defs>
  <g id="_Светлинский" data-name="Светлинский">
    <g>
      <path class="cls-2" d="M178.03,8.75c-6.35,3.12-4.78,6.41-14,12-2.39,1.45-4.5,2.44-6,5-2.25,3.84-1.35,8.23-1,10,1.84,9.25,2.19,18.75,4,28,3.87,19.72,1.35,17.72,4.5,28.5,3.51,12,7.18,16.36,4.5,20.5-2.6,4.01-9.66,5.48-17,7-3.36.7-2.86.3-6,1-6.83,1.53-9.66,3.52-15.76,3.6-.58,0-1.52.04-2.74-.1-2.4-.27-9.02-1.07-14-6-8.22-8.15-3.25-19.01-10.5-23.5-4.14-2.56-10.6-2.02-13,1-2.48,3.13.42,7.61,4,22,3.77,15.12,2.38,17.46,1.5,18.5-2.47,2.9-7.59,3.26-17,4-1.49.12-3.06.19-5.56.23-4.81.08-11.57,0-19.94-.73-.48-.13-6.18-1.6-8,1-.38.55-.84,1.62-.5,2.5,1.68,4.3,20.12-3.64,27,4,1.71,1.9,1.88,3.64,3,11,1.22,8.02,3.07,15.94,4,24,3.02,26.21,5.34,39.22,6,43,3.07,17.63,4.98,22.4,1.5,28.5-3.43,6.01-10.23,10.06-17,11-1.13.16-9.89,1.25-17-4-5.05-3.73-6.11-8.33-9-8-2.94.34-2.41,5.17-7,8-4.78,2.94-8.63-.27-12,3-2.03,1.97-1.1,3.59-4,7-1.14,1.34-2.61,3.06-5,4-4.62,1.81-8.9-.8-10,1-.31.5-.03.78,0,2,.08,3.99-2.86,5.28-2.5,7.5.27,1.7,2.2,2.26,8.5,5.5,2.19,1.13,4.33,2.34,6.5,3.5,8.1,4.34,9.15,10.47,20,20,5.27,4.63,7.9,6.94,8,7,7.5,4.47,15.43,3.7,31,2,21.04-2.3,31.56-3.46,35-4,14.7-2.32,17.4-3.49,27-4,13.23-.7,14.18,1.18,22,0,10.46-1.58,15.98-6.04,30-15,0,0,15.59-9.96,34-20,17.83-9.73,27.99-15.26,43-21,15.34-5.86,28.44-9.13,31-19,.72-2.79.32-5.01,0-7-.6-3.72-.73-17.48-1-45-.13-13.02.74-7.63,2-40,.95-24.26,1.42-36.4,1-40-1.65-14.2-4.84-21.5,0-28,3.75-5.04,11.19-8.05,16-10,7.99-3.24,12.86-3.22,13-5,.19-2.35-8.19-3.43-19-9-7.28-3.75-14.81-7.63-20-15-8.56-12.16-3.62-23.69-11-27-4.5-2.02-7.74,1.64-17-1-4.39-1.25-3.95-2.16-8-3-6.7-1.39-9.01.86-15-1-3.84-1.19-3.56-2.33-7-3-4.58-.9-5.95.94-11,1-6.02.07-6.72-2.52-13-3-3.97-.3-4.9.64-12,2-13.76,2.63-14.09-.16-19.5,2.5Z"/>
      <path class="cls-1" d="M179.95,12.66c-2.6,1.14-3.74,3.08-5.57,5.16-1.19,1.36-2.58,2.65-3.99,3.75-2.16,1.76-5.73,3.62-7.65,5.06-1.5,1.34-1.98,3.09-1.98,5.17,0,1.2.28,2.7.52,3.93,1.19,6.44,1.71,12.77,2.46,18.87,1.17,9.34,3.49,18.62,3.88,28.04.63,7.59,3.71,14.44,6.15,21.65,5.45,15.15-12.65,17.84-23.32,19.56-4.21.47-7.5,1.83-11.96,3.05-6.92,1.81-14.28,1.07-20.78-2.19-6.94-3.47-10.8-10.1-11.8-17.41-.5-2.74-.68-5.74-1.87-7.99-1.79-3.34-8.17-4.08-10.64-1.48-.33.66-.11,1.5.03,2.42,1.87,7.48,4.42,14.95,5.89,22.69.72,4.4,1.87,8.65.58,13.21-2.83,6.48-11.82,5.87-17.52,6.45-3.12.17-6.43.18-9.57.05-6.32-.35-12.61-1.13-18.85-2.11-.48-.11-.95-.31-1.45-.43-1.22-.09-2.45.32-3.46.51-.89.18-1.63.39-2.04,1.17-.17.43-.29.8-.16.97.94.53,2.33.38,3.49.35,7.97-.58,21.93-3.85,25.44,6.54.78,2.62,1.57,8.59,2.08,11.31,0,0,1.39,7.37,1.39,7.37,2.07,9.82,3.02,19.95,4.43,29.9,1.89,15.1,4.9,29.57,7.47,44.61,2.4,12.03-7.82,21.92-18.83,24.3-5.5,1.19-11.26.67-16.5-1.47-4.51-1.79-8.13-5.44-10.99-9.2-.34-.41-.65-.67-.76-.74-.14-.06.18.08.29.04.1,0,.19-.03.27-.09.04-.02.07-.02.09-.06.01-.02,0,.03-.01.03-.23.24-.81,1.55-1.5,2.81-.7,1.29-1.72,2.69-2.99,3.78-2.32,2.16-6.07,3.21-9.03,3.07-1.34,0-2.4-.02-2.92.16-.55.16-.94.49-1.26.9-.13.18-.22.37-.4.87-.17.48-.41,1.23-.74,1.97-2.73,5.81-8.51,10.33-15.15,9.55-.73-.05-1.4-.12-2-.19-.56-.06-1.19-.07-1.07-.07,1-.23,1.59-1.1,1.66-2.17,0-.35-.02-.3.01-.15l.08.6c.43,2.94-.81,5.89-2.35,8.18-.05.09-.05.12-.09.18,0,.02,0,.04,0,.02.03-.05.04-.21.05-.37-.02-.13-.06-.38-.18-.59-.14-.22-.19-.26-.17-.24,3.44,1.95,7.5,3.75,11.01,5.7.44.22,2.04,1.09,2.52,1.33,4.02,2,7.66,5.64,10.27,8.96,3.18,3.95,6.2,7.43,9.83,10.58l5.31,4.61,2.63,2.31c4.56,3.14,9.77,3.16,15.8,2.9,8.26-.5,21.16-2.14,29.64-3.06,3.07-.43,15.87-1.71,18.6-2.12,5.89-.89,12.72-2.29,18.63-3.14,5.24-.71,10.36-.94,15.65-.88,5.01.01,9.53,1.09,14.38.26,7.15-.93,12.82-4.25,19.08-8.26,4.19-2.67,8.4-5.47,12.74-8.13,8.59-5.32,17.31-10.4,26.12-15.36,13.37-7.34,26.37-14.84,40.48-20.96,8.99-3.99,19.01-6.98,27.55-11.39,4.08-2.22,8.19-5.37,7.97-10.13-.27-1.98-.9-5.14-1.03-7.13-.6-6.33-.88-12.77-1.22-19.04-.36-7.35-.81-15.31-.75-22.61-.09-4.95.29-10.75.79-15.61,1.04-12.4,1.49-24.8,2.09-37.34.16-7.5,1.22-19.91.66-27.25-.65-6.48-2.26-12.64-2.38-19.37-.35-9.93,6.74-16.78,15.05-20.71,6.01-2.99,12.23-5.07,18.51-6.69.13-.04.17-.06.26-.09.08-.03.17-.05.15-.05h.02c-.19.09-.68.43-.89.7-.68.71-1.2,1.76-1.25,2.9-.1,1.43.54,3.01,1.57,3.73-1.56-.78-3.25-1.37-5.02-2.03-4.76-1.74-9.96-4-14.39-6.44-10.16-5.01-19.96-11.82-23.97-23.01-1.94-4.87-2.53-10.82-3.31-15.49-.19-.97-.44-1.68-.63-2.06-.21-.35-.24-.43-.59-.65-1.33-.66-2.54-.16-4.54-.03-4.4.55-9.04-.14-13.22-1.64-1.76-.47-3.4-1.74-4.98-2.28-4.04-1.41-7.85-.34-12.19-.72-3.11-.38-6.32-1.34-8.88-3.08-.52-.33-.67-.42-.95-.54-.27-.11-.66-.22-1.11-.32-2.31-.45-3.25.1-5.87.6-3.11.59-6.14.65-9.3-.15-2.3-.58-4.51-1.85-6.8-2.18-2.06-.31-3.77-.26-5.77.33-3.74,1-7.61,1.82-11.49,2.4-2.62.37-5.43.56-8.12.54-2.56.03-3.24-.24-5.37.82h0ZM176.1,4.83c1.52-.7,3.22-1.38,4.9-1.56,4.32-.4,7.2.15,11.28-.55,5.13-.45,10.02-2.28,15.21-2.7,3.8-.14,7.4.85,10.76,2.36,3.73,1.66,6.82.38,10.89-.34,3.43-.51,7.12.22,9.99,1.98,5.16,3.29,11.26.38,17,1.8,2.07.2,4.57,1.31,6.35,2.19,3.27,1.32,6.83,1.75,10.35,1.18,8.16-1.92,15.13,1.32,17.12,10.02,1.54,7.04,2.04,13.74,6.43,19.12,5.14,7.03,14.24,11.54,22.2,15.13,3.35,1.47,6.84,2.59,10.38,3.93,1.38.58,3.05,1.2,4.35,2.24,4.54,3.45,3.51,9.98-1.84,12.06-1.72.73-3.69,1.17-5.19,1.63-6.3,1.95-13.11,4.47-18.14,8.47-2.99,2.47-3.48,4.91-3.15,8.47.38,4.57,1.59,9.72,2.2,14.51.38,2.68.67,5.74.6,8.34-.38,22.42-.97,45.64-2.57,68.01.12,10.01-.32,34.37-.6,44.68,0,0,0,3.65,0,3.65-.04,3.01.48,4.68.4,7.85-.62,14.83-17.31,19.4-28.65,23.44-14.22,4.77-27.4,11.08-40.63,18.31-13.28,7.06-26.25,14.44-38.96,22.42-11,6.55-21.32,15.76-34.66,17.66-5.11.97-10.66,0-15.67-.04-7.3-.1-14.47.74-21.66,2.2-8.69,1.86-21.13,3.11-30.03,4.15,0,0-15.05,1.74-15.05,1.74-7.66.77-15.44,2.03-23.35,1.36-4.03-.35-8.4-1.59-11.94-3.82-3.07-2.67-6.45-5.61-9.42-8.32-3.91-3.52-7.4-7.74-10.43-11.67-1.53-1.93-2.96-3.65-4.56-5.01-1.67-1.44-3.78-2.53-5.72-3.59-3.35-1.93-6.59-3.48-10.03-5.32-4.77-2.44-5.51-6.51-2.3-10.85.9-1.55.55-2.12.5-3.85.08-2.21,1.83-3.9,3.87-4.28,1.24-.24,2.43-.05,3.15.02,3.79.68,6.53.06,8.84-2.96,1.29-1.45,1.57-2.12,2.2-3.86.87-2.65,3.36-5.08,6.16-5.72,3.76-.87,6.67.65,9.51-1.75,2.27-1.82,2.59-5.45,5.37-7.07,5.53-2.89,8.24,3.14,11.31,6.28,4.63,4.73,11.9,6.25,18.29,5,4.34-.91,8.52-3.17,11.47-6.42,3.21-3.47,4.17-7.13,3.48-11.87-.57-4.75-1.62-9.75-2.45-14.7-1.74-9.94-3.11-19.94-4.34-29.93-1.26-9.96-2-19.87-3.9-29.76-1.22-6.03-1.82-12.42-3.04-18.4-1.78-5.73-9.29-5.41-14.36-5.16-3.85.09-7.95,1.25-11.86.12-3.02-1.04-2.61-5.06-.31-6.61.83-.62,1.91-.93,2.82-1.01,2.06-.12,3.6.92,5.54,1,7.8.1,17.13-.41,25.39-1.25,3.69-.45,7.87-.74,11.21-1.58,1.64-.44,2.67-.88,3.49-1.81.06-.1.03-.03.08-.17.08-.21.16-.81.16-1.42.02-2.73-.62-5.82-1.18-8.6-1.51-7.73-4.15-14.99-6.07-22.7-2.76-10.91,10.88-14.13,18.43-9.45,5.01,2.97,5.92,9.09,6.7,14.15.71,3.98,1.82,7.03,4.47,9.66,4.07,3.89,10.14,5.36,15.75,4.92,4.52-.39,8.29-2.38,13.09-3.42,3.09-.73,6.09-.94,9.28-1.76,2.98-.67,5.91-1.38,8.33-2.42,1.58-.73,2.84-1.37,3.56-2.61.15-.26.17-.42.2-.72,0-1.92-1.43-5.19-2.22-7.37-2.26-6.09-4.59-12.53-5.16-19.09,0,0-.4-4.64-.4-4.64-.74-7.72-2.77-15.36-3.71-23.06-.83-6.31-1.4-12.48-2.56-18.35-.84-3.82-1.16-7.68.29-11.54.78-2.07,2.11-4.06,3.79-5.52,3.93-3.2,7.81-4.45,10.74-8.1,1.91-2.38,4.1-5.1,6.94-6.61,0,0,1.28-.69,1.28-.69h0Z"/>
    </g>
  </g>
</svg>