<?xml version="1.0" encoding="UTF-8"?>
<svg id="_Слой_2" data-name="Слой 2" xmlns="http://www.w3.org/2000/svg" viewBox="0 0 225.33 190.12">
  <defs>
    <style>
      .cls-1 {
        fill: none;
        stroke: #000;
        stroke-miterlimit: 10;
        stroke-width: 6.32px;
      }

      .cls-2 {
        fill: #30563c;
        stroke-width: 0px;
      }
    </style>
  </defs>
  <g id="_Северный" data-name="Северный">
    <g>
      <path class="cls-2" d="M217.16,125.17c2.63,1.93,5.14,2.43,5,3-.29,1.21-10.89-2.82-16,2-1.84,1.73-2.22,3.91-5,5-2.56,1.01-4.36,0-5,1-.99,1.55,3.11,4.29,4,9,.67,3.51-.76,6.45-2,9-2.38,4.9-9.02,14.28-16,13-5.5-1.01-9.81-8.38-11-14-.72-3.41-.21-5.82-2-7-2.51-1.66-5.27,1.9-10,1-4.98-.95-6.39-5.75-9-5-2.36.67-1.47,4.67-5,8-1.85,1.75-4.97,3.37-8,3-5.88-.71-9.7-8.72-11-14-1.85-7.52.79-12.14-2-14-2.17-1.45-6.29-.35-8,2-2.05,2.81.75,5.47-1,9-2.15,4.34-7.83,3.28-9,7-.99,3.17,2.82,4.96,2,9-.71,3.51-3.87,3.55-5,7-1.77,5.39,4.08,11.01,3,12-1.56,1.44-12.51-11.53-18-9-4.78,2.2-2.3,14.68-7,16-1.91.53-2.82-1.38-8-2-1.88-.23-6.06-.73-7,1-1.04,1.9,2.92,4.47,2,7-.9,2.46-5.99,3.72-8,2-1.86-1.59-.28-5.04-2-6-1.59-.89-3.44,1.79-6,1-2.1-.65-2.21-2.86-4-3-1.92-.15-2.84,2.33-4,2-1.89-.53-.14-7.23-3-9-2.06-1.28-4.21,1.44-7,0,0,0-.78-.4-4-5,1.38-4.11.92-6.04,0-7-1.88-1.96-6-.2-7-2-.71-1.29,1.19-2.52,1-5-.24-3.07-3.97-3.58-4-6-.03-1.86,2.07-1.93,4-5,2.18-3.47.82-5.47,3-9,1.04-1.68,2.18-2.57,4-4,6.6-5.17,11.03-4.02,13-8,.88-1.78,1.12-4.29,0-6-.54-.82-1.36-1.41-3-2-5.5-1.99-9.81-.28-16-2-.68-.19-1.37-.42-2-1-1.99-1.85-1.36-5.41-1-8,.16-1.11,2-14.2,0-15-1.64-.66-4.13,7.7-9,8-4.55.28-9.82-6.54-10-13-.11-4,1.7-8.72,4-9,2.39-.29,3.82,4.42,6,4,1.98-.38,3.01-4.7,3-8-.02-4.06-1.63-4.71-2-8-.81-7.19,6.24-9.83,5-15-1.22-5.11-8.79-5.34-9-10-.11-2.41,1.79-5.05,4-6,3.6-1.56,7.25,1.71,9,0,1.3-1.26-.36-3.39,1-5,1.63-1.92,6.06-1.38,9,0,2.53,1.19,2.8,2.46,5,3,2.28.56,4.46-.21,6-1,.66-.43,1.7-.97,3-1,2.12-.05,2.74,1.28,4,1,1.7-.38,1.4-3.02,4-7,1.62-2.48,2.2-2.16,3-4,1.31-3-.01-4.36,1-7,.95-2.48,3.63-5.21,6-5,3.94.34,4.22,8.51,8,9,3.64.48,5-6.9,11-8,2.17-.4,2.51.47,10,3,9.85,3.32,11.25,2.49,14,5,3.57,3.26,3.22,6.48,6,7,2.69.5,3.31-2.46,8-3,2.83-.33,5.66.4,8,1,.98.25,1.86.5,3,1,2.1.92,5.35,2.34,6,5,.27,1.08-.23,2.13-1,4-.35.85-.72,1.53-1,2-.67.33-1.33.67-2,1h-2c-1.58.07-2.56.68-3,1-1.09.8-2.13,2.25-1.78,2.78.17.25.61.23.78.22,2.86-.13,7.34-.03,8,0,4.12.16,5.4,2.96,7,2,1.64-.98.18-3.76,2-6,2.39-2.94,7.46-1.32,8-3,.59-1.82-5.4-3.6-6-8-.3-2.21.91-3.97,3-7,2.77-4.02,5.82-8.44,9-8,4.6.64,6.88,11.1,7,14.92v.08c.23,3.63,13.14,3.25,14,7,.71,3.1-7.52,5.8-7,10,.42,3.43,6.26,4.35,6,7-.19,1.92-3.41,3.07-6,4-1.75.63-5.04,1.76-9,1-4.16-.8-6.8-3.27-7-3-.34.47,8.94,5.89,8,9-.76,2.51-8.31,3.99-13,1-3.54-2.25-3.46-5.76-6-6-2.95-.28-6.65,4.13-6,7,.4,1.77,2.16,1.71,3,4,.87,2.37-.92,3.61,0,6,.47,1.24,1.56,2.56,3,3,2.1.64,3.01-1.21,5-1,1.48.16,2.8,1.37,8,11,2.18,4.03,2.22,4.32,3,5,3.53,3.06,7.66,1.49,9,4,.36.68.13.93-1,6-1.14,5.09-1.54,7.65-3,8-.84.2-1.53-.44-2,0-.43.41,0,1.11,0,3,0,1.46-.25,1.75,0,2,.69.7,2.92-1.18,6-2,2.98-.79,3.86.31,7,0,1.02-.1,7.19-.71,11-5,3.45-3.89,1.94-7.4,5-9,2.83-1.48,7.28-.12,8,2,.85,2.52-3.84,5.17-3,7,1.18,2.58,11.23-1.06,13,2,1.12,1.93-2.56,3.92-3,9-.47,5.38,2.95,11.04,7,14Z"/>
      <path class="cls-1" d="M30.16,166.17c1.38-4.11.92-6.04,0-7-1.88-1.96-6-.2-7-2-.71-1.29,1.19-2.52,1-5-.24-3.07-3.97-3.58-4-6-.03-1.86,2.07-1.93,4-5,2.18-3.47.82-5.47,3-9,1.04-1.68,2.18-2.57,4-4,6.6-5.17,11.03-4.02,13-8,.88-1.78,1.12-4.29,0-6-.54-.82-1.36-1.41-3-2-5.5-1.99-9.81-.28-16-2-.68-.19-1.37-.42-2-1-1.99-1.85-1.36-5.41-1-8,.16-1.11,2-14.2,0-15-1.64-.66-4.13,7.7-9,8-4.55.28-9.82-6.54-10-13-.11-4,1.7-8.72,4-9,2.39-.29,3.82,4.42,6,4,1.98-.38,3.01-4.7,3-8-.02-4.06-1.63-4.71-2-8-.81-7.19,6.24-9.83,5-15-1.22-5.11-8.79-5.34-9-10-.11-2.41,1.79-5.05,4-6,3.6-1.56,7.25,1.71,9,0,1.3-1.26-.36-3.39,1-5,1.63-1.92,6.06-1.38,9,0,2.53,1.19,2.8,2.46,5,3,2.28.56,4.46-.21,6-1,.66-.43,1.7-.97,3-1,2.12-.05,2.74,1.28,4,1,1.7-.38,1.4-3.02,4-7,1.62-2.48,2.2-2.16,3-4,1.31-3-.01-4.36,1-7,.95-2.48,3.63-5.21,6-5,3.94.34,4.22,8.51,8,9,3.64.48,5-6.9,11-8,2.17-.4,2.51.47,10,3,9.85,3.32,11.25,2.49,14,5,3.57,3.26,3.22,6.48,6,7,2.69.5,3.31-2.46,8-3,2.83-.33,5.66.4,8,1,.98.25,1.86.5,3,1,2.1.92,5.35,2.34,6,5,.27,1.08-.23,2.13-1,4-.35.85-.72,1.53-1,2-.67.33-1.33.67-2,1h-2c-1.58.07-2.56.68-3,1-1.09.8-2.13,2.25-1.78,2.78.17.25.61.23.78.22,2.86-.13,7.34-.03,8,0,4.12.16,5.4,2.96,7,2,1.64-.98.18-3.76,2-6,2.39-2.94,7.46-1.32,8-3,.59-1.82-5.4-3.6-6-8-.3-2.21.91-3.97,3-7,2.77-4.02,5.82-8.44,9-8,4.6.64,6.88,11.1,7,14.92v.08c.23,3.63,13.14,3.25,14,7,.71,3.1-7.52,5.8-7,10,.42,3.43,6.26,4.35,6,7-.19,1.92-3.41,3.07-6,4-1.75.63-5.04,1.76-9,1-4.16-.8-6.8-3.27-7-3-.34.47,8.94,5.89,8,9-.76,2.51-8.31,3.99-13,1-3.54-2.25-3.46-5.76-6-6-2.95-.28-6.65,4.13-6,7,.4,1.77,2.16,1.71,3,4,.87,2.37-.92,3.61,0,6,.47,1.24,1.56,2.56,3,3,2.1.64,3.01-1.21,5-1,1.48.16,2.8,1.37,8,11,2.18,4.03,2.22,4.32,3,5,3.53,3.06,7.66,1.49,9,4,.36.68.13.93-1,6-1.14,5.09-1.54,7.65-3,8-.84.2-1.53-.44-2,0-.43.41,0,1.11,0,3,0,1.46-.25,1.75,0,2,.69.7,2.92-1.18,6-2,2.98-.79,3.86.31,7,0,1.02-.1,7.19-.71,11-5,3.45-3.89,1.94-7.4,5-9,2.83-1.48,7.28-.12,8,2,.85,2.52-3.84,5.17-3,7,1.18,2.58,11.23-1.06,13,2,1.12,1.93-2.56,3.92-3,9-.47,5.38,2.95,11.04,7,14,2.63,1.93,5.14,2.43,5,3-.29,1.21-10.89-2.82-16,2-1.84,1.73-2.22,3.91-5,5-2.56,1.01-4.36,0-5,1-.99,1.55,3.11,4.29,4,9,.67,3.51-.76,6.45-2,9-2.38,4.9-9.02,14.28-16,13-5.5-1.01-9.81-8.38-11-14-.72-3.41-.21-5.82-2-7-2.51-1.66-5.27,1.9-10,1-4.98-.95-6.39-5.75-9-5-2.36.67-1.47,4.67-5,8-1.85,1.75-4.97,3.37-8,3-5.88-.71-9.7-8.72-11-14-1.85-7.52.79-12.14-2-14-2.17-1.45-6.29-.35-8,2-2.05,2.81.75,5.47-1,9-2.15,4.34-7.83,3.28-9,7-.99,3.17,2.82,4.96,2,9-.71,3.51-3.87,3.55-5,7-1.77,5.39,4.08,11.01,3,12-1.56,1.44-12.51-11.53-18-9-4.78,2.2-2.3,14.68-7,16-1.91.53-2.82-1.38-8-2-1.88-.23-6.06-.73-7,1-1.04,1.9,2.92,4.47,2,7-.9,2.46-5.99,3.72-8,2-1.86-1.59-.28-5.04-2-6-1.59-.89-3.44,1.79-6,1-2.1-.65-2.21-2.86-4-3-1.92-.15-2.84,2.33-4,2-1.89-.53-.14-7.23-3-9-2.06-1.28-4.21,1.44-7,0,0,0-.78-.4-4-5Z"/>
    </g>
  </g>
</svg>