<?xml version="1.0" encoding="UTF-8"?>
<svg id="_Слой_2" data-name="Слой 2" xmlns="http://www.w3.org/2000/svg" viewBox="0 0 225.92 257.04">
  <defs>
    <style>
      .cls-1 {
        fill: #005d2f;
      }

      .cls-1, .cls-2 {
        stroke-width: 0px;
      }
    </style>
  </defs>
  <g id="_Сорочинский" data-name="Сорочинский">
    <g>
      <path class="cls-1" d="M20.67,226.76c2.22-2.67,4.97-6.84,4-11-1.11-4.72-5.95-4.89-8-10-2.32-5.78,2.31-9.45,2-17-.29-7.09-5.2-6.74-8-16-1.68-5.55-1.42-9.92-1-17,.53-8.93,2.35-12.08,4-14,.53-.62,3.28-3.7,5-3,2.08.85.03,5.91,3,10,2.1,2.89,6.19,4.55,10,4,6.32-.92,8.81-7.47,9-8,.28-.79.65-2.07,0-10-.7-8.55-1.24-8.77-1-12,.27-3.58,1.23-6.19,3-11,2.12-5.76,3-6.03,4-10,1.05-4.19,2.11-8.4,0-11-2.53-3.11-7.33-1.07-9-4-1.28-2.25,1.01-3.96,1-8-.02-7.39-7.86-9.61-7-15,.59-3.69,4.35-3.17,7-9,.62-1.35,2.61-5.91,1-11-1.11-3.49-3.37-5.53-5-7-2.03-1.83-5.69-5.13-11-5-1.15.03-5.34.13-8,3-2.16,2.33-1.58,4.63-4,6-1.96,1.11-4.59.88-5,0-.41-.89,1.4-2.59,1-3-.2-.21-.67.22-1,0-.59-.38.47-2,0-4-.05-.23-.29-1.15-1-2-1.29-1.53-2.96-1.42-3-2-.07-.94,4.39-1.06,5-3,.66-2.1-3.65-4.45-3-6,.68-1.64,5.67.65,9-2,2.61-2.08,2.94-6.19,3-7,.27-3.48-1.18-5.18,0-7,.95-1.46,2.83-1.79,4-2,3.88-.68,5.51,1.25,12,3,4.82,1.3,5.66.47,8,2,1.58,1.04,2.74,2.38,5,5,1.68,1.95,2.52,2.93,3,4,1.35,3.02.41,5.91,0,8-1.67,8.55,2.95,17.44,7,22,1.28,1.44,3.44,3.87,7,5,3.83,1.21,5.3-.34,7,1,2.87,2.27-.43,7.44,2,16,.74,2.61,1.27,4.46,3,6,3.34,2.96,8.51,2.39,12,2,3.69-.41,3.47-1.08,9-2,4.6-.77,4.55-.27,9-1,5.94-.98,7.86-2.16,9-1,1.03,1.05-.02,2.54,1,7,.35,1.52.52,2.28,1,3,.33.5,1.95,2.72,8,3,3.11.15,4.69-.35,12-2,8.94-2.02,9.98-2.04,11-2,3.97.17,4.69,1.25,9,1,4.24-.24,7-1,7-1,2.94-.81,4.08-1.64,5-1,1.05.74.19,2.28,1,6,.38,1.73.74,3.39,2,5,.35.45.43.45,3,3,1.28,1.27,1.92,1.9,2,2,.54.67,2.63,3.47,2,7-.14.77-.52,2.8-2,4-3.43,2.77-8.88-2.81-13-1-6.82,2.99-5.33,24.16,0,26,.17.06,1.78.37,5,1,3.37.66,3.63.69,4,1,2.32,1.91-.68,6.26,1,9,1.31,2.14,5.03,2.57,19,1,12.6-1.42,18.17-2.73,20,0,1.78,2.64-1.29,7.09,1,9,1.6,1.34,3.81-.26,5,1,2.03,2.14-3.12,8.01-1,11,1.53,2.15,5.19.5,7,3,1.13,1.57,1.21,4.31,0,6-3.07,4.28-12.45-1.04-16,3-3.15,3.59,2.28,10.01-1,14-1.86,2.26-5.93,2.2-14,2-9.7-.24-14.82-1.85-17,1-1.38,1.81-.33,3.78-2,5-2.53,1.85-6.56-1.47-8,0-1.63,1.66,3.01,6.46,1,11-.12.28-1,2.17-3,3-2.52,1.04-5.83,0-7-2-.49-.83-.4-1.49,0-6,.43-4.78.48-5.76,0-6-1.06-.54-2.61,3.53-6,4-3,.41-3.78-2.5-8-3-3.26-.39-5.97.98-8,2-2.26,1.14-4.07,2.05-5,4-.97,2.02.02,3.03,0,7-.02,2.81-.03,6.25-2,9-2.18,3.04-4.6,2.23-6,5-1.38,2.72.54,4.32,0,8-.68,4.58-4.78,9.66-9,10-4.74.38-7.59-5.38-11-4-2.19.89-1.99,3.66-4,4-2.83.48-5.25-4.7-7-4-1.29.52-.19,3.44-2,5-1.98,1.71-4.72-.57-7,1-2.48,1.71-.79,5.47-3,7-2.13,1.47-4.51-1.44-10-2-6.66-.68-9.83,2.93-12,1-1.28-1.14-.47-2.65-1-10-.49-6.77-1.34-7.66-2-8-1.64-.85-2.99,1.2-7,2-1.74.35-4.52-.1-10-1-3.06-.5-5.37-1-10-2-6.06-1.31-7.53-1.75-8-3-.63-1.69.95-3.81,2-5Z"/>
      <path class="cls-2" d="M18.97,225.3c2.24-2.81,4.4-6.11,3.33-9.51-.87-2.35-3.46-3.27-5.32-5.35-1.2-1.25-2.17-2.84-2.71-4.51-2.18-6,2.61-11.47,1.99-17.36-.13-2.72-1.34-4.05-3.12-6.2-1.97-2.31-3.67-5.29-4.58-8.23-2.04-5.71-1.79-12.07-1.42-17.92.28-6.92,1.53-15.29,8.14-19.26,2-1.36,5.2-1.23,6.41,1.31.28.55.48,1.23.55,1.8.29,3.1.26,6.51,2.57,8.21,5.07,4.06,11.28,1.31,13.36-4.54.46-3.65-.17-7.45-.43-11.2-.23-2.04-.47-4.32-.75-6.37-.64-5.47,1.38-10.82,3.24-15.82.7-2,1.73-4.15,2.64-6.08.79-1.72,1.27-3.73,1.69-5.6.36-2.22,1.38-5.38-.64-6.65-.89-.44-2.1-.53-3.3-.72-1.96-.15-4.8-1.52-5.6-3.69-1-1.85-.22-4.49.42-6.12,2.13-5.79-2.97-8.58-5.55-13.05-1.65-2.82-1.26-6.99,1.2-9.18,1.19-1.17,2.21-1.67,3.17-2.74,1.57-1.63,2.57-4.07,3.04-6.27,1.2-5.12-1.49-9.31-5.39-12.32-3.61-3.37-8.51-4.55-12.83-2.43-1.52.89-2.16,1.82-2.77,3.51-.49,1.7-2.43,3.99-4.27,4.54-4.7,1.99-10.68-.76-6.91-6.28.02-.04.06-.11.06-.11,0,0,.01-.02.01-.02-.02.03-.03.06-.04.09-.21.64-.15,1.65.56,2.36.37.44,1.07.72,1.45.76.83.07.86-.07.85-.03-.03,0-.2.07-.51.12-.3.05-.84.12-1.53-.08-.68-.2-1.37-.74-1.71-1.33-.45-.76-.5-1.4-.44-2.18.14-1.53.64-2.12-.14-3.28-.46-.63-1.16-.69-1.97-1.11-1.13-.55-1.93-1.89-1.68-3.16.18-1.31,1.1-2.07,2.15-2.55.8-.34,2.51-.79,3.1-1.16.13-.07.02-.05-.06.12-.17.24-.2.65-.13.81-.95-1.58-3.12-3.06-3.15-5.36-.08-1.59,1.22-3.25,2.8-3.54,1.32-.37,2.9-.1,4.12-.15,4.34.36,5.39-4.08,5.13-7.59-.06-.96-.46-2.25-.44-3.45C13.47,2.13,18.01.05,21.68,0c4.65-.1,8.6,2.82,13.02,3.55,1.51.38,2.52.36,4.18.67,3.45.63,6.02,3.65,8.1,6.06,4.13,4.38,5.97,7.69,4.5,13.74-.62,2.55-.73,4.99-.3,7.57,1.11,6.55,5.88,15.76,12.63,17.82,1.73.56,3.15.02,5.07.28,3.25.49,4.81,3.87,4.6,6.77-.36,4.77-.38,9.45,1.35,13.93,1.74,5.05,7.32,4.28,11.94,3.8,2.55-.35,5.59-1.57,8.26-1.89,4.18-.7,8.52-.63,12.63-1.7,1.5-.28,3.18-.87,4.8-.85,2.59-.06,4.43,2.31,4.25,4.7,0,0,0,1.09,0,1.09,0,1.69.4,3.93.9,5.47.14.35.19.41.48.67,5.55,3.43,12.6.33,18.58-.77,2.59-.52,6-1.41,8.77-1.69,2.89-.33,6.07.94,8.76,1,2.32,0,5.02-.34,7.36-.85,0,0,.23-.05.23-.05l.11-.03c.33-.05-.6.07.76-.11l-.68.09c1.31-.33,2.48-.88,3.87-1.2,2.4-.63,5.02,1.1,4.99,3.99.08,2.77.3,6.33,2.13,8.38,0,0,1.38,1.35,1.38,1.35.73.72,2.22,2.19,2.94,2.93,2.28,2.42,3.47,5.84,3,9.2-.38,3.81-3.25,7.74-7.65,7.22-3.33-.26-5.69-2.26-8.63-2.06-3.99,1.77-3.62,12.51-2.7,16.33.47,1.73.87,3.83,2.18,4.95,0,0,7.03,1.42,7.03,1.42.64.16,1.27.22,2.03.6,2.37,1.17,2.86,4.35,2.38,6.56-.06,1.26-.65,2.63-.09,3.62,2.08,1.2,6.72.59,9.34.53,7.78-.37,15.64-1.75,23.52-1.61,3.78.05,6.73,2.43,5.94,6.64-.13,1.26-.5,2.5-.59,3.64-.04.49.13.8.37.97.73.6,1.64.22,2.79.24.91-.08,2.33.48,2.77,1.43.6,1.03.49,2.04.38,2.8-.35,1.96-1.38,3.86-1.74,5.63-.13.89-.32,1.77.31,2.38.4.42,1.6.53,3.01.72.7.11,1.51.29,2.29.72,3.79,2.19,3.51,8.77-.45,10.58-2.86,1.23-5.61.54-8.4.4-2.48-.22-5.03-.12-5.85,1.38-.56.77-.49,1.9-.4,2.83.3,2.63,1.47,5.24.9,8.15-.67,3.62-3.98,4.99-7.19,5.18-4.01.31-7.9.11-11.9-.02-2.63-.12-5.25-.37-7.78-.5-2.53-.12-5.81-.3-5.86,2.89-.14,3-2.73,4.88-5.8,4.23-1.2-.12-2.86-.85-3.82-.84.09,0,.17-.17.18-.18-.01-.07.02.49.21,1.01,1.22,3.14,2.72,7.38.5,10.64-2.63,4.57-10.21,4.52-12.54-.37-.34-.95-.29-1.72-.25-2.59.17-2.62.46-5.21.61-7.77.05-.33,0-.81,0-1.08,0-.06-.03.15.33.48.3.29.87.37,1.2.19-1.1,1.02-2.11,2.53-3.89,3.44-1.5.84-3.61,1.03-5.18.25-2.21-1.19-3.83-2.75-6.44-2.57-2.37.02-4.45,1.13-6.62,2.22-1.86,1.03-3.78,1.9-3.85,4.08.73,5.98,1.33,14.03-4.64,17.65-1.04.68-2.08.87-2.74,1.72-1.04,1.21-.55,2.67-.25,4.2,1.26,6.51-3.71,14.38-10.45,15.32-2.34.24-4.88-1-6.56-2.23-1.43-.88-2.45-2.04-3.78-1.9-1.15.38-1.35,1.97-2.32,2.92-1.95,2.17-5.1,1.23-6.84-.53-.73-.7-1.88-1.84-2.53-2.27-.09-.05.17.11.51-.05.21-.05.43-.29.5-.43-.06.16-.12.89-.22,1.64-.12.76-.33,1.71-.95,2.59-.59.87-1.55,1.57-2.61,1.84-1.66.48-2.98-.11-4.33-.08-2.23.07-1.53,2.63-2.08,4.32-.7,3.18-3.84,4.61-7.11,3.03,0,0-1.8-.7-1.8-.7-3.39-1.33-6.84-1.43-10.28-.39-1.34.32-2.74,1-4.38.95-4.87-.45-4.05-4.95-4.16-8.44-.21-3.37-.12-7.3-1.3-10.4-.04-.02.18.15.15.13.01.02.16,0,.09.02-.11,0-.69.26-1.25.55-2.49,1.36-5.75,2.17-8.63,1.66-4.73-.48-10.91-1.81-15.57-2.69-3.16-.75-6.25-.93-9.24-2.61-3.42-2.42-1.4-6.85.81-9.18h0ZM22.37,228.22c-.71.81-1.29,1.55-1.58,2.43-.08.3-.02.39-.07.32-.03-.07-.13-.15-.06-.09,2.18,1,5.16,1.46,7.62,2.03,4.45.94,10.75,2.28,15.14,2.8,2.34.39,4.29-.1,6.42-1.2,3.31-1.91,6.26-.84,7.02,3.11,1.04,4.79.83,9.82,1.05,14.59.04.13.02.09.01.08.02.02.09.06.11.08.02,0,.05.03.17.03.23.02.75-.08,1.32-.25,1.97-.56,3.97-1.21,6.07-1.33,3.6-.33,7.09.66,10.29,2.04.56.22,1.09.39,1.36.41.26,0,.23,0,.4-.11.11-.1.23-.25.34-.7.29-1.34.23-2.64.88-4.13.72-1.84,2.95-3.11,4.82-3.01,1.24-.03,2.5.39,3.42.21.38-.14.69-.35.85-1.41.1-.48.12-1.76.55-2.67.67-1.6,2.76-1.92,3.91-1.24,1.98,1.15,2.73,2.64,4.48,3.64.31.15.44.09.5.09.16-.09.26-.3.44-.57,1.83-3.94,5.46-4.65,8.84-2.17,1.44.99,3.02,2.24,4.52,2.64,3.15.72,5.81-2.03,7.41-4.7,1.1-1.98,1.71-4.06,1.25-6.32-.28-1.41-.69-3.05-.22-4.62.43-1.65,1.72-3.29,3.21-4,1.38-.71,2.18-1.06,2.87-1.79,2.72-3.02,2.37-7.76,2.07-11.59-.25-1.39-.42-3.39.35-4.76,1.8-3.54,5.54-4.66,8.86-6.19,2.69-1.01,5.96-1.26,8.85.06,1.42.63,2.57,1.64,3.36,1.99,2.65,1.01,4.04-2.05,6.05-3.48.73-.49,1.86-.5,2.56.13.85.89.71,1.3.8,2.08.07,3.35-.81,6.95-.63,10.16,1.09,1.9,4.34,2.33,6,.92.72-.61,1.3-1.45,1.51-2.4.61-2.68-1.1-5.16-1.64-7.9-.27-1.27.23-2.69,1.44-3.3,2.05-.86,3.85.32,5.69.57.85.17,1.56.11,2.03-.44.5-.84.24-2.38.91-3.53.41-.81,1-1.55,1.78-2.06,2-1.29,4.5-1.15,6.6-1.07,2.67.15,5.22.41,7.79.54,3.78.14,7.72.35,11.48.08,2.04-.19,3.95-.55,4.6-2.53.63-2.77-.87-5.75-.92-8.7-.18-5.51,4.93-6.78,9.34-6.19,2.98.07,7.65,1.55,8.51-2.17.29-1.99-.19-3.92-2.59-4.14-2.53-.21-5.25-.87-5.64-3.92-.27-2.89,1.37-5.33,1.92-7.92.09-.51.04-.89-.04-.99-.07-.12-.04-.16-.55-.18-3,.4-5.23-.33-5.66-3.63-.57-2.16,1.64-6.29-1.37-6.89-2.93-.38-5.95.33-9.06.75-7.93,1.11-15.62,2.74-23.81,2.24-1.92-.26-3.59-.56-5.12-2.15-.82-.89-1.24-2-1.41-2.99-.36-2.11.32-4.13.31-6.01-.05-.3-.05-.19-.02-.16,0,0,0-.02.03.01.02.02.14.1.2.13.15.07.1.04.02.02-.2-.05-.51-.12-.8-.18-1.47-.29-4.57-.89-5.95-1.17,0,0-1.02-.21-1.02-.21-2.39-.33-4.02-2.68-4.88-4.6-3.19-7.07-4.18-26.16,6.65-26.92,3.31-.18,6.38,2.05,9.22,2.12.1,0,.19-.02.28-.06.09.02.12-.11.21-.11.08-.06.18-.15.27-.26.37-.44.7-1.31.84-2.32.24-1.64-.38-3.59-1.83-5.09-.98-.94-3.07-3.06-4.01-3.95-3.07-3.26-3.52-7.67-3.63-11.79,0-.22-.07-.32.06,0,.06.16.23.36.36.48.15.12.26.19.46.26.42.12.54.04.41.08-.95.26-2.46.84-3.57,1.12,0,0-.68.09-.68.09,1.28-.16.26-.02.5-.05l-.15.04-.3.07-.58.12c-2.72.53-5.19.83-8.03.84-2.82.01-4.93-.97-7.5-1.04-1.49-.05-2.99.39-4.67.69,0,0-4.16.89-4.16.89-4.37.85-8.59,2.33-13.2,2.42-3.87-.14-8.27-.59-10.96-4.04-.83-1.13-1.18-2.79-1.44-3.92-.45-1.87-.61-3.92-.57-5.86,0-.3-.04-.5,0-.36.04.18.19.39.37.5.25.17.48.18.38.17-.06,0-.31.02-.59.07-.28.05-.6.12-.93.19-2.1.52-4.35.95-6.48,1.29-2.91.48-5.61.35-8.49.92-2.93.37-5.53,1.58-8.46,1.93-4.44.58-10.42.99-14.34-2.48-2.06-1.67-3.08-4.41-3.73-6.83-1.12-3.64-1.38-7.74-1.07-11.48.1-1.51.18-2.85-.08-3.51-.01-.04-.04-.03-.04-.06.01-.03-.04-.03-.05-.05-.01-.03-.03-.05-.05-.05-8.91,1.15-15.43-6.13-19.09-13.48-2.06-4.18-3.38-8.9-3.21-13.65-.04-3.47,2.28-8.15-.07-10.79-1.5-1.85-3.64-4.41-5.35-6.05-.75-.66-1.52-1.25-2.46-1.43-1.16-.12-3.02-.42-4.29-.68-3.52-.7-6.91-2.29-10.21-3.29-1.42-.36-3.05.01-4.22.56-.22.13-.28.29-.29.31,0,.02-.02.02-.01.16,1.66,7.34-.82,16.6-9.91,16.38-1.07-.02-2.03-.05-2.84-.02.83-.22,1.42-1.38,1.09-2.19.71.98,1.8,2,2.44,3.11,1.43,2.13.76,5.1-1.4,6.35-1.44.87-2.29,1.05-3.58,1.48-.13.04-.24.09-.29.11,0,0-.05.02,0,0,.04-.02.08-.05.12-.07.46-.4.72-.76.85-1.47.15-.86-.34-1.97-1.11-2.36.15.05.71.27,1.18.5,3.46,1.61,4.71,5.74,3.78,9.15,0-.06,0-.12,0-.19-.02-.17-.03-.44-.31-.94-.24-.42-.81-.88-1.3-1.01-.52-.15-.87-.09-1-.07-.14.03-.13.03,0,0,2.09-.68,4.25,1.11,3.78,3.36-.09.57-.35.99-.59,1.45,0,0-.29.49-.29.49-.16.25-.26.48-.22.4,0-.02.1-.25.03-.67-.02-.25-.15-.54-.26-.75-.11-.18-.23-.33-.38-.46-.43-.31-.35-.18-.26-.19.79.21,2.11-.33,2.37-.69.14-.17.32-.48.58-1.13,1.97-6.33,9.28-8.81,15.31-7.67,5.21.99,8.76,4.21,12.18,7.71,7.29,7.72,4.43,20.62-3.89,26.17-2.07,2.22,2.17,5.28,3.53,7.4.98,1.28,1.92,2.86,2.44,4.64.77,2.6.65,5.47-.21,7.97-.28.92-.59,1.56-.64,2.15,0,.02-.01-.02.01.02.08.09.02.08.19.17,1.87.65,4.27.45,6.26,1.6,5.59,2.9,4.31,10.02,2.97,14.92-.47,2.15-1.46,4.52-2.46,6.5-2,4.8-4.41,10.13-4.64,15.27.02,2.68.62,5.53.8,8.2.26,2.9.5,5.76.57,8.78.02,1.7.04,3.66-.69,5.31-3.56,8.99-13.94,12.57-21.67,6.17-1.38-1.18-2.55-2.79-3.18-4.52-1.02-2.36-.84-5.19-1.13-7.13.03.05.35.49.68.55.36.1.49.05.49.05-2.65,1.42-4.34,4.27-5.02,7.24-1.16,5.1-1.35,11.15-1.35,16.37.13,3.92,1,7.84,2.83,11.28,1.38,2.62,3.4,4.2,4.97,7.03,1.66,3.13,1.61,6.62,1.07,9.94-.83,4.87-4.51,9.97-.39,14.15,2.02,2,5.23,3.75,6.27,7.02,1.74,5.12-1.07,10.17-4.24,13.94h0Z"/>
    </g>
  </g>
</svg>