<?xml version="1.0" encoding="UTF-8"?>
<svg id="_Слой_2" data-name="Слой 2" xmlns="http://www.w3.org/2000/svg" viewBox="0 0 347.7 364.52">
  <defs>
    <style>
      .cls-1 {
        fill: #020000;
      }

      .cls-1, .cls-2 {
        stroke-width: 0px;
      }

      .cls-2 {
        fill: #459000;
      }
    </style>
  </defs>
  <g id="_Соль_Илецк" data-name="Соль Илецк">
    <g>
      <path class="cls-2" d="M80.42,77.21c-2.21-1.41-5.31-1.77-11.5-2.5-6.54-.77-9.81-1.15-12,0-1.86.98-1.95,1.89-9,15-1.73,3.22-2.27,4.17-3,6-2.33,5.8-1.45,7.51-3,10-2.62,4.2-9.83,6.89-15,5-4.92-1.8-5.82-6.96-14-12-1.07-.66-2.61-1.53-4-1-2.09.8-3.09,4.53-2.5,7.5.89,4.44,4.78,4.44,7,9,2.77,5.67,0,12.32-.5,13.5-3.17,7.59-9.45,8.31-9,12,.57,4.71,11.33,8.16,15.5,9.5,5.13,1.65,7.92,1.64,9,4,.58,1.27.33,2.49-2,10-2.18,7.01-2.56,7.85-2,9,1.84,3.79,9.36,1.62,11,5,1.61,3.32-5.1,6.56-5,12,.14,7.63,13.49,8.06,22,21,5.9,8.97,2.42,13.22,8,17,6.25,4.24,19.02,4.61,26,4,1.67-.15,4.05-.44,6,1,3.67,2.72,1.18,8.21,4,11,4.6,4.55,17.05-4.32,20-1,2.2,2.47-3.74,8.49-8,20-5.35,14.47-.42,16.99-6,34-2.75,8.36-4.85,10.54-7,20-1.74,7.65-2.72,11.99-2,17,2.31,16.07,20.91,30.48,31,27,6.57-2.26,8.89-11.89,12-11,2.72.78,1.48,8.26,4,9,3.05.89,6.44-9.57,17-21,7.83-8.47,9.97-7.08,12-12,4.48-10.9-1.72-28.26-11-33-1.22-.62-2.87-1.22-4-3-2.63-4.16,1.99-7.87,2-15,0-7.34-4.88-16.28-8-22-.6-1.11-1.92-3.43-1-5,1.15-1.97,4.57-.59,7-2,5.41-3.14,5.88-20.06-2-26-4.81-3.63-9.56-.77-17-6-1.08-.76-3.69-2.73-6-6-5.32-7.54-7.4-19.68-2-25,1.82-1.79,3.88-2.19,8-3,9.78-1.91,15.81,1.85,20-2,1.59-1.46,1.9-3.08,3-3,1.86.14,1.52,4.85,4,9,4.89,8.19,19.56,12.22,27,10,.64-.19,1.97-.65,3,0,2.27,1.42-.04,6.18,1,11,1.61,7.45,10.45,11.41,14,13,4.21,1.88,11.73,5.25,17,2,3.78-2.33,4.1-6.63,9-8,2.52-.7,4.52-.15,5,0,4.29,1.3,5.87,5.62,6,6,1.14,3.29.04,6.28-1,9-2.81,7.32-7.05,8.04-8,14-.2,1.26-.68,4.3,1,7,2.38,3.81,7.88,5.04,12,4,4.05-1.02,6.23-4.09,9-8,2.54-3.59,4.21-5.94,4-9-.32-4.74-4.79-5.87-5-10-.14-2.79,1.76-5.13,6-9,11.96-10.91,16.08-9.8,20-16,4.98-7.89,3.99-18.67,1-20-1.35-.6-2.75.87-4,0-1.88-1.31.51-5.17-1-9-1.65-4.17-5.96-3.3-8-7-3.29-5.98,3.03-17.24,7-17,2.21.14,2.51,3.75,5,4,4.02.4,5.7-8.77,10-9,4.9-.26,6.55,11.42,16,14,1.67.46,3.53.96,5,0,4.46-2.92-1.24-15.05,3-18,2.89-2.01,6.75,2.81,12,1,4.89-1.68,8.58-8.26,7-12-1.69-4.01-8.13-1.64-13-7-3.64-4.01-3.86-9.55-4-13-.15-3.63-.3-7.48,2-11,3.07-4.7,8.2-5.27,8-8-.1-1.39-1.54-2.88-3-3-4.07-.34-5.95,10.12-10,10-2.56-.08-5.33-4.36-5-8,.37-4.03,4.28-4.45,6-9,.94-2.49.32-3.81-2-14-2.67-11.73-2.8-14.16-2-17,.37-1.32,1.5-5.29,5-8,4.63-3.59,8.56-1.21,11-4,3.9-4.47-3.32-13.81,0-17,3.64-3.49,14.42,2.7,16,0,.69-1.18-.86-3.27-2.5-5.5-3.41-4.62-7.79-6.51-9-7-1.6-.64-4.75-1.91-8.5-1.5-7.52.82-8.27,7.39-18,11-3.39,1.26-6.67,2.47-10.5,1.5-4.79-1.22-8.09-5.26-10-4-.63.41-.46.98-1,2-1.56,2.98-6.3,4.58-10,4-3.28-.51-7.43-3-10-6-.6-.7-1.61-2-3-2-1.38,0-2.39,1.27-3,2-2.58,3.06-5.86,5.63-7.5,6.5-3.93,2.08-10.02.54-13.5-2.5-4.45-3.88-4.24-9.84-7-10-1.54-.09-2.79,1.7-3,2-4.15,5.95,5.97,14.84,2.5,22.5-2.01,4.43-5.94,2.8-9,8-3.34,5.67.64,9.23-2,17-1.53,4.48-4.25,7.19-9,12-6.29,6.36-8.68,6.12-12.5,10.5-6.31,7.23-3.32,11.9-7.5,18.5-5.84,9.22-19.06,10.65-45.5,13.5-17.16,1.85-13.11-1.59-23.5-.5-1.2.13-3.57.41-5-1-2.79-2.77,1.28-8.85-1-11-2.38-2.24-7.77,3.46-15,2-4.2-.85-6.87-3.68-10-7-6.49-6.88-4.65-11.6-10-15Z"/>
      <path class="cls-1" d="M79.11,79.26c-3.12-1.59-8.34-1.56-12.09-2.04-2.92-.2-6.05-.8-8.55.02-.1.06-.2.11-.33.19-.07.06-.09.07-.12.12-.08.09-.3.39-.53.81-2.83,5.36-6.25,12.24-8.86,17.62-.74,1.81-1.39,3.73-1.72,5.67-.22,1.46-.68,4.43-1.81,6.06-3.79,5.65-10.53,8.22-17.17,7.27-2.88-.37-6.02-2.35-7.85-4.42-1.78-1.91-2.99-3.49-4.43-4.85-1.79-1.67-3.93-3.36-5.83-4.27.15.03.63-.09.78-.22.16-.12.11-.12.04.02-.59,1.31-.85,3.53.42,4.68,1.49,1.4,4.12,3.27,5.28,5.49,4.27,7.49,1.94,17.06-3.21,23.38-1.57,1.87-3.87,3.55-5.39,5.05,0,.02-.08.08,0,0,.02-.03,0-.06.03-.11.05-.13.09-.35.05-.47-.09-.25.05.14.53.58,4.61,3.71,10.98,5.26,16.68,6.91,3.8.79,7.69,3.39,7.58,7.8-.34,3.94-1.71,7.23-2.75,10.86-.38,1.38-1.48,4.48-1.73,5.87,0,.05,0,.07-.02-.22-.01-.13-.05-.28-.09-.39-.04-.11-.07-.14-.06-.17-.02-.1-.16-.17-.1-.15,1.81.82,5.19.73,7.36,1.77,3.33,1.2,5.37,5.28,3.9,8.67-1.17,2.99-4.47,5.76-4.73,8.08-.34,2.36,4.4,4.37,6.47,5.82,1.94,1.18,3.98,2.46,5.93,3.94,3.92,2.95,7.44,6.73,9.96,11.1,1.28,2.19,2.34,4.67,2.97,7.15.65,2.48.96,4.78,1.48,5.6,1.92,2.64,5.57,3.36,8.81,4.1,4.01.76,8.31,1,12.54.9,2.65,0,4.16-.43,7.16-.28,6,.45,8.92,5.32,9.03,10.77.14,1.21.16,1.93.43,2.38,0,.05.03.04.04.06.01.03.01.03.08.06,3.02.57,7-1.35,10.35-2.16,3.54-1.15,9.15-1.52,10.85,3.21,1.4,4.52-2.25,8.8-3.91,12.36-4.07,7.52-7.14,15.17-7.14,23.78.07,9.34-2.5,18.89-6.22,27.42-1.79,4.1-3.09,7.78-4.03,12.09-.97,4.36-2.06,8.67-2.13,12.43,0,11.45,9.82,22.88,20.29,26.63,6.42,2.21,8.83-1.27,12.21-6.31,1.29-1.77,2.58-3.69,5.1-4.41,2.51-.79,5.35.86,6.39,3.14,1.13,2.39,1.11,4.76,1.72,6.77,0,0,.03.11,0,.03-.02-.05-.05-.09-.09-.12-.34-.57-1.66-1.09-2.39-.83-.22.05-.37.11-.45.15-.13.08-.12.06-.16.09-.06.05.22-.19.45-.48.25-.29.54-.68.83-1.08,4.98-7.63,10.1-15.45,16.88-21.79,2.01-2.16,5.34-4.11,7.25-6.1,5.02-8.43.15-25.03-8.57-29.8-5.06-2.04-7.94-7.01-6.13-12.39.68-2.27,1.52-4.04,1.97-6.14.81-3.71-.2-7.44-1.51-11.07-1.44-3.9-3.44-7.72-5.58-11.62-1.61-2.69-3.01-6.6-.62-9.59.98-1.48,3.58-2.34,4.83-2.34.85-.15,2.82-.06,3.1-.38,2.05-2.23,2.16-6.09,2.07-9.14-.46-5.37-2.22-10.92-7.6-11.9-13.61-.94-23.18-10.71-25.87-23.89-1.4-6.58-.63-15.29,5.96-19.16,2.62-1.43,4.95-1.69,7.56-2.24,1.18-.22,2.57-.41,3.72-.52,2.49-.22,4.99-.14,7.28.03,2.95.09,5.3.78,7.12-.52.78-.63.76-.93,1.63-2.02,1.11-1.6,3.64-2.62,5.76-1.65,3.88,1.97,3.23,6.44,4.89,9.51,3.09,5.88,10.32,8.52,16.65,9.51,1.94.26,3.92.3,5.6,0,1.39-.28,2.22-.75,4.05-.72,1.22.02,2.84.51,4.01,1.73.73.77,1.28,1.81,1.49,2.81.77,3.86-.78,6.81.27,10.24,1.41,4.38,5.83,7,9.9,9.02,3.93,1.83,7.89,3.61,11.37,3.87,2.71.14,4.23-.4,5.79-2.37,1.41-1.91,3.19-4.44,5.65-5.74,7.08-3.94,15.63-.03,18.07,7.47,1.82,5.81-.85,11.83-3.89,16.65-1.49,2.17-3.21,3.87-3.99,5.17-.64,1.02-.94,2.1-1.09,3.28-.73,3.6,1.54,6.09,5.1,6.6,3.71.56,6.27-.46,8.9-3.44,1.95-2.24,4.34-4.88,5.72-7.53,1.17-2.69.47-4.46-1.74-6.9-1.84-1.86-3.34-5.23-2.47-8.04.78-2.76,2.55-4.6,4.38-6.46,4.9-4.79,10.46-9.07,16.34-12.54,5.6-3.08,8.1-8.91,8.5-15.1.1-2.01-.06-4.13-.66-5.73-1.64-2.03,2.08-.18-4.37-.87-2.01-.88-2.45-3.43-2.18-5.21.29-2.66.69-5.39-1.76-6.92-3.97-1.91-7-3.76-7.48-8.72-.36-5.8,2.21-11.99,6.81-15.58,2.61-1.9,5.79-1.29,7.53,1.58.52.62.66,1.06,1.06,1.29.89-.47,1.58-1.65,2.32-2.76,2.2-3.89,6.15-8.66,11.15-5.1,3.03,2.41,4.35,5.78,6.64,8.34,1.94,2.35,4.06,3.9,6.92,4.57.98.27,1.8.35,2.08.26.27-.09.3-.08.52-.56,1.14-4.64-1.5-10.29.62-15.14.82-2.07,3.36-3.65,5.66-3.37,1.68.1,3.74,1.04,5.04,1.43,3.64,1.29,6.3-.66,8.19-3.62.83-1.22,1.39-3.03,1.14-4.29-.05-.09-.06-.21-.1-.28-.06-.04-.05-.15-.11-.17-.05-.03-.05-.1-.14-.13-.03-.02-.06-.05-.09-.08l-.17-.09c-1.55-.77-4.15-.98-6.06-1.77-6.56-2.12-10.16-9.23-10.5-15.66-.95-10.81.05-16.38,9.72-22.31.29-.22.17-.26.08.04,0,.08-.02.14-.04.2,0,.07.02.14.01.16,0,.07.02.07,0,.04-.02-.06-.14-.22-.26-.3-.11-.1-.23-.12-.14-.1.1.04.34-.04.27-.02-1.67,1.44-2.48,3.85-3.86,5.81-6.22,10.5-16.77-.82-13.46-9.41,1.19-3.18,4.83-4.59,5.68-7.72.32-.72-.22-3.07-.71-5.18-.92-3.78-2.2-9.39-2.99-13.19-.65-3.51-1.63-7.47-.76-11.26,1.22-5.28,4.53-10.36,9.86-12.33,1.37-.51,2.79-.75,3.98-.88,1.21-.12,2.14-.25,2.52-.41.17-.09.27-.12.37-.25.98-1.21.3-3.39-.07-5.04-.57-2.13-1.45-4.79-1.54-7.25-.09-1.25.33-3.2,1.27-4.34.91-1.23,2.57-2.11,3.92-2.37,3.31-.7,6.95.36,9.67.96,1.06.25,2.11.48,2.91.56.37.05.73,0,.53.03-.04.02-.46.14-.76.5-.34.35-.5.87-.51,1.15.02.56.05.25-.12,0-3.35-6.21-11.25-11.73-18.42-9.66-3.38,1.39-5.19,4.33-8.44,6.64-2.01,1.53-4.3,2.78-6.64,3.66-6.66,2.85-12.46,3.15-18.74-1.01-1.04-.59-1.97-1.25-2.52-1.4.11,0,.44.04.8-.11.39-.16.74-.51.95-.87.19-.41.07-.17-.03.21-.5,1.63-1.68,3.17-2.98,4.19-8.2,6.19-17.91,1.71-23.71-5.23.07.05.45.09.59.02.14-.05.03-.03-.17.17-3.28,3.62-6.95,7.8-11.94,9.02-5.82,1.01-11.17-.86-15.31-4.95-2.54-2.65-3.52-5.93-4.86-8.51.24.2.71.39,1.07.31.32-.06.28-.12.13.01-.92.83-1.12,1.69-.9,3.09.26,1.6,1.09,3.59,1.93,5.68,2.98,6.45,3.91,15.23-3.84,18.83-1.93.94-2.83,1.37-3.9,3.01-1.65,2.36-1.11,4.88-.87,7.75.89,8.1-3.22,14.88-8.85,20.2-1.56,1.53-3.37,3.49-5.02,4.87-2.57,2.36-5.5,3.88-7.92,6.05-2,1.91-3.8,4.32-4.58,6.95-.58,1.74-.78,3.87-1.39,6.37-1.13,5.07-4.64,9.9-9.12,12.54-6.26,3.74-13.62,4.78-20.5,5.73-4.52.58-9.01.96-13.48,1.38-6.71.55-13.91,1.63-20.69,1-2.8-.37-5.15-1.08-7.9-.84-2.45.07-5.23.87-7.85-.43-2.48-1.09-3.64-4.25-3.27-6.78.08-2.02.85-3.71.67-5.42.03-.03.02.1.11.11.03.11.17.09.21.14.12,0,.04.02,0,0-3.27.77-6.89,2.74-10.51,2.7-5.2.41-10.21-3-13.38-6.63-1.52-1.58-3.28-3.47-4.56-5.56-2.49-3.51-2.74-8.25-6.36-10.41h0ZM81.72,75.16c4.4,2.51,5.32,8.24,7.72,12.01,2.06,3.07,5.47,6.71,8.61,8.63,2.44,1.39,5.28,1.5,7.98.77,3.37-.77,7.7-4.05,11.06-1.18,1.79,1.68,1.66,4.22,1.31,6.22-.18,1.48-.85,3.73-.28,4.72.27.33.55.35,1.08.44,1.06.12,3.23-.26,4.66-.25,2.9-.26,6,.64,8.73,1.15,4.14.65,8.6.07,12.84-.41,10.71-1.46,22.24-2.47,32.41-5.87,5.86-1.98,10.27-5.37,11.63-11.2.48-1.85.7-4.22,1.5-6.76,1.56-5.01,5.11-9.18,9.31-12.1,3.78-2.47,6.73-5.14,9.75-8.33,4.34-4.17,7.77-8.97,7.05-15.21-.21-2.36-.59-5.16.11-7.72.78-2.88,2.37-5.42,4.78-7.3,1.73-1.47,3.85-1.81,5.04-3.1.78-.93,1.06-2.59.85-3.95-1.1-6.89-8.26-15.34-.88-21.72.84-.8,2.65-1.63,4.22-1.47,1.12.09,2.25.6,3.04,1.37,2.51,2.57,2.91,6.62,5.18,8.83,2.4,2.52,7.08,4.06,10.23,2.77,2.44-1.28,4.72-3.52,6.59-5.59.3-.33.72-.88,1.33-1.47.6-.57,1.42-1.23,2.63-1.64,1.21-.42,2.77-.33,3.87.17,1.79.77,2.49,1.83,3.58,3.02,1.81,1.93,4.37,3.66,6.94,4.4,2.55.66,6.05-.03,7.5-2.15.05-.09.07-.15.12-.29.07-.15.07-.46.54-1.37.79-1.59,3.01-2.5,4.6-2.23,1.89.22,3.87,1.57,5.04,2.28,4.53,3.13,8.18,2.62,13.16.52,6.8-2.09,9.89-9.6,17.35-10.88,7.96-1.3,15.79,2.72,20.81,8.66,1.79,2.5,3.97,4.61,3.99,7.93-.22,3.36-3.52,4.55-6.13,4.14-3.6-.31-7.9-2.36-10.99-1.54-.07.07.11-.13.07-.12-.08.84.09,1.94.42,3.12,1.19,4.47,3.23,10.23-.72,14.16-1.48,1.75-4.87,2.29-6.5,2.37-4.3.25-6.98,3.31-8.26,7.16-1.22,3.27-.24,6.54.37,10.06.69,3.68,2.08,9.3,2.91,13.05,1.78,6.39,1.05,10.4-3.99,14.86-.78.73-1.21,1.24-1.35,1.65-.69,1.6.5,4.45,1.84,5.41.18.13.28.14.15.11-.13-.02-.32.08-.2.02.21-.1.83-.8,1.34-1.6,1.74-2.59,2.9-5.86,5.91-7.69,2.84-1.73,6.93.02,8.19,3.01,1.59,3.31-.54,6.11-3.15,7.61-2,1.26-4.13,2.78-5.12,4.7-1.36,2.33-1.36,5.48-1.24,8.32,0,4.71.95,10.42,4.64,12.9,3.03,2.26,7,1.61,10.22,4.08,3.69,3.02,2.68,8.65.41,12.11-2.89,4.95-8.9,8.09-14.56,5.92-1.63-.47-2.71-1.17-4-1.22-.7,1.03-.51,2.5-.5,3.92.1,4.15,1.72,10.01-1.88,13.5-3.35,2.82-7.64,1.15-10.92-.33-2.4-1.24-4.34-3.09-5.89-4.99-2.12-2.5-3.54-5.58-5.67-7.57-.4-.25-.39-.3-.75-.21-.28.08-.9.6-1.46,1.34-1.46,1.81-2.3,3.83-4.13,5.68-3.13,3.18-7.09,2.06-9.12-1.5-.28-.42-.54-.7-.58-.73,0,0,0,.02.02,0,.02.03.06.03.1.04-2.5,1.44-4.61,5.56-5.17,8.73-.46,2.78-.23,5.06,2.13,6.4.78.47,1.84.89,3.04,1.64,3.86,2.18,4.49,7.32,3.77,11.16-.06.5-.05.93-.03,1.08.05.15-.09-.24-.31-.27-.12-.07-.27-.07-.26-.07,6.81-2.42,8.05,6.14,7.69,10.92-.41,6-2.69,12.46-7.56,16.45-2.73,2.16-5.81,3.67-8.53,5.66-3.54,2.48-6.91,5.37-10.02,8.38-2.02,2.14-3.96,3.88-3.11,6.43.7,1.74,2.73,3.21,3.72,5.25,2.86,5.08-.48,10.48-3.25,14.69-1.98,3.26-4.13,6.74-7.77,8.54-5.55,2.59-11.82,1.79-16.47-2.38-4.58-4.36-4.34-11.9-1.25-17,2.19-3.31,4.83-5.54,6.14-9.19,1.63-3.75,2.11-6.9-1.04-9.52-2.15-1.66-5.34-1.23-7.03.95-3.4,5.06-7.38,8.26-13.95,7.71-5.25-.43-9.43-2.45-14.02-4.55-8.87-4.11-15.85-10.98-14.23-21.55.11-1.15.19-2.25.12-2.6,0,.01.01-.02.03.08.07.15.2.38.35.5.37.41.87.49.98.49-8.2,2.31-17.1.03-24.38-4.25-3.3-1.99-6.57-5.03-8.27-8.71-1.02-1.92-1.73-5.28-2.22-6.72.81,1.24,2.94,1.35,3.91.3-3.54,5.79-8.95,5.94-14.99,5.31-3.21-.25-6.05-.2-9.09.38-2.07.5-4.5.62-5.99,1.92-4.72,5.41-.9,16.35,3.1,21.34,2.39,2.96,5.62,5.42,9,6.39,2.79.88,7.25.79,10.41,2.51,3.91,1.92,6.64,5.95,7.95,9.77,2.92,8.14,2.69,24.32-8.78,24.93,0,0-1.58.1-1.58.1-.38.02-.54.12-.22-.02.32-.13.76-.67.82-1,.08-.35.02-.35.06-.18.04.17.14.47.31.83.16.35.38.75.67,1.27,3.31,6.07,6.8,12.65,8.01,19.79.45,2.52.43,5.42-.14,8.05-.54,2.61-1.61,5.02-2.09,6.67-.25.84-.26,1.33-.21,1.54.03.19.23.61.53.89.31.3.77.57,1.91,1.1,11.88,6.32,17.77,24.68,13.33,37.23-.57,1.89-2.05,4.34-3.73,5.72-2.22,1.84-4.44,3.31-6.39,5.24-4.59,4.38-8.6,9.59-12.11,14.97-1.57,2.33-3.08,4.96-5,7.31-.59.75-1.66,1.79-2.85,2.36-2.88,1.42-6.38-.18-7.42-3.21-.93-2.51-.93-4.53-1.44-6.17.03.03.05.05.16.19.23.23.57.45.9.53.38.14.93.12,1.28.03.34-.09.51-.22.52-.22-1.97,2.21-3.26,4.96-5.79,7.45-8.38,8.88-21.76,2.62-29.15-4.33-5.46-4.99-9.88-11.37-11.87-18.62-2.12-7.18-.31-14.78,1.31-21.75,1.3-6.74,4.5-13.06,6.76-19.42,2.15-6.12,3.24-12.1,3.25-18.63-.06-9.5,3.54-19.06,8.03-27.23,1.22-2.37,2.6-4.47,3.29-6.6.03-.09.01-.1.02-.05-.01.11,0,.28.1.6.22.64.77,1.1,1.1,1.2-4.8.64-12.1,4.95-18.23,2.27-1.96-.82-3.56-2.77-4.21-4.56-1.08-2.57-.65-4.91-1.22-6.9-.18-.52-.23-.56-.43-.74-.22-.16-.48-.28-1.08-.34-10.01.63-29.04,1.14-34.76-8.85-2.14-4.38-1.7-8.56-4.32-12.54-1.97-3.4-4.66-6.33-7.9-8.77-3.64-2.88-7.45-4.39-11.36-7.57-4.27-3.33-5.41-9.13-2.62-13.87,1.02-1.9,2.93-3.99,3.71-5.43,0,0,.04-.05.01,0-.04.09-.01.13-.04.34.05.35.13.68.33.83.11.19.26.18.05.12-.04-.02-.08-.03-.12-.06l-.23-.06c-.13-.05-.33-.09-.54-.13-2.48-.57-5.1-.43-7.88-2.3-1.53-1.06-2.8-2.82-3.03-4.75-.19-1.54.23-2.83.53-4.01,1.24-4.4,3.07-9.14,3.92-13.53,0-.03,0,.11.04.24.05.16.04.13.05.16.02.06.16.17.09.12-.11-.11-1.03-.45-2.03-.71-7.12-2.11-19.21-5.05-22.43-12.3-1.73-4.72,1.35-7.75,4.71-10.34,1.88-1.6,3.11-3.15,4.02-5.23,1.74-4.05,2.63-9.54-1.02-12.68-.64-.6-1.56-1.22-2.7-2.36-1.15-1.12-2.28-2.91-2.68-4.52-1.08-4.33-.43-9.06,3.33-12.03,2.71-2.03,6.56-1.02,8.93.67,2.11,1.31,4.14,2.88,5.94,4.63,2.98,2.56,4.69,6.53,8.24,7.18,3.36.53,8.2-.99,9.83-4.27.68-2.94,1.61-7.05,3.11-9.94,1.92-3.84,4.63-8.27,6.64-11.95,0,0,1.66-2.95,1.66-2.95,1.36-2.36,2.79-5.37,5.69-6.41,3.94-1.4,7.75-.31,11.44.04,4.75.84,9.73.74,14.08,3.33h0Z"/>
    </g>
  </g>
</svg>