<?xml version="1.0" encoding="UTF-8"?>
<svg id="_Слой_2" data-name="Слой 2" xmlns="http://www.w3.org/2000/svg" viewBox="0 0 226.68 262.14">
  <defs>
    <style>
      .cls-1, .cls-2 {
        stroke-width: 0px;
      }

      .cls-2 {
        fill: #457a1f;
      }
    </style>
  </defs>
  <g id="_Ташлинский" data-name="Ташлинский">
    <g>
      <path class="cls-2" d="M12.63,152.39c4.63-4.09,4.6-13.43,2-20-2.81-7.12-6.57-5.77-10-13-2.74-5.77-2.46-11.1-2-20,.37-7.13,1.72-12.2,3-17,1.26-4.74,1.92-7.13,3-8,5.14-4.14,17.69.54,27,4,3.22,1.2,7.68,3.04,11,1,1.91-1.17,1.72-2.56,4-4,3.59-2.26,6.17-.14,9-2,2.53-1.67,1.55-3.98,4-9,.79-1.63,3.37-6.92,9-10,1.43-.78,6.92-3.53,13-2,5.58,1.4,6.35,5.07,11,5,4.49-.07,7.6-3.54,8-4,2.06-2.36,2.4-4.78,3-9,.68-4.81,1.3-9.1-1-11-2.6-2.15-6.54.73-8-1-2.04-2.42,3.5-10.4,6-14,4.03-5.81,5.6-6.02,8-11,1.25-2.6,1.47-3.88,3-5,1.15-.84,3.09-1.29,11,0,8.22,1.34,10.35,4.62,17,4,2.64-.25,3.99-.92,5,0,2.38,2.16-2.56,8.13,0,12,2.08,3.14,8.08,3.33,11,3,2.53-.29,3.22-1.03,6-1,2.23.02,5.54.06,7,2,2.17,2.9-2.14,6.95,0,11,1.35,2.55,4.4,3.5,6,4,5.19,1.62,8.39-.93,10,1,1.55,1.85-.66,4.12,0,8,.94,5.54,6.09,5.2,9,11,1.46,2.91,1.31,8.61,1,20-.11,4.21-.28,6.02,1,7,2.68,2.04,9.25-1.46,14-4,5.44-2.9,7.33-4.89,9-4,1.79.96,2.47,4.78,1,7-2.01,3.04-6.68.99-9,4-2.28,2.96,1,6.53-1,9-2.82,3.49-10.73-1.96-16,2-3.44,2.58-1.26,5.8-5,9-4.29,3.67-8.61.69-14,5-.97.77-3.36,2.74-4,6-.51,2.59.06,6.14,2,7,1.66.73,2.68-1.23,5-1,3.88.39,4.33,6.24,8,7,3.81.79,6.18-4.92,9-4,2.84.93,4.5,8.06,2,13-2.11,4.17-5.87,4.2-6,7-.16,3.43,5.41,4.21,7,10,.61,2.23.75,5.63-1,7-1.72,1.34-4.09-.16-5,1-1.32,1.69,3.19,5.52,2,8-1.26,2.63-8.64,3.1-11,0-1.72-2.26.22-5.1-1-6-2.94-2.17-14.66,13.81-23,11-3.2-1.08-5.01-4.63-6-4-1.18.74,1.96,5.34,0,10-.95,2.26-2.02,1.96-3,4-2.05,4.27.05,10.96,4,15,4.11,4.21,8.82,4.13,9,7,.14,2.2-2.5,4.55-3,5-2.08,1.85-3.69,1.73-4,3-.38,1.56,1.9,2.48,3,5,1.04,2.36.15,4.12-1,9-2.27,9.62-.84,11.28-3,13-2.99,2.38-6.04-.59-10,2-3.73,2.44-3.26,6.52-6,7-1.83.32-2.37-1.45-7-4-3.33-1.83-5.85-3.22-9-3-3.12.22-4.27,1.83-6,1-1.94-.94-1.02-3.24-3-5-2.66-2.36-5.89.39-10-2-2.4-1.39-2.47-3.01-4-3-2.38.01-2.46,3.89-6,6-4.12,2.46-8.04-.41-10,2-1.4,1.73.38,3.48-1,7-.8,2.03-2.8,5.05-5,5-3.14-.08-4.56-6.38-7-6-1.1.17-.94,1.46-3,3-1.33.99-2.58,1.33-5,2-1.37.37-2.32.55-5,1-3.94.67-5.9,1-6,1-5.37-.05-11.63-6.26-11-11,.41-3.11,3.63-4.41,3-6-.71-1.8-4.84-.19-8-2-4.27-2.44-2.69-8.76-5-21-1.23-6.53-2.57-13.26-7-20-3.7-5.63-5.17-4.58-10-11-5.43-7.21-6.97-13.44-9-21-1.64-6.1-1.79-9.5,0-12,1.24-1.73,2.37-1.55,4-3Z"/>
      <path class="cls-1" d="M10.99,150.53c4.08-4.6,3.1-13.78.41-19.01-1.83-3.35-5.72-5.15-7.64-8.64C-.15,116.82-.28,109.32.19,102.48c.17-2.29.29-5.72.65-7.99.67-5.33,2.14-10.47,3.6-15.6.73-2.49,1.57-5.82,4.37-6.98,3.18-1.44,6.64-1.23,9.89-.69,7.9,1.28,15.12,5.02,22.49,7.14,2.03.42,4.18.41,5.55-1.23.32-.38.72-1.02,1.29-1.62,1.61-1.75,4.02-2.69,6.35-2.69,1.48,0,2.66.17,3.58-.09.92-.23,1.71-.82,2.1-1.72,1.36-5.08,3.33-10.35,7.28-14.19,3.93-3.98,9.45-6.28,15.08-6.18,2.81.07,5.71.89,8.09,2.48,1.18.77,2.19,1.64,3.15,2.18,4.03,2.21,9.32-.89,11.2-4.74,1.32-3.36,1.53-7.5,1.95-11.05.24-3.65-.24-6.45-4.87-5.29-.82.1-2.1.36-3.14-.03-4.25-2.04-.88-7.61.61-10.42,2.67-4.61,5.83-8.92,9.31-12.89,4.12-4.66,2.98-11.56,11.39-10.83,5.38.28,10.87,1.33,15.76,3.4,2.41.96,4.58,1.52,6.97,1.34,2.82-.11,6.55-1.84,7.91,1.9.89,3.23-1.3,6.22-1.15,9.12.03.99.37,1.63,1.02,2.23,2.56,1.96,6.72,1.92,9.82,1.44,1.23-.25,2.7-.79,4.06-.84,1.42-.06,2.82-.05,4.25.1,2.25.13,5.6,1.52,6.19,4.33.56,2.24-.61,4.7-.93,6.53-1.14,4.54,4.7,6.41,8.6,6.45,1.76.02,3.44-.58,5.34-.21,1.8.37,3.15,2.15,3.18,3.92,0,2.63-1.26,4.74-.32,7.21.74,2.23,2.85,3.1,4.7,4.7,1.11.91,2.2,2.03,3.04,3.3,1.78,2.45,2.14,5.65,2.26,8.51.2,5.41-.03,10.6-.12,15.83.04.94-.12,2.45.15,3.22.11.22,0,.11.18.2,2.31.53,5.17-1.12,7.41-2.08,3.55-1.71,6.76-3.65,10.19-5.68,5.63-3.54,9.44,3.01,7.62,8.19-.52,1.79-2.43,3.56-4.2,3.97-1.51.49-4.16.56-5.1,1.21-.54.38-.77.79-.83,1.48-.13,1.58,1.1,4.31.22,6.47-2.46,6.25-9.99,2.44-14.69,3.07-1.78.28-3.24,1.05-3.72,2.86-.72,5.07-4.15,8.94-9.46,9.7-3.09.44-5.69.47-8.03,2.41-2.72,1.81-4.27,5.66-2.74,8.56.12.18.18.11-.08.05-.15-.04-.37-.02-.35-.01.01,0,.18-.06.45-.2,3.74-2.18,7.75-.57,9.93,3.08,1.02,1.44,1.44,2.49,2.52,2.94.53.09.86-.14,1.47-.54,1.16-.83,2.29-2.05,3.7-2.85,5.4-2.99,8.96,3.29,9.2,7.93.6,4.52-1.28,10.18-5.29,12.85-.61.42-1.64,1.2-1.82,1.42.03-.07,0,.03.01.02.72,1.09,2.14,1.88,3.4,3.22,1.69,1.62,3.11,3.98,3.65,6.36,1.39,5.65-.69,11.57-7.49,10.6-.15-.01-.13.06.28-.12.43-.2.85-.67.93-1.1.07-.18.04-.41.05-.43.01-.03-.04-.14,0-.06.68,1.83,2.2,3.46,2.41,5.82.53,7.39-11.21,8.1-15.39,4.26-1.27-1.08-2.17-2.92-2.24-4.49-.1-1.27.09-2.22.14-3.11,0-.04,0,.03,0,.04,0,0,.01.05.03.17.03.12.16.47.38.71.24.26.49.46.79.56.17.04.22.09.35.1.1.02.26,0,.27.01.08.02.21-.04.16-.01-.84.3-1.87,1.18-2.7,1.77-7.66,6.1-17.5,15.34-26.34,5.37-.13-.12-.2-.18-.3-.26.27.16.59.29,1.14.28.68,0,1.66-.48,2-1.15.36-.62.31-.9.33-1.02,1.18,4.2,1.79,10.21-2.28,13.62-.46.42-.47.46-.67.76-1.68,3.23.37,8.5,2.77,11.27,1.76,2.23,4.61,3.44,7.33,4.94,6.56,3.86,1.16,11.46-3.84,13.77-.3.15-.58.3-.67.35-.11.07.14-.06.33-.43.16-.31.19-.61.13-.93-.08-.3-.15-.32-.05-.21.15.22.66.75,1.15,1.33,3.89,4.24,2.08,8.68.84,13.61-.58,2.46-1.03,4.9-1.3,7.39-.2,1.31-.16,3.06-.84,4.65-.88,2.07-3,3.49-5.16,3.83-1.62.31-3.01-.03-4.39-.02-3.77-.11-4.36,3.46-6.24,6.08-1.28,1.64-3.47,2.5-5.55,1.88-2.06-.69-3.09-2.11-4.76-3.1-1.9-1.18-4.32-2.57-6.34-3.31-1.46-.5-2.76-.61-4.18-.23-.89.16-1.89.8-3.05.95-3.41.55-5.63-2.01-6.18-4.91-.37-1.03-.69-1.28-1.81-1.29-.95-.02-2.49.21-4.21.01-2.85-.26-5.6-2.03-7.3-4.19-.09-.08.11.11.37.17.25.05.29.05.46,0,.09-.02.16-.07.2-.08.06-.05.06-.04.06-.04-.04.01-.37.46-.69.99-1.35,2.59-4.42,5.57-7.69,6.01-2.24.48-4.14,0-5.91.13-.24.07-.06-.01-.09,0,0,.01,0-.02.03-.07,0-.06,0-.03,0,.12.64,3.82-.77,8.13-3.68,10.93-2.52,2.63-6.51,2.73-8.97-.35-.97-1.03-1.63-2.32-2.41-3.28-.27-.39-.64-.62-.33-.44.57.23,1.28-.11,1.53-.38-1.95,3.46-6.19,5.01-9.85,5.65-2.87.63-7.4,1.42-10.32,1.86-7.07-.02-15.19-7.46-13.81-14.91.6-2.44,1.98-3.72,2.97-5.05.08-.1-.08,0-.12.48-.03.51.14,1.05.49,1.4.43.38.55.37.56.38-8.17.07-11.81-2.77-12.6-11.31-.47-5.12-1.12-10.27-2.19-15.26-1.42-7.03-3.61-14.26-8.5-19.61-5.15-4.35-9.87-9.93-12.56-16.25-2.24-5.11-3.34-10.27-4.57-15.64-1.26-5.24-1.56-12.56,4.4-15.1.51-.26.82-.46,1.18-.75h0ZM14.28,154.25c-.62.57-1.4,1.11-2.05,1.46-1.17.65-1.18.68-1.74,1.63-1.02,2.28-.19,4.78.5,7.69.69,2.37,1.46,4.98,2.24,7.36,1.86,5.88,4.66,11.24,8.63,15.93,2.49,2.98,6.22,5.33,8.27,8.84,6.25,9.23,7.81,20.62,8.91,31.43,0,0,.34,3.86.34,3.86.16,1.85.38,4.03,1.46,5.13,1.77,1.27,4.01.55,6.36,1.14,3.12.65,4.42,4.22,2.56,6.72-.77,1.08-2.14,2.41-2.25,3.15-.3,2.52,2.03,5.18,4.25,6.64,1.3.81,2.54,1.4,4,1.39,0,0,1.78-.31,1.78-.31l3.56-.59,3.64-.71c2.08-.46,4.34-.79,5.84-2.26.23-.18.73-.96.91-1.23,1.77-2.72,5.34-2.11,7.06.12,1.15,1.32,2,3.1,3.22,4.06.04,0-.22,0-.11-.01.97-.56,1.71-1.72,2.26-2.88.83-1.79.46-2.57.4-4.64-.06-1.54.71-3.26,1.97-4.26,3.14-2.7,7.76.29,10.63-2.35,1.43-1.25,1.83-2.93,3.51-4.6,1.03-1.04,2.79-1.53,4.34-1.13,1.93.48,2.53,2.02,3.83,2.96,2.01,1.3,3.24.91,5.98.85,1.83-.15,4.35.89,5.55,2.43,1.47,1.69,1.72,4.05,1.85,4.02.02,0-.07-.08-.12-.13-.06-.04-.03-.02-.11-.05-.07-.02-.21,0-.15-.02,3.05-1.29,6.78-1.75,9.94-.5,3.95,1.52,7.83,3.89,10.88,6.32-.1-.04-.28-.04-.28-.03,0-.03-.25.16-.08,0,2.72-5.69,6.01-8.87,12.71-8.07,1.02.06,1.7.09,2.28-.57.04-.07.15-.57.21-1.15.3-3.35.82-6.74,1.59-9.98.4-1.9,1.47-5.05,1.38-6.68-.12-.76-.51-1.32-1.07-2-.35-.43-.78-.81-1.41-1.65-1.34-1.51-1.38-4.52.34-5.94,1.01-.92,2.23-1.25,3.17-1.98.92-.69,2.22-2.02,2.5-3.07-.01.03,0,.07.02.1,0,.05.02.11.06.14.13.18-.01-.03-.42-.26-3-1.53-6.48-3.29-8.71-6.08-3.96-4.83-6.48-11.81-3.47-17.82.43-.85,1.3-1.8,1.82-2.24.5-.46.5-.48.68-.77.36-.7.6-1.58.61-2.43.06-1.75-.52-3.3-.87-5.29-.1-1.03-.21-1.59.49-2.92,1.28-2.07,4.01-1.99,5.61-.51,1.38,1.15,2.85,3.07,4.61,3.24,1.42.23,3.54-.56,5.53-1.73,3.66-2.08,7.32-5.56,10.89-8.03,1.08-.74,2.63-1.64,4.19-1.69,1.72-.16,3.66,1.26,3.99,2.93.28.83.13,1.87.07,2.54-.06.91-.23,1.31.04,1.84,1.1,1.29,4.76,1.39,6.21.41.04,0-.06.04-.06.08,0,.05-.05.1-.07.17,0,.08-.02.12-.03.15,0,.02,0,.04.01.05,0,0-.01-.02-.01-.02-.53-1.71-1.62-2.9-2.22-4.93-.38-1.28-.21-2.81.7-3.93.7-1.05,2.7-1.62,3.55-1.5.51,0,.86.04,1.14.06.58.05.81-.01.8,0-.03,0-.1.09,0-.03.18-.23.37-1.22.29-2.19-.14-2.01-.86-3.72-2.35-5.19-2.45-2.24-6.18-4.8-4.69-9.05.59-1.81,2.38-3.02,3.71-3.97,3.43-2.28,3.93-7.18,2.46-10.81-.19-.37-.4-.74-.55-.86-.16-.15-.09-.03.18-.03.04.02.11-.01.12-.01-.59.29-1,.69-1.68,1.25-1.91,1.76-4.76,3.53-7.62,2.7-2.62-.52-4.58-3.48-5.62-5.15-.66-1-1.26-1.61-1.55-1.67-.68-.19-.68-.06-1.62.36-.96.5-2.35.95-3.64.6-3.46-.91-4.47-4.7-4.54-7.41-.3-4.53,2.63-8.83,6.34-11.16,2.7-1.91,6.47-2.33,9.45-2.62,3.54-.53,4.86-2.41,5.53-6.03.81-3.47,4.45-6.01,7.84-6.29,3.22-.36,6,.4,8.33.63,1.39.1,2.29.18,2.59-.46.25-1.51-.54-2.88-.42-5.18.19-4.24,4.1-6.22,7.6-6.42,1.27-.17,2.14-.4,2.42-.73.81-.61.9-3.17.1-4.02-.04-.03-.07-.06,0-.02.06.03.2.02.14.03-1.35.4-2.95,1.63-4.39,2.4-3.57,2.01-7.05,3.92-10.91,5.37-6.51,2.36-10.71.45-9.98-6.95.14-5.22.4-10.49.25-15.54-.1-1.9-.17-3.75-.92-5.41-1.32-2.7-3.59-4.02-5.98-5.99-3.14-2.45-3.87-7.2-2.8-10.88.13-.74.32-1.25.18-1.66,0-.05-.1-.13-.08-.13,0-.02,0,.02,0,0-.02,0-.02,0-.07-.02-2.9.06-5.93.69-8.87-.36-4.76-1.16-9.13-4.86-7.82-10.31.6-3.28,2.83-6.11-2.08-6.6-1.11-.14-2.44-.16-3.58-.12-1.26.08-2.28.48-3.61.75-5.45.89-14.59.16-14.93-7-.12-2.8,1.25-5.39,1.43-7.76,0-.42-.07-.52-.1-.56-.05-.04.01,0-.05-.03-1.29-.03-2.85.48-4.47.48-2.79.21-5.79-.57-8.3-1.62-4.75-2.07-9.68-2.95-14.74-3.3-1.19-.06-2.48-.02-3.12.3-.89.41-1.28,1.22-1.75,2.18-1.01,2.34-2.25,4.98-4.06,7.12-3.45,3.87-6.5,8.03-9.11,12.46-.99,1.79-2.42,4.11-2.25,6.13.03.09.06.11.06.11,0,.02.03,0,.03.03.44.07.99.04,1.72-.09,10.81-2.18,8.09,9.61,7.04,16.22-.63,7.24-9.23,13.79-16.19,10-3.27-2.27-5.9-4.37-10-4.37-7.49-.23-14.38,4.69-17.45,11.42-1.28,2.38-1.65,4.79-2.52,7.35-.59,1.57-2.09,2.71-3.66,3.22-2.82.8-4.95-.17-7.18,1.41-1.07.73-1.41,1.3-2.23,2.49-1.89,2.72-5.86,3.27-8.8,2.59-2.67-.55-5.24-1.62-7.71-2.49-4.89-1.73-9.81-3.44-14.71-4.21-2.5-.36-5.21-.56-7.46.46,0,0-.55.36-.55.36-.1.06-.2.13-.18.12-.01.02-.04.04-.08.11-.66,1.1-.96,2.49-1.39,3.93-2.1,7.47-3.64,14.87-3.67,22.67-.27,6.07-.27,12.4,3.14,17.55,2.07,3.28,6.16,5.09,7.97,8.78,3.89,7.53,5.29,18.87-1.59,25.23h0Z"/>
    </g>
  </g>
</svg>