<?xml version="1.0" encoding="UTF-8"?>
<svg id="_Слой_2" data-name="Слой 2" xmlns="http://www.w3.org/2000/svg" viewBox="0 0 197.4 277">
  <defs>
    <style>
      .cls-1 {
        fill: #080000;
      }

      .cls-1, .cls-2 {
        stroke-width: 0px;
      }

      .cls-2 {
        fill: #80bf21;
      }
    </style>
  </defs>
  <g id="_Тоцский" data-name="Тоцский">
    <g>
      <path class="cls-2" d="M157.8,12.69c-.68.73-10.64,11.51-19,11-4.42-.27-8.66-3.72-9-4-2.02-1.68-2.67-3.02-5-4-.3-.12-4.8-1.95-7,0-1.84,1.63-.25,4.33-1,9-.14.89-1.09,6.83-5,10-5.59,4.53-16.59,2.57-21-3-2.13-2.69-1.43-4.6-5-10-1.87-2.84-4.23-6.41-6-6-2.02.47-1.47,5.76-3,15-1.33,8.01-3.32,13.54-6,21-3.71,10.3-5.81,12.77-7,14-3.03,3.15-4.69,3.12-6,6-1.99,4.38.72,6.93-1,13-.72,2.54-1.54,5.46-4,7-5.15,3.23-12.21-2.91-15,0-1.34,1.39-1.15,4.29,0,6,2.21,3.28,7.1.85,10,4,2.65,2.88,2.08,8.39,0,12-1.74,3.01-5.16,5.8-9,6-4.51.23-10.47-3.05-14-5-1.21-.66-2.93-1.68-4-1-1.17.74-.33,2.67-1,5-1.19,4.14-5.49,3.78-8,8-1.99,3.34-2.11,8.31,0,10,1.32,1.06,2.91.36,9-1,11.92-2.67,13.47-1.74,14-1,1.07,1.48-1.08,3.28,0,6,1.11,2.81,3.95,2.2,6,5,2.61,3.56,1.47,9.49-1,13-1.46,2.07-2.14,1.51-3,3-3.1,5.35,6.22,11.56,5,21-.55,4.26-2.59,4.1-4,11-1.08,5.28-.08,6.33-1,10-1.09,4.34-4.43,10.65-10,13-8.23,3.48-15.26-4.26-21,0-2.29,1.7-3.84,4.91-3,7,1.32,3.25,8.22,3.12,17,3,9.08-.12,13.75-.19,19-3,3.99-2.14,5.05-4.11,8-4,3.77.15,5.12,3.5,10,8,8.76,8.09,13.61,5.78,17,12,1.84,3.38,3.32,9.39,1,14-1.01,2-2.99,4.24-6,10-.98,1.87-1.16,2.39-1,3,.78,2.91,7.71,1.68,18,4,9.24,2.08,14.48,5.51,17,3,1.4-1.39.86-3.5,3-5,1.76-1.23,3.13-.52,5-1,4.54-1.18,4.22-7.41,9-13,4.28-5.01,10.11-6.51,12-7,2.58-.66,9.27-1.94,16,1,4.76,2.08,5.9,4.68,8,4,3.57-1.16,5.2-10.27,2-13-2.24-1.91-5.33.6-7-1-3.01-2.88,2.25-15.54,9-25,3.77-5.28,7.4-8.72,7-14-.23-2.99-1.57-4.13-1-7,.93-4.73,5.28-5.25,6-9,.75-3.93-3.71-5-6-11-3.01-7.9,2.76-11.22,0-22-.52-2.02-.66-1.68-3-9-1.67-5.23-2.51-7.84-3-10-.54-2.34-1.9-8.53-1-16,.78-6.46,1.46-12.1,6-16,5.22-4.49,14.09-5.41,17-2,2.84,3.33-1.18,9.4,2,12,1.6,1.31,4.45,1.27,6,0,2.48-2.03.6-6.4,0-14-.8-10.12,1.23-19.01,2-22,2.17-8.45,5.04-11.7,3-15-2.08-3.38-6.62-2.49-8-6-1.18-3.01,1.76-4.7,2-9,.41-7.39-7.87-9.36-8-16-.14-7.17,9.45-9.17,9-16-.3-4.59-5.03-9.8-11-10-5.4-.18-6.95,10.32-12,10-2-.13-3.47-1.72-6-1-1.61.46-2.59,1.56-3,2Z"/>
      <path class="cls-1" d="M159.01,13.81c-5.06,5.16-10.95,10.44-18.4,11.54-5.5.51-10.83-2.89-14.4-6.66-1.29-1.6-6.61-3.16-7.46-1.26-.2.59.03,2.64.04,3.4.24,12.11-6.97,20.41-19.47,17.8-4.36-.94-8.77-3.23-11.07-7.22-.8-1.45-1.16-2.8-1.62-3.91-.89-2.28-2.23-4.31-3.74-6.48-.9-1.35-1.92-2.63-2.9-3.27.05,0,.37.06.58-.13.22-.1.21-.22.16-.08-.11.21-.25.79-.33,1.36-.1.57-.17,1.21-.24,1.85-.69,9.38-2.53,18.9-5.79,27.68-2.36,6.23-4.16,13.42-8.78,18.81-1.33,1.48-3.18,2.77-4.6,3.98-2,2.14-1.56,4.49-1.25,7.4.41,5.6-1.55,14.35-7.85,16.1-3.23.89-6.26-.06-9.13-.85-1.34-.35-2.55-.71-3.21-.48-.41.7-.27,2.08.19,2.81.42.64.73.73,1.58.92,2.74.32,6.82.63,8.72,3.47,5.74,8.42-1.61,21.49-11.64,21.42-4.5-.12-8.48-2.28-12.15-4.33,0,0-3.39-2-3.39-2-.48-.27-.99-.47-1.18-.49-.1-.01-.04-.01.03-.08.07-.04.17-.25.12-.18-.03.05-.08.3-.09.58l-.05.98c0,2.32-1.15,4.98-3.11,6.26-2.29,1.57-4.45,2.31-5.82,4.63-1.18,1.95-1.69,4.63-1.17,6.83.17.74.51,1.38,1.1,1.74,1.21.41,2.78-.25,4.07-.52,3.88-1.01,7.78-2.11,11.75-2.88,2.72-.48,7.56-1.51,8.55,2.28.55,2.06-1.19,3.98.21,5.52,1.41,1,3.47,1.44,5.03,3.31,3.37,3.93,2.88,9.55.94,13.95-.87,1.84-2.06,3.79-3.88,4.91-.28.19-.24.17-.27.2-.02.03-.13.16-.19.32-.08.15-.13.29-.17.43-.16.55-.05,1.38.34,2.41.79,2.06,2.28,4.4,3.43,7.01,1.91,4.14,2.75,9.28.81,13.62-1.24,2.38-2.34,4.23-2.86,6.86-1.14,3.86-.14,8.1-1.49,11.98-1.86,5.74-5.37,11.05-11.12,13.64-2.97,1.28-6.43,1.38-9.29.78-4.02-.58-7.11-2.67-10.54-1.45-.66.39-1.27.84-1.76,1.49-.7.92-1.24,2.02-1.04,2.89,1.56,1.26,4.61,1.25,6.81,1.38,2.55.08,5.19.03,7.84,0,4.99-.12,10.33.12,14.97-1.46,3.19-1.01,5.41-3.1,8.39-4.76,6.53-2.93,10.27,2.83,14.11,6.78,2.67,2.68,5.56,4.87,8.94,6.47,2.55,1.21,5.43,2.17,7.59,4.42,4.14,4.7,5.64,11.44,3.88,17.46-1.43,3.92-4.4,7.04-6.17,10.72,0,0-.9,1.7-.9,1.7-.14.27-.27.54-.37.76-.1.21-.13.4-.1.19.01-.25-.01-.49-.18-.64,1.24.48,3.02.68,4.7.84,3.97.3,8.23.96,12.12,1.83,3.93.89,7.73,2.33,11.5,3.39,1.14.33,2.25.38,2.55.27.47-.29.45-.6.79-1.53.66-2.75,3.71-5.18,6.55-5.05.81-.02,1.3-.01,1.68-.09,1.94-.41,2.46-2.3,3.37-4.16,1.63-3.92,3.85-7.9,7.28-10.65,9.01-7.25,23.11-8.48,32.6-1.49.56.41,1.11.82,1.53,1.09.22.15.37.21.45.26.06,0,.02.02-.04,0-.04.02-.02-.01-.03,0,.03-.03.07-.06.12-.06.4-.29.63-.66.94-1.2.91-1.74,1.29-4.28.9-6.18-.18-.96-.64-1.57-.88-1.69-.12-.07-.32-.12-.76-.11-11.49,2.3-7.5-10.11-4.77-16.08,2.25-5.01,5.05-9.74,8.33-14.13,1.61-2.17,3.3-4.21,4.42-6.24,1.13-2.02,1.48-4.02,1.03-6.13-1.91-5.15-.84-9.35,3.32-12.78.81-.72,1.46-1.35,1.81-2.22.63-1.99-1.3-3.04-2.55-4.78-2.9-3.4-4.78-8.13-4.18-12.66.53-3.9,1.89-7.59,1.44-11.36-.18-1.72-.54-3.61-1.15-5.24-3.76-10.91-8.21-22.1-6.63-33.93.87-9.23,2.94-17.72,12.86-21.1,5.57-2.22,15.76-1.79,15.73,6.34.14,2.22-.85,5.19-.13,6.81.8,1.23,3.81,1.08,3.97-.49.18-4.35-1.23-8.89-1.23-13.38-.28-8.21.8-16.41,3.32-24.25.81-2.91,2.53-5.84,2.62-8.77-.21-1.39-1.06-2.2-2.52-2.87-1.67-.7-4.78-1.83-5.72-4.07-1.42-2.23-.23-5.2.82-7.21,2.45-5.11-.88-8.38-4.3-12.16-3.33-3.51-3.86-9.3-.63-13.07,1.84-2.38,4.04-3.98,5.45-5.82,4.13-5.01-2-11.82-7.39-12.22-.73-.11-1.22-.06-1.86.29-3.27,2.3-4.09,6.67-7.8,8.92-1.45.97-3.79.81-5.24.15-2.4-1.09-3.71-.76-5.39,1.01h0ZM156.59,11.57c1.44-1.78,4.37-3.23,6.85-2.58,1.36.17,2.39,1.02,3.53,1.03,1.46-.08,2.22-1.29,3.23-2.63C172.26,4.52,174.18.29,178.39,0c5.44-.03,10.46,3.57,12.46,8.63,1.26,2.88.66,6.82-1.4,9.15-2.51,3.32-5.9,4.94-6.77,8.66-.67,3.75,1.98,5.79,4.56,8.81,1.98,2.16,3.57,5.34,3.35,8.43-.05,1.57-.51,3.17-1.1,4.48-.59,1.32-1.18,2.43-1.15,3.06.15,2.26,2.23,2.36,4.28,3.38,3.24,1.27,5.54,4.78,4.54,8.44-.65,2.81-1.74,5.11-2.52,7.75-1.56,4.89-2.45,10.03-2.83,15.17-.41,5.2-.1,10.24.76,15.42.38,3.02,1.44,6.78-.94,9.44-2.8,2.88-8.21,2.6-10.38-.9-1.65-2.61-.49-6.24-.55-8.88.04-1.96-1.19-2.77-3.17-3.08-4.25-.59-9.51,1.29-12.35,4.55-2.94,3.29-3.49,8.49-4.09,13.7-1.51,11.73,3.49,22.97,6.92,33.97.65,2.8,1.03,5.82.67,8.69-.31,3.69-2.15,7.78-1.35,11.12.19,1.07.61,2.17,1.1,3.19,1.17,2.48,2.92,3.73,4.62,6.22,1.64,2.36,1.17,6.02-.73,8.1-1.16,1.47-3.06,2.67-3.78,4.07-.42.77-.69,1.81-.64,2.63.03,1.09.62,2.24.86,3.49.74,3.05.08,6.57-1.45,9.24-1.46,2.62-3.21,4.68-4.74,6.78-3.06,4.12-5.7,8.6-7.78,13.28-1.21,3.09-2.94,6.78-2.45,9.88.09.28.1.12-.05.07-.16-.02.2.04.75-.05.56-.07,1.28-.22,2.17-.26,1.64-.23,3.97.76,4.99,2.26,2.98,4.42,1.77,12.32-2.5,15.44-2.75,1.72-5.08.26-7.24-1.44-7.72-5.69-19.51-4.55-26.83,1.35-2.85,2.29-4.52,5.55-5.95,8.94-.83,1.93-2.11,4.65-4.21,5.92-1.34,1-3.63,1.21-5.03,1.2-.54.02-.73.08-.97.19-.69.34-.88.74-1.19,1.62-.19.54-.41,1.41-1.02,2.37-.61.96-1.65,1.78-2.78,2.18-1.99.63-3.49.24-5.3-.15-3.9-1.05-7.57-2.49-11.42-3.33-3.61-.8-7.76-1.39-11.5-1.7-3.32-.28-9.21-.78-8.95-5.54.1-.87.32-1.31.48-1.71.29-.73,1.09-2.16,1.45-2.86,1.67-3.49,4.33-6.42,5.79-9.91,1.19-4.03.04-9.23-2.74-12.4-1.58-1.63-4-2.28-6.17-3.38-5.13-2.36-9.5-6.25-13.16-10.41-1.68-1.71-3.12-3.83-5.54-2.78-2.72,1.7-5.66,3.98-8.89,4.98-5.48,1.89-11.04,1.62-16.58,1.78-2.66.03-5.33.09-8.08,0-3.14-.21-5.92-.13-9.03-1.85-5.81-3.66-1.62-12.1,3.59-13.96,6.74-2.55,13.17,3.63,19.42.87,3.88-1.66,6.89-5.99,8.29-10.44.87-2.55.45-4.58.71-7.37.32-2.98.9-5.7,2.07-8.49,1.15-2.59,2.47-3.9,2.49-6.52.45-5.92-4.62-10.56-5.63-16.33-.41-2.4.67-5.49,2.84-6.76.29-.19.39-.26.52-.38,2.06-2.19,3.05-5.81,2.57-8.75-.48-2.3-1.29-2.97-3.6-4.14-1.5-.67-3.35-2.61-3.63-4.4-.51-1.54.14-3.67.55-4.87.1-.41.02-.03.29.07-4.6-.78-11.04.83-16.04,1.75-1.7.27-3.94,1.12-5.67.16-3.66-2.6-2.64-8.2-.87-11.64.7-1.32,1.78-2.46,2.94-3.34,1.96-1.53,4.3-2.32,4.74-4.81.39-1.92-.57-4.46,1.51-5.81,1.43-.97,3.37-.34,4.53.21,4.35,2.08,9.15,4.85,13.93,4.91,5.39-.29,9.31-6.24,8.71-11.34-.5-5.42-5.84-2.8-9.39-5.15-4.6-2.67-4.51-11.77,1.54-12.39,5.68-.39,12.38,5.52,14.69-2.62.75-2.2,1.26-4.47,1-6.86-.39-2.67-.56-6.55,1.12-9.13,1.38-2.6,4.28-3.83,6.13-5.89,3.99-4.77,5.68-11.28,7.94-17.07,2.76-7.42,4.6-14.87,5.4-22.69.35-2.29.38-6.2,1.44-8.53.22-.47.63-1.12,1.38-1.63.8-.48,1.8-.6,2.5-.41.62.11,1.14.42,1.63.73,1.62,1.15,2.77,2.85,3.78,4.29,1.49,2.19,3.08,4.64,4.1,7.34.79,2.01,1,3.35,2.27,4.74.27.32.83.88,1.18,1.16,4.99,4.09,14.94,5.15,18.67-.69,2.34-3.45,3.08-8.08,2.64-12.26-.02-.71-.06-1.53.22-2.55.26-1,1.04-2,1.95-2.55,3.09-1.68,6.62-.65,9.45.81,1.8,1.02,3.16,2.96,4.66,4.02,1.95,1.44,4.2,2.67,6.42,3.11,7.11.97,14.05-5.52,18.8-10.26h0Z"/>
    </g>
  </g>
</svg>