<?xml version="1.0" encoding="UTF-8"?>
<svg id="_Слой_2" data-name="Слой 2" xmlns="http://www.w3.org/2000/svg" viewBox="0 0 180.92 198.59">
  <defs>
    <style>
      .cls-1 {
        fill: #020000;
      }

      .cls-1, .cls-2 {
        stroke-width: 0px;
      }

      .cls-2 {
        fill: #6cc16c;
      }
    </style>
  </defs>
  <g id="_Тюльганский" data-name="Тюльганский">
    <g>
      <path class="cls-2" d="M10.82,188.13c-2.21-1.21-1.52-3.34-4-9-2.48-5.65-4.92-7.52-4-9,1-1.6,4.17.12,8-2,2.16-1.2,3.3-2.93,4-4,2.97-4.52,1.15-7.36,3-12,2.3-5.78,7.98-8.53,9-9,4.78-2.21,6.4-.13,14-2,3.78-.93,7.61-1.87,11-5,3.71-3.43,4.81-7.55,6-12,1.43-5.35,3.27-12.25,0-15-2.83-2.38-8.62-.91-12,1-4.13,2.33-4.98,5.51-9,6-.46.06-2.74.29-5-1-2.56-1.46-4.88-4.74-4-7,.99-2.54,5.68-2.85,8-3,2.89-.19,3.44.45,6,0,1.68-.29,4.82-.89,6-3,.57-1.01.53-2.36-2-8-1.68-3.74-3.21-6.6-5-10-3.5-6.65-3.85-7.55-4-9-.35-3.41,1.02-3.99,2-9,1.53-7.79-1.15-9.69,1-15,1.39-3.43,4.42-7.39,7-7,2.07.31,3.4,3.35,5,7,1.99,4.53,1.89,6.83,3,7,1.56.23,4-3.95,5-8,1.26-5.1-.25-8.07,2-10,1.03-.89,2.64-1.37,4-1,2.49.68,2.5,3.78,4,4,1.07.16,2.72-1.15,8-14,3.6-8.77,3.75-10.4,3-12-.99-2.11-2.78-2.48-6-7-1.52-2.13-2.27-3.21-2-4,.73-2.12,5.88-.43,16-2,3.2-.5,6.29-1.23,7,0,.73,1.27-1.83,3.34-1,5,.76,1.53,3.27.44,5,2,2.64,2.38-.42,7.42,2,10,1.63,1.73,4.01.52,7,1,9.12,1.46,10.09,16.52,16,17,5.43.45,6.12-12.14,19-19,.49-.26,6.85-3.55,15-3,2.47.17,5.34.39,6,2,.79,1.92-2.19,4.27-6,12-.98,1.98-1.65,3.59-1,5,.95,2.07,3.97,2.04,4,3,.05,1.69-9.27,1.57-11,6-.78,2,.75,2.96,0,6-.84,3.36-3.03,3.42-4,6-1.81,4.78,4.54,7.66,5,16,.26,4.63-1.56,6.14,0,9,1.45,2.66,5.01,4.99,8,4,2.88-.95,3.87-4.52,4-5,.69-2.62-.61-3.27,0-6,.69-3.13,2.6-3.22,3-6,.47-3.23-1.81-5.22-1-6,1.07-1.04,5.51,1.98,7,3,3.9,2.66,5.86,3.99,6,6,.18,2.6-2.86,2.92-5,8-1.21,2.87-.55,3.53-2,6-1.59,2.71-2.78,2.6-4,5-1.43,2.82-1.14,5.65-1,7,.36,3.51,1.63,3.84,3,8,1.96,5.97-.1,6.98,2,12,1.51,3.63,3.09,4.31,3,7-.08,2.27-1.29,4.56-3,6-2.48,2.09-4.15.87-8,3-2.89,1.6-2.21,2.43-5,4-3.86,2.17-5.45.73-9,3-1,.64-3.69,2.36-4,5-.23,1.97,1.1,2.39,1,4-.25,3.93-8.36,4.07-10,9-1.12,3.37,1.78,5.98,0,8-1.12,1.27-3.38,1.51-5,1-2.49-.78-2.99-3.2-4-3-1.2.24-1.03,3.73-2,9-.85,4.6-1.5,7.95-4,11-.7.86-2.28,2.79-5,4-4.73,2.1-8.92.22-11,3-.7.93-.29,1.22-1,2-2.29,2.5-7.86.9-11,0-3.14-.9-3.24-1.39-8-3-3.88-1.31-5.82-1.97-7-2-6.22-.17-8.35,5.11-13,4-2.96-.71-3.32-3.13-6-3-3.02.15-3.99,3.32-6,3-2.46-.4-1.69-5.14-5-8-4.01-3.47-12.07-2.44-17,0-2.25,1.11-3.76,2.48-7,3-1.82.29-2.13-.01-6,0-6.06.02-6.58.78-8,0Z"/>
      <path class="cls-1" d="M9.59,190.36c-2.73-1.34-3.23-4.89-4.04-7.35-.66-1.97-1.53-3.89-2.55-5.73-1-2.05-2.93-3.98-3-6.51.15-3.44,3.23-4.2,5.98-4.1,2.77-.01,4.84-1.29,6.32-3.6,2.71-3.61,1.13-8.45,3.2-12.46,2.19-4.94,6.23-8.41,11.15-10.51,2.26-1.01,5.36-1.03,7.64-1.02,3.87-.12,8.44-1.31,11.86-2.8,3.48-1.63,5.85-4.41,7.13-8.08,1.2-3.67,2.47-8.47,2.94-12.31.09-1.31.22-3.19-.46-4.03-.13-.17-.35-.3-.93-.42-2.29-.38-5.18.6-7.25,1.76-3,1.77-5.16,5.52-8.99,6.3-4.76,1.27-9.97-.89-12.78-4.87-1.61-2.03-2.89-6.05-1.05-8.86,2.94-4.57,10.08-4.73,14.71-4.43,1.37.11,3.38-.39,4.42-.9.22-.11.45-.3.41-.29-.02.02,0,0-.04.07-.03.06-.09.18-.12.29-.15.58-.05.56-.13.3-1.63-5.13-4.95-10.84-7.47-15.66-1.73-3.52-4.38-7.22-4.08-11.47,0-1.5.58-3.31,1.05-4.56,1.01-2.75,1.57-5.45,1.51-8.33-.03-2.34-.59-4.74-.17-7.43.23-1.59.73-3.03,1.29-4.32,4.45-9.96,13.84-13.35,18.54-1.41,1.16,2.46,2.24,5.52,2.98,8.06,0,.1.08-.02-.5-.64-.85-.89-2.74-1.25-3.75-.47-.07.07.01-.01.07-.07.15-.16.37-.48.58-.8,1.4-2.28,2.2-4.97,2.34-7.7.14-1.8-.08-4.46,1.06-6.56,2.62-5.17,10.78-5.92,13.69-.61.42.68.73,1.3.79,1.37.04.08-.05-.13-.45-.4-.54-.45-1.73-.63-2.52-.3-.12.04-.29.13-.34.16-.11.04-.27.19-.26.17,1.36-1.7,2.47-4.31,3.59-6.64,1.73-3.88,3.59-8.14,4.95-12.1.34-.97.58-2.1.58-2.34-.5-.97-1.45-1.48-2.56-2.72-.89-.93-1.71-1.92-2.46-2.92-1.32-1.98-2.84-3.44-3.29-6.07-.34-2.37,1.58-4.82,3.91-5.28,2.12-.54,4.98-.31,7.14-.4,3.28-.05,6.35-.36,9.59-.9,1.73-.25,4.12-.75,6.13-.17,1.52.41,2.82,1.55,3.27,3.28.47,1.88-.46,3.61-1.02,4.68-.22.38-.2.6-.16.19,0-.19-.04-.57-.22-.85-.15-.31-.51-.67-.79-.8-.48-.21-.18-.05.41,0,3.35.23,6.31,2.47,6.76,6.06.28,1.9-.15,4.11-.06,5.61.03.1.03.26.05.31.02.16.05.09.02.11.01,0-.19-.11-.18-.09.01.01.3.05.74.04,9.73-1.16,13.81,5.94,17.42,13.36.71,1.18,1.71,3.3,2.71,3.79.09.03.14.06.17.06,0,0-.04.02.09-.04,1.91-1.62,3.29-4.85,5.03-7.21,3.95-6.04,10.18-11.33,17.36-13.24,4.87-1.5,19.76-3.32,20.17,4.02.06,2.72-1.9,4.78-3.08,6.84-1.49,2.43-3.43,5.55-4.32,8.15-.08.3-.06.45-.06.45,0,.01,0,0,.05.08.76.63,2.03.79,2.95,1.59,1.27.95,1.64,3.15.54,4.43-.38.51-.98.91-1.41,1.13-2.67,1.18-5.47,1.32-7.86,2.64-.87.54-1.29.88-1.37,1.52.67,2.54.54,5.76-1.04,8.09-.68,1.25-2.63,2.55-2.94,3.5-.56,1.5.31,2.59,1.13,4.12,3.65,5.59,4.73,10.86,3.23,17.45-.07,2.17,2.47,4.12,4.29,4.46,1.51.21,2.34-.54,3.11-1.87.58-1.22.98-2.08.69-3.36-.54-1.97-.2-4.53.8-6.38.55-1.06,1.43-1.9,1.91-2.72.69-1.52.04-3.15-.65-4.79-.15-.46-.25-.86-.23-1.39-.07-1.38,1.35-2.68,2.69-2.71,2.17-.06,4.2,1.32,5.89,2.32,4,2.73,12.15,7.02,7.41,12.64-1.65,1.76-2.79,2.81-3.69,4.89-.79,1.52-.8,3.03-1.41,4.71-.52,1.32-1.17,2.37-2.04,3.46-1.04,1.27-2.31,1.98-2.93,3.46-1.08,2.31-1.16,5.77-.12,8.29,1.54,3.02,3.03,6.69,3.14,10.22.06,2.35-.12,4.04.79,6.12.75,2.23,2.5,3.78,3.33,6.04,1.26,4.54-.87,9.13-4.82,11.58-2.42,1.23-5.08,1.27-7.06,3.11-.27.24-.38.36-.67.72-.68.88-2.28,2.38-3.4,2.92-1.71,1.29-5.51,1.86-7.22,2.19-1.25.36-3.37,1.72-3.9,2.93-.04.1-.04.26-.05.18.02-.09-.15-.38.12.14,1.74,2.84.83,6.61-1.85,8.61-2.38,2.05-5.75,2.49-7.35,4.81-.39.63-.05,1.56.17,2.46.26.96.69,2.72.39,4.06-1.05,5.23-7.71,6.56-11.72,4.22-1.01-.43-2.76-2.35-3.07-2.84,1.22,1.14,3.61.72,4.31-.77.01-.02.03-.09.03-.08v.03s-.03.1-.05.16c-.04.14-.08.36-.12.59-.86,5.39-1.23,10.41-3.52,15.67-3.13,6.56-9.25,10.12-16.42,10.04-.75.09-1.54.07-1.96.43,0,0,.03-.06.05-.12-1.74,5.87-9.3,5.03-13.84,3.62-2.16-.55-4.8-1.55-6.69-2.44-1.66-.72-4.39-1.6-6.14-2.22-1.11-.39-2.16-.7-2.98-.84-.64-.02-1.36.03-1.98.19-3.41.88-5.99,4.11-10.08,3.82-2.26,0-4.58-1.42-6.05-2.86-.55-.4-.36-.35-.91-.34-1.34.36-1.84,1.55-3.4,2.36-2.26,1.37-5.45.23-6.44-2.19-.97-1.86-1.12-4.06-2.44-5.52-2.24-2.48-6.9-2.26-10.17-1.58-4.58.76-8.02,4.47-12.81,4.8-2.39.18-4.59-.19-6.95-.05-2.64-.13-5.47,1-7.96-.34h0ZM12.04,185.89c.1.05.09.04.06.03-.04,0,.06,0,.24,0,2.81-.29,5.76-.41,8.6-.33,1.93.12,3.84.2,5.6-.58,1.89-.8,3.96-2.31,6.07-3.03,4.79-1.71,10.2-2.52,15.14-.54,2.65.96,5,3.68,5.88,6.27.35,1,.73,2.11,1.08,2.91.06.13.1.15.07.13-.06-.1-.22-.18-.33-.23-.24-.1-.48-.08-.67-.02,1.31-1.08,3.03-2.75,5.03-3.01.9-.15,1.86-.17,2.91.11,1.58.45,2.66,1.51,3.65,2.29,1.18.74,2.01.75,3.4,0,1.53-.81,3.74-2.57,6.6-3.29,1-.24,2.19-.44,3.24-.42,2.84.05,5.67,1.37,8.24,2.1,3.16.97,6.19,2.58,9.35,3.27,1.74.48,3.83.87,5.44.68.65-.08.9-.34.79-.24-.03.04-.11.16-.16.28-.05.12-.07.2-.03.05.53-2.53,3.15-4.5,5.51-4.91,1.77-.35,3.69-.36,5.21-.6,5.84-.93,8.42-6.26,9.18-11.8.15-.82.42-2.38.54-3.2.36-2.23.39-4.52,1.02-6.78,1.17-4.09,5.81-4.65,8.16-1.28.41.49.77.94,1.28.98.42.09,1.01-.03,1.1-.1.03-.02-.03-.02-.21.24-.09.13-.16.32-.18.46-.03.12-.01.18-.02.13,0-.1-.1-.52-.25-1.05-1.51-4.17-.14-8.82,3.52-11.32,2.04-1.54,4.45-2.32,6.18-3.6.11-.07.04-.06.06-.05.01,0-.1.11-.08.19-.08.08-.05.19-.05.29,0,.09.04.29.06.36-2.8-4.46.27-9.58,4.1-11.9,1.04-.7,2.51-1.54,4.04-1.94,2.4-.61,4.6-.53,6.58-2.03.68-.57,1.76-1.75,2.68-2.34,2.53-1.79,5.73-2.3,8.64-2.63,1.91-.62,3.76-3.37,3.39-5.42-.56-1.59-2.22-4.05-2.77-5.96-1.37-3.26-.36-6.91-1.35-10.16-.58-2.21-1.42-3.77-2.56-5.89-1.53-3.63-1.7-7.61-.09-11.42.79-2.22,3.11-3.53,4.18-5.47.89-1.35.85-2.82,1.35-4.38.59-1.85,1.43-3.55,2.62-5.11.89-1.27,2.16-2.16,2.68-3.19.02-.07.01-.33-.06-.49-.11-.35-.71-1.01-1.51-1.62-2.62-1.82-5.65-4.28-8.72-5.3-.02,0,.01.01.05,0,.07,0,.15,0,.22-.03.04-.02.18-.06.32-.14.41-.22.75-.84.75-1.26.01-.09-.02-.22,0-.2,0-.01-.01-.05,0-.03.33,1,1.09,2.41,1.19,3.67.42,2.03-.4,4.84-1.86,6.36-1.16,1.39-1.45,2.73-1.02,4.5.67,3.73-.96,7.58-4.15,9.73-4.91,2.91-11.2-.96-12.86-5.92-.67-1.89.04-4.46.23-5.99.5-4.16-.92-7.53-3.26-11.14-1.52-2.19-2.82-5.77-1.54-8.54.46-1.33,1.7-2.68,2.6-3.51.95-.91,1.19-1.7,1.32-2.84.03-1.09-.28-1.5-.43-2.96-.27-6.55,7.37-7.84,11.96-9.32-.91.54-1.1,2.15-.46,2.97.26.33.25.31.47.47-9.63-3.41-3.3-11.69-.05-17.46.76-1.28,1.69-2.55,2.17-3.73.01-.03.02-.06,0-.01,0,.02,0,.05,0,.16.01.08.02.17.04.26.04.09.06.17.11.24.2.3.25.24.03.15-5.16-1.22-11.01-.38-15.9,1.68-4.66,2.11-8.24,5.61-11.1,9.98-2.05,2.86-3.53,6.85-6.78,9.07-3.58,2.42-7.96.17-9.89-2.84-2.02-2.85-3.38-6.22-5.15-8.89-1.6-2.35-3.01-3.9-5.53-4.2-1.52-.09-3.58.32-5.58-.17-2.18-.47-4.07-2.6-4.56-4.66-.7-2.16.02-5.49-.26-6.84-1.07-.23-2.49-.21-3.76-.92-2.87-1.48-3.03-5.23-1.71-7.48,0,0,.37-.76.37-.76.11-.21.13-.3.13-.3-.02.07-.15.34,0,1.02.14.7.71,1.31,1.11,1.52.1.06.28.14.37.17.1.02.08.02.09.02-.02,0-.15,0-.31,0-4.21.54-9.04,1.47-13.38,1.49-1.31.06-4.27,0-5.47.23.9-.3,1.49-1.53,1.35-2.43-.06-.41-.11-.43-.07-.37.04.07.13.23.23.4,1.04,1.57,2.35,3.35,3.69,4.71.68.72,1.4,1.26,2.54,2.5,1.29,1.41,2.26,3.59,2.13,5.58-.11,1.9-.52,3.07-.88,4.28-1.52,4.57-3.22,8.59-5.1,12.94-1.25,2.72-2.48,5.68-4.45,8.28-.49.62-1.18,1.31-2.02,1.79-1.52.97-3.93.78-5.25-.23-1.37-.97-1.97-2.33-2.5-3.18-.16-.25-.21-.25-.1-.16.1.09.29.13.29.13.04-.02-.37.08-.47.19-.05.06.03-.03.08-.1.04-.07,0,.01-.05.31-.02,3.31-.33,7.66-1.73,10.91-1.11,2.71-2.5,5.71-5.24,7.3-2.9,1.65-6.22.05-7.22-2.79-.99-2.86-1.64-5.1-2.94-7.72-.58-1.18-1.04-2.28-1.73-3.03-.07-.06.11.14.55.24.43.11.75,0,.77-.02-1.17.78-2.28,2.5-3.03,4.2-1.28,2.69-.31,5.12-.28,8.15.18,4.31-.93,8.81-2.39,12.75-.13.43-.11.69-.09,1.13,0,0,.04.46.04.46.02.15.05.28.19.67,2.69,5.99,6.26,11.92,8.77,18.08.89,2.21,1.96,4.57,2.07,7.11.16,5.76-6.35,8.16-11.02,8.47-1.29.14-2.75-.1-3.85-.18-1.32-.05-3.02.1-4.19.28-.85.13-1.62.39-1.88.54-.11.07-.06.06.05-.14.12-.21.16-.49.14-.51.62,2.11,3.15,3.79,5.41,3.24,1.55-.41,2.4-1.77,3.93-3.01,4.23-3.59,9.91-5.69,15.56-4.67,11.38,3.02,5.23,18.06,2.89,25.7-1.72,4.84-5.71,9.31-10.52,11.35-5.7,2.42-11.53,3.29-17.53,3.12-4.44.43-8.76,3.92-10.65,7.89-.78,1.67-.92,3.27-1.08,5.71-.2,4.02-2.34,7.99-5.4,10.63-2.08,1.83-5.2,2.81-7.85,2.81-.7,0-1.26.03-1.71.07.19-.04.65-.44.71-.77.08-.22.09-.42.06-.61-.02-.05,0,.02.02.05,2.56,4.34,5.01,8.99,6.16,13.99.25.61.2.97.63,1.21h0Z"/>
    </g>
  </g>
</svg>