<?xml version="1.0" encoding="UTF-8"?>
<svg id="_Слой_2" data-name="Слой 2" xmlns="http://www.w3.org/2000/svg" viewBox="0 0 257.26 267.9">
  <defs>
    <style>
      .cls-1, .cls-2 {
        stroke-width: 0px;
      }

      .cls-2 {
        fill: #233d10;
      }
    </style>
  </defs>
  <g id="_Шарлыкский" data-name="Шарлыкский">
    <g>
      <path class="cls-2" d="M80.12,27.16c-3.13,5.71.27,8.88-3,13-3.66,4.61-10.31,3.3-11.5,7.5-.43,1.5.42,1.67.5,4.5.16,5.89-3.37,10.27-4,11-3.12,3.56-7,5-7,5-1.8.67-3.55.93-4.5,2.5-.69,1.14-.51,2.22-.5,3.5.01,2.31-.53,7.1-2.5,8.5-3.78,2.69-12.7-7.25-18-4-.92.56-1.39,1.31-1.5,1.5-1.89,3.14,1.7,6.75,3,13,.39,1.9,1.33,6.63,0,12-.67,2.71-2.23,9.38-7,11-3.58,1.22-7.9-.77-9.5-1.5-3-1.38-4.1-2.9-7-3-.95-.03-3.2-.11-4.5,1.5-1.08,1.34-1,3.23-.5,4.5.68,1.73,2.24,2.58,3,3,4.45,2.47,8.53,5.56,13,8,4.64,2.53,6.97,3.81,7.5,4.5,2.81,3.66.65,6.31,3,13,1.21,3.45,2.83,5.73,5.5,9.5,3.37,4.76,5.06,7.14,7.5,8.5,5.28,2.95,8.18-.32,14,3,1.41.8,5.13,2.93,6,7,.6,2.83-.63,5.26-1,6-.45.89-1.79,3.55-4.5,4.5-3.33,1.17-6.15-1.15-7,0-.62.83.19,2.96,1.5,3.5,2.35.97,6.26-3.23,6.5-3.5.41-.45.92-1.31,2-2,.29-.19.31-.16,2-1,1.1-.55,1.66-.82,2-1,1.53-.81,1.52-.92,2-1,.33-.05.39,0,2,0,.56,0,.87,0,1,0,1.55,0,3.58.63,5,1,2.91.76,2.82.31,5,1,1,.32,2.56.9,3.37,1.12.11.03.56.14,1.13.38.74.31,4.7,1.99,7,6,2,3.5,1.03,5.8,3,7,2.28,1.39,4.39-1.23,7,0,3.1,1.46,1.86,5.98,5,8,2.94,1.89,5.34-1.22,9,0,3.71,1.24,5.48,6.49,9,17,1.59,4.74,2.73,7.49,5,13,1.6,3.88,2.38,5.52,4,6,3,.9,4.65-3.44,10-4,2.78-.29,6.75.41,9,3,1.84,2.11,1.17,3.93,3,5,2.26,1.32,4.15-.96,7,0,2.83.95,4.57,4.42,5,7,.43,2.6-.21,5.93-1,10-.29,1.52-.51,2.36,0,3,1.1,1.39,3.75-.4,8,0,4.62.44,6.04,3,8,2,2.17-1.1.63-4.31,3-7,2.84-3.22,7.07-.87,11-4,1.94-1.54,2.65-3.71,4-8,3.09-9.83.75-11.48,3-15,4.34-6.8,14.34-2.64,19-10,1.75-2.77,2.7-7.1,1-10-1.9-3.23-5.5-1.99-9-6-.28-.32-3.44-4.05-3-9,.11-1.23.44-4.95,3-6,1.99-.82,4.66.27,6,2,1.91,2.46.11,4.92,2,7,1.53,1.68,4.6,2.15,6,1,1.91-1.57.35-5.84,1-6,.57-.14,2.54,2.95,3,7,.51,4.51-1.32,6.23,0,8,1.01,1.36,2.33.67,8,2,3.93.92,5.33,1.72,6,1,1.24-1.35-2.32-5.58-1-7,.75-.81,2.25.22,4,0,5.41-.67,9.65-12.79,7-15-1.59-1.32-4.27,2.08-9,1-.27-.06-5.32-1.31-7-6-.16-.43-1.58-4.62,1-8,1.23-1.61,3.69-3.46,6-3,1.94.39,2.39,2.13,4,2,1.37-.11,2.93-1.55,3-3,.13-2.64-4.72-3.03-6-7-1.05-3.26,1.25-6.03,0-7-1.32-1.02-3.97,2-6,1-2.31-1.14-.43-5.83-3-8-2.05-1.73-4.29.37-10,0-6.44-.42-9.52-3.48-11-2-1.45,1.45,1.44,4.47,0,9-.19.6-1.37,4.32-4,5-4.1,1.07-7.89-6.23-11-5-2.24.89-1.44,5.13-4,6-1.81.61-3.97-.9-5-2-1.54-1.65-1.76-3.71-2-6-.33-3.1.4-3.29,0-5-.89-3.81-4.68-3.7-6-7-1.58-3.94,2.9-6.37,2-11-.68-3.48-3.52-3.75-9-9-3.47-3.33-8.05-7.72-10-14-2.21-7.13,1.06-9.93-2-14-3.27-4.35-8.35-2.92-10-7-1.56-3.85,2.09-7.28,0-10-1.61-2.1-4.32-.75-6-3-1.79-2.4.62-4.84-1-8-1.64-3.21-4.98-2.39-6-5-1.26-3.22,3.43-5.39,4-11,.39-3.87-1.71-4.06-4-12-1.91-6.64-.79-7.7-3-13-1.14-2.74-2.32-5.47-5-8-2.31-2.18-5.01-3.52-8-5-4.41-2.18-4.92-1.71-6-3-2.48-2.97-.37-6.17-3-9-1.06-1.14-3.16-2.51-5-2-2.63.73-2.08,4.59-6,10-1.24,1.7-2.61,3.6-5,5-3.93,2.3-6.23.71-11,2-.69.19-7.83,2.22-11,8Z"/>
      <path class="cls-1" d="M82.15,28.27c-1.69,2.91-.9,5.54-1.26,8.91-.53,4.25-4.34,7.31-8.12,8.56-1.58.62-3.79,1.08-4.67,2.14-.05.08-.12.15-.14.27-.04.09-.1.22-.1.27,0,.06,0-.03,0,.02.17.72.51,1.8.55,2.61.73,8.3-4.65,16.08-12.2,19.2,0,0-.12.05-.12.05l-.06.03c-.07.03-.22.08-.33.11l.25-.08c-1.39.49-2.58.82-2.98,1.16-.48.49-.53.57-.53,1.47.28,5.26-1.24,14.45-8.61,12.12-4.21-1.22-7.74-4.52-11.8-4.79-1.37.06-2.36.91-2.05,2.41.16.86.65,2.01,1.13,3.18,3.54,7.55,4,16.41.94,24.22-4.06,11.39-13.56,10.04-22.09,4.53-.97-.53-1.56-.7-2.63-.73-1.06-.05-1.87.16-2.22.45-.36.27-.59.75-.56,1.51.06.79.29,1.33.86,1.88.29.27.65.52,1.12.79,4.51,2.48,8.67,5.63,13.12,8.08,1.69.95,3.44,1.86,5.11,2.84,1.06.68,2.65,1.44,3.39,2.65,2.78,3.71,1.33,8.33,2.78,12.33,1.34,4.7,4.65,8.57,7.43,12.59,1.49,2.03,2.96,4.03,4.6,5.02,3.21,2.12,6.96.65,10.65,1.69,4.37,1.42,8.24,3.82,10.18,8.42,1.76,4.58-.23,9.71-3.71,12.91-1.25,1.09-2.94,1.87-4.68,2.01-1.95.22-3.62-.39-4.98-.63,0,0,0,0,.08,0,.08,0,.08-.03.24-.07.23-.09.51-.3.63-.52.24-.41.15-.49.17-.45,0,.04.03.17.08.29.05.25.45.57.28.44-.03,0-.04,0-.02,0,0,0,.02.02.09,0,.05-.01.1,0,.18-.04.3-.08.74-.29,1.17-.57,1-.64,1.97-1.51,2.79-2.39.77-.98,1.59-1.88,2.73-2.49,1.05-.52,2.84-1.39,3.89-1.92,0,0,.79-.44.79-.44.3-.13.39-.32,1.36-.64.2-.05.34-.08.49-.1.57-.08,1.42,0,2-.01,2.68-.21,5.5.81,7.96,1.36,1.13.2,2.91.35,4.01.79.92.3,2.75.93,3.67,1.23,4.86,1.63,9.12,5.72,10.32,10.84l.42,1.85c.06.25.13.4.18.53.42.63.95.37,1.83.16,2.54-.98,5.81-.59,7.43,1.92,1.14,1.63,1.42,4.13,2.21,5.41.41.65,1.06,1.07,1.61,1.11.58.1,1.71-.29,3.15-.63,3.16-.96,7,.62,8.74,3.48,3.04,4.78,4.19,9.69,6.02,14.8,1.58,4.85,3.54,9.56,5.5,14.27.48,1.13,1,2.33,1.53,3.04.76,1.08,1.44.58,2.43-.06,1.71-1.26,3.46-2.45,5.61-3.02,5.79-1.55,13.11,1.06,14.54,7.34.18.38.23.43.48.61.27.16.43.2.8.18.72,0,2.16-.67,3.96-.63,5.12.29,7.92,5.59,8.19,10.13.18,3.7-1.04,7.59-1.52,10.96-.03-.08-.07-.1-.15-.16-.05-.04-.03.02.18,0,3.17-.46,6.87-.99,10.04.27,1.13.44,2.45,1.12,3.42,1.5.18.05.26.05.33.04.06.01.18-.06.27-.11.15-.07.25-.25.38-.74.53-5.35,3.06-8.08,8.51-8.31,3.79-.17,6.35-2.05,7.41-5.71,1.23-3.51,2.44-7.2,2.79-10.89.25-2.56-.03-5.8,1.84-7.96,0,0,.67-.86.67-.86,3.48-3.89,9.47-3.45,13.81-5.17,5.04-1.48,8.78-10.64,3.97-14-1.65-1.02-3.72-1.28-5.44-2.23-1.78-1.19-3.16-2.95-4.07-4.81-2.46-4.38-2.35-14.52,4.52-14.36,3.16.2,6.12,2.66,6.33,5.88.11,1.49,0,2.63.43,3.31.61,1.36,3.77,2.27,4.76,1.22.68-.67.38-3.05.28-4.28-.16-1.31.97-2.44,2.28-1.64.7.49.89.93,1.3,1.52,1.43,2.49,2.08,5.18,2.13,8.01.02,1.39-.25,2.85-.48,4.04-.14.86-.18,1.2.21,1.71.11.12.16.16.31.22,2.25.47,5.11.71,7.41,1.34,1.52.35,3.2.93,4.47,1.12-.06.02-.17.09-.2.13-.09.13-.05.13-.06-.03-.33-2.25-3.26-5.84-.16-7.53,1.16-.37,1.71-.11,2.63.04,4.42.95,7.15-5.99,7.86-9.38.15-.97.39-2.49-.17-3.23-.3-.03-.92.21-1.54.45-7.03,3.4-15.73-1.95-15.49-9.87,0-4.56,3.77-9.14,8.61-9.02,1.47,0,2.98,1.32,3.84,1.98.63.24,1.24-.32,1.66-.78.44-.69.61-.91-.04-1.56-.69-.65-1.94-1.32-3.04-2.25-3.44-2.83-3.09-6.26-2.18-10,0-.17-.04-.07.09.09.1.13.31.15.26.15-.03,0-.24.04-.47.13-2.18,1.08-5.27,2.4-6.93-.5-1.14-2.13-.34-4.61-1.49-6.35-.9-1.25-2.02-.64-3.88-.39-1.31.23-2.7.38-4.07.39-3.41.06-6.76-.83-9.88-2.02-.57-.2-1.16-.37-1.46-.39-.18-.02-.13.03-.1-.02.05,0,.03-.04.05-.05.04,1.36.9,3.44.82,5.21.1,4.39-3.2,10.77-8.44,9.09-2.75-.94-4.48-3.15-6.63-4.51-.66-.34-1.08-.64-1.5-.18-.62.78-.69,2.15-1.24,3.22-1.65,4.11-6.32,3.12-8.82.58-2.35-2.13-2.64-5.25-2.87-8.17-.17-1.18.24-2.52.14-3.67-.48-2.53-2.67-2.86-4.54-4.8-1.77-1.67-2.41-4.71-1.42-6.98,1.01-2.54,2.91-5.22,1.4-7.74-.43-.72-1.37-1.44-2.39-2.2-6.26-4.78-12.58-10.4-15.63-17.92-1.63-3.67-1.48-8.14-1.22-11.94-.12-3.56-3.34-5.23-6.46-6.24-3.09-.89-5.67-3.84-5.33-7.33.08-1.6.57-2.94.83-4.07.2-.94.37-1.59-.1-2.3-.6-.72-1.31-.66-2.39-.91-2.73-.31-5-3.02-4.67-5.79.36-2.81.75-5.2-2.36-6.42-1.37-.52-3.25-1.58-3.83-3.23-1.7-4.4,3.5-7.43,3.75-11.48.16-1.05.14-1.87-.28-2.85-1.02-2.08-2.41-4.84-3.13-7.2-1.88-4.77-1.52-10.14-3.65-14.8-.98-2.35-2.02-4.41-3.56-6.09-2.3-2.61-5.84-4.28-9.04-5.82-1.51-.75-2.97-1.18-4.56-1.93-1.26-.72-2.1-1.89-2.66-3.18-1.19-2.59-.19-4.94-1.67-6.81-.7-.84-2.01-1.69-3.03-1.55-.18.07-.16.03-.35.27-.37.51-.84,1.84-1.32,3.06-2.19,5.16-5.54,10.58-11.11,12.62-2.74.96-5.4.45-7.97.94-4.13.81-8.77,3.5-10.82,7.24h0ZM78.1,26.05c3.03-5.2,8.42-8.27,14.12-9.41,2.46-.55,5.16.03,7.34-.69,4.23-1.58,6.83-6.06,8.6-10.05,0,0,.72-1.8.72-1.8.28-.64.56-1.35,1.15-2.16,3.26-4.23,9.82-.83,11.16,3.47.85,2.31.06,4.95,1.57,6.59.12.13.16.16.26.22,1.34.62,2.95,1.13,4.32,1.85,8.95,4.02,13.06,8.41,15.72,17.92.79,3.87.96,7.5,2.29,11.21.78,2.59,1.8,4.41,2.97,6.97,1.84,4.21-.66,8.98-3.03,12.29-1.32,2.03-.46,2.69,1.52,3.5,3.13,1.16,5.12,4.6,4.55,7.91-.12,1.37-.64,2.84.56,3.68.89.62,2.06.42,3.29.94,1.81.58,3.24,2.52,3.26,4.43.12,2.04-.98,4.17-1.04,5.85-.31,4.01,4.22,3.92,6.95,5.68,2.65,1.52,4.8,4.47,4.78,7.6,0,2.76-.48,4.9.01,7.47,1.69,8.58,8.81,14.76,15.46,19.95,4.51,2.86,5.29,7.38,2.76,11.96-.56,1.16-1.03,2.17-1.01,2.99.02,2.38,2.05,3.05,3.92,4.63,1.86,1.44,2.92,4.23,2.36,6.56-.08,2.54-.08,5.87,1.84,7.75.99.86,2.24,1.76,3.33,1.26.57-.49.88-1.59,1.16-2.51.27-.79.73-2.09,1.63-2.78.63-.53,1.51-.84,2.33-.8,3.66.3,5.52,4.04,8.55,5.09,2.95.93,4.56-3.94,4.54-6.2.07-1.62-.83-3.52-.81-5.33-.03-1.61,1.67-3.01,3.16-2.78.98.08,1.62.34,2.27.55,2.82,1.09,5.9,1.94,8.9,1.89,2.78.19,5.29-1.24,8.14-.46,1.9.69,2.85,2.52,3.14,3.99.47,1.73.07,3.51.86,4.56.75.39,2.33-.68,3.24-.98.58-.26,1.63-.47,2.41-.17.36.16.7.36.96.68.56.65.61,1.43.59,1.9-.52,3.05-1.55,5.54,1.17,7.72,1.06.95,3.09,1.85,4.01,3.45,1.44,2.78-1.23,6-4.09,6.09-1.22.16-2.67-1.16-3.27-1.64-1.21-.84-2.54-.38-3.82.48-5.51,3.82-2.78,11.82,3.17,13.38,1.96.58,3.75.2,5.71-.6.62-.22,1.23-.52,2.24-.62,5.02.25,3.01,7.39,1.78,10.3-1.78,4.24-5.36,8.98-10.58,7.32-.24-.04-.39,0-.28-.04.06-.01.1-.08.14-.09.02-.01.03-.03.03-.06.08,2.14,2.61,4.64,1.03,6.95-.73.95-2.14.88-3.1.59-2.53-.69-4.86-1.36-7.41-1.75-1.49-.3-2.48-.19-4.07-.73-1.88-.69-2.46-3.06-2.03-4.66.93-3.76.4-8.06-1.81-11.09.04,0,.12.14.63.1.6-.11.84-.66.82-.7.03-.15,0,0,.01.1.1,2.04.59,4.19-.93,5.98-3.14,3-9.3.3-9.28-4.03-.03-1.73.03-3.32-1.38-4.45-1.4-1.23-3.91-1.87-5.11-.12-1.77,2.83-1.51,6.95,0,9.9,1,2.22,2.77,3.67,4.71,5.02,1.11.68,2.44.89,3.61,1.61,2.63,1.46,3.44,4.89,3.03,7.66-.51,4.13-3.11,8.17-7.1,9.65-3.96,1.71-8.19,1.35-11.65,3.71-1.57,1.09-2.76,2.85-2.87,4.79,0,5.2-1.18,10.5-2.94,15.39-1.27,4.53-4.78,7.32-9.51,7.58-1.31.15-2.45.29-3.32.7-2.21,1.1-2.19,3.03-2.63,5.54-.31,2.02-2.47,3.75-4.6,3.06-1.51-.41-2.36-1.11-3.68-1.51-2.24-.77-4.48-.66-6.85-.21-1.76.4-4.43.64-5.28-1.65-.38-1.09-.18-1.89-.03-2.8,0,0,.35-1.9.35-1.9.54-3.46,1.54-7.08.05-10.38-.87-2.01-2.49-3.65-4.05-3.6-1.21-.06-2.17.6-3.63.66-3.25.2-4.76-2.04-5.56-4.76-.6-1.38-1.73-2.26-3.16-2.87-3.08-1.25-6.53-.99-9.23.99-1.56,1.03-3.23,2.6-5.39,2.46-3.25-.01-4.91-3.61-5.87-6-1.01-2.41-1.99-4.76-2.96-7.18-1.95-4.77-3.44-9.79-5.21-14.59-1.31-3.03-2.62-8.32-6.24-8.54-1.06-.06-2.06.37-3.24.64-2.59.87-5.89-.36-7.21-2.71-.93-1.51-1.22-2.98-1.59-4.04-.31-.86-.49-1.41-1.19-1.78-.79-.33-1.36,0-2.37.24-4.39,1.36-6.91-1.07-7.51-5.46-1.02-4.43-5.13-7.4-9.39-8.47,0,0-1.88-.62-1.88-.62-1.32-.45-2.15-.39-3.56-.66-2.53-.54-4.66-1.42-7.19-1.25,0,0-1-.01-1-.01h-.41s.02,0,.02,0c-.01,0-.03,0,.01,0,.34-.14-.09.06-.36.23-1.4.79-3.35,1.72-4.79,2.44-.67.38-1.16,1.14-1.68,1.73-1.71,1.74-3.39,3.31-5.84,4.09-3.79,1.33-7.43-3.29-5.51-6.69.88-1.41,2.73-1.52,4.05-1.14,1.36.33,2.27.54,3.13.44,3.39-.24,6.13-6.07,4.73-9.09-.96-2.62-4.4-4.93-7.21-5.72-2.39-.63-4.83.02-7.52-.5-7.4-1.35-10.62-8.83-14.74-14.25-2.3-3.38-4.02-7.52-4.47-11.68-.38-2.49.07-5.32-1.39-7-2.58-1.83-5.88-3.31-8.65-4.97-3.95-2.33-7.49-4.92-11.44-7.1-4.32-1.98-6.08-8.55-1.97-11.73,1.72-1.31,3.64-1.44,5.12-1.41,1.5-.02,3.45.52,4.73,1.3,3.51,2.02,8.24,4.93,12.11,2.88,1.49-.9,2.67-2.86,3.47-5.02,1.66-4.43,2.25-9.26,1.3-13.96-.41-2.38-1.18-4.48-2.21-6.86-.79-1.94-1.99-4.49-1.41-6.96,1.29-5.13,6.99-6.03,11.13-4.09,3.37,1.2,6.52,3.79,9.58,4.13.2-.04.06.01.21-.11,1.1-1.46,1.28-3.92,1.42-5.82.09-1.49-.27-2.93.46-4.63.41-.99,1.12-1.87,1.95-2.48,1.29-1.03,3.83-1.6,4.39-1.9,2.2-.99,4.2-2.45,5.79-4.25,2.28-2.78,3.68-6.52,3.36-10.09-.03-.81-.33-1.31-.5-2.24-.49-2.71,1.46-5.35,3.81-6.41,2.83-1.37,6.71-1.85,8.4-4.38,1.15-1.54.9-2.88.9-4.93-.12-2.43.51-5.35,1.76-7.51h0Z"/>
    </g>
  </g>
</svg>