<?xml version="1.0" encoding="UTF-8"?>
<svg id="_Слой_2" data-name="Слой 2" xmlns="http://www.w3.org/2000/svg" viewBox="0 0 289.25 208.91">
  <defs>
    <style>
      .cls-1 {
        fill: #a0bb20;
      }

      .cls-1, .cls-2 {
        stroke-width: 0px;
      }

      .cls-2 {
        fill: #080000;
      }
    </style>
  </defs>
  <g id="_Ясенский" data-name="Ясенский">
    <g>
      <path class="cls-1" d="M7.37,110.91c-.04-.71-.16-2.57,1-4,1.34-1.66,3.36-1.46,7-2,6.21-.93,6.28-2.42,12-3,1.37-.14,3.26-.09,7,0,10.4.26,10.1.79,12.5.5,7.84-.96,13.11-6.88,14.5-8.5,3.73-4.37,4.77-9.05,5.5-12.5,3-14.26-3.23-24.09.5-26.5,3.14-2.02,8.79,4.12,12.5,1.5,2.24-1.58,2.41-5.38,2.5-7.5.24-5.37-2.13-7.55-1-9,1.66-2.12,7.02,2.21,15.5,2.5,9.36.32,18.44-4.43,20.5-5.5,2.64-1.38,5.92-3.43,11-4,3.26-.36,3.68.29,6,0,3.33-.41,6.53-2.25,14.5-11.5,7.88-9.14,7.66-11.19,11.5-12.5,2.58-.88,5.72-.92,12-1,2.08-.03,2.95.04,7,0,4.32-.04,6.49-.06,8.07-.24,3.02-.34,5.15-.98,9.43-2.26,5.98-1.79,6.74-2.55,9.5-2.5.97.02,2.5.14,6.5,1.5,5.47,1.86,9,3.79,10.5,4.5,11.71,5.5,25.53-4.91,29,0,.73,1.03-.03,1.28.5,5.5.93,7.37,3.57,9.23,2.5,11.5-1.55,3.29-7.54.37-13,4-5.77,3.84-7.83,12.96-6.5,19.5,1.01,4.97,3.36,5.36,4.5,11.5,1.31,7.02-1.21,9.39.5,11.5,4.42,5.44,23.12-8.11,30-2,3.15,2.8.35,6.48,2,20,1.09,8.96,2.51,8.92,5,22,1.45,7.64.61,5.76,3,22,1.17,7.98,1.71,16.04,3,24,1.07,6.64,1.72,9.29,0,12-2.91,4.58-10.7,6.41-16,4-4.23-1.92-3.39-4.96-8-8-5.88-3.88-15.07-4.1-19,0-2.47,2.57-1.27,5.19-4,7-3.38,2.24-6.45-.98-10,1-3.65,2.04-2.29,6.5-6,10-1.74,1.64-4.11,2.62-11,3-10.08.55-13.68-1.08-27-2-9.71-.67-4.63.41-16,0-4.84-.18-9.51-.51-11,2-1.06,1.79.3,3.67-1,5-1.8,1.85-5.57-.56-7,1-1.53,1.67,2.1,5.18,1,8-2.07,5.3-19.75,5.41-22,0-1.05-2.51,1.5-5.6,0-7-1.27-1.19-3.31.8-6,0-3.73-1.11-2.73-5.8-7-9-3.88-2.91-7-.76-10-4-1.57-1.7-3.02-4.78-2-7,1.6-3.49,8-2.12,9-5,.83-2.4-3.41-3.98-4-8-.77-5.21,5.63-7.38,9-15,.3-.69,4.17-9.82,0-19-3.18-7.01-10.44-12.7-18-13-2.68-.11-7.16,1.93-16,6-9.12,4.2-13.71,6.34-15,8-4.55,5.86-3.49,14.22-2,26,1.01,7.96,2.64,12.5,1,20-.58,2.64-1.81,8.26-5,9-4,.93-7.03-6.75-12-6-2.98.45-2.8,3.34-7,6-4.45,2.83-11.67,4.03-16,1-4.18-2.93-3.25-8.1-7-9-2.07-.5-2.89.95-7,1-1.71.02-4.39.05-6-1-3.69-2.42-1.66-10.59,0-23,1.67-12.54,2.38-18.83,2-22-.77-6.46-.12-13.01-.5-19.5Z"/>
      <path class="cls-2" d="M3.22,111.16c-.38-3.26,1.33-8,5.38-9.26,3.68-1.14,6.92-.7,10.31-1.94,2.52-.94,5.23-1.77,7.93-1.93,4.7-.24,9.52.22,14.17.48,0,0,2.15.19,2.15.19l2,.2c4.64.12,8.9-2.34,12.26-5.5,3.84-3.55,5.55-7.83,6.58-12.98,1.14-5.14.91-10.33.03-15.56-.31-2.12-.81-4.3-.89-6.58-.33-4.29,2.87-7.61,7.29-6.61,2.13.33,5.39,2.31,7.27,2.41.11,0,.22,0,.26-.03.07.02.1-.06.16-.06.82-.67.97-1.89,1.18-3.32.3-2.41.19-4.65-.61-7.1-.28-.99-.61-2.04-.49-3.14.15-2.36,2.54-4.22,4.89-3.94.5.03,1.07.12,1.53.22,2.25.57,4.41,1.46,6.56,2.01,7.6,2.15,15.27.29,22.46-2.93,3.89-1.81,7.67-4.26,12.03-5.05,2.08-.5,4.84-.61,6.96-.32,4.34.34,7.24-3.14,10.29-6.06,3.79-3.93,7.28-8.11,10.55-12.53.86-1.1,1.69-2.34,3.16-3.56,1.43-1.14,3.1-1.72,4.8-2.09,6-.98,11.24-.58,17.1-.78,2.21-.03,6-.13,8.14-.31,2.48-.25,4.93-.94,7.57-1.78,2.51-.82,5.44-1.73,7.87-2.63,3.02-1.16,7.03-.65,9.91.31,4.76,1.3,9.27,3.48,13.72,5.44,5.36,1.86,10.97.26,16.48-1.18,4.57-1.34,11.65-2.84,13.88,3.14.21.86.25,1.28.23,1.94-.11,2.7.4,5.63,1.26,8.25,1.33,3.59,3.26,7.12.16,10.6-3.34,3.81-10.02,1.44-13.33,4.23-4.18,3.35-5.28,9.74-4.41,14.81.3,1.8.93,2.79,1.85,4.35,1.27,2.07,2.35,4.79,2.79,7.11.89,3.26.6,7.73.14,10.8-.03-.22-.08-.4-.19-.62-.12-.23-.23-.37-.34-.48-.23-.24-.51-.28-.37-.26,5.45-.28,10.64-3.12,16.29-4.22,5.78-1.54,14.21-.8,16.33,6.2,1.12,4.52-.05,9.14.39,13.59.13,2.59.4,5.25.79,7.78.85,5.13,2.98,10.71,3.92,16,1.23,5.37,1.81,11.41,2.44,16.85.69,5.5,1.6,11.1,2.16,16.6.61,5.58,1.14,11.02,2,16.34.36,2.93,1.2,6,.97,9.28-.62,8.31-9.86,12.75-17.3,12.17-3.77-.22-8.09-1.86-10.42-5.07-1.52-2.08-2.17-3.74-4.43-4.99-3.19-1.99-8.72-2.79-12.03-1.19-1.26.64-1.48.93-1.92,2.1-.95,4.65-4.84,8.15-9.86,7.68-1.44-.06-2.7-.5-3.78-.5-.27,0-.38.04-.55.1-.4.22-.44.15-.8.86-.35.71-.71,2.17-1.38,3.8-2.22,5.7-7.46,8.11-13.25,8.4-8.64.94-17.18-.91-25.64-1.85-3.97-.32-7.92-.83-11.86-.56-4.15.47-8.84.1-12.84.03-1.66-.03-3.51.07-4.49.53.03-.03.02-.05.01.02,0,.09,0,.27.01.57.02.3.05.74.04,1.33.08,2.31-1.97,4.95-4.39,5.31-1.94.47-3.46-.1-4.84-.1-.15,0-.08.03.14-.06.57-.14,1.24-1.07,1.17-1.69.9,2.39,2.54,5.78.94,8.75-3.76,6.96-18.09,6.81-24.19,3.65-4.65-2.39-5.22-6.42-3.85-10.96,0-.06.04-.2.02-.18,0-.04,0,.05,0,.08,0,.02.01.08.02.18.15.73.72,1.37,1.45,1.59.11.05.23.07.35.09.39.05.37,0,.21.05-4.35,1.45-9.06.17-11.07-4.37-1.53-3.28-2.24-5.46-5.93-5.87-2.66-.16-6.15-1.3-7.95-3.56-2.53-2.87-4.18-6.88-2.74-10.75,1.57-4.32,6.5-5.03,9.63-5.84-.07.03-.04.06-.15.14-.11.08-.15.19-.24.32-.19.28-.25.62-.27.96,0,.32.05.54.15.77-.24-.32-.73-1.02-1.33-1.69-2.71-2.88-4-8.18-1.63-11.97,2.36-3.96,5.5-6.02,7.46-9.89,4.13-8.48,2.02-19.02-6.09-24.41-2.44-1.68-5.08-2.67-7.91-2.79-.24.01-.31.02-.6.08-5.62,1.57-12.56,5.46-18.05,7.88-2.97,1.46-6.38,2.95-8.57,4.59-3.31,4.73-2.15,11.56-1.61,17.37.3,2.31.68,5.83,1.06,8.09.99,5.6,2.08,12.38.55,18.21-1.15,4.43-2.5,9.52-7.11,11.85-1.37.64-3.17.85-4.64.46-2.4-.62-3.68-1.91-5.15-3.29-1.46-1.39-2.19-2.39-3.64-3.04-.25-.11-.38-.08-.56-.11-.08,0-.13.03-.13.02,0,0,.02-.01-.02.02-.09.06-.42.45-.85,1.01-.43.55-.95,1.23-1.56,1.86-5.41,5.4-14.33,7.58-21.37,4.44-3.24-1.34-5.65-5.21-6.69-8.07-.31-.58-.5-1.11-.72-1.21-.02,0-.06-.03-.06-.01,0,0,.07,0-.02.02-.13.01-.9.29-1.71.52-5.33,1.32-13.59,1.36-15.56-5.1-1.47-4.95-.31-9.53.13-14.14,0,0,1.09-8.23,1.09-8.23l.98-8.24c.64-5.56,1.29-10.23.56-15.86-.37-5.94.06-11.51-.26-16.69h0ZM11.52,110.67c.33,5.93-.09,11.49.24,16.66.77,5.47-.09,11.89-.81,17.37-.54,4.12-1.79,12.48-2.45,16.58-.52,3.58-1.31,7.47-.7,10.68.08.31.16.34.13.36.03-.04-.05,0,0,0,.04.02.12.07.27.12,1.49.4,4.59.49,6.19.03.53-.12,1.06-.36,2.3-.61,1.28-.27,2.77-.08,4.01.42,2.23.82,3.79,3.09,4.51,4.97,1.16,2.89,1.76,3.91,3.33,4.71,3.43,1.69,9.15.41,12.19-1.94,1.84-1.28,2.72-3.65,4.95-5.05,2.4-1.45,5.48-1.32,7.88-.07,2.5,1.18,4.27,3.3,6.27,4.49.38.24.59.21.52.16-.03-.03-.07-.05-.11-.04-.04,0-.11-.05-.17-.04-.06,0-.12.02-.17,0-.05-.01-.1.04-.13.02-.16.05-.1-.03.02-.28.12-.22.29-.61.45-1.05,1.18-3.8,1.83-8.04,1.54-12.08-.31-3.64-1.27-8.26-1.7-12.17-.97-9.03-3.04-19.63,2.64-27.65.49-.72,1.14-1.49,1.82-2.04,3.28-2.54,7.22-4.06,10.69-5.73,4.76-2.12,10.68-4.94,15.55-6.81,1.78-.66,4.12-1.48,6.39-1.59,1.4-.03,2.8.17,4.16.43,16.46,3.93,24.57,21.4,18.42,36.82-.96,2.35-2.26,4.41-3.78,6.34-1.54,2.02-3.85,4.06-5,5.9-1.15,1.97,1.02,3.31,2.29,5.06.9,1.05,1.68,2.82,1.6,4.36-.04,1.94-1.16,3.79-2.75,4.84-2.08,1.5-4.96,1.59-6.48,2.3-.25.13-.34.19-.21.08.09-.09.1-.27.09-.2-.06.1.09.93.49,1.66.55.9.99,1.68,2.1,1.89,2.24.37,4.95.72,7.18,2.26,1.63,1.06,3.04,2.52,4.04,4.12,1.23,1.92,1.61,3.63,2.45,4.88.04.03.02.02.15.09.5.32,3.1-.79,4.69-.44,2.59.32,4.49,2.85,4.33,5.39-.01,1.09-.5,2.71-.67,3.45-.05.24-.09.44-.1.57-.01.14,0,.22,0,.22.01,0-.09-.15,0-.02,1.76,1.45,4.82,1.78,7.21,1.88,2.97,0,6.19-.17,8.33-1.79-.04.07,0,.18-.02-.08-.21-1.32-1.23-3.01-1.46-4.61-.47-2.31.87-4.8,3.06-5.56,2.08-.76,3.92-.08,5.65-.06-.31.07-.5.29-.67.62-.1.23-.09.34-.08.24,0-.1,0-.36-.02-.75-.38-10.43,12.87-7.45,19.36-7.66,2.1.06,4.11-.31,6.24-.31,3.62.04,7.16.37,10.73.7,7.72.82,16.55,1.95,24.19.73,6.31-.8,6.18-2.08,8.24-7.94,1.21-3.23,4.9-5.75,8.37-5.73,1.93-.09,3.54.56,5.09.42.06-.04.25-.14.33-.21.05-.07,0,.03.1-.2.1-.22.24-.8.5-1.64,3.46-10.73,17.97-10.48,26.05-5.7,2.21,1.21,4.48,3.4,5.85,5.59.69.98.9,1.55,1.65,2.1,2.61,1.7,6.67,1.27,9.29-.18,1.3-.79,2.32-1.57,2.45-3.02.13-1.41-.67-5.58-.92-7.26-1.71-11.23-2.64-22.1-4.38-33.22-.7-5.61-1.13-10.65-2.41-16.14-1.04-5.55-3.15-10.76-4.08-16.37-.93-5.72-1.24-11.84-.94-17.52.06-1.3,0-2.61-.08-2.65-.04-.05.12.17.05.1-.54-.4-1.17-.48-2.36-.46-7.82.47-15.06,5.82-23.31,4.71-3.02-.39-6.28-3.41-6.43-6.75-.12-1.59.1-2.44.18-3.16.43-2.38.43-4.4,0-6.76-.41-2.61-1.53-4.24-2.75-6.57-.81-1.62-1.36-3.48-1.61-5.15-1.22-8.3,1.14-17.76,8.21-22.89,3.4-2.52,7.99-2.93,11.88-3.03.5-.04.83-.14.77-.1-.06.01-.11.04-.14.09-.05.04-.16.1-.2.18-.04.1-.12.12-.15.2-.03.08-.05.15-.08.21-.03.13-.1.43-.05.49-.07-.51-.35-1.04-.62-1.85-1.54-4.14-2.37-8.53-2.1-13.01,0-.02,0,.21.09.47.16.45.22.57.51.72-1.74-.34-3.83.43-5.79.79-6.43,1.58-13.8,3.05-20.4.45-4.42-2.03-8.59-4.3-13.22-5.71-2.38-.73-4.14-1.28-6.44-.54-5.56,1.72-10.78,3.62-16.71,4.18-8.08.43-16.83-.6-24.73.46-2.49.42-3.59,1.65-5.12,3.84-3.33,4.53-6.93,8.94-10.8,13.07-2,2.07-4.01,4.15-6.77,5.89-2.11,1.34-4.9,2.08-7.47,1.86-2.05-.28-3.48-.08-5.47.31-3.93.78-7.22,3.14-10.86,4.83-7.81,3.72-17.43,5.99-26.11,3.55-2.35-.52-4.75-1.6-6.94-1.96-.02,0-.05,0-.07-.01,0,0,.04.01.06,0,.07-.05.18-.03.27-.08.43-.21.83-.71.85-1.17,0-.07,0-.11,0-.1,0,0,0-.04,0-.02.02.06.01.09.05.22.02.1.06.22.1.37l.14.46c1.91,5.82,2.13,17.67-6.39,18.16-2.88.16-6.21-1.87-8.58-2.49-.43-.11-.46,0-.35-.06.04,0,.06-.03.09-.07.05-.01.06-.06.11-.09.07-.1.12-.15.1-.16-.14.62-.08,1.85.05,2.71,2.24,12.72,2.61,28.24-7.27,38.1-3.81,3.94-8.94,7.09-14.51,7.9-2.11.38-4.76-.02-6.92-.07-3.79-.12-8.39-.22-12.12-.08-2.43.13-4.69.94-6.93,1.82-2.81,1.04-6.16,1.51-8.94,1.83-.6.08-1.07.18-1.16.23-.12.07.18-.1.16-.13.05-.05-.15.18-.07,1.16h0Z"/>
    </g>
  </g>
</svg>