<?xml version="1.0" encoding="UTF-8"?>
<svg id="_Слой_2" data-name="Слой 2" xmlns="http://www.w3.org/2000/svg" xmlns:xlink="http://www.w3.org/1999/xlink" viewBox="0 0 29 66">
  <defs>
    <style>
      .cls-1 {
        fill: #7cb800;
      }

      .cls-1, .cls-2, .cls-3, .cls-4, .cls-5, .cls-6, .cls-7, .cls-8 {
        stroke-width: 0px;
      }

      .cls-2 {
        fill: #218100;
      }

      .cls-3 {
        fill: #4a9500;
      }

      .cls-9, .cls-10, .cls-11, .cls-12 {
        stroke-miterlimit: 10;
      }

      .cls-9, .cls-11, .cls-12 {
        stroke-linecap: round;
      }

      .cls-9, .cls-12 {
        fill: #131111;
        stroke: #131111;
      }

      .cls-4 {
        fill: #378d00;
      }

      .cls-5 {
        fill: #72ad00;
      }

      .cls-10 {
        fill: #bebec9;
        stroke: #333;
      }

      .cls-10, .cls-12 {
        stroke-width: .75px;
      }

      .cls-6 {
        fill: #009a48;
      }

      .cls-7 {
        fill: #008430;
      }

      .cls-11 {
        fill: #ededed;
        stroke: #1d1d1b;
      }

      .cls-8 {
        fill: #558d00;
      }
    </style>
    <symbol id="_Береза" data-name="Береза" viewBox="0 0 29.03 66.1">
      <g>
        <path class="cls-10" d="M6.93,65.38c1.65.22,5.35.35,7.07.35h0c3.8-.11,3.51-.35,6.15-.35,3.2,0,5.48.35,5.53,0,.06-.35-2.17-.52-4-2.42-1.28-1.32-1.76-2.87-2.15-4.14-.88-2.89-.46-4.18-.61-10.01-.08-2.96-.21-3.45-.31-7.6-.08-3.65-.02-4.87.17-5.72.06-.27.07-.23.13-.5.45-1.84.24-2.86.31-4.18.08-1.72.51-1.21.92-3.98.09-.61.28-2.02.92-2.92.46-.65.92-1.06.92-1.06.06-.05.08-.07.61-.53.47-.41.55-.48.61-.53.65-.55,1.1-.73,1.54-1.06.65-.48.94-1.04,1.23-1.59.74-1.41,1.03-3.53.31-3.82-.74-.3-1.64,1.67-4,1.96-.44.05-.97.06-3.07-.53-1.87-.52-3.17-.88-5.23-1.78-4.03-1.75-4.5-2.72-5.53-2.42-2.09.62-2.4,5.23-1.54,5.52.51.17,1.21-1.23,2.15-1.06.86.15.7,1.39,2.15,2.92.86.9,1.23.8,1.84,1.59.83,1.06.89,2.19.92,2.92.14,3.22-.05,4.64,0,6.75.06,2.62.43,4.22.31,6.56-.17,3.35-.59,3.42-.61,6.21-.03,2.84.4,2.9.31,5.52-.09,2.56-.56,4.47-.92,5.87-.56,2.18-.92,3.37-1.84,4.83-.47.75-1.28,2-2.7,3.03-2.78,2.01-6.02,1.77-6,2,.01.17,1.82-.2,4.4.15Z"/>
        <path class="cls-12" d="M13.64,58.64c1.14.52,2.18.34,2.2.6,0,.12-.17.23-.31.28-.34.11-.56-.19-1.23-.28-.12-.01-.34-.04-.61,0-.47.07-.54.24-.92.28-.44.05-.91-.12-.92-.28,0-.09.15-.11.31-.28.31-.33.12-.71.31-.83.21-.13.57.23,1.18.51Z"/>
        <path class="cls-12" d="M17.94,56.01c.74.1.91.22.97.32.08.13.1.32,0,.41-.14.14-.48.05-.97-.09-.5-.14-.56-.22-.97-.32-.52-.14-.82-.09-.82-.14,0-.09.86-.3,1.79-.18Z"/>
        <path class="cls-12" d="M13.89,53.32c.58.02.76-.16,1.2-.17.66,0,1.26.39,1.2.5-.06.1-.72-.16-1.65,0-.53.09-.81.27-1,.17-.18-.09-.2-.36-.04-.45.08-.05.2-.04.28-.04Z"/>
        <path class="cls-12" d="M17.33,50.37c.77-.12,1.53.06,1.59.3,0,.03,0,.04,0,.28,0,.22,0,.25,0,.27,0,0,0,0,0,0-.03.06-.7-.19-1.23-.28-.68-.11-.77.11-1.54,0-.5-.07-.93-.23-.92-.28,0-.04.38,0,.92,0,.53,0,.54-.2,1.18-.3Z"/>
        <path class="cls-12" d="M14.87,47.44c.83-.05,1.59.12,1.59.18,0,.03-.16.02-.51.07-.61.09-.71.25-1.08.25-.45,0-.89-.21-.87-.32.02-.14.67-.17.87-.18Z"/>
        <path class="cls-12" d="M17.15,44.83c.3-.05.41-.14.69-.12.18.02.25.14.46.14.16,0,.24-.05.31,0,.07.06.08.21,0,.28-.08.07-.18,0-.61,0-.1,0-.2,0-.31,0h-.92c-.25,0-.26.01-.31,0-.18-.04-.34-.2-.31-.28.05-.1.42.08,1-.02Z"/>
        <ellipse class="cls-11" cx="17.52" cy="39.97" rx=".83" ry=".28"/>
        <ellipse class="cls-11" cx="15.36" cy="39.04" rx="1.06" ry=".21"/>
        <path class="cls-12" d="M19.53,62.55c.49-.15.49-.54.92-.55.37,0,.79.27.92.65.03.1.11.31,0,.46-.16.23-.66.23-2,0-2.04-.34-2.3-.42-2.31-.55,0-.14.27-.26.31-.28.72-.31,1.37.52,2.15.28Z"/>
        <path class="cls-9" d="M10.16,62.83c.28.14.5.15,1.23.28.92.16,2.47.43,2.46.55,0,.09-1.09-.07-2.59.05-2.22.17-3.61.8-3.73.53-.08-.18.46-.59,1-1,.04-.03.31-.24.71-.4.23-.1.37-.13.52-.12.2.01.34.09.4.12Z"/>
        <path class="cls-12" d="M15.15,42.56c-.26-.03-.36-.07-.61-.06-.16,0-.22.07-.4.07-.14,0-.21-.03-.27,0-.06.03-.07.1,0,.14.07.04.16,0,.54,0,.09,0,.18,0,.27,0h.81c.22,0,.23,0,.27,0,.15-.02.3-.1.27-.14-.04-.05-.37.04-.87-.01Z"/>
        <path class="cls-2" d="M14.92,48.2c.08.23.66,1.96,1.84,2.25,1.23.3,2.52-.96,3.07-1.93.53-.92.6-1.94.61-2.25.06-1-.19-1.34,0-2.25.17-.77.59-1.64.92-1.6.23.03.37.49.61,1.28.23.78.31,1.28.31,1.28.33,2.3-.05,3.5.61,5.13.13.33.54,1.33.92,1.28.57-.07.79-2.41.92-3.85.15-1.65.05-2.13.31-3.53.13-.7.47-2.57.92-2.57.37,0,.68,1.25.92,2.25.51,2.09.43,3.4.92,3.53.26.06.52-.22.61-.32.95-1.02.36-2.94,0-5.45-.36-2.5.05-1.86-.31-5.45-.33-3.35-1.08-7.02-.92-7.06.08-.02.22,1.02.92,1.28.08.03.39.15.61,0,.45-.29.26-1.4,0-2.89-.16-.92-.23-.98-.31-1.6-.12-1.03-.03-1.76,0-2.25.06-.8-.17-2.03-.61-4.49-.51-2.82-.79-3.54-.92-3.85-.33-.79-.67-1.37-1.23-2.25-1.47-2.31-2.64-3.84-3.07-4.49-3.1-4.64-1.87-6.9-4-8.02-1.78-.94-3.97-.05-6.46.96-.78.32-1.59.74-2.15,1.6-.51.78-.57,1.57-.61,1.93-.2,1.58-1.02,2.54-3.07,5.45-3,4.25-4.51,6.38-4.61,7.38-.2,1.85.5,2.62.31,6.1-.08,1.45-.28,2.69-.31,2.89-.1.63-.22,1.2-.61,2.89-.81,3.41-.83,3.14-.92,3.85-.11.81-.52,3.88.61,4.49.6.32,1.11-.31,1.54,0,.7.51-.34,2.42-.61,5.78-.14,1.68,0,2.72.31,4.81.29,2.01.57,2.42.92,2.57.67.27,1.71-.43,2.15-1.28.37-.71.1-1.07.31-2.57.17-1.23.32-2.34.92-2.57.66-.25,1.74.63,2.15,1.6.27.64.03.8.31,2.25.23,1.2.52,1.75.61,1.93.28.5.73,1.32,1.23,1.28.72-.06,1.14-1.84,1.23-2.25.22-.94.05-1.09.31-2.25.22-.97.38-1.63.92-1.93.32-.18.86-.27,1.23,0,.63.45.15,1.47.61,2.89Z"/>
        <path class="cls-7" d="M9.23,29.32c-.52,3.48-2.27,6.49-2.82,6.31-.35-.12-.14-1.51-.41-1.55-.46-.08-1.31,4.09-2,4.01-.28-.03-.21-.72-.77-1.12-.75-.54-1.54.21-2-.16-.66-.53.35-2.53,1.23-6.74.17-.83.11-.62.31-1.6.44-2.18,1.51-7.43,2.46-7.38.38.02.28.85,1.18,1.93.93,1.11,1.63,1.06,2.36,1.76.99.96.72,2.81.46,4.55Z"/>
        <path class="cls-4" d="M25.07,28.01c0,2.45-.7,3.46-1.11,5.61-.25,1.32-.3,2.01-.28,2.83.02,1.58.53,3.19.78,5.01.17,1.2.48,3.44-.31,3.85-.19.1-.43.09-.61,0-.64-.32-.31-1.56-.92-2.89-.28-.62-.67-1.04-.92-1.28-.37-.14-.9-.27-1.23,0-.32.26-.31.78-.31.96,0,1.41-.42,5.62-1.84,6.1-.63.21-1.47-.11-1.84-.64-.58-.82.21-1.78-.31-2.57-.59-.9-1.93-.16-2.77-.96-.74-.71-.43-2.09.15-5.13.24-1.23.62-3.22,1.08-5.78,0-1.23.05-3.01.36-5.11.58-3.99,2.5-12.22,5.05-12.22,2.79,0,5.05,5.47,5.05,12.22Z"/>
        <path class="cls-8" d="M14.36,40.71s0,.06,0,.13c0,.08-.02.12-.03.31-.12,2.13.67,3.06.29,3.51-.41.49-1.42-.5-2.15,0-.81.55-.14,2.11-1.23,4.17-.18.33-.54,1.01-.92.96-.34-.05-.53-.66-.61-.96-.38-1.31-.09-2.51,0-2.89.65-2.77,0-2.59.67-5.24.59-2.37.87-3.78,2-4.33.05-.03,1.07-.51,1.64-.05.97.78.36,4.04.36,4.38Z"/>
        <path class="cls-3" d="M27.22,33.44c.17,1.59.13.82.61,4.81.4,3.3.55,4.9,0,5.13-.12.05-.23.02-.31,0-1.04-.27-.93-2.81-1.54-2.89-.54-.07-.95,1.93-1.84,1.93-.31,0-.53-.23-.61-.32-.79-.82-.22-2.55,0-3.85.64-3.81-1.61-4.74-.92-8.66.24-1.35.9-3.47,1.82-3.53.83-.05,1.56,1.57,1.87,2.25.66,1.46.63,2.44.92,5.13Z"/>
        <path class="cls-6" d="M26.54,20.8c.78,3.9.21,7.7-.55,7.83-.65.1-1.48-2.44-2.15-2.25-.54.16-.35,1.91-1.23,2.25-.03.01-.33.12-.61,0-.87-.38-.65-2.59-.61-7.38,0-.85.01-1.68,0-2.57-.08-5.4-.79-7.15-.31-7.38.82-.38,4.37,3.93,5.47,9.5Z"/>
        <path class="cls-6" d="M16,28.15c.43,2.76.71,2.83.92,5.13.19,2.09.66,7.14-1.38,8.18-.59.3-1.33.24-1.84,0-1.68-.78-1.5-3.36-2.46-3.53-1.09-.2-1.97,3.02-2.77,2.89-.75-.13-.96-3.18-.61-12.51.31-8.35.64-10.4,2.15-11.23,1.28-.71,3.19-.36,4.3.64,1.75,1.58.67,3.96,1.69,10.43Z"/>
        <path class="cls-3" d="M9.75,21.04c-.19,1.48-.56,5.31-1.28,5.35-.59.03-.79-2.4-1.84-2.57-1.18-.18-2.16,2.77-2.77,2.57-.18-.06-.44-.43.15-5.29.47-3.88.8-5,1.54-6.1.64-.95.98-1,1.84-1.93,3.54-3.79,2.34-7.97,5.23-9.63.8-.46,2.39-.99,3.07-.32,1.65,1.62-4.63,7.53-5.94,17.91Z"/>
        <path class="cls-5" d="M11.08,36.17c.17.67.25,1,.31,1.28,0,0,.83,4.16-.77,7.54-.11.24-.31.6-.61.64-.42.06-.82-.5-.92-.64-.58-.81-.24-1.39-.72-1.98-.31-.38-.9-.69-1.43-.59-1.09.2-1.81,1.32-2.15,1.93-.85,1.5-.78,2.85-1.23,2.89-.27.02-.51-.44-.61-.64-.85-1.66-.11-3.47.46-6.9.09-.54.22-1.07.31-1.6.09-.57.13-.87.31-1.28.11-.25.17-.32.31-.64.2-.47.28-.85.31-.96.23-.95,1.13-2.12,1.23-2.25.2-.25,1.97-2.52,3.23-2.09.72.25,1.16,1.93,2,5.29Z"/>
        <path class="cls-5" d="M17.23,16.99c.42,7.91,2.18,13.96.77,14.52-.35.14-.79-.09-1.23-.32-1.65-.87-1.56-2.64-2.46-2.89-1.31-.36-2.62,3.16-3.69,2.89-.83-.21-.7-2.5-1.23-7.7-.46-4.49-.76-4.68-.58-6.5.19-1.98.61-1.61,1.81-6.33.46-1.8.76-2.75,1.38-4.65.54-1.67.92-2.66,1.84-3.21.59-.35,1.51-.58,2.15-.32,2.03.83.8,6.38,1.23,14.51Z"/>
        <path class="cls-1" d="M22.45,12.43c.62,4.14-.51,8.13-1.38,8.18-.7.04-1.04-2.51-2.15-2.57-1.17-.06-1.88,2.71-2.46,2.57-.63-.16.41-3.38-.26-7.7-.45-2.92-1.14-4.46-.67-7.38.22-1.32.41-2.52,1.08-2.73,1.53-.49,5.05,4.36,5.84,9.63Z"/>
      </g>
    </symbol>
  </defs>
  <g id="_Абдулинскаяштука" data-name="Абдулинскаяштука">
    <use width="29.03" height="66.1" transform="" xlink:href="#_Береза"/>
  </g>
</svg>