<?xml version="1.0" encoding="UTF-8"?>
<svg id="_Слой_2" data-name="Слой 2" xmlns="http://www.w3.org/2000/svg" xmlns:xlink="http://www.w3.org/1999/xlink" viewBox="0 0 28.99 64.99">
  <defs>
    <style>
      .cls-1 {
        fill: #007a42;
      }

      .cls-1, .cls-2, .cls-3, .cls-4, .cls-5, .cls-6, .cls-7 {
        stroke-width: 0px;
      }

      .cls-2 {
        fill: #007c4a;
      }

      .cls-3 {
        fill: #00a059;
      }

      .cls-8 {
        fill: #0f5635;
        stroke: #004327;
      }

      .cls-8, .cls-9 {
        stroke-miterlimit: 10;
      }

      .cls-4 {
        fill: #009a48;
      }

      .cls-5 {
        fill: #00684a;
      }

      .cls-6 {
        fill: #008430;
      }

      .cls-7 {
        fill: #009546;
      }

      .cls-9 {
        fill: #4e2d00;
        stroke: #281b00;
      }
    </style>
    <symbol id="_Дерево2" data-name="Дерево2" viewBox="0 0 80.27 188.37">
      <g>
        <path class="cls-8" d="M31.74,149.86c-8.44-2.03-19.25-4.01-26-13C.93,130.45-.04,123.03.74,107.86c.59-11.62,2.27-29.1,21-85,2.42-7.21,6-17.43,15-21,.86-.34,7.56-2.89,14,0,8.59,3.85,9.18,14.01,17,45,5.29,20.95,6.65,22.76,9,36,3.23,18.17,3.07,28.25,3,31-.4,15.92-.6,23.88-6,30-11.71,13.28-36.95,7.22-42,6Z"/>
        <path class="cls-9" d="M37.74,86.86c1.48,11.25,2.29,17.35,2,24-.37,8.56-2.1,7.38-3,18-.48,5.62.03,5.71,0,20-.02,9.22-.24,13.72-1,19-1.09,7.53-1.85,11.33-5,14-4.98,4.21-13.01,3.02-13,4,0,.25.52.53,3,1,4.77.91,8.62.98,11,1,2.61.03,3.41,0,9,0,5.84,0,5.27.02,7,0,6.54-.06,13.92-.12,14-1,.02-.26-.58-.47-2-1-5.41-2.04-8.12-3.06-9-4-.83-.88-1.43-3.24-2-8-.28-2.34-.7-4.66-1-7-1.4-10.75-2.07-10.24-2-14,.1-5.21,1.37-5.39,1-10-.33-4.04-1.33-4.25-2-9-.44-3.15-.3-5.81,0-11,.24-4.15.48-5.5,1-11,.73-7.79,1.1-11.68,1-14-.09-2.08-.28-2.94-3-15-2.73-12.11-2.93-12.94-3-15-.3-8.99,2.78-14.71,2-15-.81-.3-4.86,5.61-6,13-.48,3.09-.32,5.73,0,11,.29,4.73.76,8.18,1,10Z"/>
        <path class="cls-2" d="M56.74,25.86c1.14,4.23.89,3.87,2,8,1.82,6.77,2.43,7.51,2,9-.4,1.39-1.96,4.29-10,6-2.32-.84-5.51-1.53-8.56-.33-5.78,2.28-5.82,9.82-9.88,9.89-6.15.1-9.73-9.46-9.89-9.89-2.66-7.33-.01-14.6,2.33-17.67,2.3-3.01,4-4,4-4,1.48-.86,2.55-.99,3-2,.57-1.26-.43-2.53-1-4-1.44-3.72.04-8.29,2-11,.28-.39,3.82-5.13,9-5,6.94.17,11.03,8.9,12,11,.72,1.57,1.48,4.38,3,10Z"/>
        <path class="cls-7" d="M71.9,81.97c.42,6.57,1.79,7.43,1.63,10.59-.41,7.99-9.84,15.54-18.05,16.2-13.94,1.12-28.64-17.28-27.52-29.13,0,0,1.3-13.77,25.76-27.47.25-.14,1.07-.55,1.98-1.62,1.16-1.36,1.35-2.47,1.98-3.23,1.41-1.68,4.42-.9,5.94,1.62,2.7,4.44-.59,12.1,1.98,16.16,1.86,2.94,4.37.17,5.94,3.23,1.43,2.77-.14,6.01.35,13.65Z"/>
        <path class="cls-5" d="M72.37,128.22c-1.33,8.27-15.85,12.54-23.94,13.33-9.76.95-17.38-2.47-21.64-4.92-1.11-.45-2.77-1.14-4.77-2-5.13-2.2-7.7-3.3-8.55-3.86-4.87-3.19-8.61-13.36-6.62-21.88,3.31-14.19,20.7-16.01,21.98-16.13,6.18-.55,11,1.66,13.69,3.23,2.92,1.88,6.77,4.57,11.09,8.22,10.81,9.15,19.92,16.85,18.78,24Z"/>
        <path class="cls-1" d="M49.7,97.67c-4.99.64-3.82,12.03-12.63,17.77-6.25,4.08-16.39,3.43-22.86-1.46-6.85-5.17-7.07-14.35-7.43-21.41-.36-7.12.98-12.91,2.09-16.54,3.66-13.3,9.72-22.05,14.94-21.63,4.13.33,4.01,9.15,8.82,9.75,3.29.41,5.03-3.34,12.1-4.3,1.92-.26,3.1-.16,4,0,3.2.58,5.28,2.43,7,4,5.46,4.99,7.3,11.07,7.9,13.16.59,2.04.86,3.77,1,4.92,2.5,2.29,7.13,7.21,8.96,14.75,2.44,10.02-.72,22-4.98,22.62-6.18.9-11.78-22.55-18.92-21.63Z"/>
        <path class="cls-6" d="M74.24,94.36c4.14,9.52,4.31,23.52-1.5,26.5-2.62,1.34-5.31.08-11-2-6.32-2.32-15.4-5.3-27-8-1.23.67-4.8,2.42-8,1-1.92-.85-2.94-2.57-5-6-.71-1.19-2.23-3.72-3-6-1.59-4.71-.22-9.02,2-16,5.7-17.92,6.27-19.78,8-20,4.49-.56,7.98,11.07,12.22,10.22,2.87-.58,2.08-7.94,5.78-9.22,2.03-.7,4.38.73,6,2,.27,1.93.97,4.66,3,7,1.61,1.85,3.39,2.69,4,3,5.55,2.81,11.78,11.24,14.5,17.5Z"/>
        <path class="cls-4" d="M54.52,95.25c4.81,6.38,9.79,4.52,11.43,8.61,2.23,5.55-4.52,15.03-12.71,18.99-7.83,3.78-17.86,2.96-24.1-2.23-3.5-2.91-5.05-6.58-6.54-10.06-1.63-3.82-3.44-8.04-1.8-11.95.36-.86.26-.22,3.94-4.95,2.91-3.74,3.62-4.97,5.62-6.03,1.61-.86,3.35-1.23,3.9-1.34,2.25-.44,2.52.05,4.44-.5,1.34-.38,1.81-.79,3.9-1.34,1.28-.33,1.75-.35,2.22-.25,1.39.3,2.2,1.56,2.47,1.97,2.13,3.23,4.89,6,7.22,9.09Z"/>
        <path class="cls-3" d="M62.74,45.52c-.13,6.1-12.3,7.84-11.7,10.83.43,2.14,6.29,2.08,6.82,4.7.3,1.48-1.28,3.02-2.63,4.06-10.26,9.03-22.55,10.83-28.07,6.5-5.68-4.46-3.94-15.23-3.51-17.88.83-5.13,2.89-9.03,4.39-11.38,1.52-1.01,3.35-2.6,3.53-4.72.09-1.08-.4-1.53-.4-2.42,0-3.1,3.75-7.19,8.57-7.95,5.07-.79,8.88,2.47,9.36,2.89.22.15.56.42.88.81,1.14,1.42.54,2.7,1.07,3.71.9,1.71,4.05.73,6.82,1.98,3.25,1.48,4.95,5.57,4.88,8.85Z"/>
      </g>
    </symbol>
    <symbol id="_Маленький" data-name="Маленький" viewBox="0 0 28.65 64.66">
      <use width="80.27" height="188.37" transform="translate(.33 .33) scale(.35)" xlink:href="#_Дерево2"/>
    </symbol>
  </defs>
  <g id="_Абдулинскаяштука" data-name="Абдулинскаяштука">
    <use width="28.65" height="64.66" transform="translate(0 0) scale(1.01)" xlink:href="#_Маленький"/>
  </g>
</svg>