<?xml version="1.0" encoding="UTF-8"?>
<svg id="_Слой_2" data-name="Слой 2" xmlns="http://www.w3.org/2000/svg" xmlns:xlink="http://www.w3.org/1999/xlink" viewBox="0 0 27.32 47.23">
  <defs>
    <style>
      .cls-1 {
        fill: #7cb800;
      }

      .cls-1, .cls-2, .cls-3, .cls-4, .cls-5 {
        stroke-width: 0px;
      }

      .cls-6 {
        fill: #215400;
        stroke: #317700;
      }

      .cls-6, .cls-7, .cls-8 {
        stroke-miterlimit: 10;
      }

      .cls-2 {
        fill: #4a9500;
      }

      .cls-7 {
        fill: #4f3500;
      }

      .cls-7, .cls-8 {
        stroke: #2d2203;
      }

      .cls-3 {
        fill: #378d00;
      }

      .cls-8 {
        fill: #4e2d00;
      }

      .cls-4 {
        fill: #72ad00;
      }

      .cls-5 {
        fill: #558d00;
      }
    </style>
    <symbol id="_Дерево1" data-name="Дерево1" viewBox="0 0 460.05 684.3">
      <g>
        <path class="cls-7" d="M316.81,649.84"/>
        <path class="cls-6" d="M294.81,501.84c28.52-12.74,23.64-19.89,66-45,48.23-28.59,64.77-25.37,78-47,13.56-22.17,15.02-56.36-1-76-22.11-27.11-68.59-15.55-71-28-2.87-14.83,64.55-23.96,86-74,7.34-17.12,10.9-42.78-1-54-15.68-14.79-47.16,5.97-57-6-11.62-14.14,29.91-46.06,26-89-3.34-36.68-38.97-71.8-76-79-33.52-6.52-65.31,10.39-89,23-27.9,14.84-26.81,21.72-41,24C176.85,56.95,154.97-4.6,117.81.84c-11.6,1.7-22.73,14.46-45,40-27.81,31.89-41.71,47.83-43,66-3,42.4,56.33,68.55,47,89-5.22,11.45-23.75,3.87-44,18-27.11,18.93-41.37,65.67-26,92,20.1,34.42,83.72,21.72,88,43,3.71,18.41-43.82,28.35-48,62-3.75,30.18,29.6,61.52,57,74,9.11,4.15,24.52,11.17,43,8,22.89-3.92,36.99-21.14,42-17,4.73,3.9-8.78,18.45-4,29,7.92,17.47,63.22,17.89,110-3Z"/>
        <path class="cls-8" d="M244.81,244.84c-5.31,19.26-4.21,38.84-2,78,.98,17.47,2.04,36.31,7,61,6.1,30.4,10.18,30.18,15,57,3.67,20.44,1.13,19.6,6,66,3.68,35.05,5.93,43.16,9,51,5.24,13.38,12.21,24.27,21,38,11.9,18.59,12.34,15.69,21,30,14.78,24.41,14.97,35.29,26,39,5.56,1.87,6.32-.62,23,1,8.18.8,20.68,2.01,21,5,.4,3.71-18.08,8.51-20,9-26.92,6.88-48.56,3.15-66,1-7.49-.92-31.32-1.61-79-3-36.86-1.07-55.64-1.57-73,0-21.2,1.92-37.46,5.16-38,3-.63-2.5,20.74-8.68,54-26,18.61-9.69,23.7-13.9,28-19,2.65-3.14,10.69-13.38,15-39,2.93-17.4,2.22-30.5,0-57-2.31-27.64-4.75-52.85-6-63-.74-6.03-1.05-8.11-2-16-2.7-22.42-4.48-40.92-5-47-1.01-11.78-5.81-68.08,6-116,1.36-5.5,5.17-19.96,7-40,.91-9.97.94-18.39,1-26,.25-34.73-3.4-41.87,2-47,9.22-8.75,35.95-3.24,43,11,5.88,11.87-6.29,21.02-14,49Z"/>
        <path class="cls-2" d="M226.31,140.34c2.68,17.86-24.59,67.33-69,69,0,0-49.8,1.87-75-62-1.55-3.93-5.33-14.87-7-29-1.47-12.47-.32-19.23,0-21,1.35-7.4,3.94-13.19,6-17,1.35-2.45,3.45-6.29,6-11,5.23-9.68,7.2-13.57,8-15,6.13-10.88,24.76-20.61,44.11-19.42,26.81,1.65,40.65,23.39,41.89,25.42,2.82,3.85,7.05,8.26,13.22,10.72,10.86,4.33,20.03-.49,24.78,5.28,1.52,1.85,1.83,4.46,2.44,9.67.81,6.89.2,12.61-.44,16.33.34,3.93.92,9.99,1.87,17.38,1.46,11.43,2.89,18.97,3.13,20.62Z"/>
        <path class="cls-5" d="M270.31,400.34c-5.79,16.85-31.86,26.57-84,46-13.76,5.13-25.26,8.61-40,8-6.47-.27-27.73-1.45-47-17-7.49-6.04-24.24-19.56-24-37,.18-13.42,10.33-21.97,40-46,60.03-48.63,63.27-49.89,68.67-50.33,44.78-3.72,98.81,60.04,86.33,96.33Z"/>
        <path class="cls-2" d="M315.31,313.34c43.55-1.85,94.52,25.66,97,58,2.82,36.78-57.66,72.39-109,76-33.79,2.38-85.42-7.57-94-36-10.58-35.05,45.1-95.42,106-98Z"/>
        <path class="cls-3" d="M403.31,267.34c-41.27,23.76-61.9,35.63-85,35.12-37.49-.83-87.6-26.17-87.6-59.79,0-28.67,29.56-52.61,69.01-58.43-6.77-8.56-10.8-19.37-10.8-31.12,0-16.99,20.76-44,50.28-50.29,23.98-5.11,55.03,3.21,60.11,19.51,4.86,15.6-17.19,28.56-12.21,46.1,3.55,12.48,18.47,19.2,30.21,22.9,2.6.82,16.27,5.4,21,18,4.71,12.55-2.6,24.68-7,32-8.81,14.64-21.3,22.14-28,26Z"/>
        <path class="cls-3" d="M234.53,299.34c1.99,11.18-5.59,20.17-7.22,22-5.51,6.18-12.19,8.29-15,9-14.87,4.17-27.75,7.48-38,10-26.96,6.63-33.67,7.31-42,6-11.89-1.86-22.02-6.97-26-9-8.36-4.28-13.1-8.21-17-11-25.93-18.57-43.4-7.49-58-23-13.98-14.85-10.54-38.35-10-42,.8-5.48,3.05-20.84,15-31,13.76-11.7,25.87-4.15,50-12,27.64-8.99,25.8-23.45,44-25.67,31.66-3.86,73.33,35.6,73.33,73.34,0,3.96-.31,7.86-.93,11.65.89-.07,1.8-.1,2.71-.1s25.87,3.58,29.11,21.78Z"/>
        <ellipse class="cls-5" cx="280.98" cy="98.45" rx="78.33" ry="52.65"/>
        <path class="cls-4" d="M376.31,351.34c-11.41,6.41-22.63-6.77-41.13-5.1-7.59.68-16.78,3.9-26.87,13.1-11.56,5.6-29.59,12.13-50.33,9.33-37.84-5.1-41.43-35.41-82.67-49.33-41.33-13.95-70.24,5.52-88-15-8.32-9.61-9.42-22.48-9-32,1.18-11.74,4.75-27.94,17-36,21.9-14.41,52.63,16.15,69,2.67,8.66-7.13,2.2-17.09,11-29.67,13.28-18.99,43.75-18.8,63.33-18.67,0,0,48.63.24,83.26,29.67,1.52,1.29,2.66,2.32,3.41,3,9.36,8.43,15.83,16.84,20,23,1.84,1.53,5.71,5.19,7,11,.34,1.55.68,4.04,0,8-1.66,9.6-7.47,17.09-11,21-8.75,5.3-10.39,8.75-10,11,1.19,6.82,21.21,3.68,40,18,4.69,3.57,14.4,10.98,14,21-.22,5.46-3.45,11.88-9,15Z"/>
        <path class="cls-1" d="M355.11,196.42c-8.09,23.33-46.85,25.26-66.81,26.46-12.34.74-22.71-.35-29.99-1.54-41.86,18.25-57.67,18.84-62,13-4.68-6.31,4.06-20.1-1-24-3.72-2.87-12.2,1.66-20,7-6.86.94-19.86,1.58-28.26-6.28-1.7-1.59-2.81-3.13-4.82-6-3.97-5.68-6.77-11.96-10.26-21.17-3.03-8.02-5.29-14.89-6.84-19.86-1.38-3.86-3.48-11.41-2.22-21.07,2.29-17.5,13.87-28.58,17.45-32.01,9.51-9.1,18.99-11.8,28.25-14.31,5.55-1.5,17.81-4.23,34.55-1.97,32.76,4.42,58.6,24.68,69.61,34.29,5.35.6,12.06,1.36,19.51,2.21,17.35,1.98,26.07,2.88,26.74,3.12,28.41,9.85,44.57,37.67,36.08,62.14Z"/>
        <path class="cls-1" d="M274.95,310.28c22.1,1.19,58.7,11.42,63.24,34.08,5.34,26.61-37.07,52.65-42.27,55.84-56.11,34.46-139.54,22.85-147.09-3.01-6.48-22.21,43.09-54.52,55.09-62.34,17.46-11.38,40.23-26.23,71.04-24.57Z"/>
        <path class="cls-2" d="M433.31,499.34"/>
      </g>
    </symbol>
    <symbol id="_Дерево1маленькое" data-name="Дерево1маленькое" viewBox="0 0 49.75 72.71">
      <use width="460.05" height="684.3" transform="translate(.45 .45) scale(.11)" xlink:href="#_Дерево1"/>
    </symbol>
  </defs>
  <g id="_Абдулинскаяштука" data-name="Абдулинскаяштука">
    <use width="49.75" height="72.71" transform="translate(.23 .18) scale(.54 .64)" xlink:href="#_Дерево1маленькое"/>
  </g>
</svg>