<?xml version="1.0" encoding="UTF-8"?>
<svg id="_Слой_2" data-name="Слой 2" xmlns="http://www.w3.org/2000/svg" xmlns:xlink="http://www.w3.org/1999/xlink" viewBox="0 0 33.99 53.01">
  <defs>
    <style>
      .cls-1 {
        fill: #7cb800;
      }

      .cls-1, .cls-2, .cls-3, .cls-4, .cls-5 {
        stroke-width: 0px;
      }

      .cls-6 {
        fill: #215400;
        stroke: #317700;
      }

      .cls-6, .cls-7, .cls-8 {
        stroke-miterlimit: 10;
      }

      .cls-2 {
        fill: #4a9500;
      }

      .cls-7 {
        fill: #4f3500;
      }

      .cls-7, .cls-8 {
        stroke: #2d2203;
      }

      .cls-3 {
        fill: #378d00;
      }

      .cls-8 {
        fill: #4e2d00;
      }

      .cls-4 {
        fill: #72ad00;
      }

      .cls-5 {
        fill: #558d00;
      }
    </style>
    <symbol id="_Дерево4" data-name="Дерево4" viewBox="0 0 33.04 53.32">
      <g>
        <path class="cls-7" d="M17.98,50.78"/>
        <path class="cls-6" d="M16.74,41.9c1.6-.76,1.33-1.19,3.7-2.7,2.71-1.72,3.63-1.52,4.38-2.82.8-1.39.39-3.44-.06-4.56-.46-1.15-.91-1.14-.99-1.95-.15-1.45,1.24-1.89,1.83-4.17.16-.63.54-2.07-.06-3.24-.52-1.02-1.26-.82-1.78-1.75-.75-1.37.53-2.37.04-3.95-.66-2.15-3.52-1.91-4.26-4.74-.07-.26-.03-.19-.1-.48-.6-2.38-2.34-2.53-3.51-4.58-.71-1.24-.15-1.31-1.08-3.36-.63-1.38-1.29-2.84-2.43-3.06-1.07-.2-2.03.8-2.43,1.22-1.31,1.37-1.35,2.72-2.16,5.19-.45,1.36-1.46,4.45-3.54,7.28-1.42,1.94-2.46,2.56-2.41,3.96.05,1.34,1.03,1.78,1.09,3.42.03.88-.24,1.25-.92,3-1.18,3.03-1.77,4.55-1.46,5.52.51,1.6,2.22,1.37,2.65,3.09.31,1.25-.52,1.63-.4,3.21.16,2.05,1.74,3.76,3.2,4.44.75.35,1.53.72,2.41.48.44-.12.81-.36,1.28-.19.46.17.61.59.85.91,1.29,1.68,5.1.33,6.17-.18Z"/>
        <path class="cls-8" d="M13.94,26.47c-.3,1.16-.24,2.33-.11,4.68.06,1.05.11,2.18.39,3.66.34,1.82.57,1.81.84,3.42.05.28.08.49.1.69.08.77.13,1.16.08,1.34-.17.62-.82.51-1.5,1.25-.42.47-.95,1.38-.69,2.1.09.25.16.17,1.39,1.4.05.05.27.27.69.7.68.69.67.68.69.7.78.73.93.66,1.26,1.12.16.24.2.35.48.75.15.21.25.33.37.52.05.07.12.18.32.53.13.23.21.35.34.58.73,1.29.88,1.73,1.27,1.8.09.02.07,0,.45-.01.16,0,.38,0,.7.03.46.05,1.16.12,1.18.3.02.22-1.01.51-1.12.54-1.51.41-2.72.19-3.7.06-.42-.06-1.76-.1-4.43-.18-2.07-.06-3.12-.09-4.1,0-1.19.12-2.1.31-2.13.18-.08-.34,1.46-1.72,3.03-1.56.5.05.62.22,1.24.24.18,0,1.63.03,2.08-.7.37-.61-.09-1.5-.9-3.02-1.24-2.31-2.1-2.94-1.87-3.99.09-.39.31-.76.69-1.4.39-.65.89-1.31.84-1.81,0-.04-.03-.23-.07-.63-.01-.09-.02-.2-.04-.33-.15-1.35-.25-2.46-.28-2.82-.06-.71-.33-4.09.34-6.96.08-.33.29-1.2.39-2.4.05-.6.05-1.1.06-1.56.01-2.08-.19-2.51.11-2.82.52-.53,2.02-.19,2.41.66.33.71-.35,1.26-.79,2.94Z"/>
        <path class="cls-2" d="M12.9,20.2c.15,1.07-1.38,4.04-3.87,4.14,0,0,0,0,0,0-1.32-1-4.07-1.81-4.58-3.49-.05-.17-.11-.43-.27-.92-.2-.6-.31-.91-.54-1.22-.3-.4-.45-.35-.54-.61-.16-.46.07-1.23.54-1.53.63-.4,1.23.36,2.16,0,.38-.15.62-.4.81-.61,1.22-1.32,1.41-3.96,2.16-6.11.74-2.12,2.37-4.77,3.78-4.58.76.1,1.37,1.03,1.89,1.83.3.47.47.84,1.08,2.44.74,1.93,1.11,2.91,1.08,3.06-.31,1.89-3.51,2-3.97,4.34-.08.41-.05.77-.02.98.02.24.05.6.1,1.04.08.69.16,1.14.18,1.24Z"/>
        <path class="cls-5" d="M15.37,35.8c-.19.53-.48,1.34-1.19,1.85-.96.69-2.01.37-2.43,1.22-.07.15-.02.11-.27.92-.35,1.11-.46,1.2-.54,1.22-.32.1-.48-.6-1.08-.92-.79-.42-1.31.36-2.43.31-1.01-.05-1.93-.75-2.43-1.53-.19-.3-.55-.95-.56-3.07-.02-2.99-.03-4.48.83-5.18.86-.7,1.95-.1,5.16-.59.05,0,.06,0,.11-.02,2-.3,2.99-.45,3.38-.31,1.42.5,2.3,3.78,1.46,6.1Z"/>
        <path class="cls-2" d="M17.89,29.97c.66-.21,3.69-1.19,4.94.35.11.13.52,1.11,1.35,3.06.07.16.2.47.27.92.09.55.04,1.04,0,1.22-.25,1.12-2.42.86-4.6,2.14-1.9,1.11-1.73,2.19-2.97,2.44-1.96.4-4.74-1.8-4.94-4.24-.26-3.24,4.16-5.3,5.95-5.88Z"/>
        <path class="cls-3" d="M22.83,27.82c-2.32,1.43-3.47,2.14-4.77,2.11-1.7-.04-2.81-1.32-4.92-3.59-1.42-1.53-2.41-2.98-3.02-3.97-.02-.55.03-1.44.54-2.14.37-.52.98-.76,2.16-1.22,1.4-.55,1.62-.43,2.43-.92.86-.51.82-.76,1.35-.92.82-.24,1.31.24,2.62.77,2.16.86,3.16.44,3.37,1.17.27.94-.96,1.71-.68,2.77.2.75,1.04,1.15,1.69,1.37.15.05.91.32,1.18,1.08.26.75-.15,1.48-.39,1.92-.49.88-1.2,1.33-1.57,1.56Z"/>
        <path class="cls-3" d="M13.36,29.74c.11.67-.31,1.21-.41,1.32-.31.37-.68.5-.84.54-.83.25-1.56.45-2.13.6-1.51.4-1.89.44-2.36.36-.67-.11-1.24-.42-1.46-.54-.47-.26-.74-.49-.95-.66-1.45-1.11-2.44-.45-3.25-1.38-.78-.89-.59-2.3-.56-2.52.13-.97.64-1.59.84-1.86,1.63-2.11,2.12-3.86,3.29-3.84.15,0,.55.1,1.35.31.46.11.74.19,1.08.31.48.17,1.01.4,1.35.61,1.37.84,2.34,2.85,2.32,4.76,0,.3-.03.54-.05.7.05,0,.1,0,.15,0s1.45.21,1.63,1.31Z"/>
        <path class="cls-5" d="M12.55,6.18c1.08-.53,3.47,1.9,4.6,4.58.8,1.91.42,2.65,1.35,3.97,1.45,2.07,3.39,1.73,3.51,2.75.17,1.34-2.94,3.79-6.05,3.36-.17-.02-3.19-.5-4.4-3.16-.43-.95-.31-1.48.17-6.92.33-3.72.36-4.36.81-4.58Z"/>
        <path class="cls-4" d="M21.58,30.11c-.64.38-1.27-.41-2.31-.31-.43.04-.94.23-1.51.79-.65.34-1.66.73-2.82.56-2.12-.31-2.32-2.13-4.64-2.96-2.32-.84-3.94.33-4.94-.9-.47-.58-.53-1.35-.5-1.92.07-.7.27-1.68.95-2.16,1.35-.95,3.23.88,3.87.16.72-.81-1.42-3.39-.65-4.66.59-.97,2.03.19,6.22,0,1.52-.07,2.99-.3,3.51.61.32.55.19,1.35.81,1.83.29.23.57.25.81.61.21.31.26.67.27.92.05.22.14.54.27.92.17.48.26.63.27.92.01.46-.2.81-.27.92-.43.7-1.19.77-1.31.78-.49.32-.58.53-.56.66.07.41,1.19.22,2.24,1.08.26.21.81.66.79,1.26-.01.33-.19.71-.5.9Z"/>
        <path class="cls-1" d="M20.39,18.06c-.45,1.4-2.63,1.52-3.75,1.59-.69.04-1.27-.02-1.68-.09-2.35,1.1-3.24,1.13-3.48.78-.26-.38.23-1.21-.06-1.44-.21-.17-.68.1-1.12.42-.38.06-1.11.09-1.59-.38-.1-.1-.16-.19-.27-.36-.22-.34-.38-.72-.58-1.27-.17-.48-.3-.89-.38-1.19-.08-.23-.2-.68-.12-1.26.13-1.05.78-1.72.98-1.92.53-.55,1.07-.71,1.59-.86.31-.09,1-.25,1.94-.12,1.84.27,3.29,1.48,3.91,2.06.3.04.68.08,1.09.13.97.12,1.46.17,1.5.19,1.59.59,2.5,2.26,2.02,3.73Z"/>
        <path class="cls-1" d="M16.61,25.73c2.17-.1,5.24,6.68,3.51,9.17-.73,1.05-2.43,1.51-3.23.84-.74-.62-.23-1.79-.82-2.36-1.29-1.26-4.79,3.27-7.52,2.24-2.45-.92-3.58-6.08-2.48-7.13,1.11-1.07,3.89,2.72,6.76,1.53,2.33-.97,2.3-4.21,3.78-4.28Z"/>
        <path class="cls-2" d="M33.04,41.6"/>
      </g>
    </symbol>
  </defs>
  <g id="_Абдулинскаяштука" data-name="Абдулинскаяштука">
    <use width="33.04" height="53.32" transform="translate(-.01 0) scale(1.03 .99)" xlink:href="#_Дерево4"/>
  </g>
</svg>