<?xml version="1.0" encoding="UTF-8"?>
<svg id="_Слой_2" data-name="Слой 2" xmlns="http://www.w3.org/2000/svg" xmlns:xlink="http://www.w3.org/1999/xlink" viewBox="0 0 26.98 48">
  <defs>
    <style>
      .cls-1 {
        fill: #007a42;
      }

      .cls-1, .cls-2, .cls-3, .cls-4, .cls-5, .cls-6, .cls-7 {
        stroke-width: 0px;
      }

      .cls-2 {
        fill: #007c4a;
      }

      .cls-3 {
        fill: #00a059;
      }

      .cls-8 {
        fill: #0f5635;
        stroke: #004327;
      }

      .cls-8, .cls-9 {
        stroke-miterlimit: 10;
      }

      .cls-4 {
        fill: #009a48;
      }

      .cls-5 {
        fill: #00684a;
      }

      .cls-6 {
        fill: #008430;
      }

      .cls-7 {
        fill: #009546;
      }

      .cls-9 {
        fill: #4e2d00;
        stroke: #281b00;
      }
    </style>
    <symbol id="_Дерево5" data-name="Дерево5" viewBox="0 0 26.44 47.88">
      <g>
        <path class="cls-8" d="M13.41,39.45c-2.66-.21-2.57-2.72-7.05-4.9-2.55-1.24-3.48-.87-4.47-2.39-1.55-2.37-.95-5.85-.79-6.79.21-1.24.61-1.62.79-1.76.07-.05.35-.25.79-.25,1.31,0,2.38,1.76,2.38,1.76,0,0-4.79-3.96-4.57-8.05.16-2.81,2.65-4.85,3.18-5.28.61-.5,1.03-.65,1.39-.5.92.38,1.07,2.54,1.19,2.51.23-.05-1.85-7.09.4-10.56,1.35-2.08,3.94-2.4,5.86-2.64,1.04-.13,2.19-.26,3.47.38.53.26.6.42,1.98,1.26.96.58,1.49.61,2.18,1.26.21.19.55.55.99,1.26.7,1.12,2.32,3.71,2.18,6.54-.14,2.99-2.2,5.27-2.18,5.28.01.01,1.01-2.8,2.18-2.77,1.31.03,2.49,3.61,2.58,6.54.05,1.44.09,3.18-.79,4.27-1.17,1.44-2.84.42-3.77,2.01-.53.91-.33,2.13-.3,2.14.04,0-.09-2.05.69-2.64.88-.66,2.87.53,3.57,2.51.77,2.18-.34,4.42-.4,4.53-.87,1.68-2.13,1.85-5.06,3.14-5.1,2.25-4.77,3.28-6.45,3.14Z"/>
        <path class="cls-9" d="M12.72,21.98c.29,2.83.45,4.36.4,6.03-.07,2.15-.42,1.85-.6,4.53-.09,1.41,0,1.44,0,5.03,0,2.32-.05,3.45-.2,4.78-.22,1.89-.37,2.85-.99,3.52-.99,1.06-2.58.76-2.58,1.01,0,.06.1.13.6.25.95.23,1.71.25,2.18.25.52,0,.68,0,1.79,0,1.16,0,1.05,0,1.39,0,1.3-.01,2.76-.03,2.78-.25,0-.06-.12-.12-.4-.25-1.07-.51-1.61-.77-1.79-1.01-.16-.22-.28-.81-.4-2.01-.06-.59-.14-1.17-.2-1.76-.28-2.7-.41-2.58-.4-3.52.02-1.31.27-1.36.2-2.51-.06-1.02-.26-1.07-.4-2.26-.09-.79-.06-1.46,0-2.77.05-1.04.1-1.38.2-2.77.15-1.96.22-2.94.2-3.52-.02-.52-.06-.74-.6-3.77-.54-3.04-.58-3.25-.6-3.77-.06-2.26.55-3.7.4-3.77-.16-.08-.97,1.41-1.19,3.27-.09.78-.06,1.44,0,2.77.06,1.19.15,2.06.2,2.51Z"/>
        <path class="cls-2" d="M16.49,6.64c.23,1.06.18.97.4,2.01.36,1.7.48,1.89.4,2.26-.08.35-.39,1.08-1.98,1.51-.46-.21-1.09-.39-1.7-.08-1.15.57-1.16,2.47-1.96,2.49-.75.02-.9-2.2-1.96-2.49-1.15-.32-2.32,1.95-2.71,1.59-.28-.25.41-1.25.2-2.77-.1-.74-.1-1.72-.6-2.51-.14-.23-.29-.4-.4-.75-.09-.3-.12-.67,0-1.51.13-.89.18-1.36.4-1.76.53-.96,1.35-1.28,1.98-1.51,1.58-.58,1.96.12,3.18-.5,1.08-.55,1.09-1.28,1.79-1.26,1.38.04,2.19,2.24,2.38,2.77.14.39.29,1.1.6,2.51Z"/>
        <path class="cls-7" d="M23.63,17.2c1.21.8,1.54,4.5.4,5.78-.99,1.11-2.26-.5-4.21.43-2.14,1.02-2.02,3.91-3.58,4.07-2.77.28-5.68-4.34-5.46-7.32,0,0,.26-3.46,5.11-6.91.05-.04.21-.14.39-.41.18-.27.36-.7.39-.81.31-1-1.76-6.48-.98-7.66.62-.94,3.44.25,5.16,2.51.61.8,1.7,2.24,1.59,4.02-.11,1.63-1.17,2.53-1.98,4.53-.14.35-.27.72-.6,1.01-.31.27-.65.34-.65.55,0,.15.16.28.22.32.75.55,3.09-.85,4.21-.11Z"/>
        <path class="cls-5" d="M24.63,32.29c-1.07,3.29-6.62,3.39-9.79,3.44-1.42.02-2.57-.08-3.31-.17-.46-.06-1.16-.2-1.98-.5-1.01-.38-1.7-.83-1.98-1.01-2.74-1.69-4.54-.44-5.76-2.01-1.39-1.79-.96-5.9.2-6.54.88-.49,1.48,1.43,3.18,1.51,2.33.11,2.98-3.43,5.77-3.54,1.26-.05,2.39.62,2.72.81.84.5,1.24,1.01,2.2,2.07,2.18,2.39,3.28,3.59,4,3.68,1.88.25,2.88-2.38,3.97-1.76.82.47,1.28,2.53.79,4.02Z"/>
        <path class="cls-1" d="M15.09,24.7c-.99.16-.76,3.02-2.51,4.47-1.34,1.1-3.31.61-4.54-.37-1.36-1.08-1.01-2.18-2.67-4.81-1.87-2.96-3.02-2.68-3.57-4.78-.53-1.99-.18-4.8,1.19-5.78.05-.04,1.01-.7,1.98-.25,1.26.58,1.33,2.43,2.18,2.51.73.07.74-1.28,1.79-1.76,1.6-.74,3.37,1.59,5.16,1.26.12-.02.41-.09.79,0,.64.15,1.05.61,1.39,1.01,1.08,1.26,1.45,2.78,1.57,3.31.12.51.17.95.2,1.24.5.58,1.41,1.81,1.78,3.71.48,2.52-.14,5.53-.99,5.69-1.23.23-2.34-5.67-3.76-5.44Z"/>
        <path class="cls-6" d="M19.96,23.86c.29,1.85.93,5.87-.3,6.66-.52.34-1.05.02-2.18-.5-1.26-.58-3.06-1.33-5.36-2.01-.24.17-.95.61-1.59.25-.37-.21-.47-.6-.99-1.51-.02-.03-.34-.52-.99-1.51-1.99-3.02-3.29-3.7-3.37-5.28-.08-1.47.93-2.89,1.79-3.52,1.68-1.24,4.14-.5,4.96-.25.6.18,1.46.52,2.58.25.52-.12.93-.34,1.19-.5.35.02.87.12,1.39.5.66.48,1.04,1.21,1.59,2.77.66,1.87,1.02,2.9,1.29,4.65Z"/>
        <path class="cls-4" d="M17.88,21.73c.9,1.82.55,3.87.44,4.53-.5,2.94-2.25,4.53-2.52,4.77-2.37,2.09-5.87,1.97-6.45.51-.42-1.06.9-2.32.37-3.6-.48-1.16-1.77-.68-2.35-1.93-.52-1.12-.04-2.69.4-3.52.07-.14,1.04-1.92,2.18-1.76.8.11,1.1,1.09,2.09,1.11.56,0,.88-.13.88-.13.27-.1.36-.2.77-.34.21-.07.37-.06.44-.06.79-.06,1.3-1.23,1.97-1.34.85-.14,1.66,1.5,1.79,1.76Z"/>
        <path class="cls-3" d="M17.68,11.58c-.03,1.53-2.44,1.97-2.32,2.72.06.41.58.39,1.35,1.18.24.24,1.08,1.11,1.17,1.96.16,1.63-2.43,3.8-4.96,4.27-1.01.19-3.12.59-4.76-1.26-1.14-1.29-2.18-3.79-1.39-6.29.63-2,2.22-3.34,4.03-3.4.3-.25.66-.65.7-1.19.02-.27-.08-.38-.08-.61,0-.78.74-1.81,1.7-2,1.01-.2,1.76.62,1.86.73.04.04.11.11.17.2.23.36.11.68.21.93.18.43.8.18,1.35.5.65.37.98,1.4.97,2.23Z"/>
      </g>
    </symbol>
  </defs>
  <g id="_Абдулинскаяштука" data-name="Абдулинскаяштука">
    <use width="26.44" height="47.88" transform="translate(-.01 0) scale(1.02 1)" xlink:href="#_Дерево5"/>
  </g>
</svg>