<?xml version="1.0" encoding="UTF-8"?>
<svg id="_Слой_2" data-name="Слой 2" xmlns="http://www.w3.org/2000/svg" xmlns:xlink="http://www.w3.org/1999/xlink" viewBox="0 0 28.54 56.44">
  <defs>
    <style>
      .cls-1 {
        fill: #155c00;
      }

      .cls-1, .cls-2, .cls-3, .cls-4, .cls-5, .cls-6 {
        stroke-width: 0px;
      }

      .cls-7 {
        fill: #200c00;
        stroke: #050100;
      }

      .cls-7, .cls-8, .cls-9, .cls-10, .cls-11, .cls-12, .cls-13, .cls-14, .cls-15 {
        stroke-linecap: round;
        stroke-miterlimit: 10;
      }

      .cls-8 {
        fill: #1d5600;
      }

      .cls-8, .cls-9, .cls-10, .cls-11, .cls-12, .cls-13, .cls-14, .cls-15 {
        stroke: #004615;
      }

      .cls-2 {
        fill: #3d7f00;
      }

      .cls-3 {
        fill: #51ab00;
      }

      .cls-9 {
        fill: #316f00;
      }

      .cls-10 {
        fill: #5aa800;
      }

      .cls-4 {
        fill: #257800;
      }

      .cls-11 {
        fill: #0f4e00;
      }

      .cls-5 {
        fill: #519700;
      }

      .cls-12 {
        fill: #4e8a00;
      }

      .cls-13 {
        fill: #519200;
      }

      .cls-14 {
        fill: #477c00;
      }

      .cls-6 {
        fill: #5abc00;
      }

      .cls-15 {
        fill: #256400;
      }
    </style>
    <symbol id="_Дерево3" data-name="Дерево3" viewBox="0 0 51.64 100">
      <g>
        <path class="cls-7" d="M25.28,37.25c-2.09,17.85-3.62,31.4-4.3,39.88-.36,4.49-1.38,10.47-3.19,17.98-.44,1.84-.85,3.35-1.13,4.38h16.12c-.6-9.12-1.45-18.82-2.64-29.02-1.39-11.94-3.06-23.04-4.87-33.23Z"/>
        <path class="cls-11" d="M8.6,59.59c-5.9,3.78-8.75,13.69-7.98,14.85.48.72,2.32-1.94,4.15-.76,1.56,1.01,1.19,3.58,2.59,4.54,2.05,1.41,3.98-3.27,6.74-2.27,2.16.79,2.08,4.07,4.15,4.54,2.25.51,3.06-3.22,5.7-3.03,2.16.15,2.37,2.7,4.66,3.03,2.52.36,2.9-2.62,5.7-3.03,3.66-.54,5.24,4.24,8.07,2.83,1.61-.8,1.35-2.48,3.33-3.59,2.57-1.44,4.42.62,5.18-.76.82-1.48-.63-5.07-1.59-7.44-1.25-3.1-2.5-6.2-4.9-8.04-2.04-1.58-3.77-1.36-7.81-1.05-3.62.28-7.25.43-10.88.65-11.27.7-12.52-3.44-17.13-.49Z"/>
        <path class="cls-1" d="M9.49,63.84c2.27,1.84,4.26.38,5.42,1.71,1.49,1.71-.08,6.01-1.63,7.99-.41.52-.86.94-1.08,1.14-1.07.97-2.3,2.1-3.25,1.71-.75-.3-1.01-1.4-1.08-1.71-.3-1.23.28-1.79,0-2.28-.72-1.25-5.21,1.15-5.96,0-.6-.91,1.4-3.72,2.71-5.14.52-.56.66-.6,1.08-1.14,1.42-1.8,1.4-3.26,2.17-3.42.53-.11.85.51,1.63,1.14Z"/>
        <path class="cls-8" d="M8.92,53.23c-1.1,1.03-1.92,2.45-3.11,4.54-1.08,1.9-2.5,4.38-2.07,5.3.47,1.01,2.52-1.35,4.66,0,1.52.95,1.43,2.73,2.74,3.11,1.68.49,2.53-2.19,3.99-1.6,1.43.58,1.28,3.41,2.59,3.79,1.54.44,2.95-3.1,4.15-2.27.37.26.27.63.7.98.91.74,1.83-.54,3.44-.98,1.69-.46,3.15.27,3.81.59,1.94.96,2.11,2.3,3.16,2.1,1.2-.22,1.21-1.87,3.03-3.19.57-.41,1.75-1.28,3.09-.92,1.63.43,2.23,2.55,3.16,2.1.51-.24.46-.88,1-1.57,1.59-2.03,4.67.34,5.03-.63.2-.54-.63-1.68-1.55-3.03-3.84-5.63-3.82-7.17-5.7-8.33-.78-.48-1.39-.59-4.32-.55-4.88.07-6.85.42-9.32.5-1.53.05-4.48-.28-10.4-.96-4.3-.49-6.17-.8-8.1,1Z"/>
        <path class="cls-15" d="M8.86,54.66c.63.27.42,1.79,1.04,2.28.8.63,1.6-1.5,3.12-1.52,1.67-.02,2.09,2.52,3.64,2.28,1.2-.19,1.49-1.79,2.6-1.52.47.11,1.2.59,1.56,1.52.26.66.18,1.21.52,1.52.14.13.38.25,1.04,0,.85-.32,1.53-.93,2.08-1.52.96-1.03,1.25-1.7,1.56-1.52.25.14.16.62.52,1.52.12.31.46,1.14,1.04,1.52.14.09.43.25,1.56,0,1.08-.24,1.62-.36,2.08-.76,1.06-.92.9-2.13,1.56-2.28.37-.09,1.12.7,2.6,2.28.51.54.72.78,1.04.76.57-.03.75-.81,1.56-1.52.33-.29.92-.81,1.56-.76,1.33.1,1.89,2.58,2.6,2.28.61-.25.58-2.24,1.04-2.28.34-.03.41,1.04,1.04,1.52.73.57,1.95,0,2.08-.76.11-.65-.64-1.07-2.08-3.04-1.13-1.55-2.03-2.89-2.6-3.8-1.77-2.83-1.86-3.67-2.6-3.8-1.07-.2-1.32,1.48-3.12,2.28-.79.35-1.75.14-3.64,0-2.12-.15-2.04-.54-4.16-.76-.75-.08-.59-.01-4.68,0-1.04,0-2.08,0-3.12,0h-3.64c-2.19,0-3.09.84-3.64,0-.52-.8-.1-1.94-.52-2.28-.26-.21-.68.02-3.64,3.8,0,0-.88,1.07-2.08,3.04-1.04,1.7-1.12,2.07-1.04,2.28.2.51,1.42.05,1.56,0,.95-.36,1.16-.94,1.56-.76Z"/>
        <path class="cls-4" d="M32.26,49c1.79-.78,4.35.34,4.88.57.25.11.65.29,1.08.57,2.93,1.92,3.91,6.44,3.25,6.85-.51.32-1.73-2.06-3.25-1.71-1.11.25-1.25,1.68-2.17,1.71-1.12.03-1.43-2.08-2.71-2.28-1.53-.24-2.6,2.55-3.25,2.28-.92-.38-.82-6.68,2.17-7.99Z"/>
        <path class="cls-9" d="M14.58,38.69c-.43-.69-.46-.74-.52-.76-.48-.18-1.26,2.21-1.56,3.04-1.7,4.76-4.59,6.88-4.3,7.47.21.43,1.47-1.14,2.76-.45,1.03.56.78,2,1.71,2.54,1.36.78,2.66-1.86,4.49-1.32,1.44.43,1.37,2.28,2.74,2.53,1.49.27,2.04-1.83,3.8-1.74,1.44.07,1.57,1.5,3.09,1.67,1.67.19,1.94-1.49,3.8-1.74,2.44-.32,3.47,2.35,5.36,1.54.79-.34.91-.94,1.45-1.49.27-.27.5-.4.78-.55,1.38-.71,3.03.56,3.44-.11.2-.32.16-1.21-1.04-3.8-.35-.51-.69-1.01-1.04-1.52-.8-1.66-1.27-2.55-1.56-3.04-.25-.42-.38-.65-.52-1.08-.19-.56-.16-.83-.52-1.2-1.08-1.11-2.47.25-4.77,1.08-1.02.37-3.09.39-12.1.33,0,0-4.27.59-5.01-.63-.02-.03-.18-.29-.49-.79Z"/>
        <path class="cls-2" d="M16.53,47.86c-1.51-.05-2.36,1.62-3.25,1.14-.59-.32-.34-1.11-1.08-1.71-.9-.72-2.03-.19-2.17-.57-.17-.48,1.75-1,2.71-2.85.83-1.61.42-3.23,1.08-3.42.31-.09.54.23,1.08.57.4.25,1.02.53,3.25.57,3.22.06,3.21-.45,4.34,0,.76.3,1.35.79,2.17.57.64-.17.7-.59,1.08-.57.73.03.95,1.59,2.17,5.14.61,1.77,1.02,2.76.54,3.42-.22.3-.65.57-1.08.57-.51,0-.87-.37-1.08-.57-.72-.67-2.18-1.72-3.25-1.71-1.32.01-1.43,1.63-2.71,1.71-1.58.1-2.03-2.23-3.8-2.28Z"/>
        <path class="cls-14" d="M14.58,32.61c-.48.35-.43.57-2.69,4.48-1.08,1.87-1.65,2.77-1.45,3.14.33.59,1.75-.81,3.23-.03,1.05.55.98,1.6,1.89,1.82,1.16.28,1.76-1.31,2.77-.96.99.34.87,2,1.78,2.22,1.07.25,2.05-1.85,2.88-1.36.26.15.19.37.48.58.63.43,1.27-.33,2.39-.6,1.17-.28,2.18.14,2.63.33,1.34.56,1.45,1.34,2.19,1.22.83-.14.84-1.11,2.11-1.9.39-.25,1.22-.76,2.14-.56,1.13.24,1.54,1.49,2.19,1.22.07-.03.13-.07.18-.12.31-.31.38-.64.52-.81.41-.51,1.47.81,1.74.46.24-.31-.3-1.7-.52-2.28-.11-.28-.59-1.52-1.56-3.04-.53-.83-.79-1.24-1.04-1.52-.51-.57-.96-.86-1.04-1.52-.05-.42.09-.63,0-.76-.21-.3-1.05.71-2.07,1.3-.78.45-1.26.02-2.51.09-1.7.09-2.73.21-3.94.26-1.85.07-4.35.26-7.19-.51-3.13-.85-3.83-2.05-5.08-1.14Z"/>
        <path class="cls-5" d="M25.21,34.17c.96.11,1.32-1.01,2.17-1.14,2.4-.37,5.1,7.73,4.34,8.56-.04.05-.25.24-.54.57-.35.4-.39.52-.54.57-.33.12-.68-.25-1.08-.57-.27-.22-1.09-.88-2.17-1.14-.64-.15-1.39-.33-2.17,0-.56.24-.62.51-1.08.57-.7.09-.96-.48-1.63-.57-1.13-.15-1.8,1.32-2.17,1.14-.89-.41,1.48-9.3,3.25-9.13.58.06.75,1.04,1.63,1.14Z"/>
        <path class="cls-12" d="M14.24,32.89c.4.18.27,1.2.67,1.53.51.42,1.02-1,2-1.02,1.07-.02,1.34,1.69,2.33,1.53.77-.12.96-1.2,1.67-1.02.3.08.77.4,1,1.02.16.44.12.81.33,1.02.09.09.24.17.67,0,.55-.22.98-.62,1.33-1.02.61-.69.8-1.14,1-1.02.16.09.1.42.33,1.02.08.21.3.77.67,1.02.09.06.28.17,1,0,.69-.16,1.04-.24,1.33-.51.68-.62.58-1.42,1-1.53.24-.06.72.47,1.67,1.53.32.36.46.52.67.51.36-.02.48-.54,1-1.02.21-.19.59-.54,1-.51.85.06,1.21,1.73,1.67,1.53.39-.17.37-1.5.67-1.53.22-.02.27.7.67,1.02.47.38,1.25,0,1.33-.51.07-.44-.41-.72-1.33-2.04-.73-1.04-1.3-1.94-1.67-2.55-.97-1.62-1.15-2.26-1.48-2.47-.04-.03-.09-.04-.19-.07-1.47-.53-2.8-.5-2.87-.5-1.07.03-1.19.28-1.56,0-.31-.23-.54-.64-1.04-.76-.23-.06-.37-.09-.52,0-.62.36-.48,2.1-1.01,2.28-.06.02-.12,0-.23-.02-.68-.17-.8-1.08-1.36-1.5-.24-.18-.29-.06-1.56,0-.82.04-1.23.05-1.56,0-.97-.16-1.05-.56-2.08-.76-.76-.15-1.14-.22-1.56,0-.6.32-1.1,1.05-1.65.75-.03-.02-.03-.02-.05-.03-.18-.06-.56.27-2.28,2.58,0,0-.56.72-1.33,2.04-.66,1.14-.72,1.39-.67,1.53.13.34.91.04,1,0,.61-.24.74-.63,1-.51Z"/>
        <path class="cls-13" d="M20.3,20.45h-1.04c-.82,0-2.75,3.13-2.75,3.13-1.53,2.47-3.12,3.78-2.98,4.02.14.24,1-.61,1.86-.21.69.32.5,1.1,1.12,1.4.91.44,1.81-.98,3.04-.67.96.25.9,1.26,1.82,1.41,1,.17,1.4-.97,2.58-.9.97.06,1.04.84,2.06.95,1.13.12,1.32-.79,2.58-.9,1.64-.15,2.31,1.32,3.59.9.54-.18.62-.5.99-.79.18-.15.34-.21.53-.29.93-.37,2.04.34,2.32-.02.14-.17.12-.65-.66-2.08-.23-.28-.46-.56-.68-.84-.4-.64-.74-1.21-1.02-1.67,0,0-.55-.94-1.93-3.43h-11.44Z"/>
        <path class="cls-3" d="M22.5,21.04c1.13.43,1.23,3.58.54,5.71-.03.11-.77,2.34-1.63,2.28-.64-.04-.67-1.3-1.63-1.71-1.19-.52-2.43.86-2.71.57-.58-.6,3.55-7.55,5.42-6.85Z"/>
        <path class="cls-10" d="M18.51,21.02c.34.2.12.93.48,1.32.51.55,1.7-.04,2.42-.66.39-.34.58-.64.97-.66.35-.02.8.2.97.66.19.54-.17.96,0,1.32.24.53,1.26.3,1.93,0,1.01-.45,1.02-.98,1.93-1.32.43-.17,1.21-.46,1.93,0,.62.39.68,1,1.45,1.32.25.1.66.28.97,0,.33-.3.16-.78.48-1.32.33-.55.96-.81,1.45-.66.41.13.44.45.97.66.15.06.76.3.97,0,.33-.49-.43-2.48-1.45-3.97-1.36-1.98-2.06-1.46-3.38-3.31-1.39-1.95-1.86-4.28-1.93-4.63-.28-1.44-.08-1.77-.48-3.97-.39-2.15-.79-2.97-.97-3.31-.38-.73-1.07-2.05-1.93-1.99-.85.06-1.43,1.44-1.93,2.65-.25.61-.25.75-.97,3.31-.64,2.3-.88,3.04-.97,3.31-.37,1.13-.58,1.78-.97,2.65-.24.53-.72,1.54-1.45,2.65-.64.97-.71.85-1.45,1.99-.54.83-.62,1.06-.97,1.32-.69.51-1.12.15-1.45.66-.32.49-.31,1.42,0,1.99.25.46.65.57.97.66.12.03.48.12.97,0,.86-.22,1.13-.86,1.45-.66Z"/>
        <path class="cls-6" d="M28.33,13.02c1.5,4.37,3.55,8.07,2.85,8.59-.47.35-1.48-1.26-3.25-1.14-1.83.13-2.58,1.99-3.25,1.71-.95-.4-.06-4.42.44-9.16.71-6.74.2-10.77.65-10.81.47-.04.4,4.48,2.57,10.81Z"/>
      </g>
    </symbol>
  </defs>
  <g id="_Абдулинскаяштука" data-name="Абдулинскаяштука">
    <use width="51.64" height="100" transform="translate(.23 .22) scale(.54 .56)" xlink:href="#_Дерево3"/>
  </g>
</svg>