<?xml version="1.0" encoding="UTF-8"?>
<svg id="_Слой_2" data-name="Слой 2" xmlns="http://www.w3.org/2000/svg" xmlns:xlink="http://www.w3.org/1999/xlink" viewBox="0 0 15.97 9.99">
  <defs>
    <style>
      .cls-1 {
        fill: gray;
        stroke: #5c5c5c;
        stroke-miterlimit: 10;
      }

      .cls-2 {
        fill: #aeacac;
      }

      .cls-2, .cls-3 {
        stroke-width: 0px;
      }

      .cls-3 {
        fill: #ccc;
      }
    </style>
    <symbol id="_Камень" data-name="Камень" viewBox="0 0 15.52 9.93">
      <g>
        <path class="cls-1" d="M3.89.79c-.28.09-2.79.93-3.3,2.77C-.01,5.75,2.69,7.77,2.99,7.99c2.88,2.15,6.59,1.31,7.5,1.11.98-.22,4.11-.92,4.5-2.77.25-1.19-.77-2.3-1.2-2.77-.75-.81-2-1.28-4.5-2.22-1.88-.7-2.81-.9-3.9-.83-.79.05-1.36.23-1.5.28Z"/>
        <path class="cls-2" d="M2.69,2.18c-.39.28-.53.46-.6.55-.18.24-.26.46-.3.55-.3.8-.02,1.61,0,1.66.23.63.67.99,1.5,1.66.48.39.89.64,1.2.83.72.44,1.21.64,1.35.69.4.16.6.23.9.28,0,0,.28.04,1.2,0h0c1.18,0,1.2,0,1.2,0,1.11-.07,2.33-1.17,2.57-2.35.04-.21.23-1.14-.32-1.66-.16-.15-.48-.37-2.6-.55-.4-.03-.64.02-.99-.07-.2-.05-.5-.13-.76-.35-.02-.02-.03-.02-.3-.28-.29-.27-.29-.26-.3-.28-.32-.32-.08-.72-.3-1.11-.29-.5-1.11-.55-1.2-.55-.44-.02-.75.13-1.35.42-.43.21-.72.42-.9.55Z"/>
        <path class="cls-3" d="M6.61,4.12c.46.71-1.68,1.73-1.34,2.47.15.32.71.48,1.67.74.41.11.82.23,1.34.25,1.06.04,1.32-.35,3-.74,1.3-.3,1.6-.17,2-.49.57-.46.56-1.23.33-1.73-.19-.43-.57-.7-1.34-1.24-.62-.44-.93-.65-1.34-.74-.68-.15-.77.13-2.34.25-.66.05-1.1.02-1.67.25-.25.1-.63.25-.67.49-.03.21.22.31.33.49Z"/>
      </g>
    </symbol>
  </defs>
  <g id="_Абдулинскаяштука" data-name="Абдулинскаяштука">
    <use width="15.52" height="9.93" transform="translate(-.02 0) scale(1.03 1.01)" xlink:href="#_Камень"/>
  </g>
</svg>