<?xml version="1.0" encoding="UTF-8"?>
<svg id="_Слой_2" data-name="Слой 2" xmlns="http://www.w3.org/2000/svg" xmlns:xlink="http://www.w3.org/1999/xlink" viewBox="0 0 22 20.01">
  <defs>
    <style>
      .cls-1 {
        fill: #215400;
      }

      .cls-1, .cls-2, .cls-3, .cls-4, .cls-5 {
        stroke-width: 0px;
      }

      .cls-2 {
        fill: #378d00;
      }

      .cls-3 {
        fill: #067400;
      }

      .cls-4 {
        fill: #72ad00;
      }

      .cls-5 {
        fill: #558d00;
      }

      .cls-6 {
        fill: #4e2d00;
        stroke: #281b00;
        stroke-miterlimit: 10;
      }
    </style>
    <symbol id="_Куст2" data-name="Куст2" viewBox="0 0 21.79 20.47">
      <g>
        <path class="cls-6" d="M10.5,16.59c-.07.69-.06.94-.25,1.32-.3.61-.81.97-1,1.1-.96.63-2.01.55-2.01.66,0,.16,2.08.21,2.76.22,1.64.03,1.59-.05,2.76,0,1.19.05,1.96.15,2.01,0,.06-.2-1.27-.38-1.76-1.32-.15-.3-.19-.61-.25-1.1-.05-.44-.09-.74,0-1.1.16-.66.55-.77.5-1.1-.09-.63-1.61-1.26-2.26-.88-.29.18-.37.85-.5,2.2Z"/>
        <path class="cls-1" d="M14.8,11.24c.39,2.31-.47,5.2-2.17,5.68-.86.25-1.35-.3-4.01-.66-1.89-.26-1.98-.03-3.01-.22C3.24,15.6.27,13.77.01,11.24c0-.1-.2-2.26,1.33-3.33,1.14-.8,2.15-.23,3.76-1.1,1.53-.83,1.33-1.73,2.3-2.04,2.12-.69,6.71,2.5,7.39,6.48Z"/>
        <path class="cls-3" d="M21.78,12.41c.28,2.41-6.15,4.32-6.89,4.29-.02,0-.12,0-.25,0-.54.02-.93.19-1,.22-.56.22-3.53.41-4.77-.88-.93-.97.53-2.03-.2-3.63-.74-1.62-2.63-1.7-2.56-2.31.17-1.32,9.16-2.76,14.3.66.9.6,1.31,1.1,1.37,1.65Z"/>
        <path class="cls-3" d="M21.78,12.41c.28,2.41-6.15,4.32-6.89,4.29-.02,0-.12,0-.25,0-.54.02-.93.19-1,.22-.56.22-3.53.41-4.77-.88-.93-.97.53-2.03-.2-3.63-.68-1.5-2.3-1.4-2.56-2.31-.66-2.35,8.49-8.18,12.79-5.94,1.17.61,2.29,1.98,2.01,3.08-.38,1.48-3.2,2.03-3.01,2.64.12.39,1.3.13,2.51.88.18.11,1.27.75,1.37,1.65Z"/>
        <path class="cls-2" d="M9.62,6.15c1.75,2.76,3.66,3.04,3.51,4.4-.15,1.34-2.15,2.38-3.76,2.64-2.77.44-5.33-1.33-6.52-3.08-1.42-2.08-1.74-5.38.34-6.98,1.06-.82,2.89-1.3,4.18-.72,1.24.56.92,1.64,2.26,3.74Z"/>
        <path class="cls-5" d="M20.15,7.69c-.97,1.45-4.98.22-6.27,2.2-.81,1.24.34,2.46-.5,3.08-1.24.91-4.79-.23-6.52-2.42-1.92-2.43-.91-5.29-.75-5.72C7,2.44,9.58.06,12.76,0c5.1-.09,8.61,5.88,7.4,7.69Z"/>
        <path class="cls-4" d="M19.4,7.91c-.53,1.09-1.73,1.09-1.76,1.76-.04,1.04,2.87,1.35,3.01,2.64.11,1.01-1.38,1.9-2.26,2.42-1.4.83-2.7,1.01-5.02,1.32-.39.05-1,.12-1.76,0-.63-.1-1.43-.23-1.76-.66-.71-.95,1.72-2.33,1.5-4.18-.22-1.88-2.92-1.94-3.51-3.96-.56-1.92,1.04-4.75,3.76-5.5,2.88-.79,5.45,1.18,5.77,1.43.9.7,1.36,1.4,1.5,1.65.28.48,1.08,1.87.5,3.08Z"/>
      </g>
    </symbol>
  </defs>
  <g id="_Абдулинскаяштука" data-name="Абдулинскаяштука">
    <use width="21.79" height="20.47" transform="scale(1.01 .98)" xlink:href="#_Куст2"/>
  </g>
</svg>