<?xml version="1.0" encoding="UTF-8"?>
<svg id="_Слой_2" data-name="Слой 2" xmlns="http://www.w3.org/2000/svg" xmlns:xlink="http://www.w3.org/1999/xlink" viewBox="0 0 20.01 20.99">
  <defs>
    <style>
      .cls-1 {
        fill: #007a42;
      }

      .cls-1, .cls-2, .cls-3, .cls-4, .cls-5 {
        stroke-width: 0px;
      }

      .cls-6 {
        fill: #0f5635;
        stroke: #004327;
      }

      .cls-6, .cls-7 {
        stroke-miterlimit: 10;
      }

      .cls-2 {
        fill: #067400;
      }

      .cls-3 {
        fill: #009a48;
      }

      .cls-4 {
        fill: #00684a;
      }

      .cls-5 {
        fill: #008430;
      }

      .cls-7 {
        fill: #4e2d00;
        stroke: #281b00;
      }
    </style>
    <symbol id="_Куст1" data-name="Куст1" viewBox="0 0 20.32 20.41">
      <g>
        <path class="cls-7" d="M10.27,16.54c.06.69.06.93.23,1.32.27.61.73.97.91,1.1.88.63,1.83.54,1.83.66,0,.16-1.89.21-2.51.22-1.5.03-1.44-.05-2.51,0-1.08.05-1.78.15-1.83,0-.06-.2,1.16-.38,1.6-1.32.14-.3.17-.61.23-1.1.05-.44.08-.73,0-1.1-.15-.66-.5-.76-.46-1.1.08-.63,1.46-1.26,2.05-.88.27.17.33.85.46,2.19Z"/>
        <path class="cls-6" d="M6.36,11.21c-.36,2.3.43,5.18,1.97,5.66.78.24,1.23-.3,3.65-.66,1.72-.25,1.8-.03,2.74-.22,2.15-.44,4.85-2.26,5.09-4.79,0-.1.18-2.26-1.21-3.33-1.04-.8-1.96-.23-3.42-1.1-1.39-.83-1.21-1.73-2.09-2.04-1.93-.68-6.1,2.49-6.72,6.46Z"/>
        <path class="cls-2" d="M0,12.38c-.26,2.4,5.6,4.3,6.27,4.28.01,0,.11,0,.23,0,.49.02.85.19.91.22.51.22,3.21.41,4.34-.88.84-.97-.48-2.02.18-3.62.67-1.62,2.4-1.69,2.33-2.3-.15-1.31-8.33-2.75-13.01.66C.44,11.33.07,11.83,0,12.38Z"/>
        <path class="cls-4" d="M0,12.38c-.26,2.4,5.6,4.3,6.27,4.28.01,0,.11,0,.23,0,.49.02.85.19.91.22.51.22,3.21.41,4.34-.88.84-.97-.48-2.02.18-3.62.62-1.5,2.09-1.39,2.33-2.3.6-2.34-7.72-8.16-11.64-5.92-1.06.61-2.08,1.97-1.83,3.07.35,1.48,2.91,2.03,2.74,2.63-.11.39-1.18.13-2.28.88-.16.11-1.15.75-1.25,1.64Z"/>
        <path class="cls-1" d="M11.07,6.13c-1.59,2.75-3.33,3.03-3.19,4.38.14,1.33,1.96,2.38,3.42,2.63,2.52.43,4.85-1.33,5.93-3.07,1.29-2.08,1.59-5.36-.3-6.96-.97-.82-2.63-1.3-3.8-.71-1.13.56-.84,1.63-2.05,3.73Z"/>
        <path class="cls-5" d="M1.48,7.67c.88,1.45,4.53.22,5.7,2.19.74,1.24-.31,2.46.46,3.07,1.13.91,4.36-.23,5.93-2.41,1.75-2.42.83-5.27.68-5.7C13.45,2.43,11.1.06,8.21,0,3.58-.09.38,5.86,1.48,7.67Z"/>
        <path class="cls-3" d="M2.17,7.88c.48,1.09,1.57,1.08,1.6,1.75.04,1.04-2.61,1.34-2.74,2.63-.1,1.01,1.26,1.89,2.05,2.41,1.27.83,2.46,1,4.56,1.32.36.05.91.12,1.6,0,.57-.1,1.3-.23,1.6-.66.65-.94-1.56-2.33-1.37-4.17.2-1.88,2.66-1.94,3.19-3.95.51-1.91-.94-4.73-3.42-5.48-2.62-.79-4.95,1.18-5.25,1.43-.82.69-1.24,1.39-1.37,1.64-.25.48-.99,1.86-.46,3.07Z"/>
      </g>
    </symbol>
  </defs>
  <g id="_Абдулинскаяштука" data-name="Абдулинскаяштука">
    <use width="20.32" height="20.41" transform="scale(.98 1.03)" xlink:href="#_Куст1"/>
  </g>
</svg>